<svg width="1585" height="896" viewBox="0 0 1585 896" fill="none" xmlns="http://www.w3.org/2000/svg">
<path d="M298.544 803.922C324.34 838.564 363.069 852.564 403.434 842.094C433.804 834.229 457.072 815.089 473.242 784.587C473.836 783.475 475.139 783.015 476.252 783.549C495.247 792.796 514.725 792.336 534.72 782.168C535.725 781.633 536.951 781.977 537.582 782.973C552.711 807.331 574.716 819.61 603.558 819.722C607.979 819.759 612.702 819.759 617.646 819.759C618.948 819.759 620.174 820.41 620.918 821.522C622.923 824.475 624.005 829.657 625.564 831.996C673.622 905.192 784.615 893.838 826.801 821.717C827.468 820.568 828.806 820.029 830.037 820.452C830.816 820.722 832.452 821.717 834.98 823.443C855.72 837.675 890.141 837.945 913.557 832.345C935.599 827.089 954.594 816.154 970.615 799.624C971.471 798.74 972.958 798.973 973.553 800.084C1007.04 863.727 1081.53 887.857 1147.51 867.945C1176.16 859.312 1199.18 841.629 1216.53 814.889C1217.2 813.852 1218.54 813.587 1219.58 814.238C1232.18 822.331 1246.71 825.591 1261.1 821.796C1267.71 820.033 1271.5 819.033 1272.51 818.843C1273.81 818.573 1275.11 819.187 1275.74 820.377C1307.52 877.192 1377.47 894.15 1434.5 869.289C1454.68 860.466 1476.13 843.433 1485.19 822.717C1485.94 821.029 1486.65 819.647 1487.35 818.573C1488.09 817.498 1489.39 817.075 1490.58 817.499C1537.01 834.801 1594.92 816.117 1609.86 764.368C1610.16 763.331 1611.23 762.796 1612.2 763.177C1652.98 779.48 1683.34 737.744 1677.21 699.498C1674.02 679.702 1661.82 678.167 1643.28 678.167C1161.48 678.13 608.065 678.13 -17.0159 678.167C-22.1083 678.167 -24.6726 678.167 -24.7086 678.167C-56.7504 675.06 -55.6688 716.033 -49.6886 735.786C-36.8268 778.293 -8.43088 799.889 35.5038 800.54C42.2682 800.615 47.4372 798.777 53.3814 797.703C54.792 797.475 56.1304 798.317 56.5045 799.698C70.8895 850.145 101.701 881.066 148.871 892.42C212.581 907.727 274.952 869.289 296.584 804.261C296.872 803.382 297.985 803.191 298.544 803.922Z" fill="white"/>
<path d="M298.544 803.922C324.34 838.564 363.069 852.564 403.434 842.094C433.804 834.229 457.072 815.089 473.242 784.587C473.836 783.475 475.139 783.015 476.252 783.549C495.247 792.796 514.725 792.336 534.72 782.168C535.725 781.633 536.951 781.977 537.582 782.973C552.711 807.331 574.716 819.61 603.558 819.722C607.979 819.759 612.702 819.759 617.646 819.759C618.948 819.759 620.174 820.41 620.918 821.522C622.923 824.475 624.005 829.657 625.564 831.996C673.622 905.192 784.615 893.838 826.801 821.717C827.468 820.568 828.806 820.029 830.037 820.452C830.816 820.722 832.452 821.717 834.98 823.443C855.72 837.675 890.141 837.945 913.557 832.345C935.599 827.089 954.594 816.154 970.615 799.624C971.471 798.74 972.958 798.973 973.553 800.084C1007.04 863.727 1081.53 887.857 1147.51 867.945C1176.16 859.312 1199.18 841.629 1216.53 814.889C1217.2 813.852 1218.54 813.587 1219.58 814.238C1232.18 822.331 1246.71 825.591 1261.1 821.796C1267.71 820.033 1271.5 819.033 1272.51 818.843C1273.81 818.573 1275.11 819.187 1275.74 820.377C1307.52 877.192 1377.47 894.15 1434.5 869.289C1454.68 860.466 1476.13 843.433 1485.19 822.717C1485.94 821.029 1486.65 819.647 1487.35 818.573C1488.09 817.498 1489.39 817.075 1490.58 817.499C1537.01 834.801 1594.92 816.117 1609.86 764.368C1610.16 763.331 1611.23 762.796 1612.2 763.177C1652.98 779.48 1683.34 737.744 1677.21 699.498C1674.02 679.702 1661.82 678.167 1643.28 678.167C1161.48 678.13 608.065 678.13 -17.0159 678.167C-22.1083 678.167 -24.6726 678.167 -24.7086 678.167C-56.7504 675.06 -55.6688 716.033 -49.6886 735.786C-36.8268 778.293 -8.43088 799.889 35.5038 800.54C42.2682 800.615 47.4372 798.777 53.3814 797.703C54.792 797.475 56.1304 798.317 56.5045 799.698C70.8895 850.145 101.701 881.066 148.871 892.42C212.581 907.727 274.952 869.289 296.584 804.261C296.872 803.382 297.985 803.191 298.544 803.922Z" fill="url(#paint0_linear_878_48375)"/>
<path d="M0 0H1585V835H0V0Z" fill="url(#paint1_linear_878_48375)"/>
<defs>
<linearGradient id="paint0_linear_878_48375" x1="-53" y1="786.886" x2="1678" y2="786.886" gradientUnits="userSpaceOnUse">
<stop stop-color="#9300D2"/>
<stop offset="1" stop-color="#4B0083"/>
</linearGradient>
<linearGradient id="paint1_linear_878_48375" x1="0" y1="388" x2="1585" y2="388" gradientUnits="userSpaceOnUse">
<stop stop-color="#9300D2"/>
<stop offset="1" stop-color="#4B0083"/>
</linearGradient>
</defs>
</svg>
