<svg width="1585" height="992" viewBox="0 0 1585 992" fill="none" xmlns="http://www.w3.org/2000/svg">
<mask id="mask0_150_35396" style="mask-type:luminance" maskUnits="userSpaceOnUse" x="-5" y="85" width="1623" height="907">
<path d="M1618 85.25H-5V991.277H1618V85.25Z" fill="white"/>
</mask>
<g mask="url(#mask0_150_35396)">
<path opacity="0.6" d="M1702.82 508.783C1687.11 481.991 1657.66 463.205 1623.08 461.475C1569.82 458.809 1524.56 497.607 1521.99 548.132C1521.8 551.741 1521.85 555.31 1522.1 558.83C1510.75 561.116 1500.1 565.304 1490.58 571.053C1472.94 570.277 1456.18 573.924 1441.49 580.973C1432.63 577.897 1423.16 576.002 1413.26 575.507C1380.72 573.878 1351.17 587.727 1332.51 610.269C1298.61 611.891 1268.67 628.834 1250.67 654.249C1245.94 652.461 1240.84 651.352 1235.48 651.084C1216.52 650.135 1199.61 659.806 1191.15 674.615C1190.63 674.206 1190.1 673.802 1189.57 673.402C1175.17 656.836 1153.78 645.824 1129.44 644.605C1086.67 642.465 1049.89 671.322 1043.24 710.476C1028.88 712.638 1016.23 719.957 1007.61 730.465C993.415 716.559 973.877 707.502 951.941 706.404C928.307 705.221 906.503 713.507 890.599 727.763C889.888 727.685 889.171 727.62 888.446 727.584C870.661 726.693 855.442 739.048 853.365 755.559C851.624 755.317 849.856 755.147 848.065 755.058C843.93 754.851 839.882 755.083 835.958 755.687C822.973 727.145 793.789 706.483 758.91 704.737C729.416 703.261 702.601 715.652 685.464 735.901C680.207 734.052 674.575 732.912 668.688 732.618C667.508 732.559 666.337 732.542 665.171 732.551C660.406 721.299 649.099 713.081 635.517 712.402C629.554 712.103 623.883 713.299 618.894 715.635C610.187 709.473 599.54 705.597 587.901 705.014C574.122 704.325 561.256 708.363 551.043 715.632C539.088 683.062 507.295 658.908 468.812 656.982C446.514 655.867 425.694 662.401 409.17 674.164C400.935 662.074 386.921 653.759 370.643 652.944C358.969 652.36 348.06 655.729 339.348 661.814C325.372 635.043 296.979 615.988 263.355 614.305C248.075 613.541 233.507 616.456 220.597 622.23C206.215 596.698 178.507 578.701 145.873 577.069C134.238 576.486 123.014 578.038 112.621 581.36C105.008 563.775 88.1888 550.526 67.6048 547.323C56.2314 514.973 24.9042 490.878 -13.1015 488.976C-43.3992 487.459 -70.9031 500.401 -88.2075 521.441C-91.1549 520.953 -94.146 520.578 -97.1875 520.349C-111.889 519.245 -126.058 521.361 -138.937 526.063V1134.56H1702.82V508.783H1702.82Z" fill="#111827"/>
</g>
<mask id="mask1_150_35396" style="mask-type:luminance" maskUnits="userSpaceOnUse" x="-5" y="35" width="1623" height="907">
<path d="M1618 35.686H-5V941.713H1618V35.686Z" fill="white"/>
</mask>
<g mask="url(#mask1_150_35396)">
<path opacity="0.6" d="M-150.889 1072.39H1754.38V611.175C1747.08 613.25 1740.09 616.063 1733.5 619.524C1731.83 564.426 1686.3 520.268 1630.38 520.268C1573.4 520.268 1527.21 566.111 1527.21 622.662C1527.21 631.067 1528.23 639.232 1530.16 647.049C1526.98 646.711 1523.76 646.534 1520.49 646.534C1496.9 646.534 1475.43 655.556 1459.39 670.304C1444.24 656.695 1424.15 648.403 1402.11 648.403C1360.71 648.403 1326.19 677.639 1318.37 716.441C1314.55 716.004 1310.67 715.772 1306.73 715.772C1286.79 715.772 1268.21 721.519 1252.57 731.432C1236.17 709.634 1209.98 695.519 1180.46 695.519C1163.74 695.519 1148.09 700.051 1134.68 707.937C1118.74 694.334 1098.02 686.109 1075.35 686.109C1056 686.109 1038.07 692.103 1023.32 702.318C1010.87 695.279 996.465 691.255 981.112 691.255C939.771 691.255 905.293 720.411 897.412 759.134C881.949 759.535 867.51 764.016 855.147 771.53C839.473 752.805 815.841 740.876 789.394 740.876C756.093 740.876 727.248 759.782 713.145 787.366C707.287 785.693 701.098 784.794 694.698 784.794C686.521 784.794 678.691 786.26 671.454 788.937C653.637 766.037 625.706 751.285 594.298 751.285C570.122 751.285 548.01 760.033 530.981 774.502C521.586 767.953 511.041 762.92 499.707 759.759C483.405 726.329 448.9 703.273 408.968 703.273C387.108 703.273 366.878 710.185 350.366 721.922C339.992 710.474 324.953 703.273 308.217 703.273C306.347 703.273 304.498 703.366 302.675 703.542C289.003 664.417 251.543 636.325 207.467 636.325C180.636 636.325 156.257 646.736 138.202 663.706C126.505 658.725 113.62 655.965 100.085 655.965C96.1537 655.965 92.2791 656.202 88.4715 656.655C90.9796 647.926 92.3234 638.71 92.3234 629.182C92.3234 573.961 47.2159 529.195 -8.42701 529.195C-53.0108 529.195 -90.8251 557.937 -104.098 597.767C-109.549 603.957 -114.223 610.838 -117.944 618.275C-142.438 636.996 -158.226 666.387 -158.226 699.442C-158.226 712.866 -155.619 725.683 -150.887 737.429V1072.39H-150.889Z" fill="#111827"/>
</g>
<mask id="mask2_150_35396" style="mask-type:luminance" maskUnits="userSpaceOnUse" x="-5" y="0" width="1623" height="907">
<path d="M1618 0H-5V906.027H1618V0Z" fill="white"/>
</mask>
<g mask="url(#mask2_150_35396)">
<path d="M1808.8 1077.04V653.412C1797.59 649.894 1785.56 647.981 1773.04 647.981C1731.85 647.981 1695.94 668.667 1677 699.311C1675.68 699.695 1674.37 700.101 1673.08 700.525C1662.61 660.335 1625.83 630.647 1582.07 630.647C1543.26 630.647 1509.96 653.983 1495.61 687.283C1485.12 683.273 1473.73 681.07 1461.82 681.07C1415.81 681.07 1377.53 713.88 1369.42 757.211C1359.13 749.945 1346.23 745.623 1332.23 745.623C1316.67 745.623 1302.48 750.962 1291.7 759.743C1276.79 747.354 1257 739.804 1235.28 739.804C1206.45 739.804 1181.02 753.107 1165.9 773.371C1161.49 772.742 1156.99 772.411 1152.41 772.411C1138.37 772.411 1125.06 775.469 1113.1 780.943C1093.42 764.429 1067.19 754.347 1038.4 754.347C1005.36 754.347 975.705 767.618 955.435 788.651C953.825 788.578 952.204 788.539 950.573 788.539C946.072 788.539 941.646 788.829 937.309 789.375C934.474 789.074 931.592 788.914 928.669 788.914C889.255 788.914 857.021 817.05 854.596 852.586C853.214 852.518 851.823 852.481 850.422 852.481C819.215 852.481 792.377 869.602 780.487 894.145C775.26 893.226 769.866 892.739 764.347 892.739C763.528 892.739 762.712 892.752 761.898 892.774C748.298 884.161 731.803 879.112 714.017 879.112C702.182 879.112 690.92 881.35 680.699 885.382C680.827 883.604 680.898 881.812 680.898 880.005C680.898 835.327 641.35 799.109 592.564 799.109C583.768 799.109 575.274 800.292 567.255 802.485C561.639 791.731 549.65 784.302 535.764 784.302C524.499 784.302 514.487 789.196 508.108 796.784C489.635 775.929 461.431 762.596 429.822 762.596C410.543 762.596 392.532 767.56 377.221 776.161C363.087 742.384 329.533 718.627 290.383 718.627C245.467 718.627 207.916 749.896 198.61 791.696C188.393 785.341 176.313 781.662 163.366 781.662C157.109 781.662 151.055 782.522 145.314 784.126C145.492 781.784 145.583 779.418 145.583 777.031C145.583 725.513 103.501 683.75 51.5904 683.75C38.5442 683.75 26.1201 686.389 14.8278 691.157C-2.41221 670.464 -28.4765 657.278 -57.6445 657.278C-95.5383 657.278 -128.19 679.536 -143.062 711.594C-143.619 712.193 -144.169 712.797 -144.709 713.409C-157.823 702.214 -175.414 695.361 -194.755 695.361C-214.134 695.361 -231.756 702.241 -244.876 713.475V1077.05H1808.8V1077.04Z" fill="#111827"/>
</g>
</svg>
