<svg width="95" height="120" viewBox="0 0 95 120" fill="none" xmlns="http://www.w3.org/2000/svg">
<g opacity="0.5">
<path d="M77.164 59.5125C77.164 66.8049 82.1388 72.9616 88.8688 74.7648C89.1153 74.8308 89.2911 75.0517 89.2911 75.3068V100.84C89.2911 101.144 89.0444 101.391 88.7401 101.391H60.0792C59.7749 101.391 59.5295 101.638 59.5159 101.942C59.2275 108.386 53.9085 113.515 47.4011 113.515C40.8834 113.515 35.574 108.387 35.2862 101.942C35.2726 101.638 35.0272 101.391 34.7229 101.391H6.06177C5.75745 101.391 5.51074 101.144 5.51074 100.84V75.3068C5.51074 75.0517 5.68658 74.8308 5.93301 74.7648C12.6631 72.9616 17.6379 66.8049 17.6379 59.5125C17.6379 52.2206 12.6631 46.0636 5.93301 44.2604C5.68658 44.1944 5.51074 43.9736 5.51074 43.7184V18.185C5.51074 17.8807 5.75745 17.634 6.06177 17.634H34.7226C35.027 17.634 35.2724 17.3868 35.286 17.0827C35.5738 10.6385 40.8831 5.51031 47.4008 5.51031C53.9082 5.51031 59.2272 10.6385 59.5156 17.0827C59.5292 17.3868 59.7746 17.634 60.0789 17.634H88.7398C89.0441 17.634 89.2908 17.8807 89.2908 18.185V43.7184C89.2908 43.9736 89.115 44.1944 88.8686 44.2604C82.1388 46.0636 77.164 52.2206 77.164 59.5125Z" fill="#985D30"/>
<path d="M77.164 59.5125C77.164 66.8049 82.1388 72.9616 88.8688 74.7648C89.1153 74.8308 89.2911 75.0517 89.2911 75.3068V100.84C89.2911 101.144 89.0444 101.391 88.7401 101.391H60.0792C59.7749 101.391 59.5295 101.638 59.5159 101.942C59.2275 108.386 53.9085 113.515 47.4011 113.515C40.8834 113.515 35.574 108.387 35.2862 101.942C35.2726 101.638 35.0272 101.391 34.7229 101.391H6.06177C5.75745 101.391 5.51074 101.144 5.51074 100.84V75.3068C5.51074 75.0517 5.68658 74.8308 5.93301 74.7648C12.6631 72.9616 17.6379 66.8049 17.6379 59.5125C17.6379 52.2206 12.6631 46.0636 5.93301 44.2604C5.68658 44.1944 5.51074 43.9736 5.51074 43.7184V18.185C5.51074 17.8807 5.75745 17.634 6.06177 17.634H34.7226C35.027 17.634 35.2724 17.3868 35.286 17.0827C35.5738 10.6385 40.8831 5.51031 47.4008 5.51031C53.9082 5.51031 59.2272 10.6385 59.5156 17.0827C59.5292 17.3868 59.7746 17.634 60.0789 17.634H88.7398C89.0441 17.634 89.2908 17.8807 89.2908 18.185V43.7184C89.2908 43.9736 89.115 44.1944 88.8686 44.2604C82.1388 46.0636 77.164 52.2206 77.164 59.5125Z" fill="#FEFAF8"/>
<path d="M47.4004 2.75543C54.6716 2.75543 60.7336 7.97221 62.0273 14.8785H88.7402C90.566 14.8787 92.0459 16.3593 92.0459 18.1851V43.7183C92.0459 45.2682 90.9859 46.5451 89.582 46.9214C84.0238 48.4107 79.919 53.5013 79.9189 59.5123C79.9189 65.5238 84.0235 70.6138 89.582 72.1031C90.9861 72.4793 92.0459 73.7572 92.0459 75.3072V100.84C92.0456 102.666 90.5659 104.146 88.7402 104.146H62.0273C60.7337 111.052 54.6727 116.27 47.4014 116.27C40.1196 116.27 34.0662 111.052 32.7744 104.146H6.06152C4.23584 104.146 2.75612 102.666 2.75586 100.84V75.3072C2.75586 73.7572 3.81568 72.4793 5.21973 72.1031L5.73633 71.9537C11.0309 70.2956 14.8828 65.3361 14.8828 59.5123C14.8827 53.5014 10.7783 48.4107 5.21973 46.9214C3.81579 46.5451 2.75586 45.2682 2.75586 43.7183V18.1851C2.75586 16.3592 4.23569 14.8786 6.06152 14.8785H32.7744C34.0663 7.97324 40.1191 2.75563 47.4004 2.75543Z" stroke="#FFFAF9" stroke-opacity="0.5" stroke-width="5.51031"/>
</g>
</svg>
