<svg width="302" height="126" viewBox="0 0 302 126" fill="none" xmlns="http://www.w3.org/2000/svg">
<g filter="url(#filter0_dd_150_35353)">
<g clip-path="url(#clip0_150_35353)">
<rect x="18.7236" y="-2.30273" width="274.997" height="119.564" fill="#FAB512"/>
<path d="M123.9 35.9996C123.46 35.9996 123.12 35.8863 122.88 35.6596C122.653 35.4196 122.54 35.0796 122.54 34.6396V23.2596C122.54 22.8196 122.653 22.4863 122.88 22.2596C123.12 22.0196 123.46 21.8996 123.9 21.8996H131.04C131.373 21.8996 131.627 21.9863 131.8 22.1596C131.987 22.333 132.08 22.5796 132.08 22.8996C132.08 23.233 131.987 23.493 131.8 23.6796C131.627 23.853 131.373 23.9396 131.04 23.9396H125V27.8196H130.6C130.947 27.8196 131.207 27.9063 131.38 28.0796C131.553 28.253 131.64 28.5063 131.64 28.8396C131.64 29.173 131.553 29.4263 131.38 29.5996C131.207 29.773 130.947 29.8596 130.6 29.8596H125V33.9596H131.04C131.373 33.9596 131.627 34.0463 131.8 34.2196C131.987 34.393 132.08 34.6463 132.08 34.9796C132.08 35.313 131.987 35.5663 131.8 35.7396C131.627 35.913 131.373 35.9996 131.04 35.9996H123.9ZM139.138 36.1996C138.552 36.1996 137.965 36.153 137.378 36.0596C136.792 35.9796 136.238 35.853 135.718 35.6796C135.198 35.493 134.732 35.2663 134.318 34.9996C134.078 34.8396 133.912 34.6463 133.818 34.4196C133.725 34.193 133.692 33.973 133.718 33.7596C133.758 33.533 133.845 33.3396 133.978 33.1796C134.125 33.0063 134.305 32.8996 134.518 32.8596C134.732 32.8196 134.965 32.8796 135.218 33.0396C135.805 33.3863 136.425 33.6396 137.078 33.7996C137.732 33.9596 138.418 34.0396 139.138 34.0396C140.192 34.0396 140.958 33.8663 141.438 33.5196C141.918 33.1596 142.158 32.6996 142.158 32.1396C142.158 31.673 141.985 31.3063 141.638 31.0396C141.305 30.773 140.725 30.553 139.898 30.3796L137.698 29.9196C136.432 29.653 135.485 29.2063 134.858 28.5796C134.245 27.9396 133.938 27.0996 133.938 26.0596C133.938 25.4063 134.072 24.813 134.338 24.2796C134.605 23.7463 134.978 23.2863 135.458 22.8996C135.952 22.513 136.532 22.2196 137.198 22.0196C137.878 21.8063 138.625 21.6996 139.438 21.6996C140.238 21.6996 140.998 21.7996 141.718 21.9996C142.438 22.1996 143.085 22.493 143.658 22.8796C143.872 23.0263 144.012 23.2063 144.078 23.4196C144.158 23.633 144.178 23.8463 144.138 24.0596C144.098 24.2596 144.005 24.433 143.858 24.5796C143.712 24.7263 143.525 24.813 143.298 24.8396C143.085 24.8663 142.838 24.7996 142.558 24.6396C142.065 24.3596 141.565 24.1596 141.058 24.0396C140.552 23.9196 140.005 23.8596 139.418 23.8596C138.805 23.8596 138.278 23.9463 137.838 24.1196C137.398 24.293 137.058 24.5396 136.818 24.8596C136.592 25.1663 136.478 25.533 136.478 25.9596C136.478 26.4396 136.638 26.8263 136.958 27.1196C137.278 27.3996 137.825 27.6196 138.598 27.7796L140.778 28.2396C142.098 28.5196 143.078 28.9596 143.718 29.5596C144.372 30.1596 144.698 30.9596 144.698 31.9596C144.698 32.5996 144.565 33.1796 144.298 33.6996C144.045 34.2196 143.672 34.6663 143.178 35.0396C142.698 35.413 142.118 35.6996 141.438 35.8996C140.758 36.0996 139.992 36.1996 139.138 36.1996ZM148.175 36.1596C147.762 36.1596 147.442 36.0463 147.215 35.8196C147.002 35.5796 146.895 35.253 146.895 34.8396V23.1996C146.895 22.773 147.009 22.453 147.235 22.2396C147.462 22.013 147.782 21.8996 148.195 21.8996H153.015C154.562 21.8996 155.755 22.2863 156.595 23.0596C157.435 23.833 157.855 24.913 157.855 26.2996C157.855 27.6863 157.435 28.773 156.595 29.5596C155.755 30.333 154.562 30.7196 153.015 30.7196H149.455V34.8396C149.455 35.253 149.349 35.5796 149.135 35.8196C148.922 36.0463 148.602 36.1596 148.175 36.1596ZM149.455 28.6996H152.615C153.522 28.6996 154.209 28.4996 154.675 28.0996C155.142 27.6863 155.375 27.0863 155.375 26.2996C155.375 25.513 155.142 24.9196 154.675 24.5196C154.209 24.1196 153.522 23.9196 152.615 23.9196H149.455V28.6996ZM161.222 36.1596C160.809 36.1596 160.489 36.0463 160.262 35.8196C160.049 35.5796 159.942 35.253 159.942 34.8396V23.0596C159.942 22.633 160.049 22.3063 160.262 22.0796C160.489 21.853 160.809 21.7396 161.222 21.7396C161.636 21.7396 161.949 21.853 162.162 22.0796C162.389 22.3063 162.502 22.633 162.502 23.0596V34.8396C162.502 35.253 162.396 35.5796 162.182 35.8196C161.969 36.0463 161.649 36.1596 161.222 36.1596ZM166.867 36.1596C166.454 36.1596 166.134 36.0463 165.907 35.8196C165.694 35.5796 165.587 35.253 165.587 34.8396V23.1996C165.587 22.773 165.7 22.453 165.927 22.2396C166.154 22.013 166.474 21.8996 166.887 21.8996H171.707C173.254 21.8996 174.447 22.273 175.287 23.0196C176.127 23.753 176.547 24.7863 176.547 26.1196C176.547 26.9863 176.354 27.733 175.967 28.3596C175.594 28.9863 175.047 29.4663 174.327 29.7996C173.607 30.133 172.734 30.2996 171.707 30.2996L171.887 29.9996H172.547C173.094 29.9996 173.567 30.133 173.967 30.3996C174.38 30.6663 174.74 31.0863 175.047 31.6596L176.547 34.4396C176.707 34.7196 176.78 34.993 176.767 35.2596C176.754 35.5263 176.654 35.7463 176.467 35.9196C176.28 36.0796 176.007 36.1596 175.647 36.1596C175.287 36.1596 174.994 36.0863 174.767 35.9396C174.54 35.7796 174.34 35.5396 174.167 35.2196L172.147 31.4996C171.907 31.0463 171.62 30.7463 171.287 30.5996C170.967 30.4396 170.554 30.3596 170.047 30.3596H168.147V34.8396C168.147 35.253 168.04 35.5796 167.827 35.8196C167.614 36.0463 167.294 36.1596 166.867 36.1596ZM168.147 28.4596H171.267C172.187 28.4596 172.88 28.273 173.347 27.8996C173.827 27.513 174.067 26.9396 174.067 26.1796C174.067 25.433 173.827 24.873 173.347 24.4996C172.88 24.113 172.187 23.9196 171.267 23.9196H168.147V28.4596ZM180.578 36.1596C180.164 36.1596 179.844 36.0463 179.618 35.8196C179.404 35.5796 179.298 35.253 179.298 34.8396V23.0596C179.298 22.633 179.404 22.3063 179.618 22.0796C179.844 21.853 180.164 21.7396 180.578 21.7396C180.991 21.7396 181.304 21.853 181.518 22.0796C181.744 22.3063 181.858 22.633 181.858 23.0596V34.8396C181.858 35.253 181.751 35.5796 181.538 35.8196C181.324 36.0463 181.004 36.1596 180.578 36.1596ZM189.622 36.1596C189.209 36.1596 188.889 36.0463 188.662 35.8196C188.449 35.5796 188.342 35.253 188.342 34.8396V24.0396H184.442C184.096 24.0396 183.822 23.9463 183.622 23.7596C183.436 23.5596 183.342 23.293 183.342 22.9596C183.342 22.613 183.436 22.353 183.622 22.1796C183.822 21.993 184.096 21.8996 184.442 21.8996H194.802C195.149 21.8996 195.416 21.993 195.602 22.1796C195.802 22.353 195.902 22.613 195.902 22.9596C195.902 23.293 195.802 23.5596 195.602 23.7596C195.416 23.9463 195.149 24.0396 194.802 24.0396H190.902V34.8396C190.902 35.253 190.796 35.5796 190.582 35.8196C190.369 36.0463 190.049 36.1596 189.622 36.1596ZM203.224 36.1996C202.251 36.1996 201.391 36.073 200.644 35.8196C199.911 35.5663 199.291 35.193 198.784 34.6996C198.278 34.193 197.898 33.5663 197.644 32.8196C197.391 32.073 197.264 31.2063 197.264 30.2196V23.0396C197.264 22.5996 197.371 22.273 197.584 22.0596C197.811 21.8463 198.131 21.7396 198.544 21.7396C198.958 21.7396 199.271 21.8463 199.484 22.0596C199.711 22.273 199.824 22.5996 199.824 23.0396V30.1996C199.824 31.4663 200.111 32.4196 200.684 33.0596C201.271 33.6863 202.118 33.9996 203.224 33.9996C204.331 33.9996 205.171 33.6863 205.744 33.0596C206.318 32.4196 206.604 31.4663 206.604 30.1996V23.0396C206.604 22.5996 206.711 22.273 206.924 22.0596C207.151 21.8463 207.471 21.7396 207.884 21.7396C208.284 21.7396 208.591 21.8463 208.804 22.0596C209.031 22.273 209.144 22.5996 209.144 23.0396V30.2196C209.144 31.5263 208.918 32.6263 208.464 33.5196C208.024 34.413 207.364 35.0863 206.484 35.5396C205.604 35.9796 204.518 36.1996 203.224 36.1996ZM212.172 36.1596C211.852 36.1596 211.592 36.0863 211.392 35.9396C211.206 35.793 211.092 35.5996 211.052 35.3596C211.012 35.1063 211.059 34.8263 211.192 34.5196L216.472 22.8196C216.646 22.433 216.852 22.1596 217.092 21.9996C217.346 21.8263 217.632 21.7396 217.952 21.7396C218.259 21.7396 218.532 21.8263 218.772 21.9996C219.026 22.1596 219.239 22.433 219.412 22.8196L224.712 34.5196C224.859 34.8263 224.912 35.1063 224.872 35.3596C224.832 35.613 224.719 35.813 224.532 35.9596C224.346 36.093 224.099 36.1596 223.792 36.1596C223.419 36.1596 223.126 36.073 222.912 35.8996C222.712 35.713 222.532 35.433 222.372 35.0596L221.072 32.0396L222.152 32.7396H213.712L214.792 32.0396L213.512 35.0596C213.339 35.4463 213.159 35.7263 212.972 35.8996C212.786 36.073 212.519 36.1596 212.172 36.1596ZM217.912 24.6796L215.112 31.3396L214.592 30.6996H221.272L220.772 31.3396L217.952 24.6796H217.912ZM228.215 35.9996C227.802 35.9996 227.482 35.8863 227.255 35.6596C227.028 35.4196 226.915 35.093 226.915 34.6796V23.1396C226.915 22.713 227.022 22.393 227.235 22.1796C227.462 21.953 227.782 21.8396 228.195 21.8396C228.608 21.8396 228.922 21.953 229.135 22.1796C229.362 22.393 229.475 22.713 229.475 23.1396V33.8196H235.275C235.635 33.8196 235.908 33.913 236.095 34.0996C236.295 34.2863 236.395 34.553 236.395 34.8996C236.395 35.2463 236.295 35.5196 236.095 35.7196C235.908 35.9063 235.635 35.9996 235.275 35.9996H228.215Z" fill="white"/>
<path d="M126.488 57.1256C125.517 57.1256 124.687 56.9203 123.996 56.5096C123.305 56.099 122.773 55.5156 122.4 54.7596C122.036 54.0036 121.854 53.103 121.854 52.0576C121.854 51.2736 121.957 50.5736 122.162 49.9576C122.377 49.3323 122.68 48.805 123.072 48.3756C123.473 47.937 123.963 47.601 124.542 47.3676C125.121 47.125 125.769 47.0036 126.488 47.0036C127.067 47.0036 127.617 47.0876 128.14 47.2556C128.663 47.4143 129.115 47.6523 129.498 47.9696C129.619 48.063 129.699 48.1703 129.736 48.2916C129.783 48.4036 129.787 48.5156 129.75 48.6276C129.722 48.7303 129.666 48.819 129.582 48.8936C129.507 48.959 129.414 48.9916 129.302 48.9916C129.19 48.9916 129.064 48.945 128.924 48.8516C128.588 48.581 128.219 48.3803 127.818 48.2496C127.417 48.119 126.983 48.0536 126.516 48.0536C125.779 48.0536 125.153 48.2123 124.64 48.5296C124.127 48.8376 123.739 49.2903 123.478 49.8876C123.217 50.485 123.086 51.2083 123.086 52.0576C123.086 52.907 123.217 53.635 123.478 54.2416C123.739 54.839 124.127 55.2963 124.64 55.6136C125.153 55.9216 125.779 56.0756 126.516 56.0756C126.973 56.0756 127.407 56.0103 127.818 55.8796C128.229 55.7396 128.607 55.5343 128.952 55.2636C129.092 55.1703 129.218 55.1283 129.33 55.1376C129.442 55.1376 129.535 55.1703 129.61 55.2356C129.685 55.301 129.736 55.385 129.764 55.4876C129.801 55.5903 129.801 55.6976 129.764 55.8096C129.736 55.9216 129.666 56.0196 129.554 56.1036C129.162 56.4396 128.7 56.6963 128.168 56.8736C127.645 57.0416 127.085 57.1256 126.488 57.1256ZM133.742 57.1256C133.191 57.1256 132.734 57.0276 132.37 56.8316C132.015 56.6263 131.744 56.323 131.558 55.9216C131.38 55.5203 131.292 55.021 131.292 54.4236V50.6716C131.292 50.4756 131.338 50.331 131.432 50.2376C131.534 50.1443 131.674 50.0976 131.852 50.0976C132.038 50.0976 132.178 50.1443 132.272 50.2376C132.374 50.331 132.426 50.4756 132.426 50.6716V54.4096C132.426 55.007 132.547 55.455 132.79 55.7536C133.042 56.043 133.434 56.1876 133.966 56.1876C134.544 56.1876 135.016 55.9916 135.38 55.5996C135.744 55.2076 135.926 54.6943 135.926 54.0596V50.6716C135.926 50.4756 135.972 50.331 136.066 50.2376C136.168 50.1443 136.313 50.0976 136.5 50.0976C136.677 50.0976 136.812 50.1443 136.906 50.2376C137.008 50.331 137.06 50.4756 137.06 50.6716V56.5096C137.06 56.9016 136.878 57.0976 136.514 57.0976C136.336 57.0976 136.196 57.0463 136.094 56.9436C136 56.841 135.954 56.6963 135.954 56.5096V55.2356L136.136 55.4316C135.949 55.9823 135.641 56.4023 135.212 56.6916C134.792 56.981 134.302 57.1256 133.742 57.1256ZM141.253 57.1256C140.581 57.1256 140.068 56.9203 139.713 56.5096C139.359 56.099 139.181 55.511 139.181 54.7456V47.6056C139.181 47.419 139.228 47.279 139.321 47.1856C139.415 47.083 139.555 47.0316 139.741 47.0316C139.919 47.0316 140.059 47.083 140.161 47.1856C140.264 47.279 140.315 47.419 140.315 47.6056V54.6616C140.315 55.1656 140.413 55.5436 140.609 55.7956C140.815 56.0383 141.113 56.1596 141.505 56.1596C141.589 56.1596 141.664 56.155 141.729 56.1456C141.795 56.1363 141.86 56.1316 141.925 56.1316C142.028 56.1223 142.098 56.1456 142.135 56.2016C142.182 56.2576 142.205 56.3696 142.205 56.5376C142.205 56.7056 142.168 56.8316 142.093 56.9156C142.019 56.9996 141.897 57.0556 141.729 57.0836C141.655 57.093 141.575 57.1023 141.491 57.1116C141.407 57.121 141.328 57.1256 141.253 57.1256ZM145.931 57.1256C145.399 57.1256 144.951 57.0323 144.587 56.8456C144.232 56.6496 143.966 56.3696 143.789 56.0056C143.611 55.6323 143.523 55.1796 143.523 54.6476V51.0776H142.585C142.426 51.0776 142.305 51.0403 142.221 50.9656C142.137 50.8816 142.095 50.7696 142.095 50.6296C142.095 50.4896 142.137 50.3823 142.221 50.3076C142.305 50.233 142.426 50.1956 142.585 50.1956H143.523V48.5856C143.523 48.399 143.574 48.259 143.677 48.1656C143.779 48.063 143.919 48.0116 144.097 48.0116C144.274 48.0116 144.409 48.063 144.503 48.1656C144.605 48.259 144.657 48.399 144.657 48.5856V50.1956H146.421C146.579 50.1956 146.701 50.233 146.785 50.3076C146.869 50.3823 146.911 50.4896 146.911 50.6296C146.911 50.7696 146.869 50.8816 146.785 50.9656C146.701 51.0403 146.579 51.0776 146.421 51.0776H144.657V54.5356C144.657 55.0676 144.769 55.4736 144.993 55.7536C145.217 56.0243 145.581 56.1596 146.085 56.1596C146.262 56.1596 146.411 56.141 146.533 56.1036C146.663 56.0663 146.771 56.0476 146.855 56.0476C146.939 56.0383 147.009 56.0663 147.065 56.1316C147.121 56.197 147.149 56.309 147.149 56.4676C147.149 56.5796 147.125 56.6823 147.079 56.7756C147.041 56.869 146.971 56.9343 146.869 56.9716C146.757 57.009 146.607 57.0416 146.421 57.0696C146.243 57.107 146.08 57.1256 145.931 57.1256ZM148.737 57.0696C148.551 57.0696 148.411 57.0183 148.317 56.9156C148.224 56.8036 148.177 56.6496 148.177 56.4536V50.7276C148.177 50.5316 148.224 50.3823 148.317 50.2796C148.411 50.177 148.551 50.1256 148.737 50.1256C148.915 50.1256 149.055 50.177 149.157 50.2796C149.26 50.3823 149.311 50.5316 149.311 50.7276V56.4536C149.311 56.6496 149.26 56.8036 149.157 56.9156C149.064 57.0183 148.924 57.0696 148.737 57.0696ZM148.737 48.5576C148.504 48.5576 148.322 48.497 148.191 48.3756C148.061 48.245 147.995 48.0723 147.995 47.8576C147.995 47.6336 148.061 47.4656 148.191 47.3536C148.322 47.2323 148.504 47.1716 148.737 47.1716C148.98 47.1716 149.162 47.2323 149.283 47.3536C149.414 47.4656 149.479 47.6336 149.479 47.8576C149.479 48.0723 149.414 48.245 149.283 48.3756C149.162 48.497 148.98 48.5576 148.737 48.5576ZM153.965 57.0976C153.807 57.0976 153.667 57.0556 153.545 56.9716C153.424 56.8783 153.321 56.7383 153.237 56.5516L150.815 50.8956C150.75 50.7556 150.727 50.625 150.745 50.5036C150.764 50.3823 150.82 50.2843 150.913 50.2096C151.007 50.135 151.137 50.0976 151.305 50.0976C151.455 50.0976 151.571 50.1303 151.655 50.1956C151.739 50.261 151.814 50.3776 151.879 50.5456L154.175 56.1596H153.797L156.135 50.5456C156.201 50.3776 156.275 50.261 156.359 50.1956C156.443 50.1303 156.565 50.0976 156.723 50.0976C156.873 50.0976 156.985 50.135 157.059 50.2096C157.143 50.2843 157.19 50.3823 157.199 50.5036C157.218 50.6156 157.199 50.7416 157.143 50.8816L154.693 56.5516C154.628 56.7383 154.53 56.8783 154.399 56.9716C154.278 57.0556 154.133 57.0976 153.965 57.0976ZM160.642 57.1256C160.175 57.1256 159.755 57.037 159.382 56.8596C159.018 56.673 158.728 56.421 158.514 56.1036C158.299 55.7863 158.192 55.4316 158.192 55.0396C158.192 54.5356 158.318 54.139 158.57 53.8496C158.831 53.5603 159.256 53.355 159.844 53.2336C160.441 53.1123 161.253 53.0516 162.28 53.0516H162.91V53.7936H162.294C161.538 53.7936 160.94 53.831 160.502 53.9056C160.072 53.971 159.769 54.0876 159.592 54.2556C159.424 54.4236 159.34 54.6616 159.34 54.9696C159.34 55.3523 159.47 55.665 159.732 55.9076C160.002 56.1503 160.366 56.2716 160.824 56.2716C161.197 56.2716 161.524 56.183 161.804 56.0056C162.093 55.8283 162.317 55.5856 162.476 55.2776C162.644 54.9696 162.728 54.615 162.728 54.2136V52.6176C162.728 52.039 162.611 51.6236 162.378 51.3716C162.144 51.1103 161.762 50.9796 161.23 50.9796C160.903 50.9796 160.576 51.0216 160.25 51.1056C159.923 51.1896 159.578 51.325 159.214 51.5116C159.083 51.577 158.971 51.6003 158.878 51.5816C158.784 51.5536 158.71 51.5023 158.654 51.4276C158.598 51.353 158.565 51.269 158.556 51.1756C158.546 51.073 158.565 50.975 158.612 50.8816C158.668 50.7883 158.752 50.7136 158.864 50.6576C159.274 50.4523 159.68 50.303 160.082 50.2096C160.483 50.1163 160.866 50.0696 161.23 50.0696C161.818 50.0696 162.303 50.1676 162.686 50.3636C163.068 50.5503 163.353 50.8396 163.54 51.2316C163.726 51.6143 163.82 52.109 163.82 52.7156V56.5096C163.82 56.6963 163.773 56.841 163.68 56.9436C163.596 57.0463 163.47 57.0976 163.302 57.0976C163.124 57.0976 162.989 57.0463 162.896 56.9436C162.802 56.841 162.756 56.6963 162.756 56.5096V55.4176H162.882C162.807 55.7723 162.662 56.0756 162.448 56.3276C162.242 56.5796 161.986 56.7756 161.678 56.9156C161.37 57.0556 161.024 57.1256 160.642 57.1256ZM166.511 57.0976C166.325 57.0976 166.185 57.0463 166.091 56.9436C165.998 56.841 165.951 56.6963 165.951 56.5096V50.6716C165.951 50.485 165.998 50.345 166.091 50.2516C166.185 50.149 166.32 50.0976 166.497 50.0976C166.675 50.0976 166.81 50.149 166.903 50.2516C167.006 50.345 167.057 50.485 167.057 50.6716V51.9036L166.903 51.7076C167.081 51.185 167.365 50.7836 167.757 50.5036C168.159 50.2143 168.635 50.0696 169.185 50.0696C169.764 50.0696 170.231 50.2096 170.585 50.4896C170.949 50.7603 171.192 51.185 171.313 51.7636H171.103C171.271 51.241 171.57 50.8303 171.999 50.5316C172.438 50.2236 172.947 50.0696 173.525 50.0696C174.039 50.0696 174.459 50.1676 174.785 50.3636C175.121 50.5596 175.373 50.8583 175.541 51.2596C175.709 51.6516 175.793 52.151 175.793 52.7576V56.5096C175.793 56.6963 175.742 56.841 175.639 56.9436C175.546 57.0463 175.406 57.0976 175.219 57.0976C175.042 57.0976 174.902 57.0463 174.799 56.9436C174.706 56.841 174.659 56.6963 174.659 56.5096V52.8136C174.659 52.1883 174.552 51.731 174.337 51.4416C174.123 51.143 173.759 50.9936 173.245 50.9936C172.685 50.9936 172.242 51.1896 171.915 51.5816C171.598 51.9643 171.439 52.487 171.439 53.1496V56.5096C171.439 56.6963 171.388 56.841 171.285 56.9436C171.192 57.0463 171.052 57.0976 170.865 57.0976C170.688 57.0976 170.548 57.0463 170.445 56.9436C170.352 56.841 170.305 56.6963 170.305 56.5096V52.8136C170.305 52.1883 170.193 51.731 169.969 51.4416C169.755 51.143 169.395 50.9936 168.891 50.9936C168.331 50.9936 167.888 51.1896 167.561 51.5816C167.244 51.9643 167.085 52.487 167.085 53.1496V56.5096C167.085 56.9016 166.894 57.0976 166.511 57.0976ZM180.742 57.1256C180.079 57.1256 179.505 56.981 179.02 56.6916C178.534 56.4023 178.156 55.9963 177.886 55.4736C177.624 54.9416 177.494 54.3163 177.494 53.5976C177.494 53.0563 177.568 52.571 177.718 52.1416C177.867 51.703 178.086 51.3296 178.376 51.0216C178.665 50.7136 179.006 50.4803 179.398 50.3216C179.799 50.1536 180.247 50.0696 180.742 50.0696C181.404 50.0696 181.978 50.2143 182.464 50.5036C182.949 50.793 183.322 51.2036 183.584 51.7356C183.854 52.2583 183.99 52.879 183.99 53.5976C183.99 54.139 183.915 54.6243 183.766 55.0536C183.616 55.483 183.397 55.8563 183.108 56.1736C182.818 56.4816 182.473 56.7196 182.072 56.8876C181.68 57.0463 181.236 57.1256 180.742 57.1256ZM180.742 56.2156C181.162 56.2156 181.53 56.113 181.848 55.9076C182.165 55.7023 182.408 55.4036 182.576 55.0116C182.753 54.6196 182.842 54.1483 182.842 53.5976C182.842 52.7483 182.65 52.0996 182.268 51.6516C181.894 51.2036 181.386 50.9796 180.742 50.9796C180.312 50.9796 179.939 51.0823 179.622 51.2876C179.314 51.4836 179.071 51.7776 178.894 52.1696C178.726 52.5523 178.642 53.0283 178.642 53.5976C178.642 54.4376 178.833 55.0863 179.216 55.5436C179.598 55.9916 180.107 56.2156 180.742 56.2156ZM187.989 57.1256C187.569 57.1256 187.144 57.0743 186.715 56.9716C186.295 56.869 185.903 56.6916 185.539 56.4396C185.446 56.3743 185.38 56.2996 185.343 56.2156C185.306 56.1223 185.292 56.0336 185.301 55.9496C185.32 55.8563 185.357 55.777 185.413 55.7116C185.478 55.6463 185.553 55.609 185.637 55.5996C185.73 55.581 185.833 55.5996 185.945 55.6556C186.309 55.8796 186.659 56.0383 186.995 56.1316C187.34 56.2156 187.681 56.2576 188.017 56.2576C188.549 56.2576 188.95 56.1596 189.221 55.9636C189.492 55.7676 189.627 55.5016 189.627 55.1656C189.627 54.9043 189.538 54.699 189.361 54.5496C189.184 54.391 188.904 54.2696 188.521 54.1856L187.247 53.9056C186.659 53.7843 186.22 53.5743 185.931 53.2756C185.651 52.977 185.511 52.5896 185.511 52.1136C185.511 51.6936 185.618 51.3343 185.833 51.0356C186.057 50.7276 186.37 50.4896 186.771 50.3216C187.172 50.1536 187.639 50.0696 188.171 50.0696C188.582 50.0696 188.969 50.1256 189.333 50.2376C189.706 50.3403 190.042 50.5083 190.341 50.7416C190.434 50.807 190.495 50.8863 190.523 50.9796C190.56 51.0636 190.565 51.1523 190.537 51.2456C190.518 51.3296 190.476 51.4043 190.411 51.4696C190.346 51.5256 190.266 51.5583 190.173 51.5676C190.08 51.577 189.982 51.549 189.879 51.4836C189.599 51.297 189.314 51.1616 189.025 51.0776C188.736 50.9843 188.451 50.9376 188.171 50.9376C187.648 50.9376 187.252 51.0403 186.981 51.2456C186.71 51.451 186.575 51.7216 186.575 52.0576C186.575 52.319 186.659 52.5336 186.827 52.7016C186.995 52.8696 187.256 52.991 187.611 53.0656L188.885 53.3316C189.492 53.4623 189.944 53.6723 190.243 53.9616C190.551 54.2416 190.705 54.6243 190.705 55.1096C190.705 55.7256 190.458 56.2156 189.963 56.5796C189.468 56.9436 188.81 57.1256 187.989 57.1256ZM198.577 57.0976C198.418 57.0976 198.278 57.0556 198.157 56.9716C198.035 56.8783 197.933 56.7383 197.849 56.5516L195.427 50.8956C195.361 50.7556 195.338 50.625 195.357 50.5036C195.375 50.3823 195.431 50.2843 195.525 50.2096C195.618 50.135 195.749 50.0976 195.917 50.0976C196.066 50.0976 196.183 50.1303 196.267 50.1956C196.351 50.261 196.425 50.3776 196.491 50.5456L198.787 56.1596H198.409L200.747 50.5456C200.812 50.3776 200.887 50.261 200.971 50.1956C201.055 50.1303 201.176 50.0976 201.335 50.0976C201.484 50.0976 201.596 50.135 201.671 50.2096C201.755 50.2843 201.801 50.3823 201.811 50.5036C201.829 50.6156 201.811 50.7416 201.755 50.8816L199.305 56.5516C199.239 56.7383 199.141 56.8783 199.011 56.9716C198.889 57.0556 198.745 57.0976 198.577 57.0976ZM205.253 57.1256C204.786 57.1256 204.366 57.037 203.993 56.8596C203.629 56.673 203.34 56.421 203.125 56.1036C202.91 55.7863 202.803 55.4316 202.803 55.0396C202.803 54.5356 202.929 54.139 203.181 53.8496C203.442 53.5603 203.867 53.355 204.455 53.2336C205.052 53.1123 205.864 53.0516 206.891 53.0516H207.521V53.7936H206.905C206.149 53.7936 205.552 53.831 205.113 53.9056C204.684 53.971 204.38 54.0876 204.203 54.2556C204.035 54.4236 203.951 54.6616 203.951 54.9696C203.951 55.3523 204.082 55.665 204.343 55.9076C204.614 56.1503 204.978 56.2716 205.435 56.2716C205.808 56.2716 206.135 56.183 206.415 56.0056C206.704 55.8283 206.928 55.5856 207.087 55.2776C207.255 54.9696 207.339 54.615 207.339 54.2136V52.6176C207.339 52.039 207.222 51.6236 206.989 51.3716C206.756 51.1103 206.373 50.9796 205.841 50.9796C205.514 50.9796 205.188 51.0216 204.861 51.1056C204.534 51.1896 204.189 51.325 203.825 51.5116C203.694 51.577 203.582 51.6003 203.489 51.5816C203.396 51.5536 203.321 51.5023 203.265 51.4276C203.209 51.353 203.176 51.269 203.167 51.1756C203.158 51.073 203.176 50.975 203.223 50.8816C203.279 50.7883 203.363 50.7136 203.475 50.6576C203.886 50.4523 204.292 50.303 204.693 50.2096C205.094 50.1163 205.477 50.0696 205.841 50.0696C206.429 50.0696 206.914 50.1676 207.297 50.3636C207.68 50.5503 207.964 50.8396 208.151 51.2316C208.338 51.6143 208.431 52.109 208.431 52.7156V56.5096C208.431 56.6963 208.384 56.841 208.291 56.9436C208.207 57.0463 208.081 57.0976 207.913 57.0976C207.736 57.0976 207.6 57.0463 207.507 56.9436C207.414 56.841 207.367 56.6963 207.367 56.5096V55.4176H207.493C207.418 55.7723 207.274 56.0756 207.059 56.3276C206.854 56.5796 206.597 56.7756 206.289 56.9156C205.981 57.0556 205.636 57.1256 205.253 57.1256ZM212.607 57.1256C211.935 57.1256 211.421 56.9203 211.067 56.5096C210.712 56.099 210.535 55.511 210.535 54.7456V47.6056C210.535 47.419 210.581 47.279 210.675 47.1856C210.768 47.083 210.908 47.0316 211.095 47.0316C211.272 47.0316 211.412 47.083 211.515 47.1856C211.617 47.279 211.669 47.419 211.669 47.6056V54.6616C211.669 55.1656 211.767 55.5436 211.963 55.7956C212.168 56.0383 212.467 56.1596 212.859 56.1596C212.943 56.1596 213.017 56.155 213.083 56.1456C213.148 56.1363 213.213 56.1316 213.279 56.1316C213.381 56.1223 213.451 56.1456 213.489 56.2016C213.535 56.2576 213.559 56.3696 213.559 56.5376C213.559 56.7056 213.521 56.8316 213.447 56.9156C213.372 56.9996 213.251 57.0556 213.083 57.0836C213.008 57.093 212.929 57.1023 212.845 57.1116C212.761 57.121 212.681 57.1256 212.607 57.1256ZM217.437 57.1256C216.774 57.1256 216.2 56.981 215.715 56.6916C215.23 56.4023 214.852 55.9963 214.581 55.4736C214.32 54.9416 214.189 54.3163 214.189 53.5976C214.189 53.0563 214.264 52.571 214.413 52.1416C214.562 51.703 214.782 51.3296 215.071 51.0216C215.36 50.7136 215.701 50.4803 216.093 50.3216C216.494 50.1536 216.942 50.0696 217.437 50.0696C218.1 50.0696 218.674 50.2143 219.159 50.5036C219.644 50.793 220.018 51.2036 220.279 51.7356C220.55 52.2583 220.685 52.879 220.685 53.5976C220.685 54.139 220.61 54.6243 220.461 55.0536C220.312 55.483 220.092 55.8563 219.803 56.1736C219.514 56.4816 219.168 56.7196 218.767 56.8876C218.375 57.0463 217.932 57.1256 217.437 57.1256ZM217.437 56.2156C217.857 56.2156 218.226 56.113 218.543 55.9076C218.86 55.7023 219.103 55.4036 219.271 55.0116C219.448 54.6196 219.537 54.1483 219.537 53.5976C219.537 52.7483 219.346 52.0996 218.963 51.6516C218.59 51.2036 218.081 50.9796 217.437 50.9796C217.008 50.9796 216.634 51.0823 216.317 51.2876C216.009 51.4836 215.766 51.7776 215.589 52.1696C215.421 52.5523 215.337 53.0283 215.337 53.5976C215.337 54.4376 215.528 55.0863 215.911 55.5436C216.294 55.9916 216.802 56.2156 217.437 56.2156ZM222.962 57.0976C222.776 57.0976 222.631 57.0463 222.528 56.9436C222.435 56.841 222.388 56.6963 222.388 56.5096V50.6716C222.388 50.485 222.435 50.345 222.528 50.2516C222.622 50.149 222.757 50.0976 222.934 50.0976C223.112 50.0976 223.247 50.149 223.34 50.2516C223.443 50.345 223.494 50.485 223.494 50.6716V51.8056H223.354C223.504 51.255 223.788 50.8303 224.208 50.5316C224.628 50.233 225.146 50.0743 225.762 50.0556C225.902 50.0463 226.014 50.079 226.098 50.1536C226.182 50.219 226.229 50.3356 226.238 50.5036C226.248 50.6623 226.21 50.7883 226.126 50.8816C226.042 50.975 225.912 51.031 225.734 51.0496L225.51 51.0776C224.876 51.1336 224.386 51.339 224.04 51.6936C223.704 52.039 223.536 52.515 223.536 53.1216V56.5096C223.536 56.6963 223.485 56.841 223.382 56.9436C223.289 57.0463 223.149 57.0976 222.962 57.0976ZM230.39 57.1256C229.671 57.1256 229.05 56.9856 228.528 56.7056C228.014 56.4163 227.613 56.0103 227.324 55.4876C227.044 54.965 226.904 54.3396 226.904 53.6116C226.904 52.9023 227.044 52.2863 227.324 51.7636C227.604 51.2316 227.986 50.8163 228.472 50.5176C228.966 50.219 229.536 50.0696 230.18 50.0696C230.637 50.0696 231.048 50.149 231.412 50.3076C231.776 50.457 232.084 50.6763 232.336 50.9656C232.597 51.255 232.793 51.605 232.924 52.0156C233.064 52.4263 233.134 52.8883 233.134 53.4016C233.134 53.551 233.092 53.663 233.008 53.7376C232.924 53.803 232.802 53.8356 232.644 53.8356H227.772V53.0936H232.378L232.154 53.2756C232.154 52.7716 232.079 52.347 231.93 52.0016C231.78 51.647 231.561 51.3763 231.272 51.1896C230.992 51.003 230.637 50.9096 230.208 50.9096C229.732 50.9096 229.326 51.0216 228.99 51.2456C228.663 51.4603 228.416 51.7636 228.248 52.1556C228.08 52.5383 227.996 52.9863 227.996 53.4996V53.5836C227.996 54.4423 228.201 55.0956 228.612 55.5436C229.032 55.9916 229.624 56.2156 230.39 56.2156C230.707 56.2156 231.02 56.1736 231.328 56.0896C231.645 56.0056 231.953 55.8656 232.252 55.6696C232.382 55.5856 232.499 55.5483 232.602 55.5576C232.714 55.5576 232.802 55.5903 232.868 55.6556C232.933 55.7116 232.975 55.7863 232.994 55.8796C233.022 55.9636 233.012 56.057 232.966 56.1596C232.928 56.2623 232.849 56.351 232.728 56.4256C232.42 56.6496 232.056 56.8223 231.636 56.9436C231.216 57.065 230.8 57.1256 230.39 57.1256ZM237.071 57.1256C236.651 57.1256 236.226 57.0743 235.797 56.9716C235.377 56.869 234.985 56.6916 234.621 56.4396C234.528 56.3743 234.462 56.2996 234.425 56.2156C234.388 56.1223 234.374 56.0336 234.383 55.9496C234.402 55.8563 234.439 55.777 234.495 55.7116C234.56 55.6463 234.635 55.609 234.719 55.5996C234.812 55.581 234.915 55.5996 235.027 55.6556C235.391 55.8796 235.741 56.0383 236.077 56.1316C236.422 56.2156 236.763 56.2576 237.099 56.2576C237.631 56.2576 238.032 56.1596 238.303 55.9636C238.574 55.7676 238.709 55.5016 238.709 55.1656C238.709 54.9043 238.62 54.699 238.443 54.5496C238.266 54.391 237.986 54.2696 237.603 54.1856L236.329 53.9056C235.741 53.7843 235.302 53.5743 235.013 53.2756C234.733 52.977 234.593 52.5896 234.593 52.1136C234.593 51.6936 234.7 51.3343 234.915 51.0356C235.139 50.7276 235.452 50.4896 235.853 50.3216C236.254 50.1536 236.721 50.0696 237.253 50.0696C237.664 50.0696 238.051 50.1256 238.415 50.2376C238.788 50.3403 239.124 50.5083 239.423 50.7416C239.516 50.807 239.577 50.8863 239.605 50.9796C239.642 51.0636 239.647 51.1523 239.619 51.2456C239.6 51.3296 239.558 51.4043 239.493 51.4696C239.428 51.5256 239.348 51.5583 239.255 51.5676C239.162 51.577 239.064 51.549 238.961 51.4836C238.681 51.297 238.396 51.1616 238.107 51.0776C237.818 50.9843 237.533 50.9376 237.253 50.9376C236.73 50.9376 236.334 51.0403 236.063 51.2456C235.792 51.451 235.657 51.7216 235.657 52.0576C235.657 52.319 235.741 52.5336 235.909 52.7016C236.077 52.8696 236.338 52.991 236.693 53.0656L237.967 53.3316C238.574 53.4623 239.026 53.6723 239.325 53.9616C239.633 54.2416 239.787 54.6243 239.787 55.1096C239.787 55.7256 239.54 56.2156 239.045 56.5796C238.55 56.9436 237.892 57.1256 237.071 57.1256ZM125.13 73.1256C124.411 73.1256 123.791 72.9856 123.268 72.7056C122.755 72.4163 122.353 72.0103 122.064 71.4876C121.784 70.965 121.644 70.3396 121.644 69.6116C121.644 68.9023 121.784 68.2863 122.064 67.7636C122.344 67.2316 122.727 66.8163 123.212 66.5176C123.707 66.219 124.276 66.0696 124.92 66.0696C125.377 66.0696 125.788 66.149 126.152 66.3076C126.516 66.457 126.824 66.6763 127.076 66.9656C127.337 67.255 127.533 67.605 127.664 68.0156C127.804 68.4263 127.874 68.8883 127.874 69.4016C127.874 69.551 127.832 69.663 127.748 69.7376C127.664 69.803 127.543 69.8356 127.384 69.8356H122.512V69.0936H127.118L126.894 69.2756C126.894 68.7716 126.819 68.347 126.67 68.0016C126.521 67.647 126.301 67.3763 126.012 67.1896C125.732 67.003 125.377 66.9096 124.948 66.9096C124.472 66.9096 124.066 67.0216 123.73 67.2456C123.403 67.4603 123.156 67.7636 122.988 68.1556C122.82 68.5383 122.736 68.9863 122.736 69.4996V69.5836C122.736 70.4423 122.941 71.0956 123.352 71.5436C123.772 71.9916 124.365 72.2156 125.13 72.2156C125.447 72.2156 125.76 72.1736 126.068 72.0896C126.385 72.0056 126.693 71.8656 126.992 71.6696C127.123 71.5856 127.239 71.5483 127.342 71.5576C127.454 71.5576 127.543 71.5903 127.608 71.6556C127.673 71.7116 127.715 71.7863 127.734 71.8796C127.762 71.9636 127.753 72.057 127.706 72.1596C127.669 72.2623 127.589 72.351 127.468 72.4256C127.16 72.6496 126.796 72.8223 126.376 72.9436C125.956 73.065 125.541 73.1256 125.13 73.1256ZM132.245 73.1256C131.713 73.1256 131.265 73.0323 130.901 72.8456C130.547 72.6496 130.281 72.3696 130.103 72.0056C129.926 71.6323 129.837 71.1796 129.837 70.6476V67.0776H128.899C128.741 67.0776 128.619 67.0403 128.535 66.9656C128.451 66.8816 128.409 66.7696 128.409 66.6296C128.409 66.4896 128.451 66.3823 128.535 66.3076C128.619 66.233 128.741 66.1956 128.899 66.1956H129.837V64.5856C129.837 64.399 129.889 64.259 129.991 64.1656C130.094 64.063 130.234 64.0116 130.411 64.0116C130.589 64.0116 130.724 64.063 130.817 64.1656C130.92 64.259 130.971 64.399 130.971 64.5856V66.1956H132.735C132.894 66.1956 133.015 66.233 133.099 66.3076C133.183 66.3823 133.225 66.4896 133.225 66.6296C133.225 66.7696 133.183 66.8816 133.099 66.9656C133.015 67.0403 132.894 67.0776 132.735 67.0776H130.971V70.5356C130.971 71.0676 131.083 71.4736 131.307 71.7536C131.531 72.0243 131.895 72.1596 132.399 72.1596C132.577 72.1596 132.726 72.141 132.847 72.1036C132.978 72.0663 133.085 72.0476 133.169 72.0476C133.253 72.0383 133.323 72.0663 133.379 72.1316C133.435 72.197 133.463 72.309 133.463 72.4676C133.463 72.5796 133.44 72.6823 133.393 72.7756C133.356 72.869 133.286 72.9343 133.183 72.9716C133.071 73.009 132.922 73.0416 132.735 73.0696C132.558 73.107 132.395 73.1256 132.245 73.1256ZM137.407 73.1256C136.689 73.1256 136.068 72.9856 135.545 72.7056C135.032 72.4163 134.631 72.0103 134.341 71.4876C134.061 70.965 133.921 70.3396 133.921 69.6116C133.921 68.9023 134.061 68.2863 134.341 67.7636C134.621 67.2316 135.004 66.8163 135.489 66.5176C135.984 66.219 136.553 66.0696 137.197 66.0696C137.655 66.0696 138.065 66.149 138.429 66.3076C138.793 66.457 139.101 66.6763 139.353 66.9656C139.615 67.255 139.811 67.605 139.941 68.0156C140.081 68.4263 140.151 68.8883 140.151 69.4016C140.151 69.551 140.109 69.663 140.025 69.7376C139.941 69.803 139.82 69.8356 139.661 69.8356H134.789V69.0936H139.395L139.171 69.2756C139.171 68.7716 139.097 68.347 138.947 68.0016C138.798 67.647 138.579 67.3763 138.289 67.1896C138.009 67.003 137.655 66.9096 137.225 66.9096C136.749 66.9096 136.343 67.0216 136.007 67.2456C135.681 67.4603 135.433 67.7636 135.265 68.1556C135.097 68.5383 135.013 68.9863 135.013 69.4996V69.5836C135.013 70.4423 135.219 71.0956 135.629 71.5436C136.049 71.9916 136.642 72.2156 137.407 72.2156C137.725 72.2156 138.037 72.1736 138.345 72.0896C138.663 72.0056 138.971 71.8656 139.269 71.6696C139.4 71.5856 139.517 71.5483 139.619 71.5576C139.731 71.5576 139.82 71.5903 139.885 71.6556C139.951 71.7116 139.993 71.7863 140.011 71.8796C140.039 71.9636 140.03 72.057 139.983 72.1596C139.946 72.2623 139.867 72.351 139.745 72.4256C139.437 72.6496 139.073 72.8223 138.653 72.9436C138.233 73.065 137.818 73.1256 137.407 73.1256ZM142.367 73.0976C142.18 73.0976 142.035 73.0463 141.933 72.9436C141.839 72.841 141.793 72.6963 141.793 72.5096V66.6716C141.793 66.485 141.839 66.345 141.933 66.2516C142.026 66.149 142.161 66.0976 142.339 66.0976C142.516 66.0976 142.651 66.149 142.745 66.2516C142.847 66.345 142.899 66.485 142.899 66.6716V67.8056H142.759C142.908 67.255 143.193 66.8303 143.613 66.5316C144.033 66.233 144.551 66.0743 145.167 66.0556C145.307 66.0463 145.419 66.079 145.503 66.1536C145.587 66.219 145.633 66.3356 145.643 66.5036C145.652 66.6623 145.615 66.7883 145.531 66.8816C145.447 66.975 145.316 67.031 145.139 67.0496L144.915 67.0776C144.28 67.1336 143.79 67.339 143.445 67.6936C143.109 68.039 142.941 68.515 142.941 69.1216V72.5096C142.941 72.6963 142.889 72.841 142.787 72.9436C142.693 73.0463 142.553 73.0976 142.367 73.0976ZM147.37 73.0976C147.183 73.0976 147.043 73.0463 146.95 72.9436C146.857 72.841 146.81 72.6963 146.81 72.5096V66.6716C146.81 66.485 146.857 66.345 146.95 66.2516C147.043 66.149 147.179 66.0976 147.356 66.0976C147.533 66.0976 147.669 66.149 147.762 66.2516C147.865 66.345 147.916 66.485 147.916 66.6716V67.8756L147.762 67.7076C147.958 67.1663 148.275 66.7603 148.714 66.4896C149.162 66.2096 149.675 66.0696 150.254 66.0696C150.795 66.0696 151.243 66.1676 151.598 66.3636C151.962 66.5596 152.233 66.8583 152.41 67.2596C152.587 67.6516 152.676 68.151 152.676 68.7576V72.5096C152.676 72.6963 152.625 72.841 152.522 72.9436C152.429 73.0463 152.293 73.0976 152.116 73.0976C151.929 73.0976 151.785 73.0463 151.682 72.9436C151.589 72.841 151.542 72.6963 151.542 72.5096V68.8276C151.542 68.193 151.416 67.731 151.164 67.4416C150.921 67.143 150.529 66.9936 149.988 66.9936C149.363 66.9936 148.863 67.1896 148.49 67.5816C148.126 67.9643 147.944 68.4776 147.944 69.1216V72.5096C147.944 72.9016 147.753 73.0976 147.37 73.0976ZM157.595 73.1256C156.932 73.1256 156.358 72.981 155.873 72.6916C155.388 72.4023 155.01 71.9963 154.739 71.4736C154.478 70.9416 154.347 70.3163 154.347 69.5976C154.347 69.0563 154.422 68.571 154.571 68.1416C154.72 67.703 154.94 67.3296 155.229 67.0216C155.518 66.7136 155.859 66.4803 156.251 66.3216C156.652 66.1536 157.1 66.0696 157.595 66.0696C158.258 66.0696 158.832 66.2143 159.317 66.5036C159.802 66.793 160.176 67.2036 160.437 67.7356C160.708 68.2583 160.843 68.879 160.843 69.5976C160.843 70.139 160.768 70.6243 160.619 71.0536C160.47 71.483 160.25 71.8563 159.961 72.1736C159.672 72.4816 159.326 72.7196 158.925 72.8876C158.533 73.0463 158.09 73.1256 157.595 73.1256ZM157.595 72.2156C158.015 72.2156 158.384 72.113 158.701 71.9076C159.018 71.7023 159.261 71.4036 159.429 71.0116C159.606 70.6196 159.695 70.1483 159.695 69.5976C159.695 68.7483 159.504 68.0996 159.121 67.6516C158.748 67.2036 158.239 66.9796 157.595 66.9796C157.166 66.9796 156.792 67.0823 156.475 67.2876C156.167 67.4836 155.924 67.7776 155.747 68.1696C155.579 68.5523 155.495 69.0283 155.495 69.5976C155.495 70.4376 155.686 71.0863 156.069 71.5436C156.452 71.9916 156.96 72.2156 157.595 72.2156ZM164.842 73.1256C164.422 73.1256 163.998 73.0743 163.568 72.9716C163.148 72.869 162.756 72.6916 162.392 72.4396C162.299 72.3743 162.234 72.2996 162.196 72.2156C162.159 72.1223 162.145 72.0336 162.154 71.9496C162.173 71.8563 162.21 71.777 162.266 71.7116C162.332 71.6463 162.406 71.609 162.49 71.5996C162.584 71.581 162.686 71.5996 162.798 71.6556C163.162 71.8796 163.512 72.0383 163.848 72.1316C164.194 72.2156 164.534 72.2576 164.87 72.2576C165.402 72.2576 165.804 72.1596 166.074 71.9636C166.345 71.7676 166.48 71.5016 166.48 71.1656C166.48 70.9043 166.392 70.699 166.214 70.5496C166.037 70.391 165.757 70.2696 165.374 70.1856L164.1 69.9056C163.512 69.7843 163.074 69.5743 162.784 69.2756C162.504 68.977 162.364 68.5896 162.364 68.1136C162.364 67.6936 162.472 67.3343 162.686 67.0356C162.91 66.7276 163.223 66.4896 163.624 66.3216C164.026 66.1536 164.492 66.0696 165.024 66.0696C165.435 66.0696 165.822 66.1256 166.186 66.2376C166.56 66.3403 166.896 66.5083 167.194 66.7416C167.288 66.807 167.348 66.8863 167.376 66.9796C167.414 67.0636 167.418 67.1523 167.39 67.2456C167.372 67.3296 167.33 67.4043 167.264 67.4696C167.199 67.5256 167.12 67.5583 167.026 67.5676C166.933 67.577 166.835 67.549 166.732 67.4836C166.452 67.297 166.168 67.1616 165.878 67.0776C165.589 66.9843 165.304 66.9376 165.024 66.9376C164.502 66.9376 164.105 67.0403 163.834 67.2456C163.564 67.451 163.428 67.7216 163.428 68.0576C163.428 68.319 163.512 68.5336 163.68 68.7016C163.848 68.8696 164.11 68.991 164.464 69.0656L165.738 69.3316C166.345 69.4623 166.798 69.6723 167.096 69.9616C167.404 70.2416 167.558 70.6243 167.558 71.1096C167.558 71.7256 167.311 72.2156 166.816 72.5796C166.322 72.9436 165.664 73.1256 164.842 73.1256ZM175.962 73.1256C175.243 73.1256 174.623 72.9856 174.1 72.7056C173.587 72.4163 173.185 72.0103 172.896 71.4876C172.616 70.965 172.476 70.3396 172.476 69.6116C172.476 68.9023 172.616 68.2863 172.896 67.7636C173.176 67.2316 173.559 66.8163 174.044 66.5176C174.539 66.219 175.108 66.0696 175.752 66.0696C176.209 66.0696 176.62 66.149 176.984 66.3076C177.348 66.457 177.656 66.6763 177.908 66.9656C178.169 67.255 178.365 67.605 178.496 68.0156C178.636 68.4263 178.706 68.8883 178.706 69.4016C178.706 69.551 178.664 69.663 178.58 69.7376C178.496 69.803 178.375 69.8356 178.216 69.8356H173.344V69.0936H177.95L177.726 69.2756C177.726 68.7716 177.651 68.347 177.502 68.0016C177.353 67.647 177.133 67.3763 176.844 67.1896C176.564 67.003 176.209 66.9096 175.78 66.9096C175.304 66.9096 174.898 67.0216 174.562 67.2456C174.235 67.4603 173.988 67.7636 173.82 68.1556C173.652 68.5383 173.568 68.9863 173.568 69.4996V69.5836C173.568 70.4423 173.773 71.0956 174.184 71.5436C174.604 71.9916 175.197 72.2156 175.962 72.2156C176.279 72.2156 176.592 72.1736 176.9 72.0896C177.217 72.0056 177.525 71.8656 177.824 71.6696C177.955 71.5856 178.071 71.5483 178.174 71.5576C178.286 71.5576 178.375 71.5903 178.44 71.6556C178.505 71.7116 178.547 71.7863 178.566 71.8796C178.594 71.9636 178.585 72.057 178.538 72.1596C178.501 72.2623 178.421 72.351 178.3 72.4256C177.992 72.6496 177.628 72.8223 177.208 72.9436C176.788 73.065 176.373 73.1256 175.962 73.1256ZM186.365 73.1256C185.814 73.1256 185.357 73.0276 184.993 72.8316C184.638 72.6263 184.367 72.323 184.181 71.9216C184.003 71.5203 183.915 71.021 183.915 70.4236V66.6716C183.915 66.4756 183.961 66.331 184.055 66.2376C184.157 66.1443 184.297 66.0976 184.475 66.0976C184.661 66.0976 184.801 66.1443 184.895 66.2376C184.997 66.331 185.049 66.4756 185.049 66.6716V70.4096C185.049 71.007 185.17 71.455 185.413 71.7536C185.665 72.043 186.057 72.1876 186.589 72.1876C187.167 72.1876 187.639 71.9916 188.003 71.5996C188.367 71.2076 188.549 70.6943 188.549 70.0596V66.6716C188.549 66.4756 188.595 66.331 188.689 66.2376C188.791 66.1443 188.936 66.0976 189.123 66.0976C189.3 66.0976 189.435 66.1443 189.529 66.2376C189.631 66.331 189.683 66.4756 189.683 66.6716V72.5096C189.683 72.9016 189.501 73.0976 189.137 73.0976C188.959 73.0976 188.819 73.0463 188.717 72.9436C188.623 72.841 188.577 72.6963 188.577 72.5096V71.2356L188.759 71.4316C188.572 71.9823 188.264 72.4023 187.835 72.6916C187.415 72.981 186.925 73.1256 186.365 73.1256ZM192.392 73.0976C192.206 73.0976 192.066 73.0463 191.972 72.9436C191.879 72.841 191.832 72.6963 191.832 72.5096V66.6716C191.832 66.485 191.879 66.345 191.972 66.2516C192.066 66.149 192.201 66.0976 192.378 66.0976C192.556 66.0976 192.691 66.149 192.784 66.2516C192.887 66.345 192.938 66.485 192.938 66.6716V67.9036L192.784 67.7076C192.962 67.185 193.246 66.7836 193.638 66.5036C194.04 66.2143 194.516 66.0696 195.066 66.0696C195.645 66.0696 196.112 66.2096 196.466 66.4896C196.83 66.7603 197.073 67.185 197.194 67.7636H196.984C197.152 67.241 197.451 66.8303 197.88 66.5316C198.319 66.2236 198.828 66.0696 199.406 66.0696C199.92 66.0696 200.34 66.1676 200.666 66.3636C201.002 66.5596 201.254 66.8583 201.422 67.2596C201.59 67.6516 201.674 68.151 201.674 68.7576V72.5096C201.674 72.6963 201.623 72.841 201.52 72.9436C201.427 73.0463 201.287 73.0976 201.1 73.0976C200.923 73.0976 200.783 73.0463 200.68 72.9436C200.587 72.841 200.54 72.6963 200.54 72.5096V68.8136C200.54 68.1883 200.433 67.731 200.218 67.4416C200.004 67.143 199.64 66.9936 199.126 66.9936C198.566 66.9936 198.123 67.1896 197.796 67.5816C197.479 67.9643 197.32 68.487 197.32 69.1496V72.5096C197.32 72.6963 197.269 72.841 197.166 72.9436C197.073 73.0463 196.933 73.0976 196.746 73.0976C196.569 73.0976 196.429 73.0463 196.326 72.9436C196.233 72.841 196.186 72.6963 196.186 72.5096V68.8136C196.186 68.1883 196.074 67.731 195.85 67.4416C195.636 67.143 195.276 66.9936 194.772 66.9936C194.212 66.9936 193.769 67.1896 193.442 67.5816C193.125 67.9643 192.966 68.487 192.966 69.1496V72.5096C192.966 72.9016 192.775 73.0976 192.392 73.0976ZM205.936 73.1256C205.47 73.1256 205.05 73.037 204.676 72.8596C204.312 72.673 204.023 72.421 203.808 72.1036C203.594 71.7863 203.486 71.4316 203.486 71.0396C203.486 70.5356 203.612 70.139 203.864 69.8496C204.126 69.5603 204.55 69.355 205.138 69.2336C205.736 69.1123 206.548 69.0516 207.574 69.0516H208.204V69.7936H207.588C206.832 69.7936 206.235 69.831 205.796 69.9056C205.367 69.971 205.064 70.0876 204.886 70.2556C204.718 70.4236 204.634 70.6616 204.634 70.9696C204.634 71.3523 204.765 71.665 205.026 71.9076C205.297 72.1503 205.661 72.2716 206.118 72.2716C206.492 72.2716 206.818 72.183 207.098 72.0056C207.388 71.8283 207.612 71.5856 207.77 71.2776C207.938 70.9696 208.022 70.615 208.022 70.2136V68.6176C208.022 68.039 207.906 67.6236 207.672 67.3716C207.439 67.1103 207.056 66.9796 206.524 66.9796C206.198 66.9796 205.871 67.0216 205.544 67.1056C205.218 67.1896 204.872 67.325 204.508 67.5116C204.378 67.577 204.266 67.6003 204.172 67.5816C204.079 67.5536 204.004 67.5023 203.948 67.4276C203.892 67.353 203.86 67.269 203.85 67.1756C203.841 67.073 203.86 66.975 203.906 66.8816C203.962 66.7883 204.046 66.7136 204.158 66.6576C204.569 66.4523 204.975 66.303 205.376 66.2096C205.778 66.1163 206.16 66.0696 206.524 66.0696C207.112 66.0696 207.598 66.1676 207.98 66.3636C208.363 66.5503 208.648 66.8396 208.834 67.2316C209.021 67.6143 209.114 68.109 209.114 68.7156V72.5096C209.114 72.6963 209.068 72.841 208.974 72.9436C208.89 73.0463 208.764 73.0976 208.596 73.0976C208.419 73.0976 208.284 73.0463 208.19 72.9436C208.097 72.841 208.05 72.6963 208.05 72.5096V71.4176H208.176C208.102 71.7723 207.957 72.0756 207.742 72.3276C207.537 72.5796 207.28 72.7756 206.972 72.9156C206.664 73.0556 206.319 73.1256 205.936 73.1256ZM217.712 73.1256C217.03 73.1256 216.442 72.9763 215.948 72.6776C215.453 72.379 215.07 71.9636 214.8 71.4316C214.538 70.8903 214.408 70.265 214.408 69.5556C214.408 69.0143 214.482 68.529 214.632 68.0996C214.781 67.6703 215 67.3063 215.29 67.0076C215.579 66.6996 215.924 66.4663 216.326 66.3076C216.736 66.149 217.198 66.0696 217.712 66.0696C218.048 66.0696 218.398 66.121 218.762 66.2236C219.126 66.3263 219.457 66.5036 219.756 66.7556C219.849 66.821 219.91 66.9003 219.938 66.9936C219.966 67.087 219.966 67.1803 219.938 67.2736C219.91 67.3576 219.863 67.4323 219.798 67.4976C219.732 67.5536 219.648 67.5863 219.546 67.5956C219.452 67.605 219.354 67.5723 219.252 67.4976C219.009 67.311 218.762 67.1803 218.51 67.1056C218.258 67.031 218.015 66.9936 217.782 66.9936C217.418 66.9936 217.1 67.0543 216.83 67.1756C216.559 67.2876 216.33 67.451 216.144 67.6656C215.957 67.8803 215.812 68.1463 215.71 68.4636C215.616 68.781 215.57 69.1496 215.57 69.5696C215.57 70.3816 215.761 71.0256 216.144 71.5016C216.526 71.9683 217.072 72.2016 217.782 72.2016C218.015 72.2016 218.253 72.1643 218.496 72.0896C218.748 72.015 219 71.8843 219.252 71.6976C219.354 71.623 219.452 71.5903 219.546 71.5996C219.639 71.609 219.718 71.6463 219.784 71.7116C219.849 71.7676 219.891 71.8423 219.91 71.9356C219.938 72.029 219.938 72.1223 219.91 72.2156C219.882 72.2996 219.821 72.3743 219.728 72.4396C219.429 72.6823 219.102 72.8596 218.748 72.9716C218.393 73.0743 218.048 73.1256 217.712 73.1256ZM223.999 73.1256C223.337 73.1256 222.763 72.981 222.277 72.6916C221.792 72.4023 221.414 71.9963 221.143 71.4736C220.882 70.9416 220.751 70.3163 220.751 69.5976C220.751 69.0563 220.826 68.571 220.975 68.1416C221.125 67.703 221.344 67.3296 221.633 67.0216C221.923 66.7136 222.263 66.4803 222.655 66.3216C223.057 66.1536 223.505 66.0696 223.999 66.0696C224.662 66.0696 225.236 66.2143 225.721 66.5036C226.207 66.793 226.58 67.2036 226.841 67.7356C227.112 68.2583 227.247 68.879 227.247 69.5976C227.247 70.139 227.173 70.6243 227.023 71.0536C226.874 71.483 226.655 71.8563 226.365 72.1736C226.076 72.4816 225.731 72.7196 225.329 72.8876C224.937 73.0463 224.494 73.1256 223.999 73.1256ZM223.999 72.2156C224.419 72.2156 224.788 72.113 225.105 71.9076C225.423 71.7023 225.665 71.4036 225.833 71.0116C226.011 70.6196 226.099 70.1483 226.099 69.5976C226.099 68.7483 225.908 68.0996 225.525 67.6516C225.152 67.2036 224.643 66.9796 223.999 66.9796C223.57 66.9796 223.197 67.0823 222.879 67.2876C222.571 67.4836 222.329 67.7776 222.151 68.1696C221.983 68.5523 221.899 69.0283 221.899 69.5976C221.899 70.4376 222.091 71.0863 222.473 71.5436C222.856 71.9916 223.365 72.2156 223.999 72.2156ZM229.511 73.0976C229.324 73.0976 229.184 73.0463 229.091 72.9436C228.997 72.841 228.951 72.6963 228.951 72.5096V66.6716C228.951 66.485 228.997 66.345 229.091 66.2516C229.184 66.149 229.319 66.0976 229.497 66.0976C229.674 66.0976 229.809 66.149 229.903 66.2516C230.005 66.345 230.057 66.485 230.057 66.6716V67.8756L229.903 67.7076C230.099 67.1663 230.416 66.7603 230.855 66.4896C231.303 66.2096 231.816 66.0696 232.395 66.0696C232.936 66.0696 233.384 66.1676 233.739 66.3636C234.103 66.5596 234.373 66.8583 234.551 67.2596C234.728 67.6516 234.817 68.151 234.817 68.7576V72.5096C234.817 72.6963 234.765 72.841 234.663 72.9436C234.569 73.0463 234.434 73.0976 234.257 73.0976C234.07 73.0976 233.925 73.0463 233.823 72.9436C233.729 72.841 233.683 72.6963 233.683 72.5096V68.8276C233.683 68.193 233.557 67.731 233.305 67.4416C233.062 67.143 232.67 66.9936 232.129 66.9936C231.503 66.9936 231.004 67.1896 230.631 67.5816C230.267 67.9643 230.085 68.4776 230.085 69.1216V72.5096C230.085 72.9016 229.893 73.0976 229.511 73.0976ZM239.974 73.1256C239.255 73.1256 238.634 72.9856 238.112 72.7056C237.598 72.4163 237.197 72.0103 236.908 71.4876C236.628 70.965 236.488 70.3396 236.488 69.6116C236.488 68.9023 236.628 68.2863 236.908 67.7636C237.188 67.2316 237.57 66.8163 238.056 66.5176C238.55 66.219 239.12 66.0696 239.764 66.0696C240.221 66.0696 240.632 66.149 240.996 66.3076C241.36 66.457 241.668 66.6763 241.92 66.9656C242.181 67.255 242.377 67.605 242.508 68.0156C242.648 68.4263 242.718 68.8883 242.718 69.4016C242.718 69.551 242.676 69.663 242.592 69.7376C242.508 69.803 242.386 69.8356 242.228 69.8356H237.356V69.0936H241.962L241.738 69.2756C241.738 68.7716 241.663 68.347 241.514 68.0016C241.364 67.647 241.145 67.3763 240.856 67.1896C240.576 67.003 240.221 66.9096 239.792 66.9096C239.316 66.9096 238.91 67.0216 238.574 67.2456C238.247 67.4603 238 67.7636 237.832 68.1556C237.664 68.5383 237.58 68.9863 237.58 69.4996V69.5836C237.58 70.4423 237.785 71.0956 238.196 71.5436C238.616 71.9916 239.208 72.2156 239.974 72.2156C240.291 72.2156 240.604 72.1736 240.912 72.0896C241.229 72.0056 241.537 71.8656 241.836 71.6696C241.966 71.5856 242.083 71.5483 242.186 71.5576C242.298 71.5576 242.386 71.5903 242.452 71.6556C242.517 71.7116 242.559 71.7863 242.578 71.8796C242.606 71.9636 242.596 72.057 242.55 72.1596C242.512 72.2623 242.433 72.351 242.312 72.4256C242.004 72.6496 241.64 72.8223 241.22 72.9436C240.8 73.065 240.384 73.1256 239.974 73.1256ZM244.332 73.0836C244.211 73.0836 244.104 73.0463 244.01 72.9716C243.917 72.897 243.866 72.799 243.856 72.6776C243.856 72.547 243.917 72.4116 244.038 72.2716L246.488 69.1916V69.7796L244.192 66.9096C244.071 66.7603 244.01 66.625 244.01 66.5036C244.02 66.3823 244.071 66.2843 244.164 66.2096C244.258 66.135 244.365 66.0976 244.486 66.0976C244.626 66.0976 244.743 66.1256 244.836 66.1816C244.939 66.2283 245.032 66.3076 245.116 66.4196L247.118 68.9536H246.726L248.742 66.4196C248.826 66.3076 248.915 66.2283 249.008 66.1816C249.102 66.1256 249.218 66.0976 249.358 66.0976C249.489 66.0976 249.596 66.135 249.68 66.2096C249.774 66.2843 249.82 66.387 249.82 66.5176C249.83 66.639 249.774 66.7743 249.652 66.9236L247.37 69.7516V69.2336L249.82 72.2716C249.932 72.4116 249.984 72.547 249.974 72.6776C249.974 72.799 249.928 72.897 249.834 72.9716C249.741 73.0463 249.629 73.0836 249.498 73.0836C249.368 73.0836 249.251 73.0556 249.148 72.9996C249.055 72.953 248.962 72.8736 248.868 72.7616L246.712 70.0456H247.118L244.962 72.7616C244.878 72.8643 244.785 72.9436 244.682 72.9996C244.589 73.0556 244.472 73.0836 244.332 73.0836ZM253.802 73.1256C253.335 73.1256 252.915 73.037 252.542 72.8596C252.178 72.673 251.888 72.421 251.674 72.1036C251.459 71.7863 251.352 71.4316 251.352 71.0396C251.352 70.5356 251.478 70.139 251.73 69.8496C251.991 69.5603 252.416 69.355 253.004 69.2336C253.601 69.1123 254.413 69.0516 255.44 69.0516H256.07V69.7936H255.454C254.698 69.7936 254.1 69.831 253.662 69.9056C253.232 69.971 252.929 70.0876 252.752 70.2556C252.584 70.4236 252.5 70.6616 252.5 70.9696C252.5 71.3523 252.63 71.665 252.892 71.9076C253.162 72.1503 253.526 72.2716 253.984 72.2716C254.357 72.2716 254.684 72.183 254.964 72.0056C255.253 71.8283 255.477 71.5856 255.636 71.2776C255.804 70.9696 255.888 70.615 255.888 70.2136V68.6176C255.888 68.039 255.771 67.6236 255.538 67.3716C255.304 67.1103 254.922 66.9796 254.39 66.9796C254.063 66.9796 253.736 67.0216 253.41 67.1056C253.083 67.1896 252.738 67.325 252.374 67.5116C252.243 67.577 252.131 67.6003 252.038 67.5816C251.944 67.5536 251.87 67.5023 251.814 67.4276C251.758 67.353 251.725 67.269 251.716 67.1756C251.706 67.073 251.725 66.975 251.772 66.8816C251.828 66.7883 251.912 66.7136 252.024 66.6576C252.434 66.4523 252.84 66.303 253.242 66.2096C253.643 66.1163 254.026 66.0696 254.39 66.0696C254.978 66.0696 255.463 66.1676 255.846 66.3636C256.228 66.5503 256.513 66.8396 256.7 67.2316C256.886 67.6143 256.98 68.109 256.98 68.7156V72.5096C256.98 72.6963 256.933 72.841 256.84 72.9436C256.756 73.0463 256.63 73.0976 256.462 73.0976C256.284 73.0976 256.149 73.0463 256.056 72.9436C255.962 72.841 255.916 72.6963 255.916 72.5096V71.4176H256.042C255.967 71.7723 255.822 72.0756 255.608 72.3276C255.402 72.5796 255.146 72.7756 254.838 72.9156C254.53 73.0556 254.184 73.1256 253.802 73.1256ZM252.206 64.7816C252.112 64.7816 252.033 64.749 251.968 64.6836C251.912 64.6183 251.898 64.5203 251.926 64.3896C251.963 64.1656 252.019 63.9603 252.094 63.7736C252.168 63.587 252.266 63.4236 252.388 63.2836C252.509 63.1436 252.649 63.0363 252.808 62.9616C252.976 62.8776 253.167 62.8356 253.382 62.8356C253.615 62.8356 253.816 62.8916 253.984 63.0036C254.161 63.1063 254.324 63.2276 254.474 63.3676C254.632 63.4983 254.786 63.6196 254.936 63.7316C255.085 63.8436 255.244 63.8996 255.412 63.8996C255.626 63.8996 255.804 63.8203 255.944 63.6616C256.093 63.4936 256.191 63.2743 256.238 63.0036C256.256 62.9103 256.294 62.845 256.35 62.8076C256.415 62.761 256.499 62.7423 256.602 62.7516C256.695 62.7516 256.77 62.7843 256.826 62.8496C256.891 62.915 256.91 63.013 256.882 63.1436C256.835 63.433 256.746 63.6943 256.616 63.9276C256.494 64.161 256.336 64.3476 256.14 64.4876C255.944 64.6276 255.706 64.6976 255.426 64.6976C255.192 64.6976 254.987 64.6463 254.81 64.5436C254.642 64.4316 254.478 64.3056 254.32 64.1656C254.17 64.0256 254.021 63.9043 253.872 63.8016C253.722 63.6896 253.564 63.6336 253.396 63.6336C253.181 63.6336 253.004 63.713 252.864 63.8716C252.724 64.0303 252.626 64.2496 252.57 64.5296C252.551 64.6136 252.509 64.679 252.444 64.7256C252.388 64.7723 252.308 64.791 252.206 64.7816ZM261.912 73.1256C261.249 73.1256 260.675 72.981 260.19 72.6916C259.704 72.4023 259.326 71.9963 259.056 71.4736C258.794 70.9416 258.664 70.3163 258.664 69.5976C258.664 69.0563 258.738 68.571 258.888 68.1416C259.037 67.703 259.256 67.3296 259.546 67.0216C259.835 66.7136 260.176 66.4803 260.568 66.3216C260.969 66.1536 261.417 66.0696 261.912 66.0696C262.574 66.0696 263.148 66.2143 263.634 66.5036C264.119 66.793 264.492 67.2036 264.754 67.7356C265.024 68.2583 265.16 68.879 265.16 69.5976C265.16 70.139 265.085 70.6243 264.936 71.0536C264.786 71.483 264.567 71.8563 264.278 72.1736C263.988 72.4816 263.643 72.7196 263.242 72.8876C262.85 73.0463 262.406 73.1256 261.912 73.1256ZM261.912 72.2156C262.332 72.2156 262.7 72.113 263.018 71.9076C263.335 71.7023 263.578 71.4036 263.746 71.0116C263.923 70.6196 264.012 70.1483 264.012 69.5976C264.012 68.7483 263.82 68.0996 263.438 67.6516C263.064 67.2036 262.556 66.9796 261.912 66.9796C261.482 66.9796 261.109 67.0823 260.792 67.2876C260.484 67.4836 260.241 67.7776 260.064 68.1696C259.896 68.5523 259.812 69.0283 259.812 69.5976C259.812 70.4376 260.003 71.0863 260.386 71.5436C260.768 71.9916 261.277 72.2156 261.912 72.2156ZM124.598 90.0976C124.439 90.0976 124.299 90.0556 124.178 89.9716C124.057 89.8783 123.954 89.7383 123.87 89.5516L121.448 83.8956C121.383 83.7556 121.359 83.625 121.378 83.5036C121.397 83.3823 121.453 83.2843 121.546 83.2096C121.639 83.135 121.77 83.0976 121.938 83.0976C122.087 83.0976 122.204 83.1303 122.288 83.1956C122.372 83.261 122.447 83.3776 122.512 83.5456L124.808 89.1596H124.43L126.768 83.5456C126.833 83.3776 126.908 83.261 126.992 83.1956C127.076 83.1303 127.197 83.0976 127.356 83.0976C127.505 83.0976 127.617 83.135 127.692 83.2096C127.776 83.2843 127.823 83.3823 127.832 83.5036C127.851 83.6156 127.832 83.7416 127.776 83.8816L125.326 89.5516C125.261 89.7383 125.163 89.8783 125.032 89.9716C124.911 90.0556 124.766 90.0976 124.598 90.0976ZM129.829 90.0696C129.642 90.0696 129.502 90.0183 129.409 89.9156C129.316 89.8036 129.269 89.6496 129.269 89.4536V83.7276C129.269 83.5316 129.316 83.3823 129.409 83.2796C129.502 83.177 129.642 83.1256 129.829 83.1256C130.006 83.1256 130.146 83.177 130.249 83.2796C130.352 83.3823 130.403 83.5316 130.403 83.7276V89.4536C130.403 89.6496 130.352 89.8036 130.249 89.9156C130.156 90.0183 130.016 90.0696 129.829 90.0696ZM129.829 81.5576C129.596 81.5576 129.414 81.497 129.283 81.3756C129.152 81.245 129.087 81.0723 129.087 80.8576C129.087 80.6336 129.152 80.4656 129.283 80.3536C129.414 80.2323 129.596 80.1716 129.829 80.1716C130.072 80.1716 130.254 80.2323 130.375 80.3536C130.506 80.4656 130.571 80.6336 130.571 80.8576C130.571 81.0723 130.506 81.245 130.375 81.3756C130.254 81.497 130.072 81.5576 129.829 81.5576ZM135.057 90.0976C134.898 90.0976 134.758 90.0556 134.637 89.9716C134.516 89.8783 134.413 89.7383 134.329 89.5516L131.907 83.8956C131.842 83.7556 131.818 83.625 131.837 83.5036C131.856 83.3823 131.912 83.2843 132.005 83.2096C132.098 83.135 132.229 83.0976 132.397 83.0976C132.546 83.0976 132.663 83.1303 132.747 83.1956C132.831 83.261 132.906 83.3776 132.971 83.5456L135.267 89.1596H134.889L137.227 83.5456C137.292 83.3776 137.367 83.261 137.451 83.1956C137.535 83.1303 137.656 83.0976 137.815 83.0976C137.964 83.0976 138.076 83.135 138.151 83.2096C138.235 83.2843 138.282 83.3823 138.291 83.5036C138.31 83.6156 138.291 83.7416 138.235 83.8816L135.785 89.5516C135.72 89.7383 135.622 89.8783 135.491 89.9716C135.37 90.0556 135.225 90.0976 135.057 90.0976ZM141.733 90.1256C141.267 90.1256 140.847 90.037 140.473 89.8596C140.109 89.673 139.82 89.421 139.605 89.1036C139.391 88.7863 139.283 88.4316 139.283 88.0396C139.283 87.5356 139.409 87.139 139.661 86.8496C139.923 86.5603 140.347 86.355 140.935 86.2336C141.533 86.1123 142.345 86.0516 143.371 86.0516H144.001V86.7936H143.385C142.629 86.7936 142.032 86.831 141.593 86.9056C141.164 86.971 140.861 87.0876 140.683 87.2556C140.515 87.4236 140.431 87.6616 140.431 87.9696C140.431 88.3523 140.562 88.665 140.823 88.9076C141.094 89.1503 141.458 89.2716 141.915 89.2716C142.289 89.2716 142.615 89.183 142.895 89.0056C143.185 88.8283 143.409 88.5856 143.567 88.2776C143.735 87.9696 143.819 87.615 143.819 87.2136V85.6176C143.819 85.039 143.703 84.6236 143.469 84.3716C143.236 84.1103 142.853 83.9796 142.321 83.9796C141.995 83.9796 141.668 84.0216 141.341 84.1056C141.015 84.1896 140.669 84.325 140.305 84.5116C140.175 84.577 140.063 84.6003 139.969 84.5816C139.876 84.5536 139.801 84.5023 139.745 84.4276C139.689 84.353 139.657 84.269 139.647 84.1756C139.638 84.073 139.657 83.975 139.703 83.8816C139.759 83.7883 139.843 83.7136 139.955 83.6576C140.366 83.4523 140.772 83.303 141.173 83.2096C141.575 83.1163 141.957 83.0696 142.321 83.0696C142.909 83.0696 143.395 83.1676 143.777 83.3636C144.16 83.5503 144.445 83.8396 144.631 84.2316C144.818 84.6143 144.911 85.109 144.911 85.7156V89.5096C144.911 89.6963 144.865 89.841 144.771 89.9436C144.687 90.0463 144.561 90.0976 144.393 90.0976C144.216 90.0976 144.081 90.0463 143.987 89.9436C143.894 89.841 143.847 89.6963 143.847 89.5096V88.4176H143.973C143.899 88.7723 143.754 89.0756 143.539 89.3276C143.334 89.5796 143.077 89.7756 142.769 89.9156C142.461 90.0556 142.116 90.1256 141.733 90.1256ZM153.509 90.1256C152.827 90.1256 152.239 89.9763 151.745 89.6776C151.25 89.379 150.867 88.9636 150.597 88.4316C150.335 87.8903 150.205 87.265 150.205 86.5556C150.205 86.0143 150.279 85.529 150.429 85.0996C150.578 84.6703 150.797 84.3063 151.087 84.0076C151.376 83.6996 151.721 83.4663 152.123 83.3076C152.533 83.149 152.995 83.0696 153.509 83.0696C153.845 83.0696 154.195 83.121 154.559 83.2236C154.923 83.3263 155.254 83.5036 155.553 83.7556C155.646 83.821 155.707 83.9003 155.735 83.9936C155.763 84.087 155.763 84.1803 155.735 84.2736C155.707 84.3576 155.66 84.4323 155.595 84.4976C155.529 84.5536 155.445 84.5863 155.343 84.5956C155.249 84.605 155.151 84.5723 155.049 84.4976C154.806 84.311 154.559 84.1803 154.307 84.1056C154.055 84.031 153.812 83.9936 153.579 83.9936C153.215 83.9936 152.897 84.0543 152.627 84.1756C152.356 84.2876 152.127 84.451 151.941 84.6656C151.754 84.8803 151.609 85.1463 151.507 85.4636C151.413 85.781 151.367 86.1496 151.367 86.5696C151.367 87.3816 151.558 88.0256 151.941 88.5016C152.323 88.9683 152.869 89.2016 153.579 89.2016C153.812 89.2016 154.05 89.1643 154.293 89.0896C154.545 89.015 154.797 88.8843 155.049 88.6976C155.151 88.623 155.249 88.5903 155.343 88.5996C155.436 88.609 155.515 88.6463 155.581 88.7116C155.646 88.7676 155.688 88.8423 155.707 88.9356C155.735 89.029 155.735 89.1223 155.707 89.2156C155.679 89.2996 155.618 89.3743 155.525 89.4396C155.226 89.6823 154.899 89.8596 154.545 89.9716C154.19 90.0743 153.845 90.1256 153.509 90.1256ZM159.796 90.1256C159.134 90.1256 158.56 89.981 158.074 89.6916C157.589 89.4023 157.211 88.9963 156.94 88.4736C156.679 87.9416 156.548 87.3163 156.548 86.5976C156.548 86.0563 156.623 85.571 156.772 85.1416C156.922 84.703 157.141 84.3296 157.43 84.0216C157.72 83.7136 158.06 83.4803 158.452 83.3216C158.854 83.1536 159.302 83.0696 159.796 83.0696C160.459 83.0696 161.033 83.2143 161.518 83.5036C162.004 83.793 162.377 84.2036 162.638 84.7356C162.909 85.2583 163.044 85.879 163.044 86.5976C163.044 87.139 162.97 87.6243 162.82 88.0536C162.671 88.483 162.452 88.8563 162.162 89.1736C161.873 89.4816 161.528 89.7196 161.126 89.8876C160.734 90.0463 160.291 90.1256 159.796 90.1256ZM159.796 89.2156C160.216 89.2156 160.585 89.113 160.902 88.9076C161.22 88.7023 161.462 88.4036 161.63 88.0116C161.808 87.6196 161.896 87.1483 161.896 86.5976C161.896 85.7483 161.705 85.0996 161.322 84.6516C160.949 84.2036 160.44 83.9796 159.796 83.9796C159.367 83.9796 158.994 84.0823 158.676 84.2876C158.368 84.4836 158.126 84.7776 157.948 85.1696C157.78 85.5523 157.696 86.0283 157.696 86.5976C157.696 87.4376 157.888 88.0863 158.27 88.5436C158.653 88.9916 159.162 89.2156 159.796 89.2156ZM165.336 90.0976C165.149 90.0976 165.009 90.0463 164.916 89.9436C164.822 89.841 164.776 89.6963 164.776 89.5096V83.6716C164.776 83.485 164.822 83.345 164.916 83.2516C165.009 83.149 165.144 83.0976 165.322 83.0976C165.499 83.0976 165.634 83.149 165.728 83.2516C165.83 83.345 165.882 83.485 165.882 83.6716V84.9036L165.728 84.7076C165.905 84.185 166.19 83.7836 166.582 83.5036C166.983 83.2143 167.459 83.0696 168.01 83.0696C168.588 83.0696 169.055 83.2096 169.41 83.4896C169.774 83.7603 170.016 84.185 170.138 84.7636H169.928C170.096 84.241 170.394 83.8303 170.824 83.5316C171.262 83.2236 171.771 83.0696 172.35 83.0696C172.863 83.0696 173.283 83.1676 173.61 83.3636C173.946 83.5596 174.198 83.8583 174.366 84.2596C174.534 84.6516 174.618 85.151 174.618 85.7576V89.5096C174.618 89.6963 174.566 89.841 174.464 89.9436C174.37 90.0463 174.23 90.0976 174.044 90.0976C173.866 90.0976 173.726 90.0463 173.624 89.9436C173.53 89.841 173.484 89.6963 173.484 89.5096V85.8136C173.484 85.1883 173.376 84.731 173.162 84.4416C172.947 84.143 172.583 83.9936 172.07 83.9936C171.51 83.9936 171.066 84.1896 170.74 84.5816C170.422 84.9643 170.264 85.487 170.264 86.1496V89.5096C170.264 89.6963 170.212 89.841 170.11 89.9436C170.016 90.0463 169.876 90.0976 169.69 90.0976C169.512 90.0976 169.372 90.0463 169.27 89.9436C169.176 89.841 169.13 89.6963 169.13 89.5096V85.8136C169.13 85.1883 169.018 84.731 168.794 84.4416C168.579 84.143 168.22 83.9936 167.716 83.9936C167.156 83.9936 166.712 84.1896 166.386 84.5816C166.068 84.9643 165.91 85.487 165.91 86.1496V89.5096C165.91 89.9016 165.718 90.0976 165.336 90.0976ZM181.131 89.9996C180.926 89.9996 180.767 89.9483 180.655 89.8456C180.553 89.7336 180.501 89.575 180.501 89.3696V80.7596C180.501 80.5543 180.553 80.4003 180.655 80.2976C180.767 80.1856 180.926 80.1296 181.131 80.1296H183.833C185.429 80.1296 186.661 80.5496 187.529 81.3896C188.397 82.2296 188.831 83.4523 188.831 85.0576C188.831 85.8603 188.719 86.5696 188.495 87.1856C188.281 87.7923 187.959 88.3056 187.529 88.7256C187.1 89.1456 186.577 89.463 185.961 89.6776C185.345 89.8923 184.636 89.9996 183.833 89.9996H181.131ZM181.649 89.0196H183.749C184.403 89.0196 184.967 88.9356 185.443 88.7676C185.929 88.5996 186.33 88.3523 186.647 88.0256C186.974 87.699 187.217 87.2883 187.375 86.7936C187.534 86.2896 187.613 85.711 187.613 85.0576C187.613 83.7416 187.291 82.757 186.647 82.1036C186.003 81.441 185.037 81.1096 183.749 81.1096H181.649V89.0196ZM193.804 90.1256C193.085 90.1256 192.464 89.9856 191.942 89.7056C191.428 89.4163 191.027 89.0103 190.738 88.4876C190.458 87.965 190.318 87.3396 190.318 86.6116C190.318 85.9023 190.458 85.2863 190.738 84.7636C191.018 84.2316 191.4 83.8163 191.886 83.5176C192.38 83.219 192.95 83.0696 193.594 83.0696C194.051 83.0696 194.462 83.149 194.826 83.3076C195.19 83.457 195.498 83.6763 195.75 83.9656C196.011 84.255 196.207 84.605 196.338 85.0156C196.478 85.4263 196.548 85.8883 196.548 86.4016C196.548 86.551 196.506 86.663 196.422 86.7376C196.338 86.803 196.216 86.8356 196.058 86.8356H191.186V86.0936H195.792L195.568 86.2756C195.568 85.7716 195.493 85.347 195.344 85.0016C195.194 84.647 194.975 84.3763 194.686 84.1896C194.406 84.003 194.051 83.9096 193.622 83.9096C193.146 83.9096 192.74 84.0216 192.404 84.2456C192.077 84.4603 191.83 84.7636 191.662 85.1556C191.494 85.5383 191.41 85.9863 191.41 86.4996V86.5836C191.41 87.4423 191.615 88.0956 192.026 88.5436C192.446 88.9916 193.038 89.2156 193.804 89.2156C194.121 89.2156 194.434 89.1736 194.742 89.0896C195.059 89.0056 195.367 88.8656 195.666 88.6696C195.796 88.5856 195.913 88.5483 196.016 88.5576C196.128 88.5576 196.216 88.5903 196.282 88.6556C196.347 88.7116 196.389 88.7863 196.408 88.8796C196.436 88.9636 196.426 89.057 196.38 89.1596C196.342 89.2623 196.263 89.351 196.142 89.4256C195.834 89.6496 195.47 89.8223 195.05 89.9436C194.63 90.065 194.214 90.1256 193.804 90.1256ZM200.597 90.1256C200.046 90.1256 199.589 90.0276 199.225 89.8316C198.87 89.6263 198.6 89.323 198.413 88.9216C198.236 88.5203 198.147 88.021 198.147 87.4236V83.6716C198.147 83.4756 198.194 83.331 198.287 83.2376C198.39 83.1443 198.53 83.0976 198.707 83.0976C198.894 83.0976 199.034 83.1443 199.127 83.2376C199.23 83.331 199.281 83.4756 199.281 83.6716V87.4096C199.281 88.007 199.402 88.455 199.645 88.7536C199.897 89.043 200.289 89.1876 200.821 89.1876C201.4 89.1876 201.871 88.9916 202.235 88.5996C202.599 88.2076 202.781 87.6943 202.781 87.0596V83.6716C202.781 83.4756 202.828 83.331 202.921 83.2376C203.024 83.1443 203.168 83.0976 203.355 83.0976C203.532 83.0976 203.668 83.1443 203.761 83.2376C203.864 83.331 203.915 83.4756 203.915 83.6716V89.5096C203.915 89.9016 203.733 90.0976 203.369 90.0976C203.192 90.0976 203.052 90.0463 202.949 89.9436C202.856 89.841 202.809 89.6963 202.809 89.5096V88.2356L202.991 88.4316C202.804 88.9823 202.496 89.4023 202.067 89.6916C201.647 89.981 201.157 90.1256 200.597 90.1256ZM208.333 90.1256C207.913 90.1256 207.488 90.0743 207.059 89.9716C206.639 89.869 206.247 89.6916 205.883 89.4396C205.789 89.3743 205.724 89.2996 205.687 89.2156C205.649 89.1223 205.635 89.0336 205.645 88.9496C205.663 88.8563 205.701 88.777 205.757 88.7116C205.822 88.6463 205.897 88.609 205.981 88.5996C206.074 88.581 206.177 88.5996 206.289 88.6556C206.653 88.8796 207.003 89.0383 207.339 89.1316C207.684 89.2156 208.025 89.2576 208.361 89.2576C208.893 89.2576 209.294 89.1596 209.565 88.9636C209.835 88.7676 209.971 88.5016 209.971 88.1656C209.971 87.9043 209.882 87.699 209.705 87.5496C209.527 87.391 209.247 87.2696 208.865 87.1856L207.591 86.9056C207.003 86.7843 206.564 86.5743 206.275 86.2756C205.995 85.977 205.855 85.5896 205.855 85.1136C205.855 84.6936 205.962 84.3343 206.177 84.0356C206.401 83.7276 206.713 83.4896 207.115 83.3216C207.516 83.1536 207.983 83.0696 208.515 83.0696C208.925 83.0696 209.313 83.1256 209.677 83.2376C210.05 83.3403 210.386 83.5083 210.685 83.7416C210.778 83.807 210.839 83.8863 210.867 83.9796C210.904 84.0636 210.909 84.1523 210.881 84.2456C210.862 84.3296 210.82 84.4043 210.755 84.4696C210.689 84.5256 210.61 84.5583 210.517 84.5676C210.423 84.577 210.325 84.549 210.223 84.4836C209.943 84.297 209.658 84.1616 209.369 84.0776C209.079 83.9843 208.795 83.9376 208.515 83.9376C207.992 83.9376 207.595 84.0403 207.325 84.2456C207.054 84.451 206.919 84.7216 206.919 85.0576C206.919 85.319 207.003 85.5336 207.171 85.7016C207.339 85.8696 207.6 85.991 207.955 86.0656L209.229 86.3316C209.835 86.4623 210.288 86.6723 210.587 86.9616C210.895 87.2416 211.049 87.6243 211.049 88.1096C211.049 88.7256 210.801 89.2156 210.307 89.5796C209.812 89.9436 209.154 90.1256 208.333 90.1256ZM213.255 90.0556C213.021 90.0556 212.835 89.9856 212.695 89.8456C212.555 89.6963 212.485 89.5096 212.485 89.2856C212.485 89.0616 212.555 88.8796 212.695 88.7396C212.835 88.5903 213.021 88.5156 213.255 88.5156C213.488 88.5156 213.67 88.5903 213.801 88.7396C213.941 88.8796 214.011 89.0616 214.011 89.2856C214.011 89.5096 213.941 89.6963 213.801 89.8456C213.67 89.9856 213.488 90.0556 213.255 90.0556Z" fill="white"/>
<path d="M283.732 96.9458C283.528 96.12 283.751 95.2468 284.325 94.6192L287.319 91.3413C287.543 91.0956 287.607 90.7436 287.485 90.4346C287.362 90.1257 287.073 89.9139 286.742 89.8892L282.218 89.5533C281.385 89.4921 280.635 89.0271 280.211 88.3086L277.91 84.4134C277.8 84.2242 277.622 84.0841 277.413 84.0217C277.312 83.9922 277.207 83.9809 277.102 83.9885C276.773 84.0067 276.484 84.2126 276.36 84.5174L274.601 88.6865C274.277 89.4557 273.597 90.0177 272.781 90.1909L268.349 91.1349C268.024 91.2036 267.766 91.4522 267.686 91.775C267.606 92.0977 267.717 92.438 267.973 92.651L271.382 95.4954C272.035 96.0401 272.373 96.8749 272.283 97.7208L271.816 102.128C271.782 102.455 271.936 102.774 272.215 102.951C272.493 103.128 272.847 103.132 273.13 102.962L277.056 100.587C277.762 100.161 278.631 100.102 279.388 100.43L283.6 102.253C283.902 102.385 284.253 102.333 284.505 102.12C284.758 101.907 284.867 101.57 284.788 101.249L283.732 96.9458Z" fill="url(#paint0_linear_150_35353)"/>
</g>
</g>
<g clip-path="url(#clip1_150_35353)" filter="url(#filter1_d_150_35353)">
<path d="M28.8345 76.4201L83.6517 92.2013L99.4329 37.384C101.44 30.4119 97.4126 23.0876 90.4139 21.0727L48.2619 8.93765C41.2897 6.93046 33.9654 10.958 31.9505 17.9567L14.9522 77.0016C12.945 83.9737 16.9725 91.2981 23.9713 93.3129L75.0762 108.025C77.1264 108.616 79.267 107.432 79.8572 105.382L81.2227 100.639L26.4054 84.8576C24.0872 84.1902 22.7224 81.7487 23.3949 79.4128C24.0622 77.0948 26.4986 75.7476 28.8345 76.4201ZM57.1911 36.9856L61.9074 38.3433L63.2677 33.6181C63.858 31.5679 65.9985 30.3843 68.0488 30.9745L69.0617 31.2661C71.1119 31.8564 72.2955 33.9969 71.7053 36.0472L70.3449 40.7724L75.0701 42.1327C77.1204 42.723 78.304 44.8635 77.7137 46.9138L77.4221 47.9267C76.8319 49.9769 74.6913 51.1605 72.6411 50.5702L67.9159 49.2099L64.129 62.3638C63.5388 64.414 61.3983 65.5976 59.348 65.0074L58.3351 64.7157C56.2848 64.1255 55.1013 61.985 55.6915 59.9347L59.4784 46.7809L54.762 45.4231C52.7118 44.8328 51.5282 42.6923 52.1184 40.642L52.41 39.6292C53.0003 37.5789 55.1408 36.3953 57.1911 36.9856Z" fill="white"/>
</g>
<defs>
<filter id="filter0_dd_150_35353" x="11.0918" y="2.32239" width="290.225" height="122.889" filterUnits="userSpaceOnUse" color-interpolation-filters="sRGB">
<feFlood flood-opacity="0" result="BackgroundImageFix"/>
<feColorMatrix in="SourceAlpha" type="matrix" values="0 0 0 0 0 0 0 0 0 0 0 0 0 0 0 0 0 0 127 0" result="hardAlpha"/>
<feMorphology radius="2.54394" operator="erode" in="SourceAlpha" result="effect1_dropShadow_150_35353"/>
<feOffset dy="2.54394"/>
<feGaussianBlur stdDeviation="1.90795"/>
<feComposite in2="hardAlpha" operator="out"/>
<feColorMatrix type="matrix" values="0 0 0 0 0 0 0 0 0 0 0 0 0 0 0 0 0 0 0.1 0"/>
<feBlend mode="normal" in2="BackgroundImageFix" result="effect1_dropShadow_150_35353"/>
<feColorMatrix in="SourceAlpha" type="matrix" values="0 0 0 0 0 0 0 0 0 0 0 0 0 0 0 0 0 0 127 0" result="hardAlpha"/>
<feMorphology radius="1.90795" operator="erode" in="SourceAlpha" result="effect2_dropShadow_150_35353"/>
<feOffset dy="6.35984"/>
<feGaussianBlur stdDeviation="4.76988"/>
<feComposite in2="hardAlpha" operator="out"/>
<feColorMatrix type="matrix" values="0 0 0 0 0 0 0 0 0 0 0 0 0 0 0 0 0 0 0.1 0"/>
<feBlend mode="normal" in2="effect1_dropShadow_150_35353" result="effect2_dropShadow_150_35353"/>
<feBlend mode="normal" in="SourceGraphic" in2="effect2_dropShadow_150_35353" result="shape"/>
</filter>
<filter id="filter1_d_150_35353" x="-4" y="0" width="122.386" height="122.385" filterUnits="userSpaceOnUse" color-interpolation-filters="sRGB">
<feFlood flood-opacity="0" result="BackgroundImageFix"/>
<feColorMatrix in="SourceAlpha" type="matrix" values="0 0 0 0 0 0 0 0 0 0 0 0 0 0 0 0 0 0 127 0" result="hardAlpha"/>
<feOffset dy="4"/>
<feGaussianBlur stdDeviation="2"/>
<feComposite in2="hardAlpha" operator="out"/>
<feColorMatrix type="matrix" values="0 0 0 0 0 0 0 0 0 0 0 0 0 0 0 0 0 0 0.25 0"/>
<feBlend mode="normal" in2="BackgroundImageFix" result="effect1_dropShadow_150_35353"/>
<feBlend mode="normal" in="SourceGraphic" in2="effect1_dropShadow_150_35353" result="shape"/>
</filter>
<linearGradient id="paint0_linear_150_35353" x1="279.786" y1="84.7238" x2="274.209" y2="103.576" gradientUnits="userSpaceOnUse">
<stop stop-color="#FFF8C3"/>
<stop offset="1" stop-color="#FFEE69"/>
</linearGradient>
<clipPath id="clip0_150_35353">
<rect x="18.7236" y="3.59436" width="274.961" height="107.625" rx="11.0574" fill="white"/>
</clipPath>
<clipPath id="clip1_150_35353">
<rect width="92.4233" height="92.4233" fill="white" transform="translate(25.5693) rotate(16.0605)"/>
</clipPath>
</defs>
</svg>
