<svg width="322" height="150" viewBox="0 0 322 150" fill="none" xmlns="http://www.w3.org/2000/svg">
<g filter="url(#filter0_dd_150_35240)">
<g clip-path="url(#clip0_150_35240)">
<rect x="39.167" y="7.90271" width="274.997" height="119.564" fill="#5283FC"/>
<path d="M136.86 47.16C136.447 47.16 136.12 47.0467 135.88 46.82C135.653 46.58 135.54 46.24 135.54 45.8V34.26C135.54 33.82 135.653 33.4867 135.88 33.26C136.12 33.02 136.46 32.9 136.9 32.9H143.88C144.227 32.9 144.487 32.9867 144.66 33.16C144.833 33.3333 144.92 33.58 144.92 33.9C144.92 34.2333 144.833 34.4933 144.66 34.68C144.487 34.8533 144.227 34.94 143.88 34.94H138.1V38.92H143.46C143.793 38.92 144.047 39.0067 144.22 39.18C144.407 39.3533 144.5 39.6 144.5 39.92C144.5 40.2533 144.407 40.5133 144.22 40.7C144.047 40.8733 143.793 40.96 143.46 40.96H138.1V45.8C138.1 46.7067 137.687 47.16 136.86 47.16ZM148.05 47.16C147.637 47.16 147.317 47.0467 147.09 46.82C146.877 46.58 146.77 46.2533 146.77 45.84V34.06C146.77 33.6333 146.877 33.3067 147.09 33.08C147.317 32.8533 147.637 32.74 148.05 32.74C148.464 32.74 148.777 32.8533 148.99 33.08C149.217 33.3067 149.33 33.6333 149.33 34.06V45.84C149.33 46.2533 149.224 46.58 149.01 46.82C148.797 47.0467 148.477 47.16 148.05 47.16ZM149.07 31.58C148.91 31.7533 148.73 31.8467 148.53 31.86C148.344 31.86 148.17 31.8067 148.01 31.7C147.864 31.58 147.764 31.4333 147.71 31.26C147.67 31.0867 147.71 30.9067 147.83 30.72L149.39 28.42C149.537 28.1933 149.71 28.06 149.91 28.02C150.124 27.9667 150.33 27.98 150.53 28.06C150.73 28.1267 150.89 28.24 151.01 28.4C151.144 28.5467 151.217 28.72 151.23 28.92C151.244 29.1067 151.164 29.2933 150.99 29.48L149.07 31.58ZM157.275 47.2C156.688 47.2 156.102 47.1533 155.515 47.06C154.928 46.98 154.375 46.8533 153.855 46.68C153.335 46.4933 152.868 46.2667 152.455 46C152.215 45.84 152.048 45.6467 151.955 45.42C151.862 45.1933 151.828 44.9733 151.855 44.76C151.895 44.5333 151.982 44.34 152.115 44.18C152.262 44.0067 152.442 43.9 152.655 43.86C152.868 43.82 153.102 43.88 153.355 44.04C153.942 44.3867 154.562 44.64 155.215 44.8C155.868 44.96 156.555 45.04 157.275 45.04C158.328 45.04 159.095 44.8667 159.575 44.52C160.055 44.16 160.295 43.7 160.295 43.14C160.295 42.6733 160.122 42.3067 159.775 42.04C159.442 41.7733 158.862 41.5533 158.035 41.38L155.835 40.92C154.568 40.6533 153.622 40.2067 152.995 39.58C152.382 38.94 152.075 38.1 152.075 37.06C152.075 36.4067 152.208 35.8133 152.475 35.28C152.742 34.7467 153.115 34.2867 153.595 33.9C154.088 33.5133 154.668 33.22 155.335 33.02C156.015 32.8067 156.762 32.7 157.575 32.7C158.375 32.7 159.135 32.8 159.855 33C160.575 33.2 161.222 33.4933 161.795 33.88C162.008 34.0267 162.148 34.2067 162.215 34.42C162.295 34.6333 162.315 34.8467 162.275 35.06C162.235 35.26 162.142 35.4333 161.995 35.58C161.848 35.7267 161.662 35.8133 161.435 35.84C161.222 35.8667 160.975 35.8 160.695 35.64C160.202 35.36 159.702 35.16 159.195 35.04C158.688 34.92 158.142 34.86 157.555 34.86C156.942 34.86 156.415 34.9467 155.975 35.12C155.535 35.2933 155.195 35.54 154.955 35.86C154.728 36.1667 154.615 36.5333 154.615 36.96C154.615 37.44 154.775 37.8267 155.095 38.12C155.415 38.4 155.962 38.62 156.735 38.78L158.915 39.24C160.235 39.52 161.215 39.96 161.855 40.56C162.508 41.16 162.835 41.96 162.835 42.96C162.835 43.6 162.702 44.18 162.435 44.7C162.182 45.22 161.808 45.6667 161.315 46.04C160.835 46.4133 160.255 46.7 159.575 46.9C158.895 47.1 158.128 47.2 157.275 47.2ZM166.312 47.16C165.899 47.16 165.579 47.0467 165.352 46.82C165.139 46.58 165.032 46.2533 165.032 45.84V34.06C165.032 33.6333 165.139 33.3067 165.352 33.08C165.579 32.8533 165.899 32.74 166.312 32.74C166.726 32.74 167.039 32.8533 167.252 33.08C167.479 33.3067 167.592 33.6333 167.592 34.06V45.84C167.592 46.2533 167.486 46.58 167.272 46.82C167.059 47.0467 166.739 47.16 166.312 47.16ZM177.237 47.2C175.77 47.2 174.51 46.9067 173.457 46.32C172.417 45.72 171.617 44.88 171.057 43.8C170.497 42.7067 170.217 41.42 170.217 39.94C170.217 38.8333 170.377 37.84 170.697 36.96C171.017 36.0667 171.477 35.3067 172.077 34.68C172.677 34.04 173.41 33.5533 174.277 33.22C175.157 32.8733 176.143 32.7 177.237 32.7C177.97 32.7 178.69 32.7933 179.397 32.98C180.103 33.1667 180.723 33.4333 181.257 33.78C181.537 33.9533 181.723 34.1667 181.817 34.42C181.91 34.66 181.93 34.9 181.877 35.14C181.823 35.3667 181.71 35.56 181.537 35.72C181.377 35.88 181.17 35.9733 180.917 36C180.677 36.0133 180.41 35.9267 180.117 35.74C179.703 35.4733 179.257 35.28 178.777 35.16C178.297 35.04 177.81 34.98 177.317 34.98C176.37 34.98 175.57 35.1733 174.917 35.56C174.263 35.9467 173.77 36.5067 173.437 37.24C173.103 37.9733 172.937 38.8733 172.937 39.94C172.937 40.9933 173.103 41.8933 173.437 42.64C173.77 43.3867 174.263 43.9533 174.917 44.34C175.57 44.7267 176.37 44.92 177.317 44.92C177.823 44.92 178.323 44.86 178.817 44.74C179.31 44.6067 179.777 44.4067 180.217 44.14C180.51 43.9667 180.77 43.8933 180.997 43.92C181.237 43.9333 181.437 44.0133 181.597 44.16C181.757 44.3067 181.863 44.4933 181.917 44.72C181.97 44.9333 181.957 45.16 181.877 45.4C181.797 45.6267 181.637 45.8267 181.397 46C180.863 46.3867 180.223 46.6867 179.477 46.9C178.743 47.1 177.997 47.2 177.237 47.2ZM190.141 47.2C188.781 47.2 187.588 46.9 186.561 46.3C185.548 45.7 184.761 44.86 184.201 43.78C183.641 42.6867 183.361 41.4067 183.361 39.94C183.361 38.8333 183.521 37.84 183.841 36.96C184.161 36.0667 184.615 35.3067 185.201 34.68C185.801 34.04 186.515 33.5533 187.341 33.22C188.181 32.8733 189.115 32.7 190.141 32.7C191.515 32.7 192.708 33 193.721 33.6C194.735 34.1867 195.521 35.02 196.081 36.1C196.641 37.18 196.921 38.4533 196.921 39.92C196.921 41.0267 196.761 42.0267 196.441 42.92C196.121 43.8133 195.661 44.58 195.061 45.22C194.475 45.86 193.761 46.3533 192.921 46.7C192.095 47.0333 191.168 47.2 190.141 47.2ZM190.141 45C191.008 45 191.741 44.8 192.341 44.4C192.955 44 193.421 43.42 193.741 42.66C194.075 41.9 194.241 40.9933 194.241 39.94C194.241 38.34 193.881 37.1 193.161 36.22C192.455 35.34 191.448 34.9 190.141 34.9C189.288 34.9 188.555 35.1 187.941 35.5C187.328 35.8867 186.855 36.46 186.521 37.22C186.201 37.9667 186.041 38.8733 186.041 39.94C186.041 41.5267 186.401 42.7667 187.121 43.66C187.841 44.5533 188.848 45 190.141 45Z" fill="white"/>
<path d="M135.792 68.098C135.605 68.098 135.461 68.0467 135.358 67.944C135.265 67.832 135.218 67.6827 135.218 67.496V58.718C135.218 58.522 135.269 58.3773 135.372 58.284C135.475 58.1813 135.619 58.13 135.806 58.13H139.124C140.179 58.13 140.991 58.3913 141.56 58.914C142.129 59.4273 142.414 60.1553 142.414 61.098C142.414 62.0313 142.129 62.7593 141.56 63.282C140.991 63.8047 140.179 64.066 139.124 64.066H136.366V67.496C136.366 67.6827 136.319 67.832 136.226 67.944C136.133 68.0467 135.988 68.098 135.792 68.098ZM136.366 63.1H138.984C139.74 63.1 140.309 62.932 140.692 62.596C141.084 62.2507 141.28 61.7513 141.28 61.098C141.28 60.4353 141.084 59.936 140.692 59.6C140.309 59.2547 139.74 59.082 138.984 59.082H136.366V63.1ZM144.361 68.098C144.174 68.098 144.029 68.0467 143.927 67.944C143.833 67.8413 143.787 67.6967 143.787 67.51V61.672C143.787 61.4853 143.833 61.3453 143.927 61.252C144.02 61.1493 144.155 61.098 144.333 61.098C144.51 61.098 144.645 61.1493 144.739 61.252C144.841 61.3453 144.893 61.4853 144.893 61.672V62.806H144.753C144.902 62.2553 145.187 61.8307 145.607 61.532C146.027 61.2333 146.545 61.0747 147.161 61.056C147.301 61.0467 147.413 61.0793 147.497 61.154C147.581 61.2193 147.627 61.336 147.637 61.504C147.646 61.6627 147.609 61.7887 147.525 61.882C147.441 61.9753 147.31 62.0313 147.133 62.05L146.909 62.078C146.274 62.134 145.784 62.3393 145.439 62.694C145.103 63.0393 144.935 63.5153 144.935 64.122V67.51C144.935 67.6967 144.883 67.8413 144.781 67.944C144.687 68.0467 144.547 68.098 144.361 68.098ZM151.55 68.126C150.888 68.126 150.314 67.9813 149.828 67.692C149.343 67.4027 148.965 66.9967 148.694 66.474C148.433 65.942 148.302 65.3167 148.302 64.598C148.302 64.0567 148.377 63.5713 148.526 63.142C148.676 62.7033 148.895 62.33 149.184 62.022C149.474 61.714 149.814 61.4807 150.206 61.322C150.608 61.154 151.056 61.07 151.55 61.07C152.213 61.07 152.787 61.2147 153.272 61.504C153.758 61.7933 154.131 62.204 154.392 62.736C154.663 63.2587 154.798 63.8793 154.798 64.598C154.798 65.1393 154.724 65.6247 154.574 66.054C154.425 66.4833 154.206 66.8567 153.916 67.174C153.627 67.482 153.282 67.72 152.88 67.888C152.488 68.0467 152.045 68.126 151.55 68.126ZM151.55 67.216C151.97 67.216 152.339 67.1133 152.656 66.908C152.974 66.7027 153.216 66.404 153.384 66.012C153.562 65.62 153.65 65.1487 153.65 64.598C153.65 63.7487 153.459 63.1 153.076 62.652C152.703 62.204 152.194 61.98 151.55 61.98C151.121 61.98 150.748 62.0827 150.43 62.288C150.122 62.484 149.88 62.778 149.702 63.17C149.534 63.5527 149.45 64.0287 149.45 64.598C149.45 65.438 149.642 66.0867 150.024 66.544C150.407 66.992 150.916 67.216 151.55 67.216ZM157.09 68.098C156.903 68.098 156.763 68.0467 156.67 67.944C156.576 67.8413 156.53 67.6967 156.53 67.51V61.672C156.53 61.4853 156.576 61.3453 156.67 61.252C156.763 61.1493 156.898 61.098 157.076 61.098C157.253 61.098 157.388 61.1493 157.482 61.252C157.584 61.3453 157.636 61.4853 157.636 61.672V62.904L157.482 62.708C157.659 62.1853 157.944 61.784 158.336 61.504C158.737 61.2147 159.213 61.07 159.764 61.07C160.342 61.07 160.809 61.21 161.164 61.49C161.528 61.7607 161.77 62.1853 161.892 62.764H161.682C161.85 62.2413 162.148 61.8307 162.578 61.532C163.016 61.224 163.525 61.07 164.104 61.07C164.617 61.07 165.037 61.168 165.364 61.364C165.7 61.56 165.952 61.8587 166.12 62.26C166.288 62.652 166.372 63.1513 166.372 63.758V67.51C166.372 67.6967 166.32 67.8413 166.218 67.944C166.124 68.0467 165.984 68.098 165.798 68.098C165.62 68.098 165.48 68.0467 165.378 67.944C165.284 67.8413 165.238 67.6967 165.238 67.51V63.814C165.238 63.1887 165.13 62.7313 164.916 62.442C164.701 62.1433 164.337 61.994 163.824 61.994C163.264 61.994 162.82 62.19 162.494 62.582C162.176 62.9647 162.018 63.4873 162.018 64.15V67.51C162.018 67.6967 161.966 67.8413 161.864 67.944C161.77 68.0467 161.63 68.098 161.444 68.098C161.266 68.098 161.126 68.0467 161.024 67.944C160.93 67.8413 160.884 67.6967 160.884 67.51V63.814C160.884 63.1887 160.772 62.7313 160.548 62.442C160.333 62.1433 159.974 61.994 159.47 61.994C158.91 61.994 158.466 62.19 158.14 62.582C157.822 62.9647 157.664 63.4873 157.664 64.15V67.51C157.664 67.902 157.472 68.098 157.09 68.098ZM171.32 68.126C170.657 68.126 170.083 67.9813 169.598 67.692C169.112 67.4027 168.734 66.9967 168.464 66.474C168.202 65.942 168.072 65.3167 168.072 64.598C168.072 64.0567 168.146 63.5713 168.296 63.142C168.445 62.7033 168.664 62.33 168.954 62.022C169.243 61.714 169.584 61.4807 169.976 61.322C170.377 61.154 170.825 61.07 171.32 61.07C171.982 61.07 172.556 61.2147 173.042 61.504C173.527 61.7933 173.9 62.204 174.162 62.736C174.432 63.2587 174.568 63.8793 174.568 64.598C174.568 65.1393 174.493 65.6247 174.344 66.054C174.194 66.4833 173.975 66.8567 173.686 67.174C173.396 67.482 173.051 67.72 172.65 67.888C172.258 68.0467 171.814 68.126 171.32 68.126ZM171.32 67.216C171.74 67.216 172.108 67.1133 172.426 66.908C172.743 66.7027 172.986 66.404 173.154 66.012C173.331 65.62 173.42 65.1487 173.42 64.598C173.42 63.7487 173.228 63.1 172.846 62.652C172.472 62.204 171.964 61.98 171.32 61.98C170.89 61.98 170.517 62.0827 170.2 62.288C169.892 62.484 169.649 62.778 169.472 63.17C169.304 63.5527 169.22 64.0287 169.22 64.598C169.22 65.438 169.411 66.0867 169.794 66.544C170.176 66.992 170.685 67.216 171.32 67.216ZM178.709 68.098C178.551 68.098 178.411 68.056 178.289 67.972C178.168 67.8787 178.065 67.7387 177.981 67.552L175.559 61.896C175.494 61.756 175.471 61.6253 175.489 61.504C175.508 61.3827 175.564 61.2847 175.657 61.21C175.751 61.1353 175.881 61.098 176.049 61.098C176.199 61.098 176.315 61.1307 176.399 61.196C176.483 61.2613 176.558 61.378 176.623 61.546L178.919 67.16H178.541L180.879 61.546C180.945 61.378 181.019 61.2613 181.103 61.196C181.187 61.1307 181.309 61.098 181.467 61.098C181.617 61.098 181.729 61.1353 181.803 61.21C181.887 61.2847 181.934 61.3827 181.943 61.504C181.962 61.616 181.943 61.742 181.887 61.882L179.437 67.552C179.372 67.7387 179.274 67.8787 179.143 67.972C179.022 68.056 178.877 68.098 178.709 68.098ZM186.351 68.126C185.632 68.126 185.011 67.986 184.489 67.706C183.975 67.4167 183.574 67.0107 183.285 66.488C183.005 65.9653 182.865 65.34 182.865 64.612C182.865 63.9027 183.005 63.2867 183.285 62.764C183.565 62.232 183.947 61.8167 184.433 61.518C184.927 61.2193 185.497 61.07 186.141 61.07C186.598 61.07 187.009 61.1493 187.373 61.308C187.737 61.4573 188.045 61.6767 188.297 61.966C188.558 62.2553 188.754 62.6053 188.885 63.016C189.025 63.4267 189.095 63.8887 189.095 64.402C189.095 64.5513 189.053 64.6633 188.969 64.738C188.885 64.8033 188.763 64.836 188.605 64.836H183.733V64.094H188.339L188.115 64.276C188.115 63.772 188.04 63.3473 187.891 63.002C187.741 62.6473 187.522 62.3767 187.233 62.19C186.953 62.0033 186.598 61.91 186.169 61.91C185.693 61.91 185.287 62.022 184.951 62.246C184.624 62.4607 184.377 62.764 184.209 63.156C184.041 63.5387 183.957 63.9867 183.957 64.5V64.584C183.957 65.4427 184.162 66.096 184.573 66.544C184.993 66.992 185.585 67.216 186.351 67.216C186.668 67.216 186.981 67.174 187.289 67.09C187.606 67.006 187.914 66.866 188.213 66.67C188.343 66.586 188.46 66.5487 188.563 66.558C188.675 66.558 188.763 66.5907 188.829 66.656C188.894 66.712 188.936 66.7867 188.955 66.88C188.983 66.964 188.973 67.0573 188.927 67.16C188.889 67.2627 188.81 67.3513 188.689 67.426C188.381 67.65 188.017 67.8227 187.597 67.944C187.177 68.0653 186.761 68.126 186.351 68.126ZM191.324 68.098C191.137 68.098 190.997 68.0467 190.904 67.944C190.811 67.8413 190.764 67.6967 190.764 67.51V61.672C190.764 61.4853 190.811 61.3453 190.904 61.252C190.997 61.1493 191.133 61.098 191.31 61.098C191.487 61.098 191.623 61.1493 191.716 61.252C191.819 61.3453 191.87 61.4853 191.87 61.672V62.904L191.716 62.708C191.893 62.1853 192.178 61.784 192.57 61.504C192.971 61.2147 193.447 61.07 193.998 61.07C194.577 61.07 195.043 61.21 195.398 61.49C195.762 61.7607 196.005 62.1853 196.126 62.764H195.916C196.084 62.2413 196.383 61.8307 196.812 61.532C197.251 61.224 197.759 61.07 198.338 61.07C198.851 61.07 199.271 61.168 199.598 61.364C199.934 61.56 200.186 61.8587 200.354 62.26C200.522 62.652 200.606 63.1513 200.606 63.758V67.51C200.606 67.6967 200.555 67.8413 200.452 67.944C200.359 68.0467 200.219 68.098 200.032 68.098C199.855 68.098 199.715 68.0467 199.612 67.944C199.519 67.8413 199.472 67.6967 199.472 67.51V63.814C199.472 63.1887 199.365 62.7313 199.15 62.442C198.935 62.1433 198.571 61.994 198.058 61.994C197.498 61.994 197.055 62.19 196.728 62.582C196.411 62.9647 196.252 63.4873 196.252 64.15V67.51C196.252 67.6967 196.201 67.8413 196.098 67.944C196.005 68.0467 195.865 68.098 195.678 68.098C195.501 68.098 195.361 68.0467 195.258 67.944C195.165 67.8413 195.118 67.6967 195.118 67.51V63.814C195.118 63.1887 195.006 62.7313 194.782 62.442C194.567 62.1433 194.208 61.994 193.704 61.994C193.144 61.994 192.701 62.19 192.374 62.582C192.057 62.9647 191.898 63.4873 191.898 64.15V67.51C191.898 67.902 191.707 68.098 191.324 68.098ZM205.554 68.126C204.891 68.126 204.317 67.9813 203.832 67.692C203.347 67.4027 202.969 66.9967 202.698 66.474C202.437 65.942 202.306 65.3167 202.306 64.598C202.306 64.0567 202.381 63.5713 202.53 63.142C202.679 62.7033 202.899 62.33 203.188 62.022C203.477 61.714 203.818 61.4807 204.21 61.322C204.611 61.154 205.059 61.07 205.554 61.07C206.217 61.07 206.791 61.2147 207.276 61.504C207.761 61.7933 208.135 62.204 208.396 62.736C208.667 63.2587 208.802 63.8793 208.802 64.598C208.802 65.1393 208.727 65.6247 208.578 66.054C208.429 66.4833 208.209 66.8567 207.92 67.174C207.631 67.482 207.285 67.72 206.884 67.888C206.492 68.0467 206.049 68.126 205.554 68.126ZM205.554 67.216C205.974 67.216 206.343 67.1133 206.66 66.908C206.977 66.7027 207.22 66.404 207.388 66.012C207.565 65.62 207.654 65.1487 207.654 64.598C207.654 63.7487 207.463 63.1 207.08 62.652C206.707 62.204 206.198 61.98 205.554 61.98C205.125 61.98 204.751 62.0827 204.434 62.288C204.126 62.484 203.883 62.778 203.706 63.17C203.538 63.5527 203.454 64.0287 203.454 64.598C203.454 65.438 203.645 66.0867 204.028 66.544C204.411 66.992 204.919 67.216 205.554 67.216ZM212.801 68.126C212.381 68.126 211.957 68.0747 211.527 67.972C211.107 67.8693 210.715 67.692 210.351 67.44C210.258 67.3747 210.193 67.3 210.155 67.216C210.118 67.1227 210.104 67.034 210.113 66.95C210.132 66.8567 210.169 66.7773 210.225 66.712C210.291 66.6467 210.365 66.6093 210.449 66.6C210.543 66.5813 210.645 66.6 210.757 66.656C211.121 66.88 211.471 67.0387 211.807 67.132C212.153 67.216 212.493 67.258 212.829 67.258C213.361 67.258 213.763 67.16 214.033 66.964C214.304 66.768 214.439 66.502 214.439 66.166C214.439 65.9047 214.351 65.6993 214.173 65.55C213.996 65.3913 213.716 65.27 213.333 65.186L212.059 64.906C211.471 64.7847 211.033 64.5747 210.743 64.276C210.463 63.9773 210.323 63.59 210.323 63.114C210.323 62.694 210.431 62.3347 210.645 62.036C210.869 61.728 211.182 61.49 211.583 61.322C211.985 61.154 212.451 61.07 212.983 61.07C213.394 61.07 213.781 61.126 214.145 61.238C214.519 61.3407 214.855 61.5087 215.153 61.742C215.247 61.8073 215.307 61.8867 215.335 61.98C215.373 62.064 215.377 62.1527 215.349 62.246C215.331 62.33 215.289 62.4047 215.223 62.47C215.158 62.526 215.079 62.5587 214.985 62.568C214.892 62.5773 214.794 62.5493 214.691 62.484C214.411 62.2973 214.127 62.162 213.837 62.078C213.548 61.9847 213.263 61.938 212.983 61.938C212.461 61.938 212.064 62.0407 211.793 62.246C211.523 62.4513 211.387 62.722 211.387 63.058C211.387 63.3193 211.471 63.534 211.639 63.702C211.807 63.87 212.069 63.9913 212.423 64.066L213.697 64.332C214.304 64.4627 214.757 64.6727 215.055 64.962C215.363 65.242 215.517 65.6247 215.517 66.11C215.517 66.726 215.27 67.216 214.775 67.58C214.281 67.944 213.623 68.126 212.801 68.126ZM223.683 68.126C223.02 68.126 222.446 67.9813 221.961 67.692C221.476 67.4027 221.098 66.9967 220.827 66.474C220.566 65.942 220.435 65.3167 220.435 64.598C220.435 64.0567 220.51 63.5713 220.659 63.142C220.808 62.7033 221.028 62.33 221.317 62.022C221.606 61.714 221.947 61.4807 222.339 61.322C222.74 61.154 223.188 61.07 223.683 61.07C224.346 61.07 224.92 61.2147 225.405 61.504C225.89 61.7933 226.264 62.204 226.525 62.736C226.796 63.2587 226.931 63.8793 226.931 64.598C226.931 65.1393 226.856 65.6247 226.707 66.054C226.558 66.4833 226.338 66.8567 226.049 67.174C225.76 67.482 225.414 67.72 225.013 67.888C224.621 68.0467 224.178 68.126 223.683 68.126ZM223.683 67.216C224.103 67.216 224.472 67.1133 224.789 66.908C225.106 66.7027 225.349 66.404 225.517 66.012C225.694 65.62 225.783 65.1487 225.783 64.598C225.783 63.7487 225.592 63.1 225.209 62.652C224.836 62.204 224.327 61.98 223.683 61.98C223.254 61.98 222.88 62.0827 222.563 62.288C222.255 62.484 222.012 62.778 221.835 63.17C221.667 63.5527 221.583 64.0287 221.583 64.598C221.583 65.438 221.774 66.0867 222.157 66.544C222.54 66.992 223.048 67.216 223.683 67.216ZM235.128 68.126C234.446 68.126 233.858 67.9767 233.364 67.678C232.869 67.3793 232.486 66.964 232.216 66.432C231.954 65.8907 231.824 65.2653 231.824 64.556C231.824 64.0147 231.898 63.5293 232.048 63.1C232.197 62.6707 232.416 62.3067 232.706 62.008C232.995 61.7 233.34 61.4667 233.742 61.308C234.152 61.1493 234.614 61.07 235.128 61.07C235.464 61.07 235.814 61.1213 236.178 61.224C236.542 61.3267 236.873 61.504 237.172 61.756C237.265 61.8213 237.326 61.9007 237.354 61.994C237.382 62.0873 237.382 62.1807 237.354 62.274C237.326 62.358 237.279 62.4327 237.214 62.498C237.148 62.554 237.064 62.5867 236.962 62.596C236.868 62.6053 236.77 62.5727 236.668 62.498C236.425 62.3113 236.178 62.1807 235.926 62.106C235.674 62.0313 235.431 61.994 235.198 61.994C234.834 61.994 234.516 62.0547 234.246 62.176C233.975 62.288 233.746 62.4513 233.56 62.666C233.373 62.8807 233.228 63.1467 233.126 63.464C233.032 63.7813 232.986 64.15 232.986 64.57C232.986 65.382 233.177 66.026 233.56 66.502C233.942 66.9687 234.488 67.202 235.198 67.202C235.431 67.202 235.669 67.1647 235.912 67.09C236.164 67.0153 236.416 66.8847 236.668 66.698C236.77 66.6233 236.868 66.5907 236.962 66.6C237.055 66.6093 237.134 66.6467 237.2 66.712C237.265 66.768 237.307 66.8427 237.326 66.936C237.354 67.0293 237.354 67.1227 237.326 67.216C237.298 67.3 237.237 67.3747 237.144 67.44C236.845 67.6827 236.518 67.86 236.164 67.972C235.809 68.0747 235.464 68.126 235.128 68.126ZM241.132 68.126C240.581 68.126 240.124 68.028 239.76 67.832C239.405 67.6267 239.135 67.3233 238.948 66.922C238.771 66.5207 238.682 66.0213 238.682 65.424V61.672C238.682 61.476 238.729 61.3313 238.822 61.238C238.925 61.1447 239.065 61.098 239.242 61.098C239.429 61.098 239.569 61.1447 239.662 61.238C239.765 61.3313 239.816 61.476 239.816 61.672V65.41C239.816 66.0073 239.937 66.4553 240.18 66.754C240.432 67.0433 240.824 67.188 241.356 67.188C241.935 67.188 242.406 66.992 242.77 66.6C243.134 66.208 243.316 65.6947 243.316 65.06V61.672C243.316 61.476 243.363 61.3313 243.456 61.238C243.559 61.1447 243.703 61.098 243.89 61.098C244.067 61.098 244.203 61.1447 244.296 61.238C244.399 61.3313 244.45 61.476 244.45 61.672V67.51C244.45 67.902 244.268 68.098 243.904 68.098C243.727 68.098 243.587 68.0467 243.484 67.944C243.391 67.8413 243.344 67.6967 243.344 67.51V66.236L243.526 66.432C243.339 66.9827 243.031 67.4027 242.602 67.692C242.182 67.9813 241.692 68.126 241.132 68.126ZM247.132 68.07C246.945 68.07 246.805 68.0187 246.712 67.916C246.618 67.804 246.572 67.65 246.572 67.454V61.728C246.572 61.532 246.618 61.3827 246.712 61.28C246.805 61.1773 246.945 61.126 247.132 61.126C247.309 61.126 247.449 61.1773 247.552 61.28C247.654 61.3827 247.706 61.532 247.706 61.728V67.454C247.706 67.65 247.654 67.804 247.552 67.916C247.458 68.0187 247.318 68.07 247.132 68.07ZM247.132 59.558C246.898 59.558 246.716 59.4973 246.586 59.376C246.455 59.2453 246.39 59.0727 246.39 58.858C246.39 58.634 246.455 58.466 246.586 58.354C246.716 58.2327 246.898 58.172 247.132 58.172C247.374 58.172 247.556 58.2327 247.678 58.354C247.808 58.466 247.874 58.634 247.874 58.858C247.874 59.0727 247.808 59.2453 247.678 59.376C247.556 59.4973 247.374 59.558 247.132 59.558ZM252.416 68.126C251.809 68.126 251.277 67.9813 250.82 67.692C250.372 67.4027 250.022 66.9967 249.77 66.474C249.527 65.942 249.406 65.3167 249.406 64.598C249.406 63.87 249.527 63.2447 249.77 62.722C250.022 62.19 250.372 61.784 250.82 61.504C251.277 61.2147 251.809 61.07 252.416 61.07C253.032 61.07 253.559 61.224 253.998 61.532C254.436 61.84 254.73 62.2553 254.88 62.778H254.726V58.606C254.726 58.4193 254.772 58.2793 254.866 58.186C254.968 58.0833 255.113 58.032 255.3 58.032C255.477 58.032 255.612 58.0833 255.706 58.186C255.808 58.2793 255.86 58.4193 255.86 58.606V67.51C255.86 67.6967 255.813 67.8413 255.72 67.944C255.626 68.0467 255.486 68.098 255.3 68.098C255.122 68.098 254.982 68.0467 254.88 67.944C254.786 67.8413 254.74 67.6967 254.74 67.51V66.18L254.894 66.376C254.744 66.908 254.446 67.3327 253.998 67.65C253.559 67.9673 253.032 68.126 252.416 68.126ZM252.654 67.216C253.074 67.216 253.442 67.1133 253.76 66.908C254.077 66.7027 254.32 66.404 254.488 66.012C254.665 65.62 254.754 65.1487 254.754 64.598C254.754 63.7487 254.562 63.1 254.18 62.652C253.806 62.204 253.298 61.98 252.654 61.98C252.224 61.98 251.851 62.0827 251.534 62.288C251.226 62.484 250.983 62.778 250.806 63.17C250.638 63.5527 250.554 64.0287 250.554 64.598C250.554 65.438 250.745 66.0867 251.128 66.544C251.51 66.992 252.019 67.216 252.654 67.216ZM260.13 68.126C259.663 68.126 259.243 68.0373 258.87 67.86C258.506 67.6733 258.216 67.4213 258.002 67.104C257.787 66.7867 257.68 66.432 257.68 66.04C257.68 65.536 257.806 65.1393 258.058 64.85C258.319 64.5607 258.744 64.3553 259.332 64.234C259.929 64.1127 260.741 64.052 261.768 64.052H262.398V64.794H261.782C261.026 64.794 260.428 64.8313 259.99 64.906C259.56 64.9713 259.257 65.088 259.08 65.256C258.912 65.424 258.828 65.662 258.828 65.97C258.828 66.3527 258.958 66.6653 259.22 66.908C259.49 67.1507 259.854 67.272 260.312 67.272C260.685 67.272 261.012 67.1833 261.292 67.006C261.581 66.8287 261.805 66.586 261.964 66.278C262.132 65.97 262.216 65.6153 262.216 65.214V63.618C262.216 63.0393 262.099 62.624 261.866 62.372C261.632 62.1107 261.25 61.98 260.718 61.98C260.391 61.98 260.064 62.022 259.738 62.106C259.411 62.19 259.066 62.3253 258.702 62.512C258.571 62.5773 258.459 62.6007 258.366 62.582C258.272 62.554 258.198 62.5027 258.142 62.428C258.086 62.3533 258.053 62.2693 258.044 62.176C258.034 62.0733 258.053 61.9753 258.1 61.882C258.156 61.7887 258.24 61.714 258.352 61.658C258.762 61.4527 259.168 61.3033 259.57 61.21C259.971 61.1167 260.354 61.07 260.718 61.07C261.306 61.07 261.791 61.168 262.174 61.364C262.556 61.5507 262.841 61.84 263.028 62.232C263.214 62.6147 263.308 63.1093 263.308 63.716V67.51C263.308 67.6967 263.261 67.8413 263.168 67.944C263.084 68.0467 262.958 68.098 262.79 68.098C262.612 68.098 262.477 68.0467 262.384 67.944C262.29 67.8413 262.244 67.6967 262.244 67.51V66.418H262.37C262.295 66.7727 262.15 67.076 261.936 67.328C261.73 67.58 261.474 67.776 261.166 67.916C260.858 68.056 260.512 68.126 260.13 68.126ZM268.002 68.126C267.395 68.126 266.863 67.9813 266.406 67.692C265.958 67.4027 265.608 66.9967 265.356 66.474C265.113 65.942 264.992 65.3167 264.992 64.598C264.992 63.87 265.113 63.2447 265.356 62.722C265.608 62.19 265.958 61.784 266.406 61.504C266.863 61.2147 267.395 61.07 268.002 61.07C268.618 61.07 269.145 61.224 269.584 61.532C270.022 61.84 270.316 62.2553 270.466 62.778H270.312V58.606C270.312 58.4193 270.358 58.2793 270.452 58.186C270.554 58.0833 270.699 58.032 270.886 58.032C271.063 58.032 271.198 58.0833 271.292 58.186C271.394 58.2793 271.446 58.4193 271.446 58.606V67.51C271.446 67.6967 271.399 67.8413 271.306 67.944C271.212 68.0467 271.072 68.098 270.886 68.098C270.708 68.098 270.568 68.0467 270.466 67.944C270.372 67.8413 270.326 67.6967 270.326 67.51V66.18L270.48 66.376C270.33 66.908 270.032 67.3327 269.584 67.65C269.145 67.9673 268.618 68.126 268.002 68.126ZM268.24 67.216C268.66 67.216 269.028 67.1133 269.346 66.908C269.663 66.7027 269.906 66.404 270.074 66.012C270.251 65.62 270.34 65.1487 270.34 64.598C270.34 63.7487 270.148 63.1 269.766 62.652C269.392 62.204 268.884 61.98 268.24 61.98C267.81 61.98 267.437 62.0827 267.12 62.288C266.812 62.484 266.569 62.778 266.392 63.17C266.224 63.5527 266.14 64.0287 266.14 64.598C266.14 65.438 266.331 66.0867 266.714 66.544C267.096 66.992 267.605 67.216 268.24 67.216ZM276.402 68.126C275.739 68.126 275.165 67.9813 274.68 67.692C274.194 67.4027 273.816 66.9967 273.546 66.474C273.284 65.942 273.154 65.3167 273.154 64.598C273.154 64.0567 273.228 63.5713 273.378 63.142C273.527 62.7033 273.746 62.33 274.036 62.022C274.325 61.714 274.666 61.4807 275.058 61.322C275.459 61.154 275.907 61.07 276.402 61.07C277.064 61.07 277.638 61.2147 278.124 61.504C278.609 61.7933 278.982 62.204 279.244 62.736C279.514 63.2587 279.65 63.8793 279.65 64.598C279.65 65.1393 279.575 65.6247 279.426 66.054C279.276 66.4833 279.057 66.8567 278.768 67.174C278.478 67.482 278.133 67.72 277.732 67.888C277.34 68.0467 276.896 68.126 276.402 68.126ZM276.402 67.216C276.822 67.216 277.19 67.1133 277.508 66.908C277.825 66.7027 278.068 66.404 278.236 66.012C278.413 65.62 278.502 65.1487 278.502 64.598C278.502 63.7487 278.31 63.1 277.928 62.652C277.554 62.204 277.046 61.98 276.402 61.98C275.972 61.98 275.599 62.0827 275.282 62.288C274.974 62.484 274.731 62.778 274.554 63.17C274.386 63.5527 274.302 64.0287 274.302 64.598C274.302 65.438 274.493 66.0867 274.876 66.544C275.258 66.992 275.767 67.216 276.402 67.216ZM287.552 68.126C286.946 68.126 286.414 67.9813 285.956 67.692C285.508 67.4027 285.158 66.9967 284.906 66.474C284.664 65.942 284.542 65.3167 284.542 64.598C284.542 63.87 284.664 63.2447 284.906 62.722C285.158 62.19 285.508 61.784 285.956 61.504C286.414 61.2147 286.946 61.07 287.552 61.07C288.168 61.07 288.696 61.224 289.134 61.532C289.573 61.84 289.867 62.2553 290.016 62.778H289.862V58.606C289.862 58.4193 289.909 58.2793 290.002 58.186C290.105 58.0833 290.25 58.032 290.436 58.032C290.614 58.032 290.749 58.0833 290.842 58.186C290.945 58.2793 290.996 58.4193 290.996 58.606V67.51C290.996 67.6967 290.95 67.8413 290.856 67.944C290.763 68.0467 290.623 68.098 290.436 68.098C290.259 68.098 290.119 68.0467 290.016 67.944C289.923 67.8413 289.876 67.6967 289.876 67.51V66.18L290.03 66.376C289.881 66.908 289.582 67.3327 289.134 67.65C288.696 67.9673 288.168 68.126 287.552 68.126ZM287.79 67.216C288.21 67.216 288.579 67.1133 288.896 66.908C289.214 66.7027 289.456 66.404 289.624 66.012C289.802 65.62 289.89 65.1487 289.89 64.598C289.89 63.7487 289.699 63.1 289.316 62.652C288.943 62.204 288.434 61.98 287.79 61.98C287.361 61.98 286.988 62.0827 286.67 62.288C286.362 62.484 286.12 62.778 285.942 63.17C285.774 63.5527 285.69 64.0287 285.69 64.598C285.69 65.438 285.882 66.0867 286.264 66.544C286.647 66.992 287.156 67.216 287.79 67.216ZM295.953 68.126C295.29 68.126 294.716 67.9813 294.231 67.692C293.745 67.4027 293.367 66.9967 293.097 66.474C292.835 65.942 292.705 65.3167 292.705 64.598C292.705 64.0567 292.779 63.5713 292.929 63.142C293.078 62.7033 293.297 62.33 293.587 62.022C293.876 61.714 294.217 61.4807 294.609 61.322C295.01 61.154 295.458 61.07 295.953 61.07C296.615 61.07 297.189 61.2147 297.675 61.504C298.16 61.7933 298.533 62.204 298.795 62.736C299.065 63.2587 299.201 63.8793 299.201 64.598C299.201 65.1393 299.126 65.6247 298.977 66.054C298.827 66.4833 298.608 66.8567 298.319 67.174C298.029 67.482 297.684 67.72 297.283 67.888C296.891 68.0467 296.447 68.126 295.953 68.126ZM295.953 67.216C296.373 67.216 296.741 67.1133 297.059 66.908C297.376 66.7027 297.619 66.404 297.787 66.012C297.964 65.62 298.053 65.1487 298.053 64.598C298.053 63.7487 297.861 63.1 297.479 62.652C297.105 62.204 296.597 61.98 295.953 61.98C295.523 61.98 295.15 62.0827 294.833 62.288C294.525 62.484 294.282 62.778 294.105 63.17C293.937 63.5527 293.853 64.0287 293.853 64.598C293.853 65.438 294.044 66.0867 294.427 66.544C294.809 66.992 295.318 67.216 295.953 67.216ZM137.948 84.126C137.267 84.126 136.679 83.9767 136.184 83.678C135.689 83.3793 135.307 82.964 135.036 82.432C134.775 81.8907 134.644 81.2653 134.644 80.556C134.644 80.0147 134.719 79.5293 134.868 79.1C135.017 78.6707 135.237 78.3067 135.526 78.008C135.815 77.7 136.161 77.4667 136.562 77.308C136.973 77.1493 137.435 77.07 137.948 77.07C138.284 77.07 138.634 77.1213 138.998 77.224C139.362 77.3267 139.693 77.504 139.992 77.756C140.085 77.8213 140.146 77.9007 140.174 77.994C140.202 78.0873 140.202 78.1807 140.174 78.274C140.146 78.358 140.099 78.4327 140.034 78.498C139.969 78.554 139.885 78.5867 139.782 78.596C139.689 78.6053 139.591 78.5727 139.488 78.498C139.245 78.3113 138.998 78.1807 138.746 78.106C138.494 78.0313 138.251 77.994 138.018 77.994C137.654 77.994 137.337 78.0547 137.066 78.176C136.795 78.288 136.567 78.4513 136.38 78.666C136.193 78.8807 136.049 79.1467 135.946 79.464C135.853 79.7813 135.806 80.15 135.806 80.57C135.806 81.382 135.997 82.026 136.38 82.502C136.763 82.9687 137.309 83.202 138.018 83.202C138.251 83.202 138.489 83.1647 138.732 83.09C138.984 83.0153 139.236 82.8847 139.488 82.698C139.591 82.6233 139.689 82.5907 139.782 82.6C139.875 82.6093 139.955 82.6467 140.02 82.712C140.085 82.768 140.127 82.8427 140.146 82.936C140.174 83.0293 140.174 83.1227 140.146 83.216C140.118 83.3 140.057 83.3747 139.964 83.44C139.665 83.6827 139.339 83.86 138.984 83.972C138.629 84.0747 138.284 84.126 137.948 84.126ZM144.236 84.126C143.573 84.126 142.999 83.9813 142.514 83.692C142.028 83.4027 141.65 82.9967 141.38 82.474C141.118 81.942 140.988 81.3167 140.988 80.598C140.988 80.0567 141.062 79.5713 141.212 79.142C141.361 78.7033 141.58 78.33 141.87 78.022C142.159 77.714 142.5 77.4807 142.892 77.322C143.293 77.154 143.741 77.07 144.236 77.07C144.898 77.07 145.472 77.2147 145.958 77.504C146.443 77.7933 146.816 78.204 147.078 78.736C147.348 79.2587 147.484 79.8793 147.484 80.598C147.484 81.1393 147.409 81.6247 147.26 82.054C147.11 82.4833 146.891 82.8567 146.602 83.174C146.312 83.482 145.967 83.72 145.566 83.888C145.174 84.0467 144.73 84.126 144.236 84.126ZM144.236 83.216C144.656 83.216 145.024 83.1133 145.342 82.908C145.659 82.7027 145.902 82.404 146.07 82.012C146.247 81.62 146.336 81.1487 146.336 80.598C146.336 79.7487 146.144 79.1 145.762 78.652C145.388 78.204 144.88 77.98 144.236 77.98C143.806 77.98 143.433 78.0827 143.116 78.288C142.808 78.484 142.565 78.778 142.388 79.17C142.22 79.5527 142.136 80.0287 142.136 80.598C142.136 81.438 142.327 82.0867 142.71 82.544C143.092 82.992 143.601 83.216 144.236 83.216ZM149.761 84.098C149.574 84.098 149.43 84.0467 149.327 83.944C149.234 83.8413 149.187 83.6967 149.187 83.51V77.672C149.187 77.4853 149.234 77.3453 149.327 77.252C149.42 77.1493 149.556 77.098 149.733 77.098C149.91 77.098 150.046 77.1493 150.139 77.252C150.242 77.3453 150.293 77.4853 150.293 77.672V78.806H150.153C150.302 78.2553 150.587 77.8307 151.007 77.532C151.427 77.2333 151.945 77.0747 152.561 77.056C152.701 77.0467 152.813 77.0793 152.897 77.154C152.981 77.2193 153.028 77.336 153.037 77.504C153.046 77.6627 153.009 77.7887 152.925 77.882C152.841 77.9753 152.71 78.0313 152.533 78.05L152.309 78.078C151.674 78.134 151.184 78.3393 150.839 78.694C150.503 79.0393 150.335 79.5153 150.335 80.122V83.51C150.335 83.6967 150.284 83.8413 150.181 83.944C150.088 84.0467 149.948 84.098 149.761 84.098ZM154.765 86.618C154.578 86.618 154.438 86.5667 154.345 86.464C154.251 86.3707 154.205 86.2307 154.205 86.044V77.672C154.205 77.4853 154.251 77.3453 154.345 77.252C154.438 77.1493 154.573 77.098 154.751 77.098C154.937 77.098 155.077 77.1493 155.171 77.252C155.273 77.3453 155.325 77.4853 155.325 77.672V79.002L155.171 78.806C155.32 78.274 155.614 77.854 156.053 77.546C156.501 77.2287 157.033 77.07 157.649 77.07C158.255 77.07 158.783 77.2147 159.231 77.504C159.688 77.784 160.038 78.19 160.281 78.722C160.533 79.2447 160.659 79.87 160.659 80.598C160.659 81.3167 160.533 81.942 160.281 82.474C160.038 82.9967 159.693 83.4027 159.245 83.692C158.797 83.9813 158.265 84.126 157.649 84.126C157.033 84.126 156.505 83.972 156.067 83.664C155.628 83.3467 155.329 82.9267 155.171 82.404H155.339V86.044C155.339 86.2307 155.287 86.3707 155.185 86.464C155.082 86.5667 154.942 86.618 154.765 86.618ZM157.411 83.216C157.84 83.216 158.209 83.1133 158.517 82.908C158.834 82.7027 159.077 82.404 159.245 82.012C159.422 81.62 159.511 81.1487 159.511 80.598C159.511 79.7487 159.319 79.1 158.937 78.652C158.563 78.204 158.055 77.98 157.411 77.98C156.991 77.98 156.622 78.0827 156.305 78.288C155.987 78.484 155.74 78.778 155.563 79.17C155.395 79.5527 155.311 80.0287 155.311 80.598C155.311 81.438 155.502 82.0867 155.885 82.544C156.267 82.992 156.776 83.216 157.411 83.216ZM165.195 84.126C164.532 84.126 163.958 83.9813 163.473 83.692C162.987 83.4027 162.609 82.9967 162.339 82.474C162.077 81.942 161.947 81.3167 161.947 80.598C161.947 80.0567 162.021 79.5713 162.171 79.142C162.32 78.7033 162.539 78.33 162.829 78.022C163.118 77.714 163.459 77.4807 163.851 77.322C164.252 77.154 164.7 77.07 165.195 77.07C165.857 77.07 166.431 77.2147 166.917 77.504C167.402 77.7933 167.775 78.204 168.037 78.736C168.307 79.2587 168.443 79.8793 168.443 80.598C168.443 81.1393 168.368 81.6247 168.219 82.054C168.069 82.4833 167.85 82.8567 167.561 83.174C167.271 83.482 166.926 83.72 166.525 83.888C166.133 84.0467 165.689 84.126 165.195 84.126ZM165.195 83.216C165.615 83.216 165.983 83.1133 166.301 82.908C166.618 82.7027 166.861 82.404 167.029 82.012C167.206 81.62 167.295 81.1487 167.295 80.598C167.295 79.7487 167.103 79.1 166.721 78.652C166.347 78.204 165.839 77.98 165.195 77.98C164.765 77.98 164.392 78.0827 164.075 78.288C163.767 78.484 163.524 78.778 163.347 79.17C163.179 79.5527 163.095 80.0287 163.095 80.598C163.095 81.438 163.286 82.0867 163.669 82.544C164.051 82.992 164.56 83.216 165.195 83.216ZM176.639 84.126C175.958 84.126 175.37 83.9767 174.875 83.678C174.381 83.3793 173.998 82.964 173.727 82.432C173.466 81.8907 173.335 81.2653 173.335 80.556C173.335 80.0147 173.41 79.5293 173.559 79.1C173.709 78.6707 173.928 78.3067 174.217 78.008C174.507 77.7 174.852 77.4667 175.253 77.308C175.664 77.1493 176.126 77.07 176.639 77.07C176.975 77.07 177.325 77.1213 177.689 77.224C178.053 77.3267 178.385 77.504 178.683 77.756C178.777 77.8213 178.837 77.9007 178.865 77.994C178.893 78.0873 178.893 78.1807 178.865 78.274C178.837 78.358 178.791 78.4327 178.725 78.498C178.66 78.554 178.576 78.5867 178.473 78.596C178.38 78.6053 178.282 78.5727 178.179 78.498C177.937 78.3113 177.689 78.1807 177.437 78.106C177.185 78.0313 176.943 77.994 176.709 77.994C176.345 77.994 176.028 78.0547 175.757 78.176C175.487 78.288 175.258 78.4513 175.071 78.666C174.885 78.8807 174.74 79.1467 174.637 79.464C174.544 79.7813 174.497 80.15 174.497 80.57C174.497 81.382 174.689 82.026 175.071 82.502C175.454 82.9687 176 83.202 176.709 83.202C176.943 83.202 177.181 83.1647 177.423 83.09C177.675 83.0153 177.927 82.8847 178.179 82.698C178.282 82.6233 178.38 82.5907 178.473 82.6C178.567 82.6093 178.646 82.6467 178.711 82.712C178.777 82.768 178.819 82.8427 178.837 82.936C178.865 83.0293 178.865 83.1227 178.837 83.216C178.809 83.3 178.749 83.3747 178.655 83.44C178.357 83.6827 178.03 83.86 177.675 83.972C177.321 84.0747 176.975 84.126 176.639 84.126ZM182.927 84.126C182.264 84.126 181.69 83.9813 181.205 83.692C180.72 83.4027 180.342 82.9967 180.071 82.474C179.81 81.942 179.679 81.3167 179.679 80.598C179.679 80.0567 179.754 79.5713 179.903 79.142C180.052 78.7033 180.272 78.33 180.561 78.022C180.85 77.714 181.191 77.4807 181.583 77.322C181.984 77.154 182.432 77.07 182.927 77.07C183.59 77.07 184.164 77.2147 184.649 77.504C185.134 77.7933 185.508 78.204 185.769 78.736C186.04 79.2587 186.175 79.8793 186.175 80.598C186.175 81.1393 186.1 81.6247 185.951 82.054C185.802 82.4833 185.582 82.8567 185.293 83.174C185.004 83.482 184.658 83.72 184.257 83.888C183.865 84.0467 183.422 84.126 182.927 84.126ZM182.927 83.216C183.347 83.216 183.716 83.1133 184.033 82.908C184.35 82.7027 184.593 82.404 184.761 82.012C184.938 81.62 185.027 81.1487 185.027 80.598C185.027 79.7487 184.836 79.1 184.453 78.652C184.08 78.204 183.571 77.98 182.927 77.98C182.498 77.98 182.124 78.0827 181.807 78.288C181.499 78.484 181.256 78.778 181.079 79.17C180.911 79.5527 180.827 80.0287 180.827 80.598C180.827 81.438 181.018 82.0867 181.401 82.544C181.784 82.992 182.292 83.216 182.927 83.216ZM188.466 84.098C188.28 84.098 188.14 84.0467 188.046 83.944C187.953 83.8413 187.906 83.6967 187.906 83.51V77.672C187.906 77.4853 187.953 77.3453 188.046 77.252C188.14 77.1493 188.275 77.098 188.452 77.098C188.63 77.098 188.765 77.1493 188.858 77.252C188.961 77.3453 189.012 77.4853 189.012 77.672V78.904L188.858 78.708C189.036 78.1853 189.32 77.784 189.712 77.504C190.114 77.2147 190.59 77.07 191.14 77.07C191.719 77.07 192.186 77.21 192.54 77.49C192.904 77.7607 193.147 78.1853 193.268 78.764H193.058C193.226 78.2413 193.525 77.8307 193.954 77.532C194.393 77.224 194.902 77.07 195.48 77.07C195.994 77.07 196.414 77.168 196.74 77.364C197.076 77.56 197.328 77.8587 197.496 78.26C197.664 78.652 197.748 79.1513 197.748 79.758V83.51C197.748 83.6967 197.697 83.8413 197.594 83.944C197.501 84.0467 197.361 84.098 197.174 84.098C196.997 84.098 196.857 84.0467 196.754 83.944C196.661 83.8413 196.614 83.6967 196.614 83.51V79.814C196.614 79.1887 196.507 78.7313 196.292 78.442C196.078 78.1433 195.714 77.994 195.2 77.994C194.64 77.994 194.197 78.19 193.87 78.582C193.553 78.9647 193.394 79.4873 193.394 80.15V83.51C193.394 83.6967 193.343 83.8413 193.24 83.944C193.147 84.0467 193.007 84.098 192.82 84.098C192.643 84.098 192.503 84.0467 192.4 83.944C192.307 83.8413 192.26 83.6967 192.26 83.51V79.814C192.26 79.1887 192.148 78.7313 191.924 78.442C191.71 78.1433 191.35 77.994 190.846 77.994C190.286 77.994 189.843 78.19 189.516 78.582C189.199 78.9647 189.04 79.4873 189.04 80.15V83.51C189.04 83.902 188.849 84.098 188.466 84.098ZM202.697 84.126C202.034 84.126 201.46 83.9813 200.975 83.692C200.489 83.4027 200.111 82.9967 199.841 82.474C199.579 81.942 199.449 81.3167 199.449 80.598C199.449 80.0567 199.523 79.5713 199.673 79.142C199.822 78.7033 200.041 78.33 200.331 78.022C200.62 77.714 200.961 77.4807 201.353 77.322C201.754 77.154 202.202 77.07 202.697 77.07C203.359 77.07 203.933 77.2147 204.419 77.504C204.904 77.7933 205.277 78.204 205.539 78.736C205.809 79.2587 205.945 79.8793 205.945 80.598C205.945 81.1393 205.87 81.6247 205.721 82.054C205.571 82.4833 205.352 82.8567 205.063 83.174C204.773 83.482 204.428 83.72 204.027 83.888C203.635 84.0467 203.191 84.126 202.697 84.126ZM202.697 83.216C203.117 83.216 203.485 83.1133 203.803 82.908C204.12 82.7027 204.363 82.404 204.531 82.012C204.708 81.62 204.797 81.1487 204.797 80.598C204.797 79.7487 204.605 79.1 204.223 78.652C203.849 78.204 203.341 77.98 202.697 77.98C202.267 77.98 201.894 78.0827 201.577 78.288C201.269 78.484 201.026 78.778 200.849 79.17C200.681 79.5527 200.597 80.0287 200.597 80.598C200.597 81.438 200.788 82.0867 201.171 82.544C201.553 82.992 202.062 83.216 202.697 83.216ZM211.817 84.07C211.631 84.07 211.491 84.0187 211.397 83.916C211.304 83.804 211.257 83.65 211.257 83.454V77.728C211.257 77.532 211.304 77.3827 211.397 77.28C211.491 77.1773 211.631 77.126 211.817 77.126C211.995 77.126 212.135 77.1773 212.237 77.28C212.34 77.3827 212.391 77.532 212.391 77.728V83.454C212.391 83.65 212.34 83.804 212.237 83.916C212.144 84.0187 212.004 84.07 211.817 84.07ZM211.817 75.558C211.584 75.558 211.402 75.4973 211.271 75.376C211.141 75.2453 211.075 75.0727 211.075 74.858C211.075 74.634 211.141 74.466 211.271 74.354C211.402 74.2327 211.584 74.172 211.817 74.172C212.06 74.172 212.242 74.2327 212.363 74.354C212.494 74.466 212.559 74.634 212.559 74.858C212.559 75.0727 212.494 75.2453 212.363 75.376C212.242 75.4973 212.06 75.558 211.817 75.558ZM215.071 84.098C214.885 84.098 214.745 84.0467 214.651 83.944C214.558 83.8413 214.511 83.6967 214.511 83.51V77.672C214.511 77.4853 214.558 77.3453 214.651 77.252C214.745 77.1493 214.88 77.098 215.057 77.098C215.235 77.098 215.37 77.1493 215.463 77.252C215.566 77.3453 215.617 77.4853 215.617 77.672V78.876L215.463 78.708C215.659 78.1667 215.977 77.7607 216.415 77.49C216.863 77.21 217.377 77.07 217.955 77.07C218.497 77.07 218.945 77.168 219.299 77.364C219.663 77.56 219.934 77.8587 220.111 78.26C220.289 78.652 220.377 79.1513 220.377 79.758V83.51C220.377 83.6967 220.326 83.8413 220.223 83.944C220.13 84.0467 219.995 84.098 219.817 84.098C219.631 84.098 219.486 84.0467 219.383 83.944C219.29 83.8413 219.243 83.6967 219.243 83.51V79.828C219.243 79.1933 219.117 78.7313 218.865 78.442C218.623 78.1433 218.231 77.994 217.689 77.994C217.064 77.994 216.565 78.19 216.191 78.582C215.827 78.9647 215.645 79.478 215.645 80.122V83.51C215.645 83.902 215.454 84.098 215.071 84.098ZM224.764 84.126C224.344 84.126 223.92 84.0747 223.49 83.972C223.07 83.8693 222.678 83.692 222.314 83.44C222.221 83.3747 222.156 83.3 222.118 83.216C222.081 83.1227 222.067 83.034 222.076 82.95C222.095 82.8567 222.132 82.7773 222.188 82.712C222.254 82.6467 222.328 82.6093 222.412 82.6C222.506 82.5813 222.608 82.6 222.72 82.656C223.084 82.88 223.434 83.0387 223.77 83.132C224.116 83.216 224.456 83.258 224.792 83.258C225.324 83.258 225.726 83.16 225.996 82.964C226.267 82.768 226.402 82.502 226.402 82.166C226.402 81.9047 226.314 81.6993 226.136 81.55C225.959 81.3913 225.679 81.27 225.296 81.186L224.022 80.906C223.434 80.7847 222.996 80.5747 222.706 80.276C222.426 79.9773 222.286 79.59 222.286 79.114C222.286 78.694 222.394 78.3347 222.608 78.036C222.832 77.728 223.145 77.49 223.546 77.322C223.948 77.154 224.414 77.07 224.946 77.07C225.357 77.07 225.744 77.126 226.108 77.238C226.482 77.3407 226.818 77.5087 227.116 77.742C227.21 77.8073 227.27 77.8867 227.298 77.98C227.336 78.064 227.34 78.1527 227.312 78.246C227.294 78.33 227.252 78.4047 227.186 78.47C227.121 78.526 227.042 78.5587 226.948 78.568C226.855 78.5773 226.757 78.5493 226.654 78.484C226.374 78.2973 226.09 78.162 225.8 78.078C225.511 77.9847 225.226 77.938 224.946 77.938C224.424 77.938 224.027 78.0407 223.756 78.246C223.486 78.4513 223.35 78.722 223.35 79.058C223.35 79.3193 223.434 79.534 223.602 79.702C223.77 79.87 224.032 79.9913 224.386 80.066L225.66 80.332C226.267 80.4627 226.72 80.6727 227.018 80.962C227.326 81.242 227.48 81.6247 227.48 82.11C227.48 82.726 227.233 83.216 226.738 83.58C226.244 83.944 225.586 84.126 224.764 84.126ZM231.87 84.126C231.338 84.126 230.89 84.0327 230.526 83.846C230.172 83.65 229.906 83.37 229.728 83.006C229.551 82.6327 229.462 82.18 229.462 81.648V78.078H228.524C228.366 78.078 228.244 78.0407 228.16 77.966C228.076 77.882 228.034 77.77 228.034 77.63C228.034 77.49 228.076 77.3827 228.16 77.308C228.244 77.2333 228.366 77.196 228.524 77.196H229.462V75.586C229.462 75.3993 229.514 75.2593 229.616 75.166C229.719 75.0633 229.859 75.012 230.036 75.012C230.214 75.012 230.349 75.0633 230.442 75.166C230.545 75.2593 230.596 75.3993 230.596 75.586V77.196H232.36C232.519 77.196 232.64 77.2333 232.724 77.308C232.808 77.3827 232.85 77.49 232.85 77.63C232.85 77.77 232.808 77.882 232.724 77.966C232.64 78.0407 232.519 78.078 232.36 78.078H230.596V81.536C230.596 82.068 230.708 82.474 230.932 82.754C231.156 83.0247 231.52 83.16 232.024 83.16C232.202 83.16 232.351 83.1413 232.472 83.104C232.603 83.0667 232.71 83.048 232.794 83.048C232.878 83.0387 232.948 83.0667 233.004 83.132C233.06 83.1973 233.088 83.3093 233.088 83.468C233.088 83.58 233.065 83.6827 233.018 83.776C232.981 83.8693 232.911 83.9347 232.808 83.972C232.696 84.0093 232.547 84.042 232.36 84.07C232.183 84.1073 232.02 84.126 231.87 84.126ZM234.609 84.098C234.422 84.098 234.277 84.0467 234.175 83.944C234.081 83.8413 234.035 83.6967 234.035 83.51V77.672C234.035 77.4853 234.081 77.3453 234.175 77.252C234.268 77.1493 234.403 77.098 234.581 77.098C234.758 77.098 234.893 77.1493 234.987 77.252C235.089 77.3453 235.141 77.4853 235.141 77.672V78.806H235.001C235.15 78.2553 235.435 77.8307 235.855 77.532C236.275 77.2333 236.793 77.0747 237.409 77.056C237.549 77.0467 237.661 77.0793 237.745 77.154C237.829 77.2193 237.875 77.336 237.885 77.504C237.894 77.6627 237.857 77.7887 237.773 77.882C237.689 77.9753 237.558 78.0313 237.381 78.05L237.157 78.078C236.522 78.134 236.032 78.3393 235.687 78.694C235.351 79.0393 235.183 79.5153 235.183 80.122V83.51C235.183 83.6967 235.131 83.8413 235.029 83.944C234.935 84.0467 234.795 84.098 234.609 84.098ZM241.46 84.126C240.91 84.126 240.452 84.028 240.088 83.832C239.734 83.6267 239.463 83.3233 239.276 82.922C239.099 82.5207 239.01 82.0213 239.01 81.424V77.672C239.01 77.476 239.057 77.3313 239.15 77.238C239.253 77.1447 239.393 77.098 239.57 77.098C239.757 77.098 239.897 77.1447 239.99 77.238C240.093 77.3313 240.144 77.476 240.144 77.672V81.41C240.144 82.0073 240.266 82.4553 240.508 82.754C240.76 83.0433 241.152 83.188 241.684 83.188C242.263 83.188 242.734 82.992 243.098 82.6C243.462 82.208 243.644 81.6947 243.644 81.06V77.672C243.644 77.476 243.691 77.3313 243.784 77.238C243.887 77.1447 244.032 77.098 244.218 77.098C244.396 77.098 244.531 77.1447 244.624 77.238C244.727 77.3313 244.778 77.476 244.778 77.672V83.51C244.778 83.902 244.596 84.098 244.232 84.098C244.055 84.098 243.915 84.0467 243.812 83.944C243.719 83.8413 243.672 83.6967 243.672 83.51V82.236L243.854 82.432C243.668 82.9827 243.36 83.4027 242.93 83.692C242.51 83.9813 242.02 84.126 241.46 84.126ZM247.488 84.098C247.301 84.098 247.161 84.0467 247.068 83.944C246.975 83.8413 246.928 83.6967 246.928 83.51V77.672C246.928 77.4853 246.975 77.3453 247.068 77.252C247.161 77.1493 247.297 77.098 247.474 77.098C247.651 77.098 247.787 77.1493 247.88 77.252C247.983 77.3453 248.034 77.4853 248.034 77.672V78.904L247.88 78.708C248.057 78.1853 248.342 77.784 248.734 77.504C249.135 77.2147 249.611 77.07 250.162 77.07C250.741 77.07 251.207 77.21 251.562 77.49C251.926 77.7607 252.169 78.1853 252.29 78.764H252.08C252.248 78.2413 252.547 77.8307 252.976 77.532C253.415 77.224 253.923 77.07 254.502 77.07C255.015 77.07 255.435 77.168 255.762 77.364C256.098 77.56 256.35 77.8587 256.518 78.26C256.686 78.652 256.77 79.1513 256.77 79.758V83.51C256.77 83.6967 256.719 83.8413 256.616 83.944C256.523 84.0467 256.383 84.098 256.196 84.098C256.019 84.098 255.879 84.0467 255.776 83.944C255.683 83.8413 255.636 83.6967 255.636 83.51V79.814C255.636 79.1887 255.529 78.7313 255.314 78.442C255.099 78.1433 254.735 77.994 254.222 77.994C253.662 77.994 253.219 78.19 252.892 78.582C252.575 78.9647 252.416 79.4873 252.416 80.15V83.51C252.416 83.6967 252.365 83.8413 252.262 83.944C252.169 84.0467 252.029 84.098 251.842 84.098C251.665 84.098 251.525 84.0467 251.422 83.944C251.329 83.8413 251.282 83.6967 251.282 83.51V79.814C251.282 79.1887 251.17 78.7313 250.946 78.442C250.731 78.1433 250.372 77.994 249.868 77.994C249.308 77.994 248.865 78.19 248.538 78.582C248.221 78.9647 248.062 79.4873 248.062 80.15V83.51C248.062 83.902 247.871 84.098 247.488 84.098ZM261.956 84.126C261.238 84.126 260.617 83.986 260.094 83.706C259.581 83.4167 259.18 83.0107 258.89 82.488C258.61 81.9653 258.47 81.34 258.47 80.612C258.47 79.9027 258.61 79.2867 258.89 78.764C259.17 78.232 259.553 77.8167 260.038 77.518C260.533 77.2193 261.102 77.07 261.746 77.07C262.204 77.07 262.614 77.1493 262.978 77.308C263.342 77.4573 263.65 77.6767 263.902 77.966C264.164 78.2553 264.36 78.6053 264.49 79.016C264.63 79.4267 264.7 79.8887 264.7 80.402C264.7 80.5513 264.658 80.6633 264.574 80.738C264.49 80.8033 264.369 80.836 264.21 80.836H259.338V80.094H263.944L263.72 80.276C263.72 79.772 263.646 79.3473 263.496 79.002C263.347 78.6473 263.128 78.3767 262.838 78.19C262.558 78.0033 262.204 77.91 261.774 77.91C261.298 77.91 260.892 78.022 260.556 78.246C260.23 78.4607 259.982 78.764 259.814 79.156C259.646 79.5387 259.562 79.9867 259.562 80.5V80.584C259.562 81.4427 259.768 82.096 260.178 82.544C260.598 82.992 261.191 83.216 261.956 83.216C262.274 83.216 262.586 83.174 262.894 83.09C263.212 83.006 263.52 82.866 263.818 82.67C263.949 82.586 264.066 82.5487 264.168 82.558C264.28 82.558 264.369 82.5907 264.434 82.656C264.5 82.712 264.542 82.7867 264.56 82.88C264.588 82.964 264.579 83.0573 264.532 83.16C264.495 83.2627 264.416 83.3513 264.294 83.426C263.986 83.65 263.622 83.8227 263.202 83.944C262.782 84.0653 262.367 84.126 261.956 84.126ZM266.901 84.098C266.715 84.098 266.575 84.0467 266.481 83.944C266.388 83.8413 266.341 83.6967 266.341 83.51V77.672C266.341 77.4853 266.388 77.3453 266.481 77.252C266.575 77.1493 266.71 77.098 266.887 77.098C267.065 77.098 267.2 77.1493 267.293 77.252C267.396 77.3453 267.447 77.4853 267.447 77.672V78.876L267.293 78.708C267.489 78.1667 267.807 77.7607 268.245 77.49C268.693 77.21 269.207 77.07 269.785 77.07C270.327 77.07 270.775 77.168 271.129 77.364C271.493 77.56 271.764 77.8587 271.941 78.26C272.119 78.652 272.207 79.1513 272.207 79.758V83.51C272.207 83.6967 272.156 83.8413 272.053 83.944C271.96 84.0467 271.825 84.098 271.647 84.098C271.461 84.098 271.316 84.0467 271.213 83.944C271.12 83.8413 271.073 83.6967 271.073 83.51V79.828C271.073 79.1933 270.947 78.7313 270.695 78.442C270.453 78.1433 270.061 77.994 269.519 77.994C268.894 77.994 268.395 78.19 268.021 78.582C267.657 78.9647 267.475 79.478 267.475 80.122V83.51C267.475 83.902 267.284 84.098 266.901 84.098ZM277.028 84.126C276.496 84.126 276.048 84.0327 275.684 83.846C275.33 83.65 275.064 83.37 274.886 83.006C274.709 82.6327 274.62 82.18 274.62 81.648V78.078H273.682C273.524 78.078 273.402 78.0407 273.318 77.966C273.234 77.882 273.192 77.77 273.192 77.63C273.192 77.49 273.234 77.3827 273.318 77.308C273.402 77.2333 273.524 77.196 273.682 77.196H274.62V75.586C274.62 75.3993 274.672 75.2593 274.774 75.166C274.877 75.0633 275.017 75.012 275.194 75.012C275.372 75.012 275.507 75.0633 275.6 75.166C275.703 75.2593 275.754 75.3993 275.754 75.586V77.196H277.518C277.677 77.196 277.798 77.2333 277.882 77.308C277.966 77.3827 278.008 77.49 278.008 77.63C278.008 77.77 277.966 77.882 277.882 77.966C277.798 78.0407 277.677 78.078 277.518 78.078H275.754V81.536C275.754 82.068 275.866 82.474 276.09 82.754C276.314 83.0247 276.678 83.16 277.182 83.16C277.36 83.16 277.509 83.1413 277.63 83.104C277.761 83.0667 277.868 83.048 277.952 83.048C278.036 83.0387 278.106 83.0667 278.162 83.132C278.218 83.1973 278.246 83.3093 278.246 83.468C278.246 83.58 278.223 83.6827 278.176 83.776C278.139 83.8693 278.069 83.9347 277.966 83.972C277.854 84.0093 277.705 84.042 277.518 84.07C277.341 84.1073 277.178 84.126 277.028 84.126ZM281.953 84.126C281.29 84.126 280.716 83.9813 280.231 83.692C279.745 83.4027 279.367 82.9967 279.097 82.474C278.835 81.942 278.705 81.3167 278.705 80.598C278.705 80.0567 278.779 79.5713 278.929 79.142C279.078 78.7033 279.297 78.33 279.587 78.022C279.876 77.714 280.217 77.4807 280.609 77.322C281.01 77.154 281.458 77.07 281.953 77.07C282.615 77.07 283.189 77.2147 283.675 77.504C284.16 77.7933 284.533 78.204 284.795 78.736C285.065 79.2587 285.201 79.8793 285.201 80.598C285.201 81.1393 285.126 81.6247 284.977 82.054C284.827 82.4833 284.608 82.8567 284.319 83.174C284.029 83.482 283.684 83.72 283.283 83.888C282.891 84.0467 282.447 84.126 281.953 84.126ZM281.953 83.216C282.373 83.216 282.741 83.1133 283.059 82.908C283.376 82.7027 283.619 82.404 283.787 82.012C283.964 81.62 284.053 81.1487 284.053 80.598C284.053 79.7487 283.861 79.1 283.479 78.652C283.105 78.204 282.597 77.98 281.953 77.98C281.523 77.98 281.15 78.0827 280.833 78.288C280.525 78.484 280.282 78.778 280.105 79.17C279.937 79.5527 279.853 80.0287 279.853 80.598C279.853 81.438 280.044 82.0867 280.427 82.544C280.809 82.992 281.318 83.216 281.953 83.216ZM135.624 103.618C135.437 103.618 135.297 103.567 135.204 103.464C135.111 103.371 135.064 103.231 135.064 103.044V94.672C135.064 94.4853 135.111 94.3453 135.204 94.252C135.297 94.1493 135.433 94.098 135.61 94.098C135.797 94.098 135.937 94.1493 136.03 94.252C136.133 94.3453 136.184 94.4853 136.184 94.672V96.002L136.03 95.806C136.179 95.274 136.473 94.854 136.912 94.546C137.36 94.2287 137.892 94.07 138.508 94.07C139.115 94.07 139.642 94.2147 140.09 94.504C140.547 94.784 140.897 95.19 141.14 95.722C141.392 96.2447 141.518 96.87 141.518 97.598C141.518 98.3167 141.392 98.942 141.14 99.474C140.897 99.9967 140.552 100.403 140.104 100.692C139.656 100.981 139.124 101.126 138.508 101.126C137.892 101.126 137.365 100.972 136.926 100.664C136.487 100.347 136.189 99.9267 136.03 99.404H136.198V103.044C136.198 103.231 136.147 103.371 136.044 103.464C135.941 103.567 135.801 103.618 135.624 103.618ZM138.27 100.216C138.699 100.216 139.068 100.113 139.376 99.908C139.693 99.7027 139.936 99.404 140.104 99.012C140.281 98.62 140.37 98.1487 140.37 97.598C140.37 96.7487 140.179 96.1 139.796 95.652C139.423 95.204 138.914 94.98 138.27 94.98C137.85 94.98 137.481 95.0827 137.164 95.288C136.847 95.484 136.599 95.778 136.422 96.17C136.254 96.5527 136.17 97.0287 136.17 97.598C136.17 98.438 136.361 99.0867 136.744 99.544C137.127 99.992 137.635 100.216 138.27 100.216ZM145.368 101.126C144.901 101.126 144.481 101.037 144.108 100.86C143.744 100.673 143.455 100.421 143.24 100.104C143.025 99.7867 142.918 99.432 142.918 99.04C142.918 98.536 143.044 98.1393 143.296 97.85C143.557 97.5607 143.982 97.3553 144.57 97.234C145.167 97.1127 145.979 97.052 147.006 97.052H147.636V97.794H147.02C146.264 97.794 145.667 97.8313 145.228 97.906C144.799 97.9713 144.495 98.088 144.318 98.256C144.15 98.424 144.066 98.662 144.066 98.97C144.066 99.3527 144.197 99.6653 144.458 99.908C144.729 100.151 145.093 100.272 145.55 100.272C145.923 100.272 146.25 100.183 146.53 100.006C146.819 99.8287 147.043 99.586 147.202 99.278C147.37 98.97 147.454 98.6153 147.454 98.214V96.618C147.454 96.0393 147.337 95.624 147.104 95.372C146.871 95.1107 146.488 94.98 145.956 94.98C145.629 94.98 145.303 95.022 144.976 95.106C144.649 95.19 144.304 95.3253 143.94 95.512C143.809 95.5773 143.697 95.6007 143.604 95.582C143.511 95.554 143.436 95.5027 143.38 95.428C143.324 95.3533 143.291 95.2693 143.282 95.176C143.273 95.0733 143.291 94.9753 143.338 94.882C143.394 94.7887 143.478 94.714 143.59 94.658C144.001 94.4527 144.407 94.3033 144.808 94.21C145.209 94.1167 145.592 94.07 145.956 94.07C146.544 94.07 147.029 94.168 147.412 94.364C147.795 94.5507 148.079 94.84 148.266 95.232C148.453 95.6147 148.546 96.1093 148.546 96.716V100.51C148.546 100.697 148.499 100.841 148.406 100.944C148.322 101.047 148.196 101.098 148.028 101.098C147.851 101.098 147.715 101.047 147.622 100.944C147.529 100.841 147.482 100.697 147.482 100.51V99.418H147.608C147.533 99.7727 147.389 100.076 147.174 100.328C146.969 100.58 146.712 100.776 146.404 100.916C146.096 101.056 145.751 101.126 145.368 101.126ZM151.224 101.098C151.037 101.098 150.893 101.047 150.79 100.944C150.697 100.841 150.65 100.697 150.65 100.51V94.672C150.65 94.4853 150.697 94.3453 150.79 94.252C150.883 94.1493 151.019 94.098 151.196 94.098C151.373 94.098 151.509 94.1493 151.602 94.252C151.705 94.3453 151.756 94.4853 151.756 94.672V95.806H151.616C151.765 95.2553 152.05 94.8307 152.47 94.532C152.89 94.2333 153.408 94.0747 154.024 94.056C154.164 94.0467 154.276 94.0793 154.36 94.154C154.444 94.2193 154.491 94.336 154.5 94.504C154.509 94.6627 154.472 94.7887 154.388 94.882C154.304 94.9753 154.173 95.0313 153.996 95.05L153.772 95.078C153.137 95.134 152.647 95.3393 152.302 95.694C151.966 96.0393 151.798 96.5153 151.798 97.122V100.51C151.798 100.697 151.747 100.841 151.644 100.944C151.551 101.047 151.411 101.098 151.224 101.098ZM157.741 101.126C157.274 101.126 156.854 101.037 156.481 100.86C156.117 100.673 155.828 100.421 155.613 100.104C155.398 99.7867 155.291 99.432 155.291 99.04C155.291 98.536 155.417 98.1393 155.669 97.85C155.93 97.5607 156.355 97.3553 156.943 97.234C157.54 97.1127 158.352 97.052 159.379 97.052H160.009V97.794H159.393C158.637 97.794 158.04 97.8313 157.601 97.906C157.172 97.9713 156.868 98.088 156.691 98.256C156.523 98.424 156.439 98.662 156.439 98.97C156.439 99.3527 156.57 99.6653 156.831 99.908C157.102 100.151 157.466 100.272 157.923 100.272C158.296 100.272 158.623 100.183 158.903 100.006C159.192 99.8287 159.416 99.586 159.575 99.278C159.743 98.97 159.827 98.6153 159.827 98.214V96.618C159.827 96.0393 159.71 95.624 159.477 95.372C159.244 95.1107 158.861 94.98 158.329 94.98C158.002 94.98 157.676 95.022 157.349 95.106C157.022 95.19 156.677 95.3253 156.313 95.512C156.182 95.5773 156.07 95.6007 155.977 95.582C155.884 95.554 155.809 95.5027 155.753 95.428C155.697 95.3533 155.664 95.2693 155.655 95.176C155.646 95.0733 155.664 94.9753 155.711 94.882C155.767 94.7887 155.851 94.714 155.963 94.658C156.374 94.4527 156.78 94.3033 157.181 94.21C157.582 94.1167 157.965 94.07 158.329 94.07C158.917 94.07 159.402 94.168 159.785 94.364C160.168 94.5507 160.452 94.84 160.639 95.232C160.826 95.6147 160.919 96.1093 160.919 96.716V100.51C160.919 100.697 160.872 100.841 160.779 100.944C160.695 101.047 160.569 101.098 160.401 101.098C160.224 101.098 160.088 101.047 159.995 100.944C159.902 100.841 159.855 100.697 159.855 100.51V99.418H159.981C159.906 99.7727 159.762 100.076 159.547 100.328C159.342 100.58 159.085 100.776 158.777 100.916C158.469 101.056 158.124 101.126 157.741 101.126ZM169.46 101.126C168.798 101.126 168.224 100.981 167.738 100.692C167.253 100.403 166.875 99.9967 166.604 99.474C166.343 98.942 166.212 98.3167 166.212 97.598C166.212 97.0567 166.287 96.5713 166.436 96.142C166.586 95.7033 166.805 95.33 167.094 95.022C167.384 94.714 167.724 94.4807 168.116 94.322C168.518 94.154 168.966 94.07 169.46 94.07C170.123 94.07 170.697 94.2147 171.182 94.504C171.668 94.7933 172.041 95.204 172.302 95.736C172.573 96.2587 172.708 96.8793 172.708 97.598C172.708 98.1393 172.634 98.6247 172.484 99.054C172.335 99.4833 172.116 99.8567 171.826 100.174C171.537 100.482 171.192 100.72 170.79 100.888C170.398 101.047 169.955 101.126 169.46 101.126ZM169.46 100.216C169.88 100.216 170.249 100.113 170.566 99.908C170.884 99.7027 171.126 99.404 171.294 99.012C171.472 98.62 171.56 98.1487 171.56 97.598C171.56 96.7487 171.369 96.1 170.986 95.652C170.613 95.204 170.104 94.98 169.46 94.98C169.031 94.98 168.658 95.0827 168.34 95.288C168.032 95.484 167.79 95.778 167.612 96.17C167.444 96.5527 167.36 97.0287 167.36 97.598C167.36 98.438 167.552 99.0867 167.934 99.544C168.317 99.992 168.826 100.216 169.46 100.216ZM180.317 101.126C179.897 101.126 179.472 101.075 179.043 100.972C178.623 100.869 178.231 100.692 177.867 100.44C177.774 100.375 177.708 100.3 177.671 100.216C177.634 100.123 177.62 100.034 177.629 99.95C177.648 99.8567 177.685 99.7773 177.741 99.712C177.806 99.6467 177.881 99.6093 177.965 99.6C178.058 99.5813 178.161 99.6 178.273 99.656C178.637 99.88 178.987 100.039 179.323 100.132C179.668 100.216 180.009 100.258 180.345 100.258C180.877 100.258 181.278 100.16 181.549 99.964C181.82 99.768 181.955 99.502 181.955 99.166C181.955 98.9047 181.866 98.6993 181.689 98.55C181.512 98.3913 181.232 98.27 180.849 98.186L179.575 97.906C178.987 97.7847 178.548 97.5747 178.259 97.276C177.979 96.9773 177.839 96.59 177.839 96.114C177.839 95.694 177.946 95.3347 178.161 95.036C178.385 94.728 178.698 94.49 179.099 94.322C179.5 94.154 179.967 94.07 180.499 94.07C180.91 94.07 181.297 94.126 181.661 94.238C182.034 94.3407 182.37 94.5087 182.669 94.742C182.762 94.8073 182.823 94.8867 182.851 94.98C182.888 95.064 182.893 95.1527 182.865 95.246C182.846 95.33 182.804 95.4047 182.739 95.47C182.674 95.526 182.594 95.5587 182.501 95.568C182.408 95.5773 182.31 95.5493 182.207 95.484C181.927 95.2973 181.642 95.162 181.353 95.078C181.064 94.9847 180.779 94.938 180.499 94.938C179.976 94.938 179.58 95.0407 179.309 95.246C179.038 95.4513 178.903 95.722 178.903 96.058C178.903 96.3193 178.987 96.534 179.155 96.702C179.323 96.87 179.584 96.9913 179.939 97.066L181.213 97.332C181.82 97.4627 182.272 97.6727 182.571 97.962C182.879 98.242 183.033 98.6247 183.033 99.11C183.033 99.726 182.786 100.216 182.291 100.58C181.796 100.944 181.138 101.126 180.317 101.126ZM187.827 101.126C187.109 101.126 186.488 100.986 185.965 100.706C185.452 100.417 185.051 100.011 184.761 99.488C184.481 98.9653 184.341 98.34 184.341 97.612C184.341 96.9027 184.481 96.2867 184.761 95.764C185.041 95.232 185.424 94.8167 185.909 94.518C186.404 94.2193 186.973 94.07 187.617 94.07C188.075 94.07 188.485 94.1493 188.849 94.308C189.213 94.4573 189.521 94.6767 189.773 94.966C190.035 95.2553 190.231 95.6053 190.361 96.016C190.501 96.4267 190.571 96.8887 190.571 97.402C190.571 97.5513 190.529 97.6633 190.445 97.738C190.361 97.8033 190.24 97.836 190.081 97.836H185.209V97.094H189.815L189.591 97.276C189.591 96.772 189.517 96.3473 189.367 96.002C189.218 95.6473 188.999 95.3767 188.709 95.19C188.429 95.0033 188.075 94.91 187.645 94.91C187.169 94.91 186.763 95.022 186.427 95.246C186.101 95.4607 185.853 95.764 185.685 96.156C185.517 96.5387 185.433 96.9867 185.433 97.5V97.584C185.433 98.4427 185.639 99.096 186.049 99.544C186.469 99.992 187.062 100.216 187.827 100.216C188.145 100.216 188.457 100.174 188.765 100.09C189.083 100.006 189.391 99.866 189.689 99.67C189.82 99.586 189.937 99.5487 190.039 99.558C190.151 99.558 190.24 99.5907 190.305 99.656C190.371 99.712 190.413 99.7867 190.431 99.88C190.459 99.964 190.45 100.057 190.403 100.16C190.366 100.263 190.287 100.351 190.165 100.426C189.857 100.65 189.493 100.823 189.073 100.944C188.653 101.065 188.238 101.126 187.827 101.126ZM192.786 101.098C192.6 101.098 192.455 101.047 192.352 100.944C192.259 100.841 192.212 100.697 192.212 100.51V94.672C192.212 94.4853 192.259 94.3453 192.352 94.252C192.446 94.1493 192.581 94.098 192.758 94.098C192.936 94.098 193.071 94.1493 193.164 94.252C193.267 94.3453 193.318 94.4853 193.318 94.672V95.806H193.178C193.328 95.2553 193.612 94.8307 194.032 94.532C194.452 94.2333 194.97 94.0747 195.586 94.056C195.726 94.0467 195.838 94.0793 195.922 94.154C196.006 94.2193 196.053 94.336 196.062 94.504C196.072 94.6627 196.034 94.7887 195.95 94.882C195.866 94.9753 195.736 95.0313 195.558 95.05L195.334 95.078C194.7 95.134 194.21 95.3393 193.864 95.694C193.528 96.0393 193.36 96.5153 193.36 97.122V100.51C193.36 100.697 193.309 100.841 193.206 100.944C193.113 101.047 192.973 101.098 192.786 101.098ZM200.188 101.098C200.029 101.098 199.889 101.056 199.768 100.972C199.647 100.879 199.544 100.739 199.46 100.552L197.038 94.896C196.973 94.756 196.949 94.6253 196.968 94.504C196.987 94.3827 197.043 94.2847 197.136 94.21C197.229 94.1353 197.36 94.098 197.528 94.098C197.677 94.098 197.794 94.1307 197.878 94.196C197.962 94.2613 198.037 94.378 198.102 94.546L200.398 100.16H200.02L202.358 94.546C202.423 94.378 202.498 94.2613 202.582 94.196C202.666 94.1307 202.787 94.098 202.946 94.098C203.095 94.098 203.207 94.1353 203.282 94.21C203.366 94.2847 203.413 94.3827 203.422 94.504C203.441 94.616 203.422 94.742 203.366 94.882L200.916 100.552C200.851 100.739 200.753 100.879 200.622 100.972C200.501 101.056 200.356 101.098 200.188 101.098ZM205.419 101.07C205.232 101.07 205.092 101.019 204.999 100.916C204.906 100.804 204.859 100.65 204.859 100.454V94.728C204.859 94.532 204.906 94.3827 204.999 94.28C205.092 94.1773 205.232 94.126 205.419 94.126C205.596 94.126 205.736 94.1773 205.839 94.28C205.942 94.3827 205.993 94.532 205.993 94.728V100.454C205.993 100.65 205.942 100.804 205.839 100.916C205.746 101.019 205.606 101.07 205.419 101.07ZM205.419 92.558C205.186 92.558 205.004 92.4973 204.873 92.376C204.742 92.2453 204.677 92.0727 204.677 91.858C204.677 91.634 204.742 91.466 204.873 91.354C205.004 91.2327 205.186 91.172 205.419 91.172C205.662 91.172 205.844 91.2327 205.965 91.354C206.096 91.466 206.161 91.634 206.161 91.858C206.161 92.0727 206.096 92.2453 205.965 92.376C205.844 92.4973 205.662 92.558 205.419 92.558ZM210.997 101.126C210.315 101.126 209.727 100.977 209.233 100.678C208.738 100.379 208.355 99.964 208.085 99.432C207.823 98.8907 207.693 98.2653 207.693 97.556C207.693 97.0147 207.767 96.5293 207.917 96.1C208.066 95.6707 208.285 95.3067 208.575 95.008C208.864 94.7 209.209 94.4667 209.611 94.308C210.021 94.1493 210.483 94.07 210.997 94.07C211.333 94.07 211.683 94.1213 212.047 94.224C212.411 94.3267 212.742 94.504 213.041 94.756C213.134 94.8213 213.195 94.9007 213.223 94.994C213.251 95.0873 213.251 95.1807 213.223 95.274C213.195 95.358 213.148 95.4327 213.083 95.498C213.017 95.554 212.933 95.5867 212.831 95.596C212.737 95.6053 212.639 95.5727 212.537 95.498C212.294 95.3113 212.047 95.1807 211.795 95.106C211.543 95.0313 211.3 94.994 211.067 94.994C210.703 94.994 210.385 95.0547 210.115 95.176C209.844 95.288 209.615 95.4513 209.429 95.666C209.242 95.8807 209.097 96.1467 208.995 96.464C208.901 96.7813 208.855 97.15 208.855 97.57C208.855 98.382 209.046 99.026 209.429 99.502C209.811 99.9687 210.357 100.202 211.067 100.202C211.3 100.202 211.538 100.165 211.781 100.09C212.033 100.015 212.285 99.8847 212.537 99.698C212.639 99.6233 212.737 99.5907 212.831 99.6C212.924 99.6093 213.003 99.6467 213.069 99.712C213.134 99.768 213.176 99.8427 213.195 99.936C213.223 100.029 213.223 100.123 213.195 100.216C213.167 100.3 213.106 100.375 213.013 100.44C212.714 100.683 212.387 100.86 212.033 100.972C211.678 101.075 211.333 101.126 210.997 101.126ZM210.983 103.688C210.815 103.688 210.637 103.674 210.451 103.646C210.273 103.627 210.11 103.585 209.961 103.52C209.858 103.483 209.788 103.422 209.751 103.338C209.713 103.254 209.709 103.17 209.737 103.086C209.765 103.002 209.816 102.937 209.891 102.89C209.965 102.853 210.059 102.857 210.171 102.904C210.283 102.951 210.399 102.983 210.521 103.002C210.651 103.021 210.796 103.03 210.955 103.03C211.197 103.03 211.393 102.983 211.543 102.89C211.692 102.806 211.767 102.68 211.767 102.512C211.767 102.391 211.725 102.293 211.641 102.218C211.557 102.153 211.421 102.12 211.235 102.12C211.16 102.12 211.085 102.125 211.011 102.134C210.945 102.143 210.866 102.157 210.773 102.176C210.689 102.204 210.623 102.218 210.577 102.218C210.53 102.218 210.483 102.204 210.437 102.176C210.399 102.139 210.376 102.092 210.367 102.036C210.367 101.989 210.371 101.919 210.381 101.826L210.549 100.72H211.263L211.081 101.77L210.745 101.686C210.857 101.658 210.964 101.635 211.067 101.616C211.179 101.597 211.281 101.588 211.375 101.588C211.711 101.588 211.991 101.672 212.215 101.84C212.439 102.008 212.551 102.241 212.551 102.54C212.551 102.885 212.406 103.161 212.117 103.366C211.827 103.581 211.449 103.688 210.983 103.688ZM217.285 101.126C216.622 101.126 216.048 100.981 215.563 100.692C215.077 100.403 214.699 99.9967 214.429 99.474C214.167 98.942 214.037 98.3167 214.037 97.598C214.037 97.0567 214.111 96.5713 214.261 96.142C214.41 95.7033 214.629 95.33 214.919 95.022C215.208 94.714 215.549 94.4807 215.941 94.322C216.342 94.154 216.79 94.07 217.285 94.07C217.947 94.07 218.521 94.2147 219.007 94.504C219.492 94.7933 219.865 95.204 220.127 95.736C220.397 96.2587 220.533 96.8793 220.533 97.598C220.533 98.1393 220.458 98.6247 220.309 99.054C220.159 99.4833 219.94 99.8567 219.651 100.174C219.361 100.482 219.016 100.72 218.615 100.888C218.223 101.047 217.779 101.126 217.285 101.126ZM217.285 100.216C217.705 100.216 218.073 100.113 218.391 99.908C218.708 99.7027 218.951 99.404 219.119 99.012C219.296 98.62 219.385 98.1487 219.385 97.598C219.385 96.7487 219.193 96.1 218.811 95.652C218.437 95.204 217.929 94.98 217.285 94.98C216.855 94.98 216.482 95.0827 216.165 95.288C215.857 95.484 215.614 95.778 215.437 96.17C215.269 96.5527 215.185 97.0287 215.185 97.598C215.185 98.438 215.376 99.0867 215.759 99.544C216.141 99.992 216.65 100.216 217.285 100.216ZM222.467 101.056C222.234 101.056 222.047 100.986 221.907 100.846C221.767 100.697 221.697 100.51 221.697 100.286C221.697 100.062 221.767 99.88 221.907 99.74C222.047 99.5907 222.234 99.516 222.467 99.516C222.701 99.516 222.883 99.5907 223.013 99.74C223.153 99.88 223.223 100.062 223.223 100.286C223.223 100.51 223.153 100.697 223.013 100.846C222.883 100.986 222.701 101.056 222.467 101.056Z" fill="white"/>
<path d="M300.732 107.946C300.528 107.12 300.751 106.247 301.325 105.62L304.319 102.342C304.543 102.096 304.607 101.744 304.485 101.435C304.362 101.126 304.073 100.914 303.742 100.89L299.218 100.554C298.385 100.492 297.635 100.027 297.211 99.3089L294.91 95.4138C294.8 95.2245 294.622 95.0845 294.413 95.0221C294.312 94.9926 294.207 94.9813 294.102 94.9889C293.773 95.007 293.484 95.213 293.36 95.5178L291.601 99.6868C291.277 100.456 290.597 101.018 289.781 101.191L285.349 102.135C285.024 102.204 284.766 102.453 284.686 102.775C284.606 103.098 284.717 103.438 284.973 103.651L288.382 106.496C289.035 107.04 289.373 107.875 289.283 108.721L288.816 113.128C288.782 113.456 288.936 113.775 289.215 113.952C289.493 114.129 289.847 114.133 290.13 113.962L294.056 111.588C294.762 111.161 295.631 111.102 296.388 111.43L300.6 113.254C300.902 113.385 301.253 113.333 301.505 113.12C301.758 112.907 301.867 112.57 301.788 112.249L300.732 107.946Z" fill="url(#paint0_linear_150_35240)"/>
</g>
</g>
<g filter="url(#filter1_d_150_35240)">
<path d="M73.3201 14.1488C73.3201 6.33434 79.0537 6.10352e-05 86.1261 6.10352e-05C93.1985 6.10352e-05 98.9321 6.33483 98.9321 14.1488C98.9321 21.9632 93.1985 28.2975 86.1261 28.2975C79.0537 28.2975 73.3201 21.9627 73.3201 14.1488ZM121.776 55.4468C119.701 52.5992 115.931 52.1495 113.353 54.4406L97.9109 62.2368L85.3845 33.8425L72.4281 25.3881L43.9766 24.7071C40.96 24.5934 38.0891 26.1442 36.3182 28.8451L25.4249 45.4589C23.6849 48.1128 24.2261 51.8238 26.6327 53.7394L26.7208 53.8095C29.1353 55.7315 32.5045 55.1128 34.2266 52.4317L44.1001 37.0588L60.056 40.0532L35.9675 93.6853L12.6189 81.9715C10.0889 80.5403 6.98819 81.5391 5.55054 84.2484L4.73688 85.7819C3.23974 88.6038 4.09634 92.2318 6.65002 93.8869L33.8146 111.488C36.8541 113.457 40.7497 112.538 42.7962 109.369C48.732 100.177 59.9554 82.9229 60.4166 83.1611L81.3117 98.6397L81.4231 130.322C81.4231 130.322 81.3931 138.824 84.9273 140.59C85.8667 141.06 86.8494 141.282 87.8178 141.282C90.4914 141.282 93.0464 139.585 94.2206 136.719L96.9671 98.0556C96.9671 98.0556 97.0257 89.6288 93.5438 87.8294L70.9229 68.5236L79.582 54.5439L91.5005 75.0763C93.6167 77.7416 97.2587 78.09 99.7587 75.8671L120.864 64.7523C123.442 62.4602 123.849 58.294 121.776 55.4468Z" fill="white"/>
</g>
<defs>
<filter id="filter0_dd_150_35240" x="31.5352" y="12.5278" width="290.225" height="122.889" filterUnits="userSpaceOnUse" color-interpolation-filters="sRGB">
<feFlood flood-opacity="0" result="BackgroundImageFix"/>
<feColorMatrix in="SourceAlpha" type="matrix" values="0 0 0 0 0 0 0 0 0 0 0 0 0 0 0 0 0 0 127 0" result="hardAlpha"/>
<feMorphology radius="2.54394" operator="erode" in="SourceAlpha" result="effect1_dropShadow_150_35240"/>
<feOffset dy="2.54394"/>
<feGaussianBlur stdDeviation="1.90795"/>
<feComposite in2="hardAlpha" operator="out"/>
<feColorMatrix type="matrix" values="0 0 0 0 0 0 0 0 0 0 0 0 0 0 0 0 0 0 0.1 0"/>
<feBlend mode="normal" in2="BackgroundImageFix" result="effect1_dropShadow_150_35240"/>
<feColorMatrix in="SourceAlpha" type="matrix" values="0 0 0 0 0 0 0 0 0 0 0 0 0 0 0 0 0 0 127 0" result="hardAlpha"/>
<feMorphology radius="1.90795" operator="erode" in="SourceAlpha" result="effect2_dropShadow_150_35240"/>
<feOffset dy="6.35984"/>
<feGaussianBlur stdDeviation="4.76988"/>
<feComposite in2="hardAlpha" operator="out"/>
<feColorMatrix type="matrix" values="0 0 0 0 0 0 0 0 0 0 0 0 0 0 0 0 0 0 0.1 0"/>
<feBlend mode="normal" in2="effect1_dropShadow_150_35240" result="effect2_dropShadow_150_35240"/>
<feBlend mode="normal" in="SourceGraphic" in2="effect2_dropShadow_150_35240" result="shape"/>
</filter>
<filter id="filter1_d_150_35240" x="0" y="6.10352e-05" width="127.1" height="149.281" filterUnits="userSpaceOnUse" color-interpolation-filters="sRGB">
<feFlood flood-opacity="0" result="BackgroundImageFix"/>
<feColorMatrix in="SourceAlpha" type="matrix" values="0 0 0 0 0 0 0 0 0 0 0 0 0 0 0 0 0 0 127 0" result="hardAlpha"/>
<feOffset dy="4"/>
<feGaussianBlur stdDeviation="2"/>
<feComposite in2="hardAlpha" operator="out"/>
<feColorMatrix type="matrix" values="0 0 0 0 0 0 0 0 0 0 0 0 0 0 0 0 0 0 0.25 0"/>
<feBlend mode="normal" in2="BackgroundImageFix" result="effect1_dropShadow_150_35240"/>
<feBlend mode="normal" in="SourceGraphic" in2="effect1_dropShadow_150_35240" result="shape"/>
</filter>
<linearGradient id="paint0_linear_150_35240" x1="296.786" y1="95.7242" x2="291.209" y2="114.577" gradientUnits="userSpaceOnUse">
<stop stop-color="#FFF8C3"/>
<stop offset="1" stop-color="#FFEE69"/>
</linearGradient>
<clipPath id="clip0_150_35240">
<rect x="39.167" y="13.7998" width="274.961" height="107.625" rx="11.0574" fill="white"/>
</clipPath>
</defs>
</svg>
