<svg width="102" height="124" viewBox="0 0 102 124" fill="none" xmlns="http://www.w3.org/2000/svg">
<g filter="url(#filter0_d_150_35367)">
<path d="M23.5232 53.5702C24.1652 50.0155 25.6675 47.783 25.7635 47.6447C26.3671 46.7765 27.5299 46.5734 28.368 47.1951C29.2017 47.8157 29.3628 48.9959 28.7967 49.8903C27.8654 51.3622 26.6485 55.3421 27.2156 58.8408C27.7832 62.3394 28.7464 65.1696 34.0105 66.2164C37.3506 66.8795 37.6807 69.7134 37.9196 71.782C38.1857 74.0542 38.5158 76.8839 41.6982 79.9835C42.9512 81.2056 44.5564 82.1185 46.2553 83.081C47.0988 83.56 47.9793 84.0608 48.8504 84.6275C50.16 81.5524 51.2425 76.2867 51.1518 73.1424C51.0405 69.248 49.8205 65.5338 47.6265 62.3999L47.153 61.7226L47.3038 60.9001C47.5728 59.4412 47.6841 57.9611 47.6556 56.4951C46.9934 56.7351 46.137 56.8957 45.293 56.887C41.715 56.8489 38.9627 55.3252 37.1008 52.8674C33.8868 48.629 34.6249 43.9142 34.7767 41.4455C34.9279 38.9779 35.0669 37.0138 35.3369 34.2271C35.7547 29.9081 36.272 24.5314 35.8808 22.6212C34.6732 16.7404 31.9293 16.8373 30.8971 16.8732C29.8653 16.9092 29.0061 16.0714 28.9755 15.0039C28.9445 13.9342 29.755 13.0392 30.7862 13.0028C33.3591 12.9135 37.9177 13.9342 39.5313 21.7987C40.0452 24.3006 39.5402 29.5358 39.0509 34.5979C38.7819 37.3769 38.5557 39.391 38.5075 41.6333C38.4592 43.8766 38.1305 48.0046 40.0467 50.4798C41.2494 52.0334 43.028 52.8756 45.5177 53.0193C46.4203 53.0813 48.402 52.0966 49.4604 50.0955C50.0871 48.544 50.398 46.8625 50.3497 45.163C50.2778 42.6567 49.4505 40.28 47.9606 38.2876L47.048 37.0682L47.995 35.8711C49.7496 33.6534 50.6704 30.8678 50.5887 28.0257C50.5202 25.6397 49.7678 23.3637 48.4138 21.4432L47.5757 20.2565L48.4592 19.0964C50.1339 16.9021 51.0114 14.1612 50.9316 11.3729C50.735 4.51008 46.4474 -0.137745 40.5069 0.0696591C36.4046 0.213372 33.3311 2.09308 31.6179 6.47579C27.4654 5.25967 22.6078 9.24553 21.5233 13.2069C20.4004 17.3109 21.0848 22.2238 25.7862 28.4416C26.4834 29.3632 27.2259 30.1907 27.9965 30.9021C28.7661 31.6104 28.8341 32.8341 28.1468 33.6338C27.7905 34.0497 27.3038 34.2707 26.8101 34.2876C26.3494 34.3034 25.8833 34.1428 25.5123 33.8014C24.5766 32.9392 23.6794 31.943 22.8462 30.8412C19.4855 26.3959 18.2847 21.3904 17.8635 18.0039C10.7645 23.3659 9.85103 33.2326 13.0847 38.6578C8.93755 45.5549 15.3842 53.9926 23.5232 53.5702Z" fill="white"/>
<path d="M44.4548 86.4807C42.5593 85.6004 40.7348 84.3702 39.1379 82.8133C34.9716 78.7555 34.5178 74.8475 34.2163 72.2618C33.9709 70.154 33.894 70.1404 33.2944 70.0201C30.2618 69.4185 28.1752 68.3347 26.7207 66.9558C24.9184 67.8268 23.1505 68.2204 21.5177 68.2775C16.7094 68.4463 13.0279 65.9493 12.8185 65.8028C11.9636 65.21 11.735 64.0081 12.309 63.1175C12.8835 62.2296 14.0438 61.9874 14.8927 62.5753C15.0967 62.7152 19.5897 65.7032 24.5257 63.7419C24.0453 62.6128 23.1022 60.2541 23.1658 57.4822C15.3268 57.7195 8.07366 52.6003 7.76079 44.0303C-2.37176 60.4784 9.70009 75.89 23.4698 80.2493C27.175 81.4229 29.8469 85.5237 29.8829 89.797C29.8878 90.5438 29.7962 91.6652 29.3848 92.9211C30.8481 93.2248 32.5696 93.7757 34.2882 94.6516C33.866 91.7207 34.1995 89.2667 34.2237 89.1051C34.3739 88.0474 35.3303 87.3184 36.3428 87.4654C37.3607 87.6168 38.0643 88.5977 37.916 89.6538C37.9081 89.705 37.0627 95.865 39.5228 98.7458C40.8294 100.276 42.1341 102.815 42.5105 105.634C42.6519 106.691 41.939 107.672 40.9176 107.823C40.8496 107.832 40.7821 107.839 40.7151 107.841C39.7755 107.874 38.9458 107.169 38.8147 106.176C37.7111 97.9179 30.042 96.7714 27.3312 96.4709C26.1063 97.8471 24.3118 99.1579 21.6665 100.133C21.4793 100.204 21.2901 100.238 21.1028 100.245C20.312 100.273 19.5631 99.7752 19.2867 98.9603C18.9443 97.9538 19.4552 96.846 20.4288 96.4867C24.1409 95.1154 26.1728 92.7561 26.1492 89.8427C26.1295 87.2597 24.4335 84.6614 22.2888 83.9281C14.6183 81.3064 8.98911 77.0206 5.50714 71.179C1.00576 84.1823 10.7604 89.7028 16.9991 88.8884C18.0086 88.773 18.9532 89.5084 19.0778 90.5694C19.2 91.632 18.4708 92.5983 17.4474 92.7306C16.9404 92.7959 16.4458 92.8362 15.9624 92.8536C13.8127 92.9293 11.9064 92.5482 10.2638 91.9461C8.79549 99.1291 15.447 111.105 27.5982 106.18C29.1197 115.596 41.6838 119.951 48.9271 111.004C56.0531 102.202 51.1083 89.5721 44.4548 86.4807Z" fill="white"/>
<path d="M53.4326 26.9195C53.4464 27.4029 53.4952 27.8819 53.5691 28.3545C55.0167 26.2303 56.6254 24.453 57.6808 23.5107C58.1055 23.1329 58.5154 22.7741 58.9115 22.4268C62.8409 18.9859 64.8107 17.2597 64.4683 11.4752C64.4062 10.4447 65.162 9.55252 66.1563 9.48392C67.1738 9.40989 68.0074 10.1987 68.0675 11.2297C68.5238 18.895 65.4646 21.5749 61.2332 25.2826C60.8449 25.6239 60.4409 25.9767 60.0251 26.3474C58.4415 27.7584 56.4312 30.3076 55.1433 32.7573L55.1655 32.8014L54.791 33.6457C54.0648 35.2843 53.7218 37.0154 53.7736 38.7895C53.8214 40.4667 54.2205 42.0861 54.9605 43.6066L55.3231 44.3545L55.0275 45.1346C54.2456 47.1885 53.882 49.3469 53.946 51.556C53.9968 53.3268 54.3574 55.0628 54.9487 56.7112C56.2578 54.8668 57.9857 53.2833 60.0802 52.0693C63.0503 50.3431 66.5086 49.5358 69.0431 49.9016C72.7133 45.348 77.7202 42.7307 83.2641 42.4944C83.3104 42.4928 83.3582 42.4906 83.4041 42.489C86.5958 42.3774 92.8675 43.379 95.6484 47.52C96.8575 40.0399 94.4397 33.895 87.3866 32.3033C88.7564 26.147 85.233 20.4116 81.9565 18.4486C80.6134 22.7377 78.4514 25.0926 76.1361 26.9522C76.9797 28.2167 78.9929 31.5994 79.0367 35.2124C79.0475 36.2353 78.2666 37.0796 77.2866 37.1128C77.2758 37.1139 77.2644 37.1139 77.2536 37.115C76.2578 37.1319 75.4399 36.306 75.4276 35.2734C75.3985 32.7301 73.8342 30.103 73.1971 29.14C70.2759 31.2701 67.5699 33.5597 65.8459 39.3371C65.6109 40.121 64.926 40.6321 64.1766 40.6583C63.983 40.6659 63.7854 40.6419 63.5888 40.5772C62.6379 40.2761 62.1053 39.2298 62.4004 38.2413C64.6338 30.7595 68.474 27.9908 71.8638 25.5488C74.7418 23.4742 77.2398 21.6614 78.6223 16.9831L78.9007 15.4257C79.0687 14.4888 79.1402 13.5487 79.1136 12.6309C78.9076 5.42783 73.0892 -0.235776 66.146 0.00755656C59.2062 0.250889 53.7233 6.30971 53.9298 13.5128C53.9825 15.3381 54.3969 17.1029 55.164 18.7578L55.5897 19.6767L55.0738 20.5482C53.9352 22.4698 53.3686 24.674 53.4326 26.9195Z" fill="white"/>
<path d="M96.7211 73.1593C95.2424 75.1321 93.6545 76.7407 93.382 77.0101C93.046 77.3444 92.6193 77.5202 92.1896 77.5349C91.6969 77.5523 91.2003 77.3618 90.8332 76.9649C90.1449 76.2213 90.1685 75.0373 90.8879 74.3199C91.6555 73.5518 93.4229 71.6225 94.6389 69.788L94.6113 69.7515L95.2582 68.6377C96.7452 66.0776 97.4867 63.1554 97.402 60.1864C97.2877 56.1891 95.6972 52.4635 92.9312 49.6643C92.8075 49.5353 92.6917 49.4047 92.5606 49.2838L92.4271 49.1526C90.2134 47.1951 86.8945 46.1189 83.3968 46.2348C80.6046 46.3524 75.305 47.4025 71.183 53.1134L70.3696 54.237L69.1038 53.7455C67.973 53.31 64.9675 53.5103 61.8314 55.3323C59.6029 56.6246 56.9886 59.1244 55.9588 63.3536C54.3383 70.0057 58.9727 73.8795 60.613 75.1642C61.4102 75.7886 61.7846 76.806 61.2973 77.7058C60.9756 78.3041 60.3902 78.647 59.7783 78.6683C59.4664 78.6797 59.1467 78.6073 58.8525 78.438C57.4778 77.6525 55.6006 76.0297 54.155 73.6732C53.7239 75.1375 53.4953 76.6628 53.5396 78.2105C53.6254 81.1833 54.5975 84.0075 56.352 86.3749L56.8708 87.0782C58.377 88.9318 60.5021 90.7451 62.1536 92.1474C62.939 92.8153 63.6421 93.4141 64.1787 93.922C69.2107 98.6765 68.2268 104.48 67.0044 106.885C66.688 107.503 66.0869 107.865 65.4617 107.887C65.1577 107.898 64.8507 107.828 64.564 107.672C63.6894 107.194 63.3519 106.071 63.8096 105.159C64.0363 104.693 65.8578 100.583 61.7447 96.694C61.2456 96.2225 60.5918 95.6678 59.863 95.0494C58.6071 93.9825 57.1024 92.6945 55.7125 91.2802C55.642 91.8213 55.5991 92.364 55.6154 92.9177C55.6563 94.3564 55.9928 95.7446 56.6136 97.0434L57.0349 97.927L56.5678 98.7881C55.579 100.619 55.0887 102.686 55.1478 104.754C55.3296 111.099 60.4523 116.084 66.5668 115.87C70.8455 115.72 74.595 113.095 76.355 109.018L76.6659 108.295L77.3838 108.021C79.392 107.257 81.083 105.802 82.2212 103.954C80.6716 103.767 79.2132 103.237 77.9124 102.359C75.4671 100.708 73.9008 98.0309 73.617 95.0091C73.3578 92.2378 74.1314 89.1376 74.9744 86.7233C73.4298 87.2835 71.8432 87.572 70.3967 87.6226C68.854 87.677 67.4739 87.4675 66.4801 87.0488C65.5583 86.6629 65.1153 85.572 65.4913 84.6117C65.8687 83.6541 66.9191 83.1925 67.8439 83.5774C69.8576 84.4212 76.22 83.6629 78.4042 79.3983C80.6411 74.9862 81.2348 72.6889 80.3972 70.4723C79.5911 68.3367 78.0277 67.5686 76.8585 67.2997C74.7143 66.8108 72.2285 67.623 70.3883 69.4303C69.6615 70.144 68.5224 70.1135 67.839 69.365C67.1561 68.6149 67.1896 67.4298 67.9144 66.7178C70.1735 64.5027 73.147 63.3312 75.9958 63.4466C76.8467 59.9654 76.0869 56.6088 76.0791 56.5718C75.8431 55.5696 76.4383 54.5549 77.4059 54.3062C78.3628 54.065 79.3482 54.6703 79.5847 55.6731C79.628 55.8641 80.5504 59.942 79.5024 64.3106C81.4328 65.2605 82.939 66.929 83.7564 69.0923C85.4927 73.6933 83.4125 77.8996 79.8754 84.3771C79.8636 84.4016 76.8063 90.3439 77.2084 94.6297C77.3833 96.5149 78.3396 98.2247 79.8862 99.2155C89.8227 105.582 101.614 87.7543 96.7211 73.1593Z" fill="white"/>
</g>
<defs>
<filter id="filter0_d_150_35367" x="0" y="0" width="101.864" height="123.894" filterUnits="userSpaceOnUse" color-interpolation-filters="sRGB">
<feFlood flood-opacity="0" result="BackgroundImageFix"/>
<feColorMatrix in="SourceAlpha" type="matrix" values="0 0 0 0 0 0 0 0 0 0 0 0 0 0 0 0 0 0 127 0" result="hardAlpha"/>
<feOffset dy="4"/>
<feGaussianBlur stdDeviation="2"/>
<feComposite in2="hardAlpha" operator="out"/>
<feColorMatrix type="matrix" values="0 0 0 0 0 0 0 0 0 0 0 0 0 0 0 0 0 0 0.25 0"/>
<feBlend mode="normal" in2="BackgroundImageFix" result="effect1_dropShadow_150_35367"/>
<feBlend mode="normal" in="SourceGraphic" in2="effect1_dropShadow_150_35367" result="shape"/>
</filter>
</defs>
</svg>
