<svg width="90" height="95" viewBox="0 0 90 95" fill="none" xmlns="http://www.w3.org/2000/svg">
<path d="M76.2864 91.1299L76.1423 61.6422C81.1077 57.9619 84.9731 52.9948 87.3207 47.2774C90.7529 38.8423 90.6936 29.3893 87.156 20.9979C83.6184 12.6065 76.8923 5.96409 68.4572 2.53194C60.0221 -0.900204 50.5691 -0.840961 42.1777 2.69664C33.7863 6.23425 27.1439 12.9604 23.7118 21.3955C21.4007 27.1278 20.6999 33.3826 21.6852 39.4842L0.994095 60.4943C0.511671 60.9894 0.186477 61.6161 0.0594438 62.2956C-0.0675897 62.9751 0.00921137 63.677 0.280184 64.3129C0.551154 64.9488 1.00418 65.4904 1.58226 65.8695C2.16033 66.2485 2.83761 66.4481 3.52885 66.4431C15.7291 66.3007 21.3114 71.8251 21.6342 84.3258C21.6513 85.0094 21.8682 85.673 22.2579 86.2349C22.6477 86.7968 23.1933 87.2323 23.8276 87.4878C24.4667 87.7367 25.1647 87.7926 25.8352 87.6485C26.5057 87.5045 27.1192 87.1668 27.5996 86.6774L38.8515 75.2928L38.9259 91.2859C38.9281 91.9717 39.1316 92.6418 39.511 93.2131C39.8904 93.7843 40.4292 94.2317 41.0605 94.4997C41.693 94.7596 42.3877 94.8288 43.059 94.6987C43.7304 94.5685 44.3489 94.2448 44.8385 93.7673C53.7974 85.0434 61.6509 84.9858 70.2858 93.6058C70.7772 94.092 71.4014 94.422 72.0799 94.5543C72.7584 94.6865 73.4609 94.6151 74.0989 94.349C74.7369 94.0829 75.2819 93.634 75.6654 93.0589C76.0488 92.4837 76.2536 91.808 76.2539 91.1167L76.2864 91.1299ZM27.7309 76.5933C27.0023 72.477 25.0198 68.6863 22.0546 65.7397C19.0895 62.7931 15.2865 60.8344 11.1657 60.1316L23.942 47.3247L24.2247 47.9315C27.1816 54.8324 32.3383 60.5614 38.8911 64.2258L27.7309 76.5933ZM37.3762 46.4739L44.6873 34.7342L39.1343 22.0725L52.5439 25.3726L62.9375 16.0975L63.9423 29.897L75.8465 36.8968L63.0307 42.0845L60.0684 55.5937L51.1454 45.0786L37.3762 46.4739ZM45.9049 83.9881L45.9263 67.2018L46.7052 67.5187C54.1927 69.4933 62.1287 68.8682 69.2147 65.7457L69.4198 83.8347C65.9698 81.4147 61.8519 80.1292 57.6379 80.1567C53.4239 80.1842 49.323 81.5233 45.9049 83.9881Z" fill="white"/>
</svg>
