<svg width="128" height="150" viewBox="0 0 128 150" fill="none" xmlns="http://www.w3.org/2000/svg">
<g filter="url(#filter0_d_150_35246)">
<path d="M73.3201 14.1488C73.3201 6.33434 79.0537 6.10352e-05 86.1261 6.10352e-05C93.1985 6.10352e-05 98.9321 6.33483 98.9321 14.1488C98.9321 21.9632 93.1985 28.2975 86.1261 28.2975C79.0537 28.2975 73.3201 21.9627 73.3201 14.1488ZM121.776 55.4468C119.701 52.5992 115.931 52.1495 113.353 54.4406L97.9109 62.2368L85.3845 33.8425L72.4281 25.3881L43.9766 24.7071C40.96 24.5934 38.0891 26.1442 36.3182 28.8451L25.4249 45.4589C23.6849 48.1128 24.2261 51.8238 26.6327 53.7394L26.7208 53.8095C29.1353 55.7315 32.5045 55.1128 34.2266 52.4317L44.1001 37.0588L60.056 40.0532L35.9675 93.6853L12.6189 81.9715C10.0889 80.5403 6.98819 81.5391 5.55054 84.2484L4.73688 85.7819C3.23974 88.6038 4.09634 92.2318 6.65002 93.8869L33.8146 111.488C36.8541 113.457 40.7497 112.538 42.7962 109.369C48.732 100.177 59.9554 82.9229 60.4166 83.1611L81.3117 98.6397L81.4231 130.322C81.4231 130.322 81.3931 138.824 84.9273 140.59C85.8667 141.06 86.8494 141.282 87.8178 141.282C90.4914 141.282 93.0464 139.585 94.2206 136.719L96.9671 98.0556C96.9671 98.0556 97.0257 89.6288 93.5438 87.8294L70.9229 68.5236L79.582 54.5439L91.5005 75.0763C93.6167 77.7416 97.2587 78.09 99.7587 75.8671L120.864 64.7523C123.442 62.4602 123.849 58.294 121.776 55.4468Z" fill="white"/>
</g>
<defs>
<filter id="filter0_d_150_35246" x="0" y="6.10352e-05" width="127.1" height="149.281" filterUnits="userSpaceOnUse" color-interpolation-filters="sRGB">
<feFlood flood-opacity="0" result="BackgroundImageFix"/>
<feColorMatrix in="SourceAlpha" type="matrix" values="0 0 0 0 0 0 0 0 0 0 0 0 0 0 0 0 0 0 127 0" result="hardAlpha"/>
<feOffset dy="4"/>
<feGaussianBlur stdDeviation="2"/>
<feComposite in2="hardAlpha" operator="out"/>
<feColorMatrix type="matrix" values="0 0 0 0 0 0 0 0 0 0 0 0 0 0 0 0 0 0 0.25 0"/>
<feBlend mode="normal" in2="BackgroundImageFix" result="effect1_dropShadow_150_35246"/>
<feBlend mode="normal" in="SourceGraphic" in2="effect1_dropShadow_150_35246" result="shape"/>
</filter>
</defs>
</svg>
