<svg width="137" height="135" viewBox="0 0 137 135" fill="none" xmlns="http://www.w3.org/2000/svg">
<g filter="url(#filter0_d_150_35378)">
<path d="M108.367 48.9051C112.254 49.6876 116.039 47.1714 116.821 43.285C117.604 39.3987 115.087 35.6138 111.201 34.8313C107.315 34.0488 103.53 36.565 102.747 40.4513C101.965 44.3377 104.481 48.1226 108.367 48.9051Z" fill="white"/>
<path d="M79.4408 120.24C83.5134 121.06 87.4797 118.423 88.2997 114.351C89.1197 110.278 86.4829 106.312 82.4103 105.492C78.3377 104.672 74.3714 107.309 73.5514 111.381C72.7314 115.454 75.3681 119.42 79.4408 120.24Z" fill="white"/>
<path d="M88.6805 51.7133L101.884 47.6132C100.923 45.7891 100.301 43.8004 100.06 41.7518L86.1717 46.0644C87.2763 47.8148 88.122 49.7192 88.6805 51.7133Z" fill="white"/>
<path d="M78.569 102.608L65.1288 80.7318C63.2396 81.5194 61.2824 82.3248 59.3797 83.1017L73.3359 105.818C74.8667 104.435 76.6445 103.348 78.569 102.608Z" fill="white"/>
<path d="M84.43 79.6343C89.1811 75.9119 92.2916 70.2035 93.2916 63.7716C95.5077 49.5178 85.7491 36.1662 71.4952 33.9501C64.1501 32.8082 57.0488 34.852 51.5833 39.0463C47.6489 33.3906 41.5036 29.2872 34.1585 28.1453C19.9047 25.9292 6.55311 35.6877 4.33702 49.9416C3.33704 56.3735 4.56801 62.7565 7.96434 67.7459C14.4963 77.3405 40.6126 109.612 40.6126 109.612C40.6126 109.612 75.2941 86.7929 84.43 79.6343Z" fill="white"/>
</g>
<defs>
<filter id="filter0_d_150_35378" x="-2.91504" y="0" width="142.931" height="142.931" filterUnits="userSpaceOnUse" color-interpolation-filters="sRGB">
<feFlood flood-opacity="0" result="BackgroundImageFix"/>
<feColorMatrix in="SourceAlpha" type="matrix" values="0 0 0 0 0 0 0 0 0 0 0 0 0 0 0 0 0 0 127 0" result="hardAlpha"/>
<feOffset dy="4"/>
<feGaussianBlur stdDeviation="2"/>
<feComposite in2="hardAlpha" operator="out"/>
<feColorMatrix type="matrix" values="0 0 0 0 0 0 0 0 0 0 0 0 0 0 0 0 0 0 0.25 0"/>
<feBlend mode="normal" in2="BackgroundImageFix" result="effect1_dropShadow_150_35378"/>
<feBlend mode="normal" in="SourceGraphic" in2="effect1_dropShadow_150_35378" result="shape"/>
</filter>
</defs>
</svg>
