<svg width="372" height="226" viewBox="0 0 372 226" fill="none" xmlns="http://www.w3.org/2000/svg">
<g filter="url(#filter0_dd_154_42576)">
<g clip-path="url(#clip0_154_42576)">
<rect x="20" width="331.81" height="195.95" rx="14" fill="url(#paint0_linear_154_42576)"/>
<g filter="url(#filter1_f_154_42576)">
<rect x="281.82" y="13.9902" width="55.99" height="55.99" rx="27.995" fill="white" fill-opacity="0.1"/>
</g>
<g filter="url(#filter2_f_154_42576)">
<rect x="33.99" y="111.97" width="69.98" height="69.98" rx="34.99" fill="#8EC5FF" fill-opacity="0.2"/>
</g>
<path d="M205.518 126.555C205.343 126.555 205.201 126.517 205.091 126.44C204.993 126.353 204.933 126.243 204.911 126.112C204.9 125.97 204.933 125.811 205.009 125.636L209.525 115.357C209.623 115.138 209.738 114.985 209.869 114.897C210.012 114.799 210.165 114.75 210.329 114.75C210.493 114.75 210.641 114.799 210.773 114.897C210.915 114.985 211.03 115.138 211.117 115.357L215.649 125.636C215.737 125.811 215.77 125.97 215.748 126.112C215.737 126.254 215.682 126.364 215.584 126.44C215.485 126.517 215.348 126.555 215.173 126.555C214.976 126.555 214.817 126.506 214.697 126.408C214.577 126.298 214.478 126.145 214.401 125.948L213.186 123.14L213.843 123.485H206.783L207.456 123.14L206.257 125.948C206.159 126.156 206.055 126.309 205.945 126.408C205.836 126.506 205.693 126.555 205.518 126.555ZM210.313 116.441L207.669 122.664L207.275 122.352H213.35L212.989 122.664L210.346 116.441H210.313ZM222.542 126.588C221.404 126.588 220.43 126.347 219.62 125.866C218.809 125.384 218.186 124.7 217.748 123.813C217.321 122.927 217.107 121.87 217.107 120.644C217.107 119.725 217.228 118.904 217.469 118.181C217.72 117.448 218.076 116.829 218.536 116.326C219.007 115.811 219.581 115.417 220.26 115.144C220.939 114.859 221.699 114.717 222.542 114.717C223.221 114.717 223.867 114.815 224.48 115.012C225.093 115.198 225.624 115.477 226.073 115.85C226.215 115.959 226.308 116.085 226.352 116.227C226.406 116.359 226.412 116.49 226.368 116.621C226.335 116.742 226.27 116.846 226.171 116.933C226.083 117.01 225.974 117.048 225.843 117.048C225.711 117.048 225.564 116.994 225.399 116.884C225.005 116.567 224.573 116.331 224.102 116.178C223.631 116.025 223.122 115.948 222.575 115.948C221.71 115.948 220.977 116.134 220.375 116.506C219.773 116.868 219.319 117.399 219.012 118.099C218.705 118.8 218.552 119.648 218.552 120.644C218.552 121.64 218.705 122.494 219.012 123.206C219.319 123.906 219.773 124.443 220.375 124.815C220.977 125.176 221.71 125.357 222.575 125.357C223.111 125.357 223.621 125.28 224.102 125.127C224.584 124.963 225.027 124.722 225.432 124.404C225.596 124.295 225.744 124.246 225.875 124.257C226.007 124.257 226.116 124.295 226.204 124.372C226.291 124.448 226.352 124.547 226.385 124.667C226.428 124.787 226.428 124.913 226.385 125.045C226.352 125.176 226.27 125.291 226.138 125.39C225.678 125.784 225.137 126.085 224.513 126.293C223.9 126.49 223.243 126.588 222.542 126.588ZM228.047 126.555C227.872 126.555 227.73 126.517 227.62 126.44C227.522 126.353 227.462 126.243 227.44 126.112C227.429 125.97 227.462 125.811 227.538 125.636L232.054 115.357C232.152 115.138 232.267 114.985 232.399 114.897C232.541 114.799 232.694 114.75 232.858 114.75C233.023 114.75 233.17 114.799 233.302 114.897C233.444 114.985 233.559 115.138 233.647 115.357L238.178 125.636C238.266 125.811 238.299 125.97 238.277 126.112C238.266 126.254 238.211 126.364 238.113 126.44C238.014 126.517 237.877 126.555 237.702 126.555C237.505 126.555 237.347 126.506 237.226 126.408C237.106 126.298 237.007 126.145 236.931 125.948L235.715 123.14L236.372 123.485H229.312L229.985 123.14L228.786 125.948C228.688 126.156 228.584 126.309 228.474 126.408C228.365 126.506 228.223 126.555 228.047 126.555ZM232.842 116.441L230.198 122.664L229.804 122.352H235.88L235.518 122.664L232.875 116.441H232.842ZM240.995 126.44C240.754 126.44 240.568 126.38 240.436 126.26C240.316 126.128 240.256 125.942 240.256 125.702V115.603C240.256 115.363 240.316 115.182 240.436 115.061C240.568 114.93 240.754 114.864 240.995 114.864H244.164C246.036 114.864 247.481 115.357 248.499 116.342C249.517 117.327 250.026 118.761 250.026 120.644C250.026 121.586 249.894 122.418 249.632 123.14C249.38 123.852 249.002 124.454 248.499 124.946C247.995 125.439 247.382 125.811 246.66 126.063C245.937 126.315 245.105 126.44 244.164 126.44H240.995ZM241.602 125.291H244.065C244.831 125.291 245.494 125.193 246.052 124.995C246.621 124.798 247.092 124.508 247.464 124.125C247.847 123.742 248.132 123.26 248.318 122.68C248.504 122.089 248.597 121.41 248.597 120.644C248.597 119.101 248.219 117.946 247.464 117.18C246.709 116.402 245.576 116.014 244.065 116.014H241.602V125.291ZM253.181 126.44C252.94 126.44 252.754 126.38 252.623 126.26C252.503 126.128 252.442 125.942 252.442 125.702V115.603C252.442 115.363 252.503 115.182 252.623 115.061C252.754 114.93 252.94 114.864 253.181 114.864H259.289C259.476 114.864 259.618 114.914 259.716 115.012C259.815 115.111 259.864 115.248 259.864 115.423C259.864 115.609 259.815 115.751 259.716 115.85C259.618 115.948 259.476 115.997 259.289 115.997H253.756V120.004H258.945C259.131 120.004 259.273 120.053 259.372 120.152C259.47 120.239 259.519 120.376 259.519 120.562C259.519 120.748 259.47 120.891 259.372 120.989C259.273 121.088 259.131 121.137 258.945 121.137H253.756V125.307H259.289C259.476 125.307 259.618 125.357 259.716 125.455C259.815 125.554 259.864 125.691 259.864 125.866C259.864 126.052 259.815 126.194 259.716 126.293C259.618 126.391 259.476 126.44 259.289 126.44H253.181ZM262.672 126.555C262.475 126.555 262.322 126.501 262.212 126.391C262.103 126.271 262.048 126.107 262.048 125.899V115.406C262.048 115.187 262.103 115.023 262.212 114.914C262.322 114.804 262.475 114.75 262.672 114.75C262.847 114.75 262.984 114.788 263.083 114.864C263.192 114.93 263.291 115.045 263.378 115.209L267.877 123.682H267.385L271.867 115.209C271.955 115.045 272.048 114.93 272.146 114.864C272.245 114.788 272.387 114.75 272.573 114.75C272.759 114.75 272.907 114.804 273.017 114.914C273.126 115.023 273.181 115.187 273.181 115.406V125.899C273.181 126.107 273.126 126.271 273.017 126.391C272.918 126.501 272.765 126.555 272.557 126.555C272.36 126.555 272.207 126.501 272.097 126.391C271.988 126.271 271.933 126.107 271.933 125.899V116.671H272.327L268.222 124.372C268.145 124.514 268.063 124.618 267.976 124.684C267.899 124.738 267.784 124.766 267.631 124.766C267.478 124.766 267.357 124.733 267.27 124.667C267.182 124.601 267.105 124.503 267.04 124.372L262.886 116.654H263.28V125.899C263.28 126.107 263.225 126.271 263.115 126.391C263.017 126.501 262.869 126.555 262.672 126.555ZM279.527 126.555C279.308 126.555 279.138 126.495 279.018 126.375C278.908 126.243 278.853 126.063 278.853 125.833V120.447L279.149 121.383L275.028 115.702C274.929 115.56 274.88 115.417 274.88 115.275C274.891 115.122 274.951 114.996 275.06 114.897C275.17 114.799 275.312 114.75 275.487 114.75C275.641 114.75 275.777 114.788 275.898 114.864C276.018 114.93 276.128 115.04 276.226 115.193L279.724 120.02H279.379L282.876 115.193C282.997 115.029 283.112 114.914 283.221 114.848C283.33 114.782 283.462 114.75 283.615 114.75C283.79 114.75 283.927 114.799 284.026 114.897C284.124 114.985 284.173 115.105 284.173 115.259C284.184 115.401 284.135 115.554 284.026 115.718L279.921 121.383L280.2 120.447V125.833C280.2 126.315 279.975 126.555 279.527 126.555Z" fill="white"/>
<path d="M95.9198 105.336C88.0982 105.336 81.8999 98.7118 81.8999 91.1417C81.8999 83.223 88.4425 76.898 95.9198 76.898C99.8709 76.503 103.143 77.7866 106.783 81.9338C107.573 82.8339 107.474 83.5111 107.474 83.8099C107.375 84.5998 106.98 85.291 106.392 85.9514L98.8835 93.7828C98.244 94.2808 97.4569 94.4801 96.719 94.4801C94.6037 94.4801 92.882 92.7369 92.882 90.6452C92.882 89.4001 93.4231 88.2048 94.5053 87.4578L98.0936 84.3036C97.0605 83.6562 96.7564 83.8099 95.625 83.8099C92.0831 83.8099 89.0093 87.7551 89.0093 91.1417C89.0093 94.6777 91.7876 98.0287 95.2311 98.0287C97.002 98.0287 99.554 97.4757 100.784 96.0812C101.522 95.1847 102.555 94.7863 103.637 94.7863C105.703 94.7863 107.474 96.5294 107.474 98.6212C107.474 99.5176 107.13 100.464 106.49 101.211C103.637 104.151 99.7568 105.336 95.9198 105.336Z" fill="white"/>
<path d="M123.487 83.4132C119.439 83.6107 116.073 86.4062 116.168 90.651C116.267 95.0647 119.032 97.9282 123.487 98.2244C128.128 97.9282 130.98 94.7685 130.98 90.651C130.782 86.2767 127.326 83.4132 123.487 83.4132ZM123.278 105.334C115.181 105.136 108.96 98.8169 109.059 90.2858C109.355 82.0308 115.983 76.6 123.232 76.3239C126.734 76.3038 127.635 76.995 131.436 78.1568V68.233C131.436 66.2599 132.938 64.751 134.845 64.751C136.693 64.751 138.311 66.2599 138.311 68.233V90.2858C138.311 98.7007 131.671 105.433 123.278 105.334Z" fill="white"/>
<path d="M153.911 105.336C146.089 105.336 139.891 98.7118 139.891 91.1417C139.891 83.223 146.433 76.898 153.911 76.898C157.862 76.503 161.134 77.7866 164.774 81.9338C165.563 82.8339 165.465 83.5111 165.465 83.8099C165.366 84.5998 164.971 85.291 164.383 85.9514L156.874 93.7828C156.235 94.2808 155.448 94.4801 154.71 94.4801C152.594 94.4801 150.873 92.7369 150.873 90.6452C150.873 89.4001 151.414 88.2048 152.496 87.4578L156.084 84.3036C155.051 83.6562 154.747 83.8099 153.616 83.8099C150.074 83.8099 147 87.7551 147 91.1417C147 94.6777 149.778 98.0287 153.222 98.0287C154.993 98.0287 157.545 97.4757 158.775 96.0812C159.512 95.1847 160.545 94.7863 161.628 94.7863C163.694 94.7863 165.465 96.5294 165.465 98.6212C165.465 99.5176 165.12 100.464 164.481 101.211C161.628 104.151 157.748 105.336 153.911 105.336Z" fill="white"/>
<path d="M167.049 89.6574C167.049 82.1545 173.079 76.1074 180.505 76.1074C187.876 76.1074 193.906 82.1545 193.906 89.6574V101.36C193.906 103.543 192.064 105.335 189.886 105.335C187.653 105.335 185.922 103.543 185.922 101.36V89.6574C185.922 86.5218 183.409 84.1142 180.505 84.1142C177.49 84.1142 175.033 86.5218 175.033 89.6574V101.36C175.033 103.543 173.247 105.335 171.013 105.335C168.891 105.335 167.049 103.543 167.049 101.36V89.6574Z" fill="white"/>
<path d="M196.474 81.4731C196.474 79.6356 198.632 78.0808 200.423 78.0808C202.356 78.0808 204.669 79.6356 204.669 81.4731V101.99C204.669 103.828 202.356 105.335 200.423 105.335C198.632 105.335 196.474 103.828 196.474 101.99V81.4731Z" fill="white"/>
<path d="M205.755 68.7021C205.755 71.5923 203.457 73.9354 200.621 73.9354C197.785 73.9354 195.486 71.5923 195.486 68.7021C195.486 65.8118 197.785 63.4688 200.621 63.4688C203.457 63.4688 205.755 65.8118 205.755 68.7021Z" fill="white"/>
<path d="M220.885 76.3047C213.382 76.3047 207.335 83.3225 207.335 90.7489C207.335 98.1194 213.382 105.335 220.885 105.335H228.243C230.426 105.335 232.218 103.492 232.218 101.314C232.218 99.081 230.426 97.35 228.243 97.35H220.885C217.75 97.35 215.342 93.6524 215.342 90.7489C215.342 87.7337 217.75 84.2894 220.885 84.2894H228.243C230.426 84.2894 232.218 82.5026 232.218 80.2691C232.218 78.1473 230.426 76.3047 228.243 76.3047H220.885Z" fill="white"/>
<path d="M248.313 76.3057C256.33 76.3057 262.828 82.8043 262.828 90.8207C262.828 98.8371 256.33 105.336 248.313 105.336C240.297 105.336 233.798 98.8371 233.798 90.8207C233.798 82.8043 240.297 76.3057 248.313 76.3057ZM248.313 83.4151C244.223 83.4151 240.908 86.7307 240.908 90.8207C240.908 94.9107 244.223 98.2263 248.313 98.2263C252.403 98.2263 255.719 94.9107 255.719 90.8207C255.719 86.7307 252.403 83.4151 248.313 83.4151Z" fill="white"/>
<path d="M272.032 77.0947H279.268C281.296 77.0947 283.552 79.1604 283.552 81.2487C283.552 83.1804 281.888 84.5083 279.861 84.5083H273.132C272.427 84.5083 271.933 85.4878 272.768 86.1268L277.189 88.4988C283.88 92.7947 284.156 95.6763 283.428 99.1221C282.648 102.411 279.477 105.335 274.537 105.335H268.152C266.072 105.335 264.408 103.664 264.408 101.628C264.408 99.5398 266.072 97.8691 268.152 97.8691H274.818C276.278 97.7318 275.883 96.7443 275.078 96.1984L269.859 93.0909C265.757 90.3749 264.085 87.7929 264.761 84.3471C265.541 81.0058 267.786 77.4897 272.032 77.0947Z" fill="white"/>
<path d="M145.644 71.7653L151.878 67.7402C152.595 67.2991 153.202 67.0234 153.809 67.0234C154.416 67.0234 155.023 67.2991 155.74 67.7402L161.974 71.7653C163.739 72.8129 162.856 75.0184 161.091 75.0184C160.87 75.0184 160.539 74.9633 160.263 74.853L153.809 72.5924L147.41 74.853C147.134 74.9633 146.858 75.0184 146.582 75.0184C144.817 75.0184 143.879 72.8129 145.644 71.7653Z" fill="white"/>
</g>
</g>
<defs>
<filter id="filter0_dd_154_42576" x="0" y="0" width="371.81" height="235.95" filterUnits="userSpaceOnUse" color-interpolation-filters="sRGB">
<feFlood flood-opacity="0" result="BackgroundImageFix"/>
<feColorMatrix in="SourceAlpha" type="matrix" values="0 0 0 0 0 0 0 0 0 0 0 0 0 0 0 0 0 0 127 0" result="hardAlpha"/>
<feMorphology radius="6" operator="erode" in="SourceAlpha" result="effect1_dropShadow_154_42576"/>
<feOffset dy="8"/>
<feGaussianBlur stdDeviation="5"/>
<feComposite in2="hardAlpha" operator="out"/>
<feColorMatrix type="matrix" values="0 0 0 0 0 0 0 0 0 0 0 0 0 0 0 0 0 0 0.1 0"/>
<feBlend mode="normal" in2="BackgroundImageFix" result="effect1_dropShadow_154_42576"/>
<feColorMatrix in="SourceAlpha" type="matrix" values="0 0 0 0 0 0 0 0 0 0 0 0 0 0 0 0 0 0 127 0" result="hardAlpha"/>
<feMorphology radius="5" operator="erode" in="SourceAlpha" result="effect2_dropShadow_154_42576"/>
<feOffset dy="20"/>
<feGaussianBlur stdDeviation="12.5"/>
<feComposite in2="hardAlpha" operator="out"/>
<feColorMatrix type="matrix" values="0 0 0 0 0 0 0 0 0 0 0 0 0 0 0 0 0 0 0.1 0"/>
<feBlend mode="normal" in2="effect1_dropShadow_154_42576" result="effect2_dropShadow_154_42576"/>
<feBlend mode="normal" in="SourceGraphic" in2="effect2_dropShadow_154_42576" result="shape"/>
</filter>
<filter id="filter1_f_154_42576" x="241.82" y="-26.0098" width="135.99" height="135.99" filterUnits="userSpaceOnUse" color-interpolation-filters="sRGB">
<feFlood flood-opacity="0" result="BackgroundImageFix"/>
<feBlend mode="normal" in="SourceGraphic" in2="BackgroundImageFix" result="shape"/>
<feGaussianBlur stdDeviation="20" result="effect1_foregroundBlur_154_42576"/>
</filter>
<filter id="filter2_f_154_42576" x="-30.01" y="47.9697" width="197.98" height="197.98" filterUnits="userSpaceOnUse" color-interpolation-filters="sRGB">
<feFlood flood-opacity="0" result="BackgroundImageFix"/>
<feBlend mode="normal" in="SourceGraphic" in2="BackgroundImageFix" result="shape"/>
<feGaussianBlur stdDeviation="32" result="effect1_foregroundBlur_154_42576"/>
</filter>
<linearGradient id="paint0_linear_154_42576" x1="53.2155" y1="-32.715" x2="314.565" y2="232.633" gradientUnits="userSpaceOnUse">
<stop stop-color="#07162B"/>
<stop offset="0.5" stop-color="#1E3A8A"/>
<stop offset="1" stop-color="#3775E4"/>
</linearGradient>
<clipPath id="clip0_154_42576">
<rect x="20" width="331.81" height="195.95" rx="14" fill="white"/>
</clipPath>
</defs>
</svg>
