<svg width="372" height="208" viewBox="0 0 372 208" fill="none" xmlns="http://www.w3.org/2000/svg">
<g filter="url(#filter0_dd_154_42599)">
<g clip-path="url(#clip0_154_42599)">
<rect x="20" width="331.82" height="167.97" rx="14" fill="url(#paint0_linear_154_42599)" shape-rendering="crispEdges"/>
<g filter="url(#filter1_f_154_42599)">
<rect x="40.99" y="20.9902" width="42" height="42" rx="21" fill="#BEDBFF" fill-opacity="0.3"/>
</g>
<g filter="url(#filter2_f_154_42599)">
<rect x="274.84" y="90.9902" width="55.99" height="55.99" rx="27.995" fill="#C6D2FF" fill-opacity="0.2"/>
</g>
<g filter="url(#filter3_dd_154_42599)">
<rect x="92.9097" y="56.4688" width="56" height="56" rx="14" fill="#3775E4"/>
<path d="M121.93 98.9743C114.108 98.9743 107.91 92.3504 107.91 84.7804C107.91 76.8616 114.452 70.5366 121.93 70.5366C125.881 70.1417 129.153 71.4253 132.793 75.5725C133.583 76.4726 133.484 77.1497 133.484 77.4486C133.385 78.2385 132.99 78.9297 132.402 79.5901L124.893 87.4215C124.254 87.9195 123.467 88.1187 122.729 88.1187C120.613 88.1187 118.892 86.3756 118.892 84.2839C118.892 83.0388 119.433 81.8435 120.515 81.0965L124.103 77.9423C123.07 77.2948 122.766 77.4486 121.635 77.4486C118.093 77.4486 115.019 81.3937 115.019 84.7804C115.019 88.3164 117.797 91.6674 121.241 91.6674C123.012 91.6674 125.564 91.1144 126.794 89.7199C127.531 88.8234 128.565 88.425 129.647 88.425C131.713 88.425 133.484 90.1681 133.484 92.2598C133.484 93.1563 133.139 94.1025 132.5 94.8496C129.647 97.7894 125.767 98.9743 121.93 98.9743Z" fill="white"/>
</g>
<path d="M169.81 92.4947C168.067 92.4947 166.565 92.1692 165.305 91.5182C164.045 90.8672 163.069 89.9432 162.376 88.7462C161.704 87.5492 161.368 86.1317 161.368 84.4937C161.368 82.8977 161.693 81.5012 162.344 80.3042C163.016 79.1072 163.93 78.1727 165.085 77.5007C166.261 76.8077 167.594 76.4612 169.085 76.4612C170.177 76.4612 171.154 76.6397 172.015 76.9967C172.897 77.3537 173.642 77.8682 174.251 78.5402C174.881 79.2122 175.354 80.0312 175.669 80.9972C176.005 81.9422 176.173 83.0132 176.173 84.2102C176.173 84.5882 176.036 84.8822 175.763 85.0922C175.511 85.2812 175.144 85.3757 174.661 85.3757H164.549V83.1077H173.401L172.897 83.5802C172.897 82.6142 172.75 81.8057 172.456 81.1547C172.183 80.5037 171.773 80.0102 171.227 79.6742C170.702 79.3172 170.041 79.1387 169.243 79.1387C168.361 79.1387 167.605 79.3487 166.975 79.7687C166.366 80.1677 165.893 80.7452 165.557 81.5012C165.242 82.2362 165.085 83.1182 165.085 84.1472V84.3677C165.085 86.0897 165.484 87.3812 166.282 88.2422C167.101 89.0822 168.298 89.5022 169.873 89.5022C170.419 89.5022 171.028 89.4392 171.7 89.3132C172.393 89.1662 173.044 88.9247 173.653 88.5887C174.094 88.3367 174.482 88.2317 174.818 88.2737C175.154 88.2947 175.417 88.4102 175.606 88.6202C175.816 88.8302 175.942 89.0927 175.984 89.4077C176.026 89.7017 175.963 90.0062 175.795 90.3212C175.648 90.6362 175.385 90.9092 175.007 91.1402C174.272 91.6022 173.422 91.9487 172.456 92.1797C171.511 92.3897 170.629 92.4947 169.81 92.4947ZM185.213 92.4947C183.869 92.4947 182.682 92.1692 181.653 91.5182C180.645 90.8672 179.858 89.9432 179.291 88.7462C178.724 87.5282 178.44 86.1002 178.44 84.4622C178.44 82.8032 178.724 81.3857 179.291 80.2097C179.858 79.0127 180.645 78.0887 181.653 77.4377C182.682 76.7867 183.869 76.4612 185.213 76.4612C186.494 76.4612 187.607 76.7762 188.552 77.4062C189.518 78.0362 190.169 78.8657 190.505 79.8947H190.158V71.7047C190.158 71.0537 190.326 70.5602 190.662 70.2242C190.998 69.8882 191.481 69.7202 192.111 69.7202C192.741 69.7202 193.224 69.8882 193.56 70.2242C193.917 70.5602 194.096 71.0537 194.096 71.7047V90.4157C194.096 91.0667 193.928 91.5707 193.592 91.9277C193.256 92.2637 192.773 92.4317 192.143 92.4317C191.513 92.4317 191.03 92.2637 190.694 91.9277C190.358 91.5707 190.19 91.0667 190.19 90.4157V87.9587L190.536 88.9037C190.221 89.9957 189.581 90.8672 188.615 91.5182C187.649 92.1692 186.515 92.4947 185.213 92.4947ZM186.315 89.5022C187.092 89.5022 187.775 89.3132 188.363 88.9352C188.951 88.5572 189.402 88.0007 189.717 87.2657C190.053 86.5097 190.221 85.5752 190.221 84.4622C190.221 82.7822 189.864 81.5327 189.15 80.7137C188.436 79.8737 187.491 79.4537 186.315 79.4537C185.538 79.4537 184.856 79.6427 184.268 80.0207C183.68 80.3777 183.218 80.9342 182.882 81.6902C182.567 82.4252 182.409 83.3492 182.409 84.4622C182.409 86.1212 182.766 87.3812 183.48 88.2422C184.194 89.0822 185.139 89.5022 186.315 89.5022ZM205.77 92.4947C204.027 92.4947 202.525 92.1692 201.265 91.5182C200.005 90.8672 199.029 89.9432 198.336 88.7462C197.664 87.5492 197.328 86.1317 197.328 84.4937C197.328 82.8977 197.653 81.5012 198.304 80.3042C198.976 79.1072 199.89 78.1727 201.045 77.5007C202.221 76.8077 203.554 76.4612 205.045 76.4612C206.137 76.4612 207.114 76.6397 207.975 76.9967C208.857 77.3537 209.602 77.8682 210.211 78.5402C210.841 79.2122 211.314 80.0312 211.629 80.9972C211.965 81.9422 212.133 83.0132 212.133 84.2102C212.133 84.5882 211.996 84.8822 211.723 85.0922C211.471 85.2812 211.104 85.3757 210.621 85.3757H200.509V83.1077H209.361L208.857 83.5802C208.857 82.6142 208.71 81.8057 208.416 81.1547C208.143 80.5037 207.733 80.0102 207.187 79.6742C206.662 79.3172 206.001 79.1387 205.203 79.1387C204.321 79.1387 203.565 79.3487 202.935 79.7687C202.326 80.1677 201.853 80.7452 201.517 81.5012C201.202 82.2362 201.045 83.1182 201.045 84.1472V84.3677C201.045 86.0897 201.444 87.3812 202.242 88.2422C203.061 89.0822 204.258 89.5022 205.833 89.5022C206.379 89.5022 206.988 89.4392 207.66 89.3132C208.353 89.1662 209.004 88.9247 209.613 88.5887C210.054 88.3367 210.442 88.2317 210.778 88.2737C211.114 88.2947 211.377 88.4102 211.566 88.6202C211.776 88.8302 211.902 89.0927 211.944 89.4077C211.986 89.7017 211.923 90.0062 211.755 90.3212C211.608 90.6362 211.345 90.9092 210.967 91.1402C210.232 91.6022 209.382 91.9487 208.416 92.1797C207.471 92.3897 206.589 92.4947 205.77 92.4947ZM209.55 73.3742C209.739 73.7102 209.781 74.0147 209.676 74.2877C209.571 74.5607 209.392 74.7707 209.14 74.9177C208.888 75.0437 208.615 75.0857 208.321 75.0437C208.048 75.0017 207.817 74.8337 207.628 74.5397L205.077 70.5707L202.525 74.5397C202.336 74.8337 202.095 75.0017 201.801 75.0437C201.528 75.0857 201.265 75.0437 201.013 74.9177C200.761 74.7707 200.583 74.5607 200.478 74.2877C200.373 74.0147 200.415 73.7102 200.604 73.3742L202.872 69.2162C203.124 68.7332 203.428 68.3762 203.785 68.1452C204.163 67.9142 204.594 67.7987 205.077 67.7987C205.56 67.7987 205.99 67.9142 206.368 68.1452C206.746 68.3762 207.061 68.7332 207.313 69.2162L209.55 73.3742ZM217.204 92.4317C216.574 92.4317 216.091 92.2637 215.755 91.9277C215.419 91.5707 215.251 91.0667 215.251 90.4157V78.5087C215.251 77.8577 215.419 77.3642 215.755 77.0282C216.091 76.6922 216.564 76.5242 217.173 76.5242C217.782 76.5242 218.254 76.6922 218.59 77.0282C218.926 77.3642 219.094 77.8577 219.094 78.5087V80.6507L218.748 79.8632C219.21 78.7502 219.924 77.9102 220.89 77.3432C221.877 76.7552 222.99 76.4612 224.229 76.4612C225.468 76.4612 226.486 76.6922 227.284 77.1542C228.082 77.6162 228.681 78.3197 229.08 79.2647C229.479 80.1887 229.678 81.3647 229.678 82.7927V90.4157C229.678 91.0667 229.51 91.5707 229.174 91.9277C228.838 92.2637 228.355 92.4317 227.725 92.4317C227.095 92.4317 226.602 92.2637 226.245 91.9277C225.909 91.5707 225.741 91.0667 225.741 90.4157V82.9817C225.741 81.7847 225.51 80.9132 225.048 80.3672C224.607 79.8212 223.914 79.5482 222.969 79.5482C221.814 79.5482 220.89 79.9157 220.197 80.6507C219.525 81.3647 219.189 82.3202 219.189 83.5172V90.4157C219.189 91.7597 218.527 92.4317 217.204 92.4317ZM235.631 92.4002C235.001 92.4002 234.518 92.2112 234.182 91.8332C233.846 91.4552 233.678 90.9302 233.678 90.2582V78.6977C233.678 78.0047 233.846 77.4797 234.182 77.1227C234.518 76.7447 235.001 76.5557 235.631 76.5557C236.261 76.5557 236.744 76.7447 237.08 77.1227C237.437 77.4797 237.615 78.0047 237.615 78.6977V90.2582C237.615 90.9302 237.447 91.4552 237.111 91.8332C236.775 92.2112 236.282 92.4002 235.631 92.4002ZM235.631 73.6262C234.896 73.6262 234.318 73.4477 233.898 73.0907C233.499 72.7127 233.3 72.1982 233.3 71.5472C233.3 70.8752 233.499 70.3607 233.898 70.0037C234.318 69.6467 234.896 69.4682 235.631 69.4682C236.387 69.4682 236.964 69.6467 237.363 70.0037C237.762 70.3607 237.962 70.8752 237.962 71.5472C237.962 72.1982 237.762 72.7127 237.363 73.0907C236.964 73.4477 236.387 73.6262 235.631 73.6262ZM248.825 92.4947C247.208 92.4947 245.801 92.1692 244.604 91.5182C243.407 90.8462 242.483 89.9012 241.832 88.6832C241.181 87.4652 240.856 86.0372 240.856 84.3992C240.856 83.1602 241.034 82.0577 241.391 81.0917C241.769 80.1047 242.305 79.2752 242.998 78.6032C243.691 77.9102 244.531 77.3852 245.518 77.0282C246.505 76.6502 247.607 76.4612 248.825 76.4612C249.518 76.4612 250.264 76.5557 251.062 76.7447C251.881 76.9337 252.647 77.2487 253.361 77.6897C253.697 77.8997 253.918 78.1517 254.023 78.4457C254.128 78.7397 254.149 79.0442 254.086 79.3592C254.023 79.6532 253.886 79.9157 253.676 80.1467C253.487 80.3567 253.246 80.4932 252.952 80.5562C252.658 80.5982 252.332 80.5247 251.975 80.3357C251.513 80.0627 251.041 79.8632 250.558 79.7372C250.075 79.5902 249.613 79.5167 249.172 79.5167C248.479 79.5167 247.87 79.6322 247.345 79.8632C246.82 80.0732 246.368 80.3882 245.99 80.8082C245.633 81.2072 245.36 81.7112 245.171 82.3202C244.982 82.9292 244.888 83.6327 244.888 84.4307C244.888 85.9847 245.255 87.2132 245.99 88.1162C246.746 88.9982 247.807 89.4392 249.172 89.4392C249.613 89.4392 250.064 89.3762 250.526 89.2502C251.009 89.1242 251.492 88.9247 251.975 88.6517C252.332 88.4627 252.647 88.3997 252.92 88.4627C253.214 88.5257 253.456 88.6727 253.645 88.9037C253.834 89.1137 253.949 89.3762 253.991 89.6912C254.033 89.9852 253.991 90.2792 253.865 90.5732C253.76 90.8672 253.55 91.1087 253.235 91.2977C252.542 91.7177 251.807 92.0222 251.03 92.2112C250.253 92.4002 249.518 92.4947 248.825 92.4947ZM263.281 92.4947C261.685 92.4947 260.299 92.1692 259.123 91.5182C257.947 90.8672 257.034 89.9432 256.383 88.7462C255.732 87.5282 255.406 86.1002 255.406 84.4622C255.406 83.2232 255.585 82.1207 255.942 81.1547C256.32 80.1677 256.855 79.3277 257.548 78.6347C258.241 77.9207 259.071 77.3852 260.037 77.0282C261.003 76.6502 262.084 76.4612 263.281 76.4612C264.877 76.4612 266.263 76.7867 267.439 77.4377C268.615 78.0887 269.529 79.0127 270.18 80.2097C270.831 81.4067 271.156 82.8242 271.156 84.4622C271.156 85.7012 270.967 86.8142 270.589 87.8012C270.232 88.7882 269.707 89.6387 269.014 90.3527C268.321 91.0457 267.492 91.5812 266.526 91.9592C265.56 92.3162 264.478 92.4947 263.281 92.4947ZM263.281 89.5022C264.058 89.5022 264.741 89.3132 265.329 88.9352C265.917 88.5572 266.368 88.0007 266.683 87.2657C267.019 86.5097 267.187 85.5752 267.187 84.4622C267.187 82.7822 266.83 81.5327 266.116 80.7137C265.402 79.8737 264.457 79.4537 263.281 79.4537C262.504 79.4537 261.822 79.6427 261.234 80.0207C260.646 80.3777 260.184 80.9342 259.848 81.6902C259.533 82.4252 259.375 83.3492 259.375 84.4622C259.375 86.1212 259.732 87.3812 260.446 88.2422C261.16 89.0822 262.105 89.5022 263.281 89.5022ZM280.045 92.4947C279.142 92.4947 278.186 92.4002 277.178 92.2112C276.17 92.0222 275.267 91.6967 274.469 91.2347C274.133 91.0247 273.892 90.7832 273.745 90.5102C273.619 90.2162 273.566 89.9327 273.587 89.6597C273.629 89.3657 273.734 89.1137 273.902 88.9037C274.091 88.6937 274.322 88.5572 274.595 88.4942C274.889 88.4312 275.204 88.4837 275.54 88.6517C276.38 89.0507 277.168 89.3342 277.903 89.5022C278.638 89.6492 279.362 89.7227 280.076 89.7227C281.084 89.7227 281.83 89.5547 282.313 89.2187C282.817 88.8617 283.069 88.3997 283.069 87.8327C283.069 87.3497 282.901 86.9822 282.565 86.7302C282.25 86.4572 281.767 86.2577 281.116 86.1317L277.966 85.5332C276.664 85.2812 275.666 84.8087 274.973 84.1157C274.301 83.4017 273.965 82.4882 273.965 81.3752C273.965 80.3672 274.238 79.4957 274.784 78.7607C275.351 78.0257 276.128 77.4587 277.115 77.0597C278.102 76.6607 279.236 76.4612 280.517 76.4612C281.441 76.4612 282.302 76.5662 283.1 76.7762C283.919 76.9652 284.707 77.2697 285.463 77.6897C285.778 77.8577 285.988 78.0782 286.093 78.3512C286.219 78.6242 286.25 78.9077 286.187 79.2017C286.124 79.4747 285.998 79.7267 285.809 79.9577C285.62 80.1677 285.379 80.3042 285.085 80.3672C284.812 80.4092 284.497 80.3462 284.14 80.1782C283.489 79.8422 282.859 79.6007 282.25 79.4537C281.662 79.3067 281.095 79.2332 280.549 79.2332C279.52 79.2332 278.753 79.4117 278.249 79.7687C277.766 80.1257 277.525 80.5982 277.525 81.1862C277.525 81.6272 277.672 81.9947 277.966 82.2887C278.26 82.5827 278.711 82.7822 279.32 82.8872L282.47 83.4857C283.835 83.7377 284.864 84.1997 285.557 84.8717C286.271 85.5437 286.628 86.4467 286.628 87.5807C286.628 89.1137 286.03 90.3212 284.833 91.2032C283.636 92.0642 282.04 92.4947 280.045 92.4947Z" fill="#101828"/>
<path d="M218.048 112.572C217.892 112.572 217.764 112.537 217.666 112.469C217.578 112.39 217.524 112.292 217.505 112.175C217.495 112.048 217.524 111.906 217.593 111.749L221.632 102.554C221.721 102.358 221.823 102.221 221.941 102.142C222.068 102.054 222.205 102.01 222.352 102.01C222.499 102.01 222.631 102.054 222.749 102.142C222.876 102.221 222.979 102.358 223.057 102.554L227.112 111.749C227.19 111.906 227.219 112.048 227.2 112.175C227.19 112.302 227.141 112.4 227.053 112.469C226.965 112.537 226.842 112.572 226.686 112.572C226.509 112.572 226.367 112.528 226.26 112.439C226.152 112.341 226.064 112.204 225.995 112.028L224.908 109.516L225.496 109.825H219.179L219.782 109.516L218.709 112.028C218.621 112.214 218.528 112.351 218.43 112.439C218.332 112.528 218.205 112.572 218.048 112.572ZM222.338 103.523L219.973 109.09L219.62 108.811H225.055L224.732 109.09L222.367 103.523H222.338ZM233.278 112.601C232.259 112.601 231.388 112.386 230.663 111.955C229.939 111.524 229.38 110.912 228.989 110.118C228.607 109.325 228.416 108.38 228.416 107.284C228.416 106.461 228.524 105.726 228.739 105.08C228.964 104.424 229.282 103.871 229.694 103.42C230.115 102.96 230.629 102.607 231.236 102.363C231.843 102.108 232.524 101.981 233.278 101.981C233.885 101.981 234.463 102.069 235.011 102.245C235.56 102.412 236.035 102.661 236.436 102.994C236.563 103.092 236.647 103.205 236.686 103.332C236.735 103.45 236.74 103.567 236.7 103.685C236.671 103.792 236.612 103.885 236.524 103.964C236.446 104.032 236.348 104.067 236.23 104.067C236.113 104.067 235.981 104.018 235.834 103.92C235.481 103.636 235.094 103.425 234.673 103.288C234.252 103.151 233.797 103.082 233.307 103.082C232.534 103.082 231.878 103.249 231.339 103.582C230.8 103.905 230.394 104.38 230.12 105.007C229.846 105.633 229.708 106.392 229.708 107.284C229.708 108.175 229.846 108.938 230.12 109.575C230.394 110.202 230.8 110.682 231.339 111.015C231.878 111.338 232.534 111.499 233.307 111.499C233.787 111.499 234.243 111.431 234.673 111.294C235.104 111.147 235.501 110.931 235.863 110.647C236.01 110.549 236.142 110.505 236.26 110.515C236.377 110.515 236.475 110.549 236.554 110.618C236.632 110.686 236.686 110.775 236.715 110.882C236.754 110.99 236.754 111.103 236.715 111.22C236.686 111.338 236.612 111.441 236.495 111.529C236.084 111.881 235.599 112.15 235.041 112.337C234.492 112.513 233.905 112.601 233.278 112.601ZM238.203 112.572C238.046 112.572 237.919 112.537 237.821 112.469C237.733 112.39 237.679 112.292 237.659 112.175C237.649 112.048 237.679 111.906 237.747 111.749L241.787 102.554C241.875 102.358 241.978 102.221 242.095 102.142C242.223 102.054 242.36 102.01 242.507 102.01C242.654 102.01 242.786 102.054 242.903 102.142C243.031 102.221 243.133 102.358 243.212 102.554L247.266 111.749C247.344 111.906 247.374 112.048 247.354 112.175C247.344 112.302 247.295 112.4 247.207 112.469C247.119 112.537 246.997 112.572 246.84 112.572C246.664 112.572 246.522 112.528 246.414 112.439C246.306 112.341 246.218 112.204 246.15 112.028L245.063 109.516L245.65 109.825H239.334L239.936 109.516L238.864 112.028C238.776 112.214 238.683 112.351 238.585 112.439C238.487 112.528 238.359 112.572 238.203 112.572ZM242.492 103.523L240.127 109.09L239.775 108.811H245.209L244.886 109.09L242.521 103.523H242.492ZM249.785 112.469C249.57 112.469 249.403 112.415 249.286 112.307C249.178 112.19 249.124 112.023 249.124 111.808V102.774C249.124 102.559 249.178 102.397 249.286 102.289C249.403 102.172 249.57 102.113 249.785 102.113H252.62C254.295 102.113 255.588 102.554 256.498 103.435C257.409 104.316 257.864 105.599 257.864 107.284C257.864 108.126 257.747 108.87 257.512 109.516C257.287 110.153 256.949 110.691 256.498 111.132C256.048 111.573 255.499 111.906 254.853 112.131C254.207 112.356 253.462 112.469 252.62 112.469H249.785ZM250.329 111.441H252.532C253.218 111.441 253.81 111.352 254.31 111.176C254.819 111 255.24 110.74 255.573 110.398C255.916 110.055 256.17 109.624 256.337 109.105C256.503 108.576 256.586 107.969 256.586 107.284C256.586 105.903 256.249 104.87 255.573 104.184C254.897 103.489 253.884 103.141 252.532 103.141H250.329V111.441ZM260.687 112.469C260.472 112.469 260.305 112.415 260.188 112.307C260.08 112.19 260.026 112.023 260.026 111.808V102.774C260.026 102.559 260.08 102.397 260.188 102.289C260.305 102.172 260.472 102.113 260.687 102.113H266.152C266.318 102.113 266.445 102.157 266.534 102.245C266.622 102.333 266.666 102.456 266.666 102.612C266.666 102.779 266.622 102.906 266.534 102.994C266.445 103.082 266.318 103.127 266.152 103.127H261.201V106.711H265.843C266.01 106.711 266.137 106.755 266.225 106.843C266.313 106.921 266.357 107.044 266.357 107.21C266.357 107.377 266.313 107.504 266.225 107.592C266.137 107.68 266.01 107.724 265.843 107.724H261.201V111.455H266.152C266.318 111.455 266.445 111.499 266.534 111.587C266.622 111.676 266.666 111.798 266.666 111.955C266.666 112.121 266.622 112.248 266.534 112.337C266.445 112.425 266.318 112.469 266.152 112.469H260.687ZM269.178 112.572C269.001 112.572 268.864 112.523 268.766 112.425C268.669 112.317 268.62 112.17 268.62 111.984V102.598C268.62 102.402 268.669 102.255 268.766 102.157C268.864 102.059 269.001 102.01 269.178 102.01C269.334 102.01 269.457 102.044 269.545 102.113C269.643 102.172 269.731 102.275 269.809 102.421L273.834 110.001H273.394L277.404 102.421C277.482 102.275 277.565 102.172 277.653 102.113C277.741 102.044 277.869 102.01 278.035 102.01C278.202 102.01 278.334 102.059 278.432 102.157C278.53 102.255 278.579 102.402 278.579 102.598V111.984C278.579 112.17 278.53 112.317 278.432 112.425C278.344 112.523 278.207 112.572 278.021 112.572C277.844 112.572 277.707 112.523 277.609 112.425C277.511 112.317 277.462 112.17 277.462 111.984V103.729H277.815L274.143 110.618C274.074 110.745 274.001 110.838 273.922 110.897C273.854 110.946 273.751 110.97 273.614 110.97C273.477 110.97 273.369 110.941 273.291 110.882C273.212 110.824 273.144 110.735 273.085 110.618L269.369 103.714H269.721V111.984C269.721 112.17 269.672 112.317 269.574 112.425C269.486 112.523 269.354 112.572 269.178 112.572ZM284.256 112.572C284.06 112.572 283.908 112.518 283.8 112.41C283.702 112.292 283.653 112.131 283.653 111.925V107.107L283.918 107.945L280.231 102.862C280.143 102.735 280.099 102.607 280.099 102.48C280.108 102.343 280.162 102.23 280.26 102.142C280.358 102.054 280.485 102.01 280.642 102.01C280.779 102.01 280.902 102.044 281.009 102.113C281.117 102.172 281.215 102.27 281.303 102.407L284.432 106.725H284.123L287.252 102.407C287.36 102.26 287.463 102.157 287.561 102.098C287.659 102.04 287.776 102.01 287.913 102.01C288.07 102.01 288.192 102.054 288.28 102.142C288.369 102.221 288.413 102.328 288.413 102.465C288.422 102.593 288.378 102.73 288.28 102.877L284.608 107.945L284.858 107.107V111.925C284.858 112.356 284.657 112.572 284.256 112.572Z" fill="#3775E4"/>
</g>
</g>
<defs>
<filter id="filter0_dd_154_42599" x="0" y="0" width="371.82" height="207.97" filterUnits="userSpaceOnUse" color-interpolation-filters="sRGB">
<feFlood flood-opacity="0" result="BackgroundImageFix"/>
<feColorMatrix in="SourceAlpha" type="matrix" values="0 0 0 0 0 0 0 0 0 0 0 0 0 0 0 0 0 0 127 0" result="hardAlpha"/>
<feMorphology radius="6" operator="erode" in="SourceAlpha" result="effect1_dropShadow_154_42599"/>
<feOffset dy="8"/>
<feGaussianBlur stdDeviation="5"/>
<feComposite in2="hardAlpha" operator="out"/>
<feColorMatrix type="matrix" values="0 0 0 0 0 0 0 0 0 0 0 0 0 0 0 0 0 0 0.1 0"/>
<feBlend mode="normal" in2="BackgroundImageFix" result="effect1_dropShadow_154_42599"/>
<feColorMatrix in="SourceAlpha" type="matrix" values="0 0 0 0 0 0 0 0 0 0 0 0 0 0 0 0 0 0 127 0" result="hardAlpha"/>
<feMorphology radius="5" operator="erode" in="SourceAlpha" result="effect2_dropShadow_154_42599"/>
<feOffset dy="20"/>
<feGaussianBlur stdDeviation="12.5"/>
<feComposite in2="hardAlpha" operator="out"/>
<feColorMatrix type="matrix" values="0 0 0 0 0 0 0 0 0 0 0 0 0 0 0 0 0 0 0.1 0"/>
<feBlend mode="normal" in2="effect1_dropShadow_154_42599" result="effect2_dropShadow_154_42599"/>
<feBlend mode="normal" in="SourceGraphic" in2="effect2_dropShadow_154_42599" result="shape"/>
</filter>
<filter id="filter1_f_154_42599" x="16.99" y="-3.00977" width="90" height="90" filterUnits="userSpaceOnUse" color-interpolation-filters="sRGB">
<feFlood flood-opacity="0" result="BackgroundImageFix"/>
<feBlend mode="normal" in="SourceGraphic" in2="BackgroundImageFix" result="shape"/>
<feGaussianBlur stdDeviation="12" result="effect1_foregroundBlur_154_42599"/>
</filter>
<filter id="filter2_f_154_42599" x="234.84" y="50.9902" width="135.99" height="135.99" filterUnits="userSpaceOnUse" color-interpolation-filters="sRGB">
<feFlood flood-opacity="0" result="BackgroundImageFix"/>
<feBlend mode="normal" in="SourceGraphic" in2="BackgroundImageFix" result="shape"/>
<feGaussianBlur stdDeviation="20" result="effect1_foregroundBlur_154_42599"/>
</filter>
<filter id="filter3_dd_154_42599" x="72.9097" y="56.4688" width="96" height="96" filterUnits="userSpaceOnUse" color-interpolation-filters="sRGB">
<feFlood flood-opacity="0" result="BackgroundImageFix"/>
<feColorMatrix in="SourceAlpha" type="matrix" values="0 0 0 0 0 0 0 0 0 0 0 0 0 0 0 0 0 0 127 0" result="hardAlpha"/>
<feMorphology radius="6" operator="erode" in="SourceAlpha" result="effect1_dropShadow_154_42599"/>
<feOffset dy="8"/>
<feGaussianBlur stdDeviation="5"/>
<feComposite in2="hardAlpha" operator="out"/>
<feColorMatrix type="matrix" values="0 0 0 0 0 0 0 0 0 0 0 0 0 0 0 0 0 0 0.1 0"/>
<feBlend mode="normal" in2="BackgroundImageFix" result="effect1_dropShadow_154_42599"/>
<feColorMatrix in="SourceAlpha" type="matrix" values="0 0 0 0 0 0 0 0 0 0 0 0 0 0 0 0 0 0 127 0" result="hardAlpha"/>
<feMorphology radius="5" operator="erode" in="SourceAlpha" result="effect2_dropShadow_154_42599"/>
<feOffset dy="20"/>
<feGaussianBlur stdDeviation="12.5"/>
<feComposite in2="hardAlpha" operator="out"/>
<feColorMatrix type="matrix" values="0 0 0 0 0 0 0 0 0 0 0 0 0 0 0 0 0 0 0.1 0"/>
<feBlend mode="normal" in2="effect1_dropShadow_154_42599" result="effect2_dropShadow_154_42599"/>
<feBlend mode="normal" in="SourceGraphic" in2="effect2_dropShadow_154_42599" result="shape"/>
</filter>
<linearGradient id="paint0_linear_154_42599" x1="116.575" y1="-48.8872" x2="251.943" y2="218.528" gradientUnits="userSpaceOnUse">
<stop stop-color="#F9FAFB"/>
<stop offset="1" stop-color="#EFF6FF" stop-opacity="0.3"/>
</linearGradient>
<clipPath id="clip0_154_42599">
<rect x="20" width="331.82" height="167.97" rx="14" fill="white"/>
</clipPath>
</defs>
</svg>
