<svg width="124" height="43" viewBox="0 0 124 43" fill="none" xmlns="http://www.w3.org/2000/svg">
<path d="M75.0356 38.7658C74.9286 38.7658 74.8417 38.7424 74.7748 38.6956C74.7146 38.6421 74.6778 38.5752 74.6645 38.4949C74.6578 38.408 74.6778 38.311 74.7246 38.204L77.4832 31.9246C77.5434 31.7909 77.6136 31.6973 77.6938 31.6438C77.7808 31.5836 77.8744 31.5535 77.9747 31.5535C78.075 31.5535 78.1653 31.5836 78.2455 31.6438C78.3325 31.6973 78.4027 31.7909 78.4562 31.9246L81.2247 38.204C81.2782 38.311 81.2983 38.408 81.2849 38.4949C81.2782 38.5819 81.2448 38.6487 81.1846 38.6956C81.1244 38.7424 81.0408 38.7658 80.9338 38.7658C80.8135 38.7658 80.7165 38.7357 80.6429 38.6755C80.5694 38.6086 80.5092 38.515 80.4624 38.3946L79.7201 36.6793L80.1213 36.89H75.808L76.2193 36.6793L75.487 38.3946C75.4268 38.5217 75.3633 38.6153 75.2964 38.6755C75.2295 38.7357 75.1426 38.7658 75.0356 38.7658ZM77.9647 32.5867L76.3497 36.3884L76.1089 36.1978H79.8204L79.5997 36.3884L77.9847 32.5867H77.9647ZM85.4357 38.7858C84.7402 38.7858 84.1451 38.6387 83.6502 38.3445C83.1553 38.0502 82.7742 37.6323 82.5067 37.0906C82.2459 36.5489 82.1155 35.9036 82.1155 35.1546C82.1155 34.5929 82.189 34.0913 82.3361 33.65C82.4899 33.2019 82.7073 32.8241 82.9882 32.5165C83.2757 32.2021 83.6268 31.9614 84.0414 31.7942C84.456 31.6204 84.9208 31.5334 85.4357 31.5334C85.8503 31.5334 86.2449 31.5936 86.6194 31.714C86.9939 31.8277 87.3182 31.9982 87.5924 32.2256C87.6793 32.2924 87.7362 32.3693 87.7629 32.4563C87.7964 32.5365 87.7997 32.6168 87.7729 32.697C87.7529 32.7706 87.7128 32.8341 87.6526 32.8876C87.5991 32.9344 87.5322 32.9578 87.452 32.9578C87.3717 32.9578 87.2814 32.9244 87.1811 32.8575C86.9404 32.6636 86.6762 32.5198 86.3887 32.4262C86.1011 32.3326 85.7902 32.2857 85.4558 32.2857C84.9275 32.2857 84.4794 32.3994 84.1116 32.6268C83.7438 32.8475 83.4663 33.1718 83.2791 33.5998C83.0918 34.0278 82.9982 34.5461 82.9982 35.1546C82.9982 35.7632 83.0918 36.2848 83.2791 36.7194C83.4663 37.1474 83.7438 37.4751 84.1116 37.7025C84.4794 37.9232 84.9275 38.0335 85.4558 38.0335C85.7835 38.0335 86.0944 37.9867 86.3887 37.8931C86.6829 37.7928 86.9537 37.6456 87.2012 37.4517C87.3015 37.3848 87.3918 37.3547 87.472 37.3614C87.5523 37.3614 87.6191 37.3848 87.6726 37.4316C87.7261 37.4785 87.7629 37.5386 87.783 37.6122C87.8097 37.6858 87.8097 37.7627 87.783 37.8429C87.7629 37.9232 87.7128 37.9934 87.6325 38.0536C87.3516 38.2943 87.0206 38.4782 86.6394 38.6053C86.265 38.7256 85.8637 38.7858 85.4357 38.7858ZM88.7989 38.7658C88.6919 38.7658 88.6049 38.7424 88.538 38.6956C88.4779 38.6421 88.4411 38.5752 88.4277 38.4949C88.421 38.408 88.4411 38.311 88.4879 38.204L91.2464 31.9246C91.3066 31.7909 91.3768 31.6973 91.4571 31.6438C91.544 31.5836 91.6376 31.5535 91.7379 31.5535C91.8382 31.5535 91.9285 31.5836 92.0088 31.6438C92.0957 31.6973 92.1659 31.7909 92.2194 31.9246L94.988 38.204C95.0415 38.311 95.0615 38.408 95.0482 38.4949C95.0415 38.5819 95.008 38.6487 94.9479 38.6956C94.8877 38.7424 94.8041 38.7658 94.6971 38.7658C94.5767 38.7658 94.4797 38.7357 94.4062 38.6755C94.3326 38.6086 94.2724 38.515 94.2256 38.3946L93.4833 36.6793L93.8846 36.89H89.5712L89.9825 36.6793L89.2502 38.3946C89.1901 38.5217 89.1265 38.6153 89.0597 38.6755C88.9928 38.7357 88.9058 38.7658 88.7989 38.7658ZM91.7279 32.5867L90.1129 36.3884L89.8722 36.1978H93.5836L93.363 36.3884L91.748 32.5867H91.7279ZM96.7085 38.6956C96.5613 38.6956 96.4477 38.6588 96.3674 38.5852C96.2938 38.505 96.2571 38.3913 96.2571 38.2442V32.0751C96.2571 31.928 96.2938 31.8176 96.3674 31.7441C96.4477 31.6638 96.5613 31.6237 96.7085 31.6237H98.6444C99.788 31.6237 100.671 31.9246 101.293 32.5265C101.915 33.1283 102.226 34.0044 102.226 35.1546C102.226 35.7297 102.145 36.238 101.985 36.6793C101.831 37.114 101.6 37.4818 101.293 37.7827C100.985 38.0837 100.611 38.311 100.169 38.4648C99.7278 38.6187 99.2196 38.6956 98.6444 38.6956H96.7085ZM97.0796 37.9934H98.5843C99.0524 37.9934 99.457 37.9332 99.798 37.8128C100.146 37.6925 100.433 37.5152 100.661 37.2812C100.895 37.0471 101.069 36.7529 101.182 36.3985C101.296 36.0373 101.353 35.6227 101.353 35.1546C101.353 34.2117 101.122 33.5062 100.661 33.0381C100.199 32.5633 99.5071 32.3259 98.5843 32.3259H97.0796V37.9934ZM104.153 38.6956C104.006 38.6956 103.893 38.6588 103.812 38.5852C103.739 38.505 103.702 38.3913 103.702 38.2442V32.0751C103.702 31.928 103.739 31.8176 103.812 31.7441C103.893 31.6638 104.006 31.6237 104.153 31.6237H107.885C107.999 31.6237 108.086 31.6538 108.146 31.714C108.206 31.7742 108.236 31.8578 108.236 31.9647C108.236 32.0784 108.206 32.1654 108.146 32.2256C108.086 32.2857 107.999 32.3158 107.885 32.3158H104.504V34.7634H107.674C107.788 34.7634 107.875 34.7935 107.935 34.8537C107.995 34.9072 108.025 34.9908 108.025 35.1045C108.025 35.2181 107.995 35.3051 107.935 35.3653C107.875 35.4254 107.788 35.4555 107.674 35.4555H104.504V38.0034H107.885C107.999 38.0034 108.086 38.0335 108.146 38.0937C108.206 38.1539 108.236 38.2375 108.236 38.3445C108.236 38.4582 108.206 38.5451 108.146 38.6053C108.086 38.6655 107.999 38.6956 107.885 38.6956H104.153ZM109.951 38.7658C109.831 38.7658 109.737 38.7323 109.67 38.6655C109.604 38.5919 109.57 38.4916 109.57 38.3645V31.9547C109.57 31.821 109.604 31.7207 109.67 31.6538C109.737 31.5869 109.831 31.5535 109.951 31.5535C110.058 31.5535 110.142 31.5769 110.202 31.6237C110.269 31.6638 110.329 31.734 110.383 31.8343L113.131 37.0103H112.83L115.569 31.8343C115.622 31.734 115.679 31.6638 115.739 31.6237C115.799 31.5769 115.886 31.5535 116 31.5535C116.114 31.5535 116.204 31.5869 116.271 31.6538C116.338 31.7207 116.371 31.821 116.371 31.9547V38.3645C116.371 38.4916 116.338 38.5919 116.271 38.6655C116.211 38.7323 116.117 38.7658 115.99 38.7658C115.87 38.7658 115.776 38.7323 115.709 38.6655C115.642 38.5919 115.609 38.4916 115.609 38.3645V32.7271H115.85L113.342 37.4316C113.295 37.5186 113.245 37.5821 113.191 37.6222C113.145 37.6557 113.074 37.6724 112.981 37.6724C112.887 37.6724 112.814 37.6523 112.76 37.6122C112.707 37.5721 112.66 37.5119 112.62 37.4316L110.082 32.7171H110.322V38.3645C110.322 38.4916 110.289 38.5919 110.222 38.6655C110.162 38.7323 110.072 38.7658 109.951 38.7658ZM120.248 38.7658C120.114 38.7658 120.01 38.729 119.937 38.6554C119.87 38.5752 119.837 38.4648 119.837 38.3244V35.0342L120.017 35.606L117.499 32.1353C117.439 32.0483 117.409 31.9614 117.409 31.8745C117.416 31.7808 117.453 31.7039 117.519 31.6438C117.586 31.5836 117.673 31.5535 117.78 31.5535C117.874 31.5535 117.957 31.5769 118.031 31.6237C118.105 31.6638 118.171 31.7307 118.232 31.8243L120.368 34.7734H120.158L122.294 31.8243C122.368 31.724 122.438 31.6538 122.505 31.6137C122.572 31.5735 122.652 31.5535 122.746 31.5535C122.853 31.5535 122.936 31.5836 122.996 31.6438C123.057 31.6973 123.087 31.7708 123.087 31.8644C123.093 31.9514 123.063 32.045 122.996 32.1453L120.489 35.606L120.659 35.0342V38.3244C120.659 38.6187 120.522 38.7658 120.248 38.7658Z" fill="white"/>
<path d="M8.56487 25.5766C3.78657 25.5766 0 21.53 0 16.9054C0 12.0678 3.99694 8.20382 8.56487 8.20382C10.9786 7.96254 12.9777 8.74672 15.2012 11.2803C15.6838 11.8301 15.6234 12.2438 15.6234 12.4264C15.5631 12.9089 15.3218 13.3312 14.9623 13.7347L10.3754 18.5189C9.98473 18.8232 9.50389 18.9449 9.05311 18.9449C7.76086 18.9449 6.70904 17.88 6.70904 16.6021C6.70904 15.8415 7.03961 15.1113 7.70076 14.6549L9.89283 12.728C9.26173 12.3325 9.07597 12.4264 8.38477 12.4264C6.22102 12.4264 4.34319 14.8365 4.34319 16.9054C4.34319 19.0656 6.04049 21.1128 8.14414 21.1128C9.22602 21.1128 10.785 20.7749 11.5363 19.923C11.9871 19.3754 12.6182 19.132 13.2794 19.132C14.5415 19.132 15.6234 20.1968 15.6234 21.4747C15.6234 22.0223 15.4131 22.6004 15.0224 23.0568C13.2794 24.8527 10.9089 25.5766 8.56487 25.5766Z" fill="white"/>
<path d="M25.406 12.1843C22.9328 12.305 20.8767 14.0128 20.9347 16.606C20.995 19.3023 22.6841 21.0517 25.406 21.2326C28.2411 21.0517 29.983 19.1214 29.983 16.606C29.8624 13.9337 27.7511 12.1843 25.406 12.1843ZM25.2779 25.5758C20.3315 25.4552 16.5312 21.5946 16.5915 16.3829C16.7725 11.3398 20.8215 8.0221 25.25 7.85344C27.3892 7.84114 27.9395 8.26339 30.2618 8.97314V2.91064C30.2618 1.70523 31.1794 0.783447 32.3441 0.783447C33.4735 0.783447 34.4617 1.70523 34.4617 2.91064V16.3829C34.4617 21.5236 30.4053 25.6362 25.2779 25.5758Z" fill="white"/>
<path d="M43.9919 25.5766C39.2136 25.5766 35.427 21.53 35.427 16.9054C35.427 12.0678 39.4239 8.20382 43.9919 8.20382C46.4056 7.96254 48.4048 8.74672 50.6282 11.2803C51.1108 11.8301 51.0504 12.2438 51.0504 12.4264C50.9901 12.9089 50.7488 13.3312 50.3893 13.7347L45.8024 18.5189C45.4117 18.8232 44.9309 18.9449 44.4801 18.9449C43.1879 18.9449 42.136 17.88 42.136 16.6021C42.136 15.8415 42.4666 15.1113 43.1278 14.6549L45.3198 12.728C44.6887 12.3325 44.503 12.4264 43.8118 12.4264C41.648 12.4264 39.7702 14.8365 39.7702 16.9054C39.7702 19.0656 41.4675 21.1128 43.5711 21.1128C44.653 21.1128 46.212 20.7749 46.9633 19.923C47.4141 19.3754 48.0452 19.132 48.7064 19.132C49.9686 19.132 51.0504 20.1968 51.0504 21.4747C51.0504 22.0223 50.8401 22.6004 50.4494 23.0568C48.7064 24.8527 46.3359 25.5766 43.9919 25.5766Z" fill="white"/>
<path d="M52.0178 15.9988C52.0178 11.4153 55.7019 7.72107 60.2387 7.72107C64.7414 7.72107 68.4254 11.4153 68.4254 15.9988V23.1478C68.4254 24.4818 67.2998 25.5764 65.9694 25.5764C64.605 25.5764 63.5475 24.4818 63.5475 23.1478V15.9988C63.5475 14.0833 62.0125 12.6125 60.2387 12.6125C58.3967 12.6125 56.8958 14.0833 56.8958 15.9988V23.1478C56.8958 24.4818 55.8042 25.5764 54.4397 25.5764C53.1435 25.5764 52.0178 24.4818 52.0178 23.1478V15.9988Z" fill="white"/>
<path d="M69.9938 10.999C69.9938 9.87646 71.3124 8.92664 72.4067 8.92664C73.5875 8.92664 75.0006 9.87646 75.0006 10.999V23.533C75.0006 24.6555 73.5875 25.5766 72.4067 25.5766C71.3124 25.5766 69.9938 24.6555 69.9938 23.533V10.999Z" fill="white"/>
<path d="M75.6641 3.19707C75.6641 4.96277 74.2598 6.39414 72.5274 6.39414C70.795 6.39414 69.3906 4.96277 69.3906 3.19707C69.3906 1.43138 70.795 0 72.5274 0C74.2598 0 75.6641 1.43138 75.6641 3.19707Z" fill="white"/>
<path d="M84.9072 7.84192C80.3236 7.84192 76.6294 12.1292 76.6294 16.666C76.6294 21.1687 80.3236 25.5766 84.9072 25.5766H89.402C90.736 25.5766 91.8306 24.4509 91.8306 23.1206C91.8306 21.7561 90.736 20.6987 89.402 20.6987H84.9072C82.9916 20.6987 81.5208 18.4398 81.5208 16.666C81.5208 14.824 82.9916 12.7199 84.9072 12.7199H89.402C90.736 12.7199 91.8306 11.6283 91.8306 10.2638C91.8306 8.9676 90.736 7.84192 89.402 7.84192H84.9072Z" fill="white"/>
<path d="M101.663 7.84192C106.56 7.84192 110.53 11.812 110.53 16.7093C110.53 21.6066 106.56 25.5766 101.663 25.5766C96.7657 25.5766 92.7957 21.6066 92.7957 16.7093C92.7957 11.812 96.7657 7.84192 101.663 7.84192ZM101.663 12.1851C99.1644 12.1851 97.1388 14.2106 97.1388 16.7093C97.1388 19.2079 99.1644 21.2334 101.663 21.2334C104.162 21.2334 106.187 19.2079 106.187 16.7093C106.187 14.2106 104.162 12.1851 101.663 12.1851Z" fill="white"/>
<path d="M116.153 8.32458H120.574C121.812 8.32458 123.191 9.5865 123.191 10.8623C123.191 12.0424 122.174 12.8536 120.936 12.8536H116.825C116.394 12.8536 116.093 13.452 116.603 13.8423L119.303 15.2914C123.391 17.9158 123.56 19.6762 123.115 21.7813C122.638 23.7906 120.701 25.5767 117.684 25.5767H113.782C112.512 25.5767 111.496 24.5561 111.496 23.3122C111.496 22.0364 112.512 21.0158 113.782 21.0158H117.855C118.747 20.9319 118.505 20.3287 118.014 19.9952L114.826 18.0968C112.319 16.4376 111.298 14.8602 111.711 12.7551C112.188 10.7139 113.559 8.56587 116.153 8.32458Z" fill="white"/>
<path d="M38.9418 5.06774L42.75 2.60879C43.1882 2.33932 43.5589 2.1709 43.9296 2.1709C44.3003 2.1709 44.671 2.33932 45.1092 2.60879L48.9175 5.06774C49.9959 5.70773 49.4567 7.0551 48.3782 7.0551C48.2434 7.0551 48.0412 7.02141 47.8727 6.95405L43.9296 5.573L40.0202 6.95405C39.8517 7.02141 39.6832 7.0551 39.5147 7.0551C38.4362 7.0551 37.8633 5.70773 38.9418 5.06774Z" fill="white"/>
</svg>
