<svg width="299" height="125" viewBox="0 0 299 125" fill="none" xmlns="http://www.w3.org/2000/svg">
<g filter="url(#filter0_dd_150_35361)">
<g clip-path="url(#clip0_150_35361)">
<rect x="15.418" y="-2.89764" width="274.997" height="119.564" fill="#029139"/>
<path d="M121.74 36.16C121.367 36.16 121.08 36.0533 120.88 35.84C120.68 35.6267 120.58 35.3333 120.58 34.96V22.94C120.58 22.5533 120.687 22.26 120.9 22.06C121.113 21.8467 121.407 21.74 121.78 21.74C122.113 21.74 122.373 21.8067 122.56 21.94C122.76 22.06 122.94 22.2733 123.1 22.58L128.04 31.72H127.4L132.34 22.58C132.5 22.2733 132.673 22.06 132.86 21.94C133.047 21.8067 133.307 21.74 133.64 21.74C134.013 21.74 134.3 21.8467 134.5 22.06C134.7 22.26 134.8 22.5533 134.8 22.94V34.96C134.8 35.3333 134.7 35.6267 134.5 35.84C134.313 36.0533 134.027 36.16 133.64 36.16C133.267 36.16 132.98 36.0533 132.78 35.84C132.58 35.6267 132.48 35.3333 132.48 34.96V25.7H132.92L128.72 33.36C128.587 33.5867 128.447 33.7533 128.3 33.86C128.153 33.9667 127.953 34.02 127.7 34.02C127.447 34.02 127.24 33.9667 127.08 33.86C126.92 33.74 126.78 33.5733 126.66 33.36L122.42 25.68H122.9V34.96C122.9 35.3333 122.8 35.6267 122.6 35.84C122.413 36.0533 122.127 36.16 121.74 36.16ZM139.263 36C138.823 36 138.483 35.8867 138.243 35.66C138.017 35.42 137.903 35.08 137.903 34.64V23.26C137.903 22.82 138.017 22.4867 138.243 22.26C138.483 22.02 138.823 21.9 139.263 21.9H146.403C146.737 21.9 146.99 21.9867 147.163 22.16C147.35 22.3333 147.443 22.58 147.443 22.9C147.443 23.2333 147.35 23.4933 147.163 23.68C146.99 23.8533 146.737 23.94 146.403 23.94H140.363V27.82H145.963C146.31 27.82 146.57 27.9067 146.743 28.08C146.917 28.2533 147.003 28.5067 147.003 28.84C147.003 29.1733 146.917 29.4267 146.743 29.6C146.57 29.7733 146.31 29.86 145.963 29.86H140.363V33.96H146.403C146.737 33.96 146.99 34.0467 147.163 34.22C147.35 34.3933 147.443 34.6467 147.443 34.98C147.443 35.3133 147.35 35.5667 147.163 35.74C146.99 35.9133 146.737 36 146.403 36H139.263ZM151.037 36.16C150.65 36.16 150.35 36.0533 150.137 35.84C149.937 35.6267 149.837 35.32 149.837 34.92V23.02C149.837 22.6067 149.937 22.2933 150.137 22.08C150.35 21.8533 150.624 21.74 150.957 21.74C151.264 21.74 151.49 21.8 151.637 21.92C151.797 22.0267 151.984 22.2133 152.197 22.48L159.857 32.42H159.337V22.96C159.337 22.5733 159.437 22.2733 159.637 22.06C159.85 21.8467 160.15 21.74 160.537 21.74C160.924 21.74 161.217 21.8467 161.417 22.06C161.617 22.2733 161.717 22.5733 161.717 22.96V34.96C161.717 35.3333 161.624 35.6267 161.437 35.84C161.25 36.0533 160.997 36.16 160.677 36.16C160.37 36.16 160.124 36.1 159.937 35.98C159.764 35.86 159.57 35.6667 159.357 35.4L151.717 25.46H152.217V34.92C152.217 35.32 152.117 35.6267 151.917 35.84C151.717 36.0533 151.424 36.16 151.037 36.16ZM169.478 36.16C169.064 36.16 168.744 36.0467 168.518 35.82C168.304 35.58 168.198 35.2533 168.198 34.84V24.04H164.298C163.951 24.04 163.678 23.9467 163.478 23.76C163.291 23.56 163.198 23.2933 163.198 22.96C163.198 22.6133 163.291 22.3533 163.478 22.18C163.678 21.9933 163.951 21.9 164.298 21.9H174.658C175.004 21.9 175.271 21.9933 175.458 22.18C175.658 22.3533 175.758 22.6133 175.758 22.96C175.758 23.2933 175.658 23.56 175.458 23.76C175.271 23.9467 175.004 24.04 174.658 24.04H170.758V34.84C170.758 35.2533 170.651 35.58 170.438 35.82C170.224 36.0467 169.904 36.16 169.478 36.16ZM175.797 36.16C175.477 36.16 175.217 36.0867 175.017 35.94C174.831 35.7933 174.717 35.6 174.677 35.36C174.637 35.1067 174.684 34.8267 174.817 34.52L180.097 22.82C180.271 22.4333 180.477 22.16 180.717 22C180.971 21.8267 181.257 21.74 181.577 21.74C181.884 21.74 182.157 21.8267 182.397 22C182.651 22.16 182.864 22.4333 183.037 22.82L188.337 34.52C188.484 34.8267 188.537 35.1067 188.497 35.36C188.457 35.6133 188.344 35.8133 188.157 35.96C187.971 36.0933 187.724 36.16 187.417 36.16C187.044 36.16 186.751 36.0733 186.537 35.9C186.337 35.7133 186.157 35.4333 185.997 35.06L184.697 32.04L185.777 32.74H177.337L178.417 32.04L177.137 35.06C176.964 35.4467 176.784 35.7267 176.597 35.9C176.411 36.0733 176.144 36.16 175.797 36.16ZM181.537 24.68L178.737 31.34L178.217 30.7H184.897L184.397 31.34L181.577 24.68H181.537ZM191.84 36C191.427 36 191.107 35.8867 190.88 35.66C190.653 35.42 190.54 35.0933 190.54 34.68V23.14C190.54 22.7133 190.647 22.3933 190.86 22.18C191.087 21.9533 191.407 21.84 191.82 21.84C192.233 21.84 192.547 21.9533 192.76 22.18C192.987 22.3933 193.1 22.7133 193.1 23.14V33.82H198.9C199.26 33.82 199.533 33.9133 199.72 34.1C199.92 34.2867 200.02 34.5533 200.02 34.9C200.02 35.2467 199.92 35.52 199.72 35.72C199.533 35.9067 199.26 36 198.9 36H191.84Z" fill="white"/>
<path d="M120.848 57C120.643 57 120.484 56.9487 120.372 56.846C120.269 56.734 120.218 56.5753 120.218 56.37V47.76C120.218 47.5547 120.269 47.4007 120.372 47.298C120.484 47.186 120.643 47.13 120.848 47.13H126.056C126.215 47.13 126.336 47.172 126.42 47.256C126.504 47.34 126.546 47.4567 126.546 47.606C126.546 47.7647 126.504 47.886 126.42 47.97C126.336 48.054 126.215 48.096 126.056 48.096H121.338V51.512H125.762C125.921 51.512 126.042 51.554 126.126 51.638C126.21 51.7127 126.252 51.8293 126.252 51.988C126.252 52.1467 126.21 52.268 126.126 52.352C126.042 52.436 125.921 52.478 125.762 52.478H121.338V56.034H126.056C126.215 56.034 126.336 56.076 126.42 56.16C126.504 56.244 126.546 56.3607 126.546 56.51C126.546 56.6687 126.504 56.79 126.42 56.874C126.336 56.958 126.215 57 126.056 57H120.848ZM130.413 57.126C129.993 57.126 129.568 57.0747 129.139 56.972C128.719 56.8693 128.327 56.692 127.963 56.44C127.869 56.3747 127.804 56.3 127.767 56.216C127.729 56.1227 127.715 56.034 127.725 55.95C127.743 55.8567 127.781 55.7773 127.837 55.712C127.902 55.6467 127.977 55.6093 128.061 55.6C128.154 55.5813 128.257 55.6 128.369 55.656C128.733 55.88 129.083 56.0387 129.419 56.132C129.764 56.216 130.105 56.258 130.441 56.258C130.973 56.258 131.374 56.16 131.645 55.964C131.915 55.768 132.051 55.502 132.051 55.166C132.051 54.9047 131.962 54.6993 131.785 54.55C131.607 54.3913 131.327 54.27 130.945 54.186L129.671 53.906C129.083 53.7847 128.644 53.5747 128.355 53.276C128.075 52.9773 127.935 52.59 127.935 52.114C127.935 51.694 128.042 51.3347 128.257 51.036C128.481 50.728 128.793 50.49 129.195 50.322C129.596 50.154 130.063 50.07 130.595 50.07C131.005 50.07 131.393 50.126 131.757 50.238C132.13 50.3407 132.466 50.5087 132.765 50.742C132.858 50.8073 132.919 50.8867 132.947 50.98C132.984 51.064 132.989 51.1527 132.961 51.246C132.942 51.33 132.9 51.4047 132.835 51.47C132.769 51.526 132.69 51.5587 132.597 51.568C132.503 51.5773 132.405 51.5493 132.303 51.484C132.023 51.2973 131.738 51.162 131.449 51.078C131.159 50.9847 130.875 50.938 130.595 50.938C130.072 50.938 129.675 51.0407 129.405 51.246C129.134 51.4513 128.999 51.722 128.999 52.058C128.999 52.3193 129.083 52.534 129.251 52.702C129.419 52.87 129.68 52.9913 130.035 53.066L131.309 53.332C131.915 53.4627 132.368 53.6727 132.667 53.962C132.975 54.242 133.129 54.6247 133.129 55.11C133.129 55.726 132.881 56.216 132.387 56.58C131.892 56.944 131.234 57.126 130.413 57.126ZM137.519 57.126C136.987 57.126 136.539 57.0327 136.175 56.846C135.82 56.65 135.554 56.37 135.377 56.006C135.199 55.6327 135.111 55.18 135.111 54.648V51.078H134.173C134.014 51.078 133.893 51.0407 133.809 50.966C133.725 50.882 133.683 50.77 133.683 50.63C133.683 50.49 133.725 50.3827 133.809 50.308C133.893 50.2333 134.014 50.196 134.173 50.196H135.111V48.586C135.111 48.3993 135.162 48.2593 135.265 48.166C135.367 48.0633 135.507 48.012 135.685 48.012C135.862 48.012 135.997 48.0633 136.091 48.166C136.193 48.2593 136.245 48.3993 136.245 48.586V50.196H138.009C138.167 50.196 138.289 50.2333 138.373 50.308C138.457 50.3827 138.499 50.49 138.499 50.63C138.499 50.77 138.457 50.882 138.373 50.966C138.289 51.0407 138.167 51.078 138.009 51.078H136.245V54.536C136.245 55.068 136.357 55.474 136.581 55.754C136.805 56.0247 137.169 56.16 137.673 56.16C137.85 56.16 137.999 56.1413 138.121 56.104C138.251 56.0667 138.359 56.048 138.443 56.048C138.527 56.0387 138.597 56.0667 138.653 56.132C138.709 56.1973 138.737 56.3093 138.737 56.468C138.737 56.58 138.713 56.6827 138.667 56.776C138.629 56.8693 138.559 56.9347 138.457 56.972C138.345 57.0093 138.195 57.042 138.009 57.07C137.831 57.1073 137.668 57.126 137.519 57.126ZM140.325 57.07C140.139 57.07 139.999 57.0187 139.905 56.916C139.812 56.804 139.765 56.65 139.765 56.454V50.728C139.765 50.532 139.812 50.3827 139.905 50.28C139.999 50.1773 140.139 50.126 140.325 50.126C140.503 50.126 140.643 50.1773 140.745 50.28C140.848 50.3827 140.899 50.532 140.899 50.728V56.454C140.899 56.65 140.848 56.804 140.745 56.916C140.652 57.0187 140.512 57.07 140.325 57.07ZM140.325 48.558C140.092 48.558 139.91 48.4973 139.779 48.376C139.649 48.2453 139.583 48.0727 139.583 47.858C139.583 47.634 139.649 47.466 139.779 47.354C139.91 47.2327 140.092 47.172 140.325 47.172C140.568 47.172 140.75 47.2327 140.871 47.354C141.002 47.466 141.067 47.634 141.067 47.858C141.067 48.0727 141.002 48.2453 140.871 48.376C140.75 48.4973 140.568 48.558 140.325 48.558ZM143.607 57.098C143.42 57.098 143.28 57.0467 143.187 56.944C143.094 56.8413 143.047 56.6967 143.047 56.51V50.672C143.047 50.4853 143.094 50.3453 143.187 50.252C143.28 50.1493 143.416 50.098 143.593 50.098C143.77 50.098 143.906 50.1493 143.999 50.252C144.102 50.3453 144.153 50.4853 144.153 50.672V51.904L143.999 51.708C144.176 51.1853 144.461 50.784 144.853 50.504C145.254 50.2147 145.73 50.07 146.281 50.07C146.86 50.07 147.326 50.21 147.681 50.49C148.045 50.7607 148.288 51.1853 148.409 51.764H148.199C148.367 51.2413 148.666 50.8307 149.095 50.532C149.534 50.224 150.042 50.07 150.621 50.07C151.134 50.07 151.554 50.168 151.881 50.364C152.217 50.56 152.469 50.8587 152.637 51.26C152.805 51.652 152.889 52.1513 152.889 52.758V56.51C152.889 56.6967 152.838 56.8413 152.735 56.944C152.642 57.0467 152.502 57.098 152.315 57.098C152.138 57.098 151.998 57.0467 151.895 56.944C151.802 56.8413 151.755 56.6967 151.755 56.51V52.814C151.755 52.1887 151.648 51.7313 151.433 51.442C151.218 51.1433 150.854 50.994 150.341 50.994C149.781 50.994 149.338 51.19 149.011 51.582C148.694 51.9647 148.535 52.4873 148.535 53.15V56.51C148.535 56.6967 148.484 56.8413 148.381 56.944C148.288 57.0467 148.148 57.098 147.961 57.098C147.784 57.098 147.644 57.0467 147.541 56.944C147.448 56.8413 147.401 56.6967 147.401 56.51V52.814C147.401 52.1887 147.289 51.7313 147.065 51.442C146.85 51.1433 146.491 50.994 145.987 50.994C145.427 50.994 144.984 51.19 144.657 51.582C144.34 51.9647 144.181 52.4873 144.181 53.15V56.51C144.181 56.902 143.99 57.098 143.607 57.098ZM157.417 57.126C156.867 57.126 156.409 57.028 156.045 56.832C155.691 56.6267 155.42 56.3233 155.233 55.922C155.056 55.5207 154.967 55.0213 154.967 54.424V50.672C154.967 50.476 155.014 50.3313 155.107 50.238C155.21 50.1447 155.35 50.098 155.527 50.098C155.714 50.098 155.854 50.1447 155.947 50.238C156.05 50.3313 156.101 50.476 156.101 50.672V54.41C156.101 55.0073 156.223 55.4553 156.465 55.754C156.717 56.0433 157.109 56.188 157.641 56.188C158.22 56.188 158.691 55.992 159.055 55.6C159.419 55.208 159.601 54.6947 159.601 54.06V50.672C159.601 50.476 159.648 50.3313 159.741 50.238C159.844 50.1447 159.989 50.098 160.175 50.098C160.353 50.098 160.488 50.1447 160.581 50.238C160.684 50.3313 160.735 50.476 160.735 50.672V56.51C160.735 56.902 160.553 57.098 160.189 57.098C160.012 57.098 159.872 57.0467 159.769 56.944C159.676 56.8413 159.629 56.6967 159.629 56.51V55.236L159.811 55.432C159.625 55.9827 159.317 56.4027 158.887 56.692C158.467 56.9813 157.977 57.126 157.417 57.126ZM164.929 57.126C164.257 57.126 163.744 56.9207 163.389 56.51C163.034 56.0993 162.857 55.5113 162.857 54.746V47.606C162.857 47.4193 162.904 47.2793 162.997 47.186C163.09 47.0833 163.23 47.032 163.417 47.032C163.594 47.032 163.734 47.0833 163.837 47.186C163.94 47.2793 163.991 47.4193 163.991 47.606V54.662C163.991 55.166 164.089 55.544 164.285 55.796C164.49 56.0387 164.789 56.16 165.181 56.16C165.265 56.16 165.34 56.1553 165.405 56.146C165.47 56.1367 165.536 56.132 165.601 56.132C165.704 56.1227 165.774 56.146 165.811 56.202C165.858 56.258 165.881 56.37 165.881 56.538C165.881 56.706 165.844 56.832 165.769 56.916C165.694 57 165.573 57.056 165.405 57.084C165.33 57.0933 165.251 57.1027 165.167 57.112C165.083 57.1213 165.004 57.126 164.929 57.126ZM169.142 57.126C168.675 57.126 168.255 57.0373 167.882 56.86C167.518 56.6733 167.228 56.4213 167.014 56.104C166.799 55.7867 166.692 55.432 166.692 55.04C166.692 54.536 166.818 54.1393 167.07 53.85C167.331 53.5607 167.756 53.3553 168.344 53.234C168.941 53.1127 169.753 53.052 170.78 53.052H171.41V53.794H170.794C170.038 53.794 169.44 53.8313 169.002 53.906C168.572 53.9713 168.269 54.088 168.092 54.256C167.924 54.424 167.84 54.662 167.84 54.97C167.84 55.3527 167.97 55.6653 168.232 55.908C168.502 56.1507 168.866 56.272 169.324 56.272C169.697 56.272 170.024 56.1833 170.304 56.006C170.593 55.8287 170.817 55.586 170.976 55.278C171.144 54.97 171.228 54.6153 171.228 54.214V52.618C171.228 52.0393 171.111 51.624 170.878 51.372C170.644 51.1107 170.262 50.98 169.73 50.98C169.403 50.98 169.076 51.022 168.75 51.106C168.423 51.19 168.078 51.3253 167.714 51.512C167.583 51.5773 167.471 51.6007 167.378 51.582C167.284 51.554 167.21 51.5027 167.154 51.428C167.098 51.3533 167.065 51.2693 167.056 51.176C167.046 51.0733 167.065 50.9753 167.112 50.882C167.168 50.7887 167.252 50.714 167.364 50.658C167.774 50.4527 168.18 50.3033 168.582 50.21C168.983 50.1167 169.366 50.07 169.73 50.07C170.318 50.07 170.803 50.168 171.186 50.364C171.568 50.5507 171.853 50.84 172.04 51.232C172.226 51.6147 172.32 52.1093 172.32 52.716V56.51C172.32 56.6967 172.273 56.8413 172.18 56.944C172.096 57.0467 171.97 57.098 171.802 57.098C171.624 57.098 171.489 57.0467 171.396 56.944C171.302 56.8413 171.256 56.6967 171.256 56.51V55.418H171.382C171.307 55.7727 171.162 56.076 170.948 56.328C170.742 56.58 170.486 56.776 170.178 56.916C169.87 57.056 169.524 57.126 169.142 57.126ZM175.011 57.098C174.825 57.098 174.685 57.0467 174.591 56.944C174.498 56.8413 174.451 56.6967 174.451 56.51V50.672C174.451 50.4853 174.498 50.3453 174.591 50.252C174.685 50.1493 174.82 50.098 174.997 50.098C175.175 50.098 175.31 50.1493 175.403 50.252C175.506 50.3453 175.557 50.4853 175.557 50.672V51.904L175.403 51.708C175.581 51.1853 175.865 50.784 176.257 50.504C176.659 50.2147 177.135 50.07 177.685 50.07C178.264 50.07 178.731 50.21 179.085 50.49C179.449 50.7607 179.692 51.1853 179.813 51.764H179.603C179.771 51.2413 180.07 50.8307 180.499 50.532C180.938 50.224 181.447 50.07 182.025 50.07C182.539 50.07 182.959 50.168 183.285 50.364C183.621 50.56 183.873 50.8587 184.041 51.26C184.209 51.652 184.293 52.1513 184.293 52.758V56.51C184.293 56.6967 184.242 56.8413 184.139 56.944C184.046 57.0467 183.906 57.098 183.719 57.098C183.542 57.098 183.402 57.0467 183.299 56.944C183.206 56.8413 183.159 56.6967 183.159 56.51V52.814C183.159 52.1887 183.052 51.7313 182.837 51.442C182.623 51.1433 182.259 50.994 181.745 50.994C181.185 50.994 180.742 51.19 180.415 51.582C180.098 51.9647 179.939 52.4873 179.939 53.15V56.51C179.939 56.6967 179.888 56.8413 179.785 56.944C179.692 57.0467 179.552 57.098 179.365 57.098C179.188 57.098 179.048 57.0467 178.945 56.944C178.852 56.8413 178.805 56.6967 178.805 56.51V52.814C178.805 52.1887 178.693 51.7313 178.469 51.442C178.255 51.1433 177.895 50.994 177.391 50.994C176.831 50.994 176.388 51.19 176.061 51.582C175.744 51.9647 175.585 52.4873 175.585 53.15V56.51C175.585 56.902 175.394 57.098 175.011 57.098ZM189.242 57.126C188.579 57.126 188.005 56.9813 187.52 56.692C187.034 56.4027 186.656 55.9967 186.386 55.474C186.124 54.942 185.994 54.3167 185.994 53.598C185.994 53.0567 186.068 52.5713 186.218 52.142C186.367 51.7033 186.586 51.33 186.876 51.022C187.165 50.714 187.506 50.4807 187.898 50.322C188.299 50.154 188.747 50.07 189.242 50.07C189.904 50.07 190.478 50.2147 190.964 50.504C191.449 50.7933 191.822 51.204 192.084 51.736C192.354 52.2587 192.49 52.8793 192.49 53.598C192.49 54.1393 192.415 54.6247 192.266 55.054C192.116 55.4833 191.897 55.8567 191.608 56.174C191.318 56.482 190.973 56.72 190.572 56.888C190.18 57.0467 189.736 57.126 189.242 57.126ZM189.242 56.216C189.662 56.216 190.03 56.1133 190.348 55.908C190.665 55.7027 190.908 55.404 191.076 55.012C191.253 54.62 191.342 54.1487 191.342 53.598C191.342 52.7487 191.15 52.1 190.768 51.652C190.394 51.204 189.886 50.98 189.242 50.98C188.812 50.98 188.439 51.0827 188.122 51.288C187.814 51.484 187.571 51.778 187.394 52.17C187.226 52.5527 187.142 53.0287 187.142 53.598C187.142 54.438 187.333 55.0867 187.716 55.544C188.098 55.992 188.607 56.216 189.242 56.216ZM196.489 57.126C196.069 57.126 195.644 57.0747 195.215 56.972C194.795 56.8693 194.403 56.692 194.039 56.44C193.946 56.3747 193.88 56.3 193.843 56.216C193.806 56.1227 193.792 56.034 193.801 55.95C193.82 55.8567 193.857 55.7773 193.913 55.712C193.978 55.6467 194.053 55.6093 194.137 55.6C194.23 55.5813 194.333 55.6 194.445 55.656C194.809 55.88 195.159 56.0387 195.495 56.132C195.84 56.216 196.181 56.258 196.517 56.258C197.049 56.258 197.45 56.16 197.721 55.964C197.992 55.768 198.127 55.502 198.127 55.166C198.127 54.9047 198.038 54.6993 197.861 54.55C197.684 54.3913 197.404 54.27 197.021 54.186L195.747 53.906C195.159 53.7847 194.72 53.5747 194.431 53.276C194.151 52.9773 194.011 52.59 194.011 52.114C194.011 51.694 194.118 51.3347 194.333 51.036C194.557 50.728 194.87 50.49 195.271 50.322C195.672 50.154 196.139 50.07 196.671 50.07C197.082 50.07 197.469 50.126 197.833 50.238C198.206 50.3407 198.542 50.5087 198.841 50.742C198.934 50.8073 198.995 50.8867 199.023 50.98C199.06 51.064 199.065 51.1527 199.037 51.246C199.018 51.33 198.976 51.4047 198.911 51.47C198.846 51.526 198.766 51.5587 198.673 51.568C198.58 51.5773 198.482 51.5493 198.379 51.484C198.099 51.2973 197.814 51.162 197.525 51.078C197.236 50.9847 196.951 50.938 196.671 50.938C196.148 50.938 195.752 51.0407 195.481 51.246C195.21 51.4513 195.075 51.722 195.075 52.058C195.075 52.3193 195.159 52.534 195.327 52.702C195.495 52.87 195.756 52.9913 196.111 53.066L197.385 53.332C197.992 53.4627 198.444 53.6727 198.743 53.962C199.051 54.242 199.205 54.6247 199.205 55.11C199.205 55.726 198.958 56.216 198.463 56.58C197.968 56.944 197.31 57.126 196.489 57.126ZM207.371 57.126C206.708 57.126 206.134 56.9813 205.649 56.692C205.163 56.4027 204.785 55.9967 204.515 55.474C204.253 54.942 204.123 54.3167 204.123 53.598C204.123 53.0567 204.197 52.5713 204.347 52.142C204.496 51.7033 204.715 51.33 205.005 51.022C205.294 50.714 205.635 50.4807 206.027 50.322C206.428 50.154 206.876 50.07 207.371 50.07C208.033 50.07 208.607 50.2147 209.093 50.504C209.578 50.7933 209.951 51.204 210.213 51.736C210.483 52.2587 210.619 52.8793 210.619 53.598C210.619 54.1393 210.544 54.6247 210.395 55.054C210.245 55.4833 210.026 55.8567 209.737 56.174C209.447 56.482 209.102 56.72 208.701 56.888C208.309 57.0467 207.865 57.126 207.371 57.126ZM207.371 56.216C207.791 56.216 208.159 56.1133 208.477 55.908C208.794 55.7027 209.037 55.404 209.205 55.012C209.382 54.62 209.471 54.1487 209.471 53.598C209.471 52.7487 209.279 52.1 208.897 51.652C208.523 51.204 208.015 50.98 207.371 50.98C206.941 50.98 206.568 51.0827 206.251 51.288C205.943 51.484 205.7 51.778 205.523 52.17C205.355 52.5527 205.271 53.0287 205.271 53.598C205.271 54.438 205.462 55.0867 205.845 55.544C206.227 55.992 206.736 56.216 207.371 56.216ZM120.624 75.618C120.437 75.618 120.297 75.5667 120.204 75.464C120.111 75.3707 120.064 75.2307 120.064 75.044V66.672C120.064 66.4853 120.111 66.3453 120.204 66.252C120.297 66.1493 120.433 66.098 120.61 66.098C120.797 66.098 120.937 66.1493 121.03 66.252C121.133 66.3453 121.184 66.4853 121.184 66.672V68.002L121.03 67.806C121.179 67.274 121.473 66.854 121.912 66.546C122.36 66.2287 122.892 66.07 123.508 66.07C124.115 66.07 124.642 66.2147 125.09 66.504C125.547 66.784 125.897 67.19 126.14 67.722C126.392 68.2447 126.518 68.87 126.518 69.598C126.518 70.3167 126.392 70.942 126.14 71.474C125.897 71.9967 125.552 72.4027 125.104 72.692C124.656 72.9813 124.124 73.126 123.508 73.126C122.892 73.126 122.365 72.972 121.926 72.664C121.487 72.3467 121.189 71.9267 121.03 71.404H121.198V75.044C121.198 75.2307 121.147 75.3707 121.044 75.464C120.941 75.5667 120.801 75.618 120.624 75.618ZM123.27 72.216C123.699 72.216 124.068 72.1133 124.376 71.908C124.693 71.7027 124.936 71.404 125.104 71.012C125.281 70.62 125.37 70.1487 125.37 69.598C125.37 68.7487 125.179 68.1 124.796 67.652C124.423 67.204 123.914 66.98 123.27 66.98C122.85 66.98 122.481 67.0827 122.164 67.288C121.847 67.484 121.599 67.778 121.422 68.17C121.254 68.5527 121.17 69.0287 121.17 69.598C121.17 70.438 121.361 71.0867 121.744 71.544C122.127 71.992 122.635 72.216 123.27 72.216ZM131.292 73.126C130.573 73.126 129.953 72.986 129.43 72.706C128.917 72.4167 128.515 72.0107 128.226 71.488C127.946 70.9653 127.806 70.34 127.806 69.612C127.806 68.9027 127.946 68.2867 128.226 67.764C128.506 67.232 128.889 66.8167 129.374 66.518C129.869 66.2193 130.438 66.07 131.082 66.07C131.539 66.07 131.95 66.1493 132.314 66.308C132.678 66.4573 132.986 66.6767 133.238 66.966C133.499 67.2553 133.695 67.6053 133.826 68.016C133.966 68.4267 134.036 68.8887 134.036 69.402C134.036 69.5513 133.994 69.6633 133.91 69.738C133.826 69.8033 133.705 69.836 133.546 69.836H128.674V69.094H133.28L133.056 69.276C133.056 68.772 132.981 68.3473 132.832 68.002C132.683 67.6473 132.463 67.3767 132.174 67.19C131.894 67.0033 131.539 66.91 131.11 66.91C130.634 66.91 130.228 67.022 129.892 67.246C129.565 67.4607 129.318 67.764 129.15 68.156C128.982 68.5387 128.898 68.9867 128.898 69.5V69.584C128.898 70.4427 129.103 71.096 129.514 71.544C129.934 71.992 130.527 72.216 131.292 72.216C131.609 72.216 131.922 72.174 132.23 72.09C132.547 72.006 132.855 71.866 133.154 71.67C133.285 71.586 133.401 71.5487 133.504 71.558C133.616 71.558 133.705 71.5907 133.77 71.656C133.835 71.712 133.877 71.7867 133.896 71.88C133.924 71.964 133.915 72.0573 133.868 72.16C133.831 72.2627 133.751 72.3513 133.63 72.426C133.322 72.65 132.958 72.8227 132.538 72.944C132.118 73.0653 131.703 73.126 131.292 73.126ZM136.237 73.098C136.051 73.098 135.911 73.0467 135.817 72.944C135.724 72.8413 135.677 72.6967 135.677 72.51V66.672C135.677 66.4853 135.724 66.3453 135.817 66.252C135.911 66.1493 136.046 66.098 136.223 66.098C136.401 66.098 136.536 66.1493 136.629 66.252C136.732 66.3453 136.783 66.4853 136.783 66.672V67.876L136.629 67.708C136.825 67.1667 137.143 66.7607 137.581 66.49C138.029 66.21 138.543 66.07 139.121 66.07C139.663 66.07 140.111 66.168 140.465 66.364C140.829 66.56 141.1 66.8587 141.277 67.26C141.455 67.652 141.543 68.1513 141.543 68.758V72.51C141.543 72.6967 141.492 72.8413 141.389 72.944C141.296 73.0467 141.161 73.098 140.983 73.098C140.797 73.098 140.652 73.0467 140.549 72.944C140.456 72.8413 140.409 72.6967 140.409 72.51V68.828C140.409 68.1933 140.283 67.7313 140.031 67.442C139.789 67.1433 139.397 66.994 138.855 66.994C138.23 66.994 137.731 67.19 137.357 67.582C136.993 67.9647 136.811 68.478 136.811 69.122V72.51C136.811 72.902 136.62 73.098 136.237 73.098ZM145.93 73.126C145.51 73.126 145.086 73.0747 144.656 72.972C144.236 72.8693 143.844 72.692 143.48 72.44C143.387 72.3747 143.322 72.3 143.284 72.216C143.247 72.1227 143.233 72.034 143.242 71.95C143.261 71.8567 143.298 71.7773 143.354 71.712C143.42 71.6467 143.494 71.6093 143.578 71.6C143.672 71.5813 143.774 71.6 143.886 71.656C144.25 71.88 144.6 72.0387 144.936 72.132C145.282 72.216 145.622 72.258 145.958 72.258C146.49 72.258 146.892 72.16 147.162 71.964C147.433 71.768 147.568 71.502 147.568 71.166C147.568 70.9047 147.48 70.6993 147.302 70.55C147.125 70.3913 146.845 70.27 146.462 70.186L145.188 69.906C144.6 69.7847 144.162 69.5747 143.872 69.276C143.592 68.9773 143.452 68.59 143.452 68.114C143.452 67.694 143.56 67.3347 143.774 67.036C143.998 66.728 144.311 66.49 144.712 66.322C145.114 66.154 145.58 66.07 146.112 66.07C146.523 66.07 146.91 66.126 147.274 66.238C147.648 66.3407 147.984 66.5087 148.282 66.742C148.376 66.8073 148.436 66.8867 148.464 66.98C148.502 67.064 148.506 67.1527 148.478 67.246C148.46 67.33 148.418 67.4047 148.352 67.47C148.287 67.526 148.208 67.5587 148.114 67.568C148.021 67.5773 147.923 67.5493 147.82 67.484C147.54 67.2973 147.256 67.162 146.966 67.078C146.677 66.9847 146.392 66.938 146.112 66.938C145.59 66.938 145.193 67.0407 144.922 67.246C144.652 67.4513 144.516 67.722 144.516 68.058C144.516 68.3193 144.6 68.534 144.768 68.702C144.936 68.87 145.198 68.9913 145.552 69.066L146.826 69.332C147.433 69.4627 147.886 69.6727 148.184 69.962C148.492 70.242 148.646 70.6247 148.646 71.11C148.646 71.726 148.399 72.216 147.904 72.58C147.41 72.944 146.752 73.126 145.93 73.126ZM152.517 73.126C152.05 73.126 151.63 73.0373 151.257 72.86C150.893 72.6733 150.603 72.4213 150.389 72.104C150.174 71.7867 150.067 71.432 150.067 71.04C150.067 70.536 150.193 70.1393 150.445 69.85C150.706 69.5607 151.131 69.3553 151.719 69.234C152.316 69.1127 153.128 69.052 154.155 69.052H154.785V69.794H154.169C153.413 69.794 152.815 69.8313 152.377 69.906C151.947 69.9713 151.644 70.088 151.467 70.256C151.299 70.424 151.215 70.662 151.215 70.97C151.215 71.3527 151.345 71.6653 151.607 71.908C151.877 72.1507 152.241 72.272 152.699 72.272C153.072 72.272 153.399 72.1833 153.679 72.006C153.968 71.8287 154.192 71.586 154.351 71.278C154.519 70.97 154.603 70.6153 154.603 70.214V68.618C154.603 68.0393 154.486 67.624 154.253 67.372C154.019 67.1107 153.637 66.98 153.105 66.98C152.778 66.98 152.451 67.022 152.125 67.106C151.798 67.19 151.453 67.3253 151.089 67.512C150.958 67.5773 150.846 67.6007 150.753 67.582C150.659 67.554 150.585 67.5027 150.529 67.428C150.473 67.3533 150.44 67.2693 150.431 67.176C150.421 67.0733 150.44 66.9753 150.487 66.882C150.543 66.7887 150.627 66.714 150.739 66.658C151.149 66.4527 151.555 66.3033 151.957 66.21C152.358 66.1167 152.741 66.07 153.105 66.07C153.693 66.07 154.178 66.168 154.561 66.364C154.943 66.5507 155.228 66.84 155.415 67.232C155.601 67.6147 155.695 68.1093 155.695 68.716V72.51C155.695 72.6967 155.648 72.8413 155.555 72.944C155.471 73.0467 155.345 73.098 155.177 73.098C154.999 73.098 154.864 73.0467 154.771 72.944C154.677 72.8413 154.631 72.6967 154.631 72.51V71.418H154.757C154.682 71.7727 154.537 72.076 154.323 72.328C154.117 72.58 153.861 72.776 153.553 72.916C153.245 73.056 152.899 73.126 152.517 73.126ZM158.386 73.098C158.2 73.098 158.06 73.0467 157.966 72.944C157.873 72.8413 157.826 72.6967 157.826 72.51V66.672C157.826 66.4853 157.873 66.3453 157.966 66.252C158.06 66.1493 158.195 66.098 158.372 66.098C158.55 66.098 158.685 66.1493 158.778 66.252C158.881 66.3453 158.932 66.4853 158.932 66.672V67.904L158.778 67.708C158.956 67.1853 159.24 66.784 159.632 66.504C160.034 66.2147 160.51 66.07 161.06 66.07C161.639 66.07 162.106 66.21 162.46 66.49C162.824 66.7607 163.067 67.1853 163.188 67.764H162.978C163.146 67.2413 163.445 66.8307 163.874 66.532C164.313 66.224 164.822 66.07 165.4 66.07C165.914 66.07 166.334 66.168 166.66 66.364C166.996 66.56 167.248 66.8587 167.416 67.26C167.584 67.652 167.668 68.1513 167.668 68.758V72.51C167.668 72.6967 167.617 72.8413 167.514 72.944C167.421 73.0467 167.281 73.098 167.094 73.098C166.917 73.098 166.777 73.0467 166.674 72.944C166.581 72.8413 166.534 72.6967 166.534 72.51V68.814C166.534 68.1887 166.427 67.7313 166.212 67.442C165.998 67.1433 165.634 66.994 165.12 66.994C164.56 66.994 164.117 67.19 163.79 67.582C163.473 67.9647 163.314 68.4873 163.314 69.15V72.51C163.314 72.6967 163.263 72.8413 163.16 72.944C163.067 73.0467 162.927 73.098 162.74 73.098C162.563 73.098 162.423 73.0467 162.32 72.944C162.227 72.8413 162.18 72.6967 162.18 72.51V68.814C162.18 68.1887 162.068 67.7313 161.844 67.442C161.63 67.1433 161.27 66.994 160.766 66.994C160.206 66.994 159.763 67.19 159.436 67.582C159.119 67.9647 158.96 68.4873 158.96 69.15V72.51C158.96 72.902 158.769 73.098 158.386 73.098ZM172.855 73.126C172.136 73.126 171.515 72.986 170.993 72.706C170.479 72.4167 170.078 72.0107 169.789 71.488C169.509 70.9653 169.369 70.34 169.369 69.612C169.369 68.9027 169.509 68.2867 169.789 67.764C170.069 67.232 170.451 66.8167 170.937 66.518C171.431 66.2193 172.001 66.07 172.645 66.07C173.102 66.07 173.513 66.1493 173.877 66.308C174.241 66.4573 174.549 66.6767 174.801 66.966C175.062 67.2553 175.258 67.6053 175.389 68.016C175.529 68.4267 175.599 68.8887 175.599 69.402C175.599 69.5513 175.557 69.6633 175.473 69.738C175.389 69.8033 175.267 69.836 175.109 69.836H170.237V69.094H174.843L174.619 69.276C174.619 68.772 174.544 68.3473 174.395 68.002C174.245 67.6473 174.026 67.3767 173.737 67.19C173.457 67.0033 173.102 66.91 172.673 66.91C172.197 66.91 171.791 67.022 171.455 67.246C171.128 67.4607 170.881 67.764 170.713 68.156C170.545 68.5387 170.461 68.9867 170.461 69.5V69.584C170.461 70.4427 170.666 71.096 171.077 71.544C171.497 71.992 172.089 72.216 172.855 72.216C173.172 72.216 173.485 72.174 173.793 72.09C174.11 72.006 174.418 71.866 174.717 71.67C174.847 71.586 174.964 71.5487 175.067 71.558C175.179 71.558 175.267 71.5907 175.333 71.656C175.398 71.712 175.44 71.7867 175.459 71.88C175.487 71.964 175.477 72.0573 175.431 72.16C175.393 72.2627 175.314 72.3513 175.193 72.426C174.885 72.65 174.521 72.8227 174.101 72.944C173.681 73.0653 173.265 73.126 172.855 73.126ZM177.8 73.098C177.613 73.098 177.473 73.0467 177.38 72.944C177.286 72.8413 177.24 72.6967 177.24 72.51V66.672C177.24 66.4853 177.286 66.3453 177.38 66.252C177.473 66.1493 177.608 66.098 177.786 66.098C177.963 66.098 178.098 66.1493 178.192 66.252C178.294 66.3453 178.346 66.4853 178.346 66.672V67.876L178.192 67.708C178.388 67.1667 178.705 66.7607 179.144 66.49C179.592 66.21 180.105 66.07 180.684 66.07C181.225 66.07 181.673 66.168 182.028 66.364C182.392 66.56 182.662 66.8587 182.84 67.26C183.017 67.652 183.106 68.1513 183.106 68.758V72.51C183.106 72.6967 183.054 72.8413 182.952 72.944C182.858 73.0467 182.723 73.098 182.546 73.098C182.359 73.098 182.214 73.0467 182.112 72.944C182.018 72.8413 181.972 72.6967 181.972 72.51V68.828C181.972 68.1933 181.846 67.7313 181.594 67.442C181.351 67.1433 180.959 66.994 180.418 66.994C179.792 66.994 179.293 67.19 178.92 67.582C178.556 67.9647 178.374 68.478 178.374 69.122V72.51C178.374 72.902 178.182 73.098 177.8 73.098ZM187.927 73.126C187.395 73.126 186.947 73.0327 186.583 72.846C186.228 72.65 185.962 72.37 185.785 72.006C185.607 71.6327 185.519 71.18 185.519 70.648V67.078H184.581C184.422 67.078 184.301 67.0407 184.217 66.966C184.133 66.882 184.091 66.77 184.091 66.63C184.091 66.49 184.133 66.3827 184.217 66.308C184.301 66.2333 184.422 66.196 184.581 66.196H185.519V64.586C185.519 64.3993 185.57 64.2593 185.673 64.166C185.775 64.0633 185.915 64.012 186.093 64.012C186.27 64.012 186.405 64.0633 186.499 64.166C186.601 64.2593 186.653 64.3993 186.653 64.586V66.196H188.417C188.575 66.196 188.697 66.2333 188.781 66.308C188.865 66.3827 188.907 66.49 188.907 66.63C188.907 66.77 188.865 66.882 188.781 66.966C188.697 67.0407 188.575 67.078 188.417 67.078H186.653V70.536C186.653 71.068 186.765 71.474 186.989 71.754C187.213 72.0247 187.577 72.16 188.081 72.16C188.258 72.16 188.407 72.1413 188.529 72.104C188.659 72.0667 188.767 72.048 188.851 72.048C188.935 72.0387 189.005 72.0667 189.061 72.132C189.117 72.1973 189.145 72.3093 189.145 72.468C189.145 72.58 189.121 72.6827 189.075 72.776C189.037 72.8693 188.967 72.9347 188.865 72.972C188.753 73.0093 188.603 73.042 188.417 73.07C188.239 73.1073 188.076 73.126 187.927 73.126ZM192.851 73.126C192.188 73.126 191.614 72.9813 191.129 72.692C190.644 72.4027 190.266 71.9967 189.995 71.474C189.734 70.942 189.603 70.3167 189.603 69.598C189.603 69.0567 189.678 68.5713 189.827 68.142C189.976 67.7033 190.196 67.33 190.485 67.022C190.774 66.714 191.115 66.4807 191.507 66.322C191.908 66.154 192.356 66.07 192.851 66.07C193.514 66.07 194.088 66.2147 194.573 66.504C195.058 66.7933 195.432 67.204 195.693 67.736C195.964 68.2587 196.099 68.8793 196.099 69.598C196.099 70.1393 196.024 70.6247 195.875 71.054C195.726 71.4833 195.506 71.8567 195.217 72.174C194.928 72.482 194.582 72.72 194.181 72.888C193.789 73.0467 193.346 73.126 192.851 73.126ZM192.851 72.216C193.271 72.216 193.64 72.1133 193.957 71.908C194.274 71.7027 194.517 71.404 194.685 71.012C194.862 70.62 194.951 70.1487 194.951 69.598C194.951 68.7487 194.76 68.1 194.377 67.652C194.004 67.204 193.495 66.98 192.851 66.98C192.422 66.98 192.048 67.0827 191.731 67.288C191.423 67.484 191.18 67.778 191.003 68.17C190.835 68.5527 190.751 69.0287 190.751 69.598C190.751 70.438 190.942 71.0867 191.325 71.544C191.708 71.992 192.216 72.216 192.851 72.216ZM204.296 73.126C203.614 73.126 203.026 72.9767 202.532 72.678C202.037 72.3793 201.654 71.964 201.384 71.432C201.122 70.8907 200.992 70.2653 200.992 69.556C200.992 69.0147 201.066 68.5293 201.216 68.1C201.365 67.6707 201.584 67.3067 201.874 67.008C202.163 66.7 202.508 66.4667 202.91 66.308C203.32 66.1493 203.782 66.07 204.296 66.07C204.632 66.07 204.982 66.1213 205.346 66.224C205.71 66.3267 206.041 66.504 206.34 66.756C206.433 66.8213 206.494 66.9007 206.522 66.994C206.55 67.0873 206.55 67.1807 206.522 67.274C206.494 67.358 206.447 67.4327 206.382 67.498C206.316 67.554 206.232 67.5867 206.13 67.596C206.036 67.6053 205.938 67.5727 205.836 67.498C205.593 67.3113 205.346 67.1807 205.094 67.106C204.842 67.0313 204.599 66.994 204.366 66.994C204.002 66.994 203.684 67.0547 203.414 67.176C203.143 67.288 202.914 67.4513 202.728 67.666C202.541 67.8807 202.396 68.1467 202.294 68.464C202.2 68.7813 202.154 69.15 202.154 69.57C202.154 70.382 202.345 71.026 202.728 71.502C203.11 71.9687 203.656 72.202 204.366 72.202C204.599 72.202 204.837 72.1647 205.08 72.09C205.332 72.0153 205.584 71.8847 205.836 71.698C205.938 71.6233 206.036 71.5907 206.13 71.6C206.223 71.6093 206.302 71.6467 206.368 71.712C206.433 71.768 206.475 71.8427 206.494 71.936C206.522 72.0293 206.522 72.1227 206.494 72.216C206.466 72.3 206.405 72.3747 206.312 72.44C206.013 72.6827 205.686 72.86 205.332 72.972C204.977 73.0747 204.632 73.126 204.296 73.126ZM208.466 73.098C208.279 73.098 208.135 73.0467 208.032 72.944C207.939 72.8413 207.892 72.6967 207.892 72.51V66.672C207.892 66.4853 207.939 66.3453 208.032 66.252C208.125 66.1493 208.261 66.098 208.438 66.098C208.615 66.098 208.751 66.1493 208.844 66.252C208.947 66.3453 208.998 66.4853 208.998 66.672V67.806H208.858C209.007 67.2553 209.292 66.8307 209.712 66.532C210.132 66.2333 210.65 66.0747 211.266 66.056C211.406 66.0467 211.518 66.0793 211.602 66.154C211.686 66.2193 211.733 66.336 211.742 66.504C211.751 66.6627 211.714 66.7887 211.63 66.882C211.546 66.9753 211.415 67.0313 211.238 67.05L211.014 67.078C210.379 67.134 209.889 67.3393 209.544 67.694C209.208 68.0393 209.04 68.5153 209.04 69.122V72.51C209.04 72.6967 208.989 72.8413 208.886 72.944C208.793 73.0467 208.653 73.098 208.466 73.098ZM213.47 73.07C213.283 73.07 213.143 73.0187 213.05 72.916C212.956 72.804 212.91 72.65 212.91 72.454V66.728C212.91 66.532 212.956 66.3827 213.05 66.28C213.143 66.1773 213.283 66.126 213.47 66.126C213.647 66.126 213.787 66.1773 213.89 66.28C213.992 66.3827 214.044 66.532 214.044 66.728V72.454C214.044 72.65 213.992 72.804 213.89 72.916C213.796 73.0187 213.656 73.07 213.47 73.07ZM213.932 65.216C213.866 65.3093 213.787 65.3653 213.694 65.384C213.6 65.3933 213.512 65.3793 213.428 65.342C213.344 65.2953 213.283 65.23 213.246 65.146C213.208 65.062 213.218 64.964 213.274 64.852L214.45 62.57C214.515 62.4393 214.599 62.3553 214.702 62.318C214.804 62.2807 214.907 62.276 215.01 62.304C215.122 62.3227 215.215 62.3693 215.29 62.444C215.364 62.5187 215.406 62.6073 215.416 62.71C215.434 62.8127 215.406 62.92 215.332 63.032L213.932 65.216ZM218.894 73.126C218.362 73.126 217.914 73.0327 217.55 72.846C217.195 72.65 216.929 72.37 216.752 72.006C216.574 71.6327 216.486 71.18 216.486 70.648V67.078H215.548C215.389 67.078 215.268 67.0407 215.184 66.966C215.1 66.882 215.058 66.77 215.058 66.63C215.058 66.49 215.1 66.3827 215.184 66.308C215.268 66.2333 215.389 66.196 215.548 66.196H216.486V64.586C216.486 64.3993 216.537 64.2593 216.64 64.166C216.742 64.0633 216.882 64.012 217.06 64.012C217.237 64.012 217.372 64.0633 217.466 64.166C217.568 64.2593 217.62 64.3993 217.62 64.586V66.196H219.384C219.542 66.196 219.664 66.2333 219.748 66.308C219.832 66.3827 219.874 66.49 219.874 66.63C219.874 66.77 219.832 66.882 219.748 66.966C219.664 67.0407 219.542 67.078 219.384 67.078H217.62V70.536C217.62 71.068 217.732 71.474 217.956 71.754C218.18 72.0247 218.544 72.16 219.048 72.16C219.225 72.16 219.374 72.1413 219.496 72.104C219.626 72.0667 219.734 72.048 219.818 72.048C219.902 72.0387 219.972 72.0667 220.028 72.132C220.084 72.1973 220.112 72.3093 220.112 72.468C220.112 72.58 220.088 72.6827 220.042 72.776C220.004 72.8693 219.934 72.9347 219.832 72.972C219.72 73.0093 219.57 73.042 219.384 73.07C219.206 73.1073 219.043 73.126 218.894 73.126ZM221.7 73.07C221.514 73.07 221.374 73.0187 221.28 72.916C221.187 72.804 221.14 72.65 221.14 72.454V66.728C221.14 66.532 221.187 66.3827 221.28 66.28C221.374 66.1773 221.514 66.126 221.7 66.126C221.878 66.126 222.018 66.1773 222.12 66.28C222.223 66.3827 222.274 66.532 222.274 66.728V72.454C222.274 72.65 222.223 72.804 222.12 72.916C222.027 73.0187 221.887 73.07 221.7 73.07ZM221.7 64.558C221.467 64.558 221.285 64.4973 221.154 64.376C221.024 64.2453 220.958 64.0727 220.958 63.858C220.958 63.634 221.024 63.466 221.154 63.354C221.285 63.2327 221.467 63.172 221.7 63.172C221.943 63.172 222.125 63.2327 222.246 63.354C222.377 63.466 222.442 63.634 222.442 63.858C222.442 64.0727 222.377 64.2453 222.246 64.376C222.125 64.4973 221.943 64.558 221.7 64.558ZM227.278 73.126C226.597 73.126 226.009 72.9767 225.514 72.678C225.019 72.3793 224.637 71.964 224.366 71.432C224.105 70.8907 223.974 70.2653 223.974 69.556C223.974 69.0147 224.049 68.5293 224.198 68.1C224.347 67.6707 224.567 67.3067 224.856 67.008C225.145 66.7 225.491 66.4667 225.892 66.308C226.303 66.1493 226.765 66.07 227.278 66.07C227.614 66.07 227.964 66.1213 228.328 66.224C228.692 66.3267 229.023 66.504 229.322 66.756C229.415 66.8213 229.476 66.9007 229.504 66.994C229.532 67.0873 229.532 67.1807 229.504 67.274C229.476 67.358 229.429 67.4327 229.364 67.498C229.299 67.554 229.215 67.5867 229.112 67.596C229.019 67.6053 228.921 67.5727 228.818 67.498C228.575 67.3113 228.328 67.1807 228.076 67.106C227.824 67.0313 227.581 66.994 227.348 66.994C226.984 66.994 226.667 67.0547 226.396 67.176C226.125 67.288 225.897 67.4513 225.71 67.666C225.523 67.8807 225.379 68.1467 225.276 68.464C225.183 68.7813 225.136 69.15 225.136 69.57C225.136 70.382 225.327 71.026 225.71 71.502C226.093 71.9687 226.639 72.202 227.348 72.202C227.581 72.202 227.819 72.1647 228.062 72.09C228.314 72.0153 228.566 71.8847 228.818 71.698C228.921 71.6233 229.019 71.5907 229.112 71.6C229.205 71.6093 229.285 71.6467 229.35 71.712C229.415 71.768 229.457 71.8427 229.476 71.936C229.504 72.0293 229.504 72.1227 229.476 72.216C229.448 72.3 229.387 72.3747 229.294 72.44C228.995 72.6827 228.669 72.86 228.314 72.972C227.959 73.0747 227.614 73.126 227.278 73.126ZM233.566 73.126C232.903 73.126 232.329 72.9813 231.844 72.692C231.358 72.4027 230.98 71.9967 230.71 71.474C230.448 70.942 230.318 70.3167 230.318 69.598C230.318 69.0567 230.392 68.5713 230.542 68.142C230.691 67.7033 230.91 67.33 231.2 67.022C231.489 66.714 231.83 66.4807 232.222 66.322C232.623 66.154 233.071 66.07 233.566 66.07C234.228 66.07 234.802 66.2147 235.288 66.504C235.773 66.7933 236.146 67.204 236.408 67.736C236.678 68.2587 236.814 68.8793 236.814 69.598C236.814 70.1393 236.739 70.6247 236.59 71.054C236.44 71.4833 236.221 71.8567 235.932 72.174C235.642 72.482 235.297 72.72 234.896 72.888C234.504 73.0467 234.06 73.126 233.566 73.126ZM233.566 72.216C233.986 72.216 234.354 72.1133 234.672 71.908C234.989 71.7027 235.232 71.404 235.4 71.012C235.577 70.62 235.666 70.1487 235.666 69.598C235.666 68.7487 235.474 68.1 235.092 67.652C234.718 67.204 234.21 66.98 233.566 66.98C233.136 66.98 232.763 67.0827 232.446 67.288C232.138 67.484 231.895 67.778 231.718 68.17C231.55 68.5527 231.466 69.0287 231.466 69.598C231.466 70.438 231.657 71.0867 232.04 71.544C232.422 71.992 232.931 72.216 233.566 72.216ZM245.193 73.126C244.474 73.126 243.853 72.986 243.331 72.706C242.817 72.4167 242.416 72.0107 242.127 71.488C241.847 70.9653 241.707 70.34 241.707 69.612C241.707 68.9027 241.847 68.2867 242.127 67.764C242.407 67.232 242.789 66.8167 243.275 66.518C243.769 66.2193 244.339 66.07 244.983 66.07C245.44 66.07 245.851 66.1493 246.215 66.308C246.579 66.4573 246.887 66.6767 247.139 66.966C247.4 67.2553 247.596 67.6053 247.727 68.016C247.867 68.4267 247.937 68.8887 247.937 69.402C247.937 69.5513 247.895 69.6633 247.811 69.738C247.727 69.8033 247.605 69.836 247.447 69.836H242.575V69.094H247.181L246.957 69.276C246.957 68.772 246.882 68.3473 246.733 68.002C246.583 67.6473 246.364 67.3767 246.075 67.19C245.795 67.0033 245.44 66.91 245.011 66.91C244.535 66.91 244.129 67.022 243.793 67.246C243.466 67.4607 243.219 67.764 243.051 68.156C242.883 68.5387 242.799 68.9867 242.799 69.5V69.584C242.799 70.4427 243.004 71.096 243.415 71.544C243.835 71.992 244.427 72.216 245.193 72.216C245.51 72.216 245.823 72.174 246.131 72.09C246.448 72.006 246.756 71.866 247.055 71.67C247.185 71.586 247.302 71.5487 247.405 71.558C247.517 71.558 247.605 71.5907 247.671 71.656C247.736 71.712 247.778 71.7867 247.797 71.88C247.825 71.964 247.815 72.0573 247.769 72.16C247.731 72.2627 247.652 72.3513 247.531 72.426C247.223 72.65 246.859 72.8227 246.439 72.944C246.019 73.0653 245.603 73.126 245.193 73.126ZM256.015 73.126C255.352 73.126 254.778 72.9813 254.293 72.692C253.808 72.4027 253.43 71.9967 253.159 71.474C252.898 70.942 252.767 70.3167 252.767 69.598C252.767 69.0567 252.842 68.5713 252.991 68.142C253.14 67.7033 253.36 67.33 253.649 67.022C253.938 66.714 254.279 66.4807 254.671 66.322C255.072 66.154 255.52 66.07 256.015 66.07C256.678 66.07 257.252 66.2147 257.737 66.504C258.222 66.7933 258.596 67.204 258.857 67.736C259.128 68.2587 259.263 68.8793 259.263 69.598C259.263 70.1393 259.188 70.6247 259.039 71.054C258.89 71.4833 258.67 71.8567 258.381 72.174C258.092 72.482 257.746 72.72 257.345 72.888C256.953 73.0467 256.51 73.126 256.015 73.126ZM256.015 72.216C256.435 72.216 256.804 72.1133 257.121 71.908C257.438 71.7027 257.681 71.404 257.849 71.012C258.026 70.62 258.115 70.1487 258.115 69.598C258.115 68.7487 257.924 68.1 257.541 67.652C257.168 67.204 256.659 66.98 256.015 66.98C255.586 66.98 255.212 67.0827 254.895 67.288C254.587 67.484 254.344 67.778 254.167 68.17C253.999 68.5527 253.915 69.0287 253.915 69.598C253.915 70.438 254.106 71.0867 254.489 71.544C254.872 71.992 255.38 72.216 256.015 72.216ZM122.206 90.126C121.739 90.126 121.319 90.0373 120.946 89.86C120.582 89.6733 120.293 89.4213 120.078 89.104C119.863 88.7867 119.756 88.432 119.756 88.04C119.756 87.536 119.882 87.1393 120.134 86.85C120.395 86.5607 120.82 86.3553 121.408 86.234C122.005 86.1127 122.817 86.052 123.844 86.052H124.474V86.794H123.858C123.102 86.794 122.505 86.8313 122.066 86.906C121.637 86.9713 121.333 87.088 121.156 87.256C120.988 87.424 120.904 87.662 120.904 87.97C120.904 88.3527 121.035 88.6653 121.296 88.908C121.567 89.1507 121.931 89.272 122.388 89.272C122.761 89.272 123.088 89.1833 123.368 89.006C123.657 88.8287 123.881 88.586 124.04 88.278C124.208 87.97 124.292 87.6153 124.292 87.214V85.618C124.292 85.0393 124.175 84.624 123.942 84.372C123.709 84.1107 123.326 83.98 122.794 83.98C122.467 83.98 122.141 84.022 121.814 84.106C121.487 84.19 121.142 84.3253 120.778 84.512C120.647 84.5773 120.535 84.6007 120.442 84.582C120.349 84.554 120.274 84.5027 120.218 84.428C120.162 84.3533 120.129 84.2693 120.12 84.176C120.111 84.0733 120.129 83.9753 120.176 83.882C120.232 83.7887 120.316 83.714 120.428 83.658C120.839 83.4527 121.245 83.3033 121.646 83.21C122.047 83.1167 122.43 83.07 122.794 83.07C123.382 83.07 123.867 83.168 124.25 83.364C124.633 83.5507 124.917 83.84 125.104 84.232C125.291 84.6147 125.384 85.1093 125.384 85.716V89.51C125.384 89.6967 125.337 89.8413 125.244 89.944C125.16 90.0467 125.034 90.098 124.866 90.098C124.689 90.098 124.553 90.0467 124.46 89.944C124.367 89.8413 124.32 89.6967 124.32 89.51V88.418H124.446C124.371 88.7727 124.227 89.076 124.012 89.328C123.807 89.58 123.55 89.776 123.242 89.916C122.934 90.056 122.589 90.126 122.206 90.126ZM128.048 92.618C127.861 92.618 127.721 92.5667 127.628 92.464C127.534 92.3707 127.488 92.2307 127.488 92.044V83.672C127.488 83.4853 127.534 83.3453 127.628 83.252C127.721 83.1493 127.856 83.098 128.034 83.098C128.22 83.098 128.36 83.1493 128.454 83.252C128.556 83.3453 128.608 83.4853 128.608 83.672V85.002L128.454 84.806C128.603 84.274 128.897 83.854 129.336 83.546C129.784 83.2287 130.316 83.07 130.932 83.07C131.538 83.07 132.066 83.2147 132.514 83.504C132.971 83.784 133.321 84.19 133.564 84.722C133.816 85.2447 133.942 85.87 133.942 86.598C133.942 87.3167 133.816 87.942 133.564 88.474C133.321 88.9967 132.976 89.4027 132.528 89.692C132.08 89.9813 131.548 90.126 130.932 90.126C130.316 90.126 129.788 89.972 129.35 89.664C128.911 89.3467 128.612 88.9267 128.454 88.404H128.622V92.044C128.622 92.2307 128.57 92.3707 128.468 92.464C128.365 92.5667 128.225 92.618 128.048 92.618ZM130.694 89.216C131.123 89.216 131.492 89.1133 131.8 88.908C132.117 88.7027 132.36 88.404 132.528 88.012C132.705 87.62 132.794 87.1487 132.794 86.598C132.794 85.7487 132.602 85.1 132.22 84.652C131.846 84.204 131.338 83.98 130.694 83.98C130.274 83.98 129.905 84.0827 129.588 84.288C129.27 84.484 129.023 84.778 128.846 85.17C128.678 85.5527 128.594 86.0287 128.594 86.598C128.594 87.438 128.785 88.0867 129.168 88.544C129.55 88.992 130.059 89.216 130.694 89.216ZM136.224 90.098C136.037 90.098 135.893 90.0467 135.79 89.944C135.697 89.8413 135.65 89.6967 135.65 89.51V83.672C135.65 83.4853 135.697 83.3453 135.79 83.252C135.883 83.1493 136.019 83.098 136.196 83.098C136.373 83.098 136.509 83.1493 136.602 83.252C136.705 83.3453 136.756 83.4853 136.756 83.672V84.806H136.616C136.765 84.2553 137.05 83.8307 137.47 83.532C137.89 83.2333 138.408 83.0747 139.024 83.056C139.164 83.0467 139.276 83.0793 139.36 83.154C139.444 83.2193 139.491 83.336 139.5 83.504C139.509 83.6627 139.472 83.7887 139.388 83.882C139.304 83.9753 139.173 84.0313 138.996 84.05L138.772 84.078C138.137 84.134 137.647 84.3393 137.302 84.694C136.966 85.0393 136.798 85.5153 136.798 86.122V89.51C136.798 89.6967 136.747 89.8413 136.644 89.944C136.551 90.0467 136.411 90.098 136.224 90.098ZM143.651 90.126C142.933 90.126 142.312 89.986 141.789 89.706C141.276 89.4167 140.875 89.0107 140.585 88.488C140.305 87.9653 140.165 87.34 140.165 86.612C140.165 85.9027 140.305 85.2867 140.585 84.764C140.865 84.232 141.248 83.8167 141.733 83.518C142.228 83.2193 142.797 83.07 143.441 83.07C143.899 83.07 144.309 83.1493 144.673 83.308C145.037 83.4573 145.345 83.6767 145.597 83.966C145.859 84.2553 146.055 84.6053 146.185 85.016C146.325 85.4267 146.395 85.8887 146.395 86.402C146.395 86.5513 146.353 86.6633 146.269 86.738C146.185 86.8033 146.064 86.836 145.905 86.836H141.033V86.094H145.639L145.415 86.276C145.415 85.772 145.341 85.3473 145.191 85.002C145.042 84.6473 144.823 84.3767 144.533 84.19C144.253 84.0033 143.899 83.91 143.469 83.91C142.993 83.91 142.587 84.022 142.251 84.246C141.925 84.4607 141.677 84.764 141.509 85.156C141.341 85.5387 141.257 85.9867 141.257 86.5V86.584C141.257 87.4427 141.463 88.096 141.873 88.544C142.293 88.992 142.886 89.216 143.651 89.216C143.969 89.216 144.281 89.174 144.589 89.09C144.907 89.006 145.215 88.866 145.513 88.67C145.644 88.586 145.761 88.5487 145.863 88.558C145.975 88.558 146.064 88.5907 146.129 88.656C146.195 88.712 146.237 88.7867 146.255 88.88C146.283 88.964 146.274 89.0573 146.227 89.16C146.19 89.2627 146.111 89.3513 145.989 89.426C145.681 89.65 145.317 89.8227 144.897 89.944C144.477 90.0653 144.062 90.126 143.651 90.126ZM148.597 90.098C148.41 90.098 148.27 90.0467 148.177 89.944C148.083 89.8413 148.037 89.6967 148.037 89.51V83.672C148.037 83.4853 148.083 83.3453 148.177 83.252C148.27 83.1493 148.405 83.098 148.583 83.098C148.76 83.098 148.895 83.1493 148.989 83.252C149.091 83.3453 149.143 83.4853 149.143 83.672V84.876L148.989 84.708C149.185 84.1667 149.502 83.7607 149.941 83.49C150.389 83.21 150.902 83.07 151.481 83.07C152.022 83.07 152.47 83.168 152.825 83.364C153.189 83.56 153.459 83.8587 153.637 84.26C153.814 84.652 153.903 85.1513 153.903 85.758V89.51C153.903 89.6967 153.851 89.8413 153.749 89.944C153.655 90.0467 153.52 90.098 153.343 90.098C153.156 90.098 153.011 90.0467 152.909 89.944C152.815 89.8413 152.769 89.6967 152.769 89.51V85.828C152.769 85.1933 152.643 84.7313 152.391 84.442C152.148 84.1433 151.756 83.994 151.215 83.994C150.589 83.994 150.09 84.19 149.717 84.582C149.353 84.9647 149.171 85.478 149.171 86.122V89.51C149.171 89.902 148.979 90.098 148.597 90.098ZM158.584 90.126C157.977 90.126 157.445 89.9813 156.988 89.692C156.54 89.4027 156.19 88.9967 155.938 88.474C155.695 87.942 155.574 87.3167 155.574 86.598C155.574 85.87 155.695 85.2447 155.938 84.722C156.19 84.19 156.54 83.784 156.988 83.504C157.445 83.2147 157.977 83.07 158.584 83.07C159.2 83.07 159.727 83.224 160.166 83.532C160.604 83.84 160.898 84.2553 161.048 84.778H160.894V80.606C160.894 80.4193 160.94 80.2793 161.034 80.186C161.136 80.0833 161.281 80.032 161.468 80.032C161.645 80.032 161.78 80.0833 161.874 80.186C161.976 80.2793 162.028 80.4193 162.028 80.606V89.51C162.028 89.6967 161.981 89.8413 161.888 89.944C161.794 90.0467 161.654 90.098 161.468 90.098C161.29 90.098 161.15 90.0467 161.048 89.944C160.954 89.8413 160.908 89.6967 160.908 89.51V88.18L161.062 88.376C160.912 88.908 160.614 89.3327 160.166 89.65C159.727 89.9673 159.2 90.126 158.584 90.126ZM158.822 89.216C159.242 89.216 159.61 89.1133 159.928 88.908C160.245 88.7027 160.488 88.404 160.656 88.012C160.833 87.62 160.922 87.1487 160.922 86.598C160.922 85.7487 160.73 85.1 160.348 84.652C159.974 84.204 159.466 83.98 158.822 83.98C158.392 83.98 158.019 84.0827 157.702 84.288C157.394 84.484 157.151 84.778 156.974 85.17C156.806 85.5527 156.722 86.0287 156.722 86.598C156.722 87.438 156.913 88.0867 157.296 88.544C157.678 88.992 158.187 89.216 158.822 89.216ZM164.716 90.07C164.529 90.07 164.389 90.0187 164.296 89.916C164.202 89.804 164.156 89.65 164.156 89.454V83.728C164.156 83.532 164.202 83.3827 164.296 83.28C164.389 83.1773 164.529 83.126 164.716 83.126C164.893 83.126 165.033 83.1773 165.136 83.28C165.238 83.3827 165.29 83.532 165.29 83.728V89.454C165.29 89.65 165.238 89.804 165.136 89.916C165.042 90.0187 164.902 90.07 164.716 90.07ZM164.716 81.558C164.482 81.558 164.3 81.4973 164.17 81.376C164.039 81.2453 163.974 81.0727 163.974 80.858C163.974 80.634 164.039 80.466 164.17 80.354C164.3 80.2327 164.482 80.172 164.716 80.172C164.958 80.172 165.14 80.2327 165.262 80.354C165.392 80.466 165.458 80.634 165.458 80.858C165.458 81.0727 165.392 81.2453 165.262 81.376C165.14 81.4973 164.958 81.558 164.716 81.558ZM167.536 90C167.414 90 167.316 89.972 167.242 89.916C167.167 89.86 167.116 89.7853 167.088 89.692C167.06 89.5987 167.06 89.496 167.088 89.384C167.116 89.272 167.176 89.1647 167.27 89.062L171.218 83.784V84.078H167.48C167.33 84.078 167.214 84.0407 167.13 83.966C167.055 83.882 167.018 83.77 167.018 83.63C167.018 83.49 167.055 83.3827 167.13 83.308C167.214 83.2333 167.33 83.196 167.48 83.196H171.778C171.918 83.196 172.03 83.224 172.114 83.28C172.207 83.336 172.268 83.4107 172.296 83.504C172.324 83.588 172.324 83.686 172.296 83.798C172.277 83.9007 172.226 84.0033 172.142 84.106L168.124 89.44V89.118H172.058C172.366 89.118 172.52 89.2627 172.52 89.552C172.52 89.692 172.478 89.804 172.394 89.888C172.319 89.9627 172.207 90 172.058 90H167.536ZM175.964 90.126C175.497 90.126 175.077 90.0373 174.704 89.86C174.34 89.6733 174.05 89.4213 173.836 89.104C173.621 88.7867 173.514 88.432 173.514 88.04C173.514 87.536 173.64 87.1393 173.892 86.85C174.153 86.5607 174.578 86.3553 175.166 86.234C175.763 86.1127 176.575 86.052 177.602 86.052H178.232V86.794H177.616C176.86 86.794 176.262 86.8313 175.824 86.906C175.394 86.9713 175.091 87.088 174.914 87.256C174.746 87.424 174.662 87.662 174.662 87.97C174.662 88.3527 174.792 88.6653 175.054 88.908C175.324 89.1507 175.688 89.272 176.146 89.272C176.519 89.272 176.846 89.1833 177.126 89.006C177.415 88.8287 177.639 88.586 177.798 88.278C177.966 87.97 178.05 87.6153 178.05 87.214V85.618C178.05 85.0393 177.933 84.624 177.7 84.372C177.466 84.1107 177.084 83.98 176.552 83.98C176.225 83.98 175.898 84.022 175.572 84.106C175.245 84.19 174.9 84.3253 174.536 84.512C174.405 84.5773 174.293 84.6007 174.2 84.582C174.106 84.554 174.032 84.5027 173.976 84.428C173.92 84.3533 173.887 84.2693 173.878 84.176C173.868 84.0733 173.887 83.9753 173.934 83.882C173.99 83.7887 174.074 83.714 174.186 83.658C174.596 83.4527 175.002 83.3033 175.404 83.21C175.805 83.1167 176.188 83.07 176.552 83.07C177.14 83.07 177.625 83.168 178.008 83.364C178.39 83.5507 178.675 83.84 178.862 84.232C179.048 84.6147 179.142 85.1093 179.142 85.716V89.51C179.142 89.6967 179.095 89.8413 179.002 89.944C178.918 90.0467 178.792 90.098 178.624 90.098C178.446 90.098 178.311 90.0467 178.218 89.944C178.124 89.8413 178.078 89.6967 178.078 89.51V88.418H178.204C178.129 88.7727 177.984 89.076 177.77 89.328C177.564 89.58 177.308 89.776 177 89.916C176.692 90.056 176.346 90.126 175.964 90.126ZM183.836 90.126C183.229 90.126 182.697 89.9813 182.24 89.692C181.792 89.4027 181.442 88.9967 181.19 88.474C180.947 87.942 180.826 87.3167 180.826 86.598C180.826 85.87 180.947 85.2447 181.19 84.722C181.442 84.19 181.792 83.784 182.24 83.504C182.697 83.2147 183.229 83.07 183.836 83.07C184.452 83.07 184.979 83.224 185.418 83.532C185.856 83.84 186.15 84.2553 186.3 84.778H186.146V80.606C186.146 80.4193 186.192 80.2793 186.286 80.186C186.388 80.0833 186.533 80.032 186.72 80.032C186.897 80.032 187.032 80.0833 187.126 80.186C187.228 80.2793 187.28 80.4193 187.28 80.606V89.51C187.28 89.6967 187.233 89.8413 187.14 89.944C187.046 90.0467 186.906 90.098 186.72 90.098C186.542 90.098 186.402 90.0467 186.3 89.944C186.206 89.8413 186.16 89.6967 186.16 89.51V88.18L186.314 88.376C186.164 88.908 185.866 89.3327 185.418 89.65C184.979 89.9673 184.452 90.126 183.836 90.126ZM184.074 89.216C184.494 89.216 184.862 89.1133 185.18 88.908C185.497 88.7027 185.74 88.404 185.908 88.012C186.085 87.62 186.174 87.1487 186.174 86.598C186.174 85.7487 185.982 85.1 185.6 84.652C185.226 84.204 184.718 83.98 184.074 83.98C183.644 83.98 183.271 84.0827 182.954 84.288C182.646 84.484 182.403 84.778 182.226 85.17C182.058 85.5527 181.974 86.0287 181.974 86.598C181.974 87.438 182.165 88.0867 182.548 88.544C182.93 88.992 183.439 89.216 184.074 89.216ZM192.236 90.126C191.573 90.126 190.999 89.9813 190.514 89.692C190.028 89.4027 189.65 88.9967 189.38 88.474C189.118 87.942 188.988 87.3167 188.988 86.598C188.988 86.0567 189.062 85.5713 189.212 85.142C189.361 84.7033 189.58 84.33 189.87 84.022C190.159 83.714 190.5 83.4807 190.892 83.322C191.293 83.154 191.741 83.07 192.236 83.07C192.898 83.07 193.472 83.2147 193.958 83.504C194.443 83.7933 194.816 84.204 195.078 84.736C195.348 85.2587 195.484 85.8793 195.484 86.598C195.484 87.1393 195.409 87.6247 195.26 88.054C195.11 88.4833 194.891 88.8567 194.602 89.174C194.312 89.482 193.967 89.72 193.566 89.888C193.174 90.0467 192.73 90.126 192.236 90.126ZM192.236 89.216C192.656 89.216 193.024 89.1133 193.342 88.908C193.659 88.7027 193.902 88.404 194.07 88.012C194.247 87.62 194.336 87.1487 194.336 86.598C194.336 85.7487 194.144 85.1 193.762 84.652C193.388 84.204 192.88 83.98 192.236 83.98C191.806 83.98 191.433 84.0827 191.116 84.288C190.808 84.484 190.565 84.778 190.388 85.17C190.22 85.5527 190.136 86.0287 190.136 86.598C190.136 87.438 190.327 88.0867 190.71 88.544C191.092 88.992 191.601 89.216 192.236 89.216ZM203.68 90.126C202.999 90.126 202.411 89.9767 201.916 89.678C201.422 89.3793 201.039 88.964 200.768 88.432C200.507 87.8907 200.376 87.2653 200.376 86.556C200.376 86.0147 200.451 85.5293 200.6 85.1C200.75 84.6707 200.969 84.3067 201.258 84.008C201.548 83.7 201.893 83.4667 202.294 83.308C202.705 83.1493 203.167 83.07 203.68 83.07C204.016 83.07 204.366 83.1213 204.73 83.224C205.094 83.3267 205.426 83.504 205.724 83.756C205.818 83.8213 205.878 83.9007 205.906 83.994C205.934 84.0873 205.934 84.1807 205.906 84.274C205.878 84.358 205.832 84.4327 205.766 84.498C205.701 84.554 205.617 84.5867 205.514 84.596C205.421 84.6053 205.323 84.5727 205.22 84.498C204.978 84.3113 204.73 84.1807 204.478 84.106C204.226 84.0313 203.984 83.994 203.75 83.994C203.386 83.994 203.069 84.0547 202.798 84.176C202.528 84.288 202.299 84.4513 202.112 84.666C201.926 84.8807 201.781 85.1467 201.678 85.464C201.585 85.7813 201.538 86.15 201.538 86.57C201.538 87.382 201.73 88.026 202.112 88.502C202.495 88.9687 203.041 89.202 203.75 89.202C203.984 89.202 204.222 89.1647 204.464 89.09C204.716 89.0153 204.968 88.8847 205.22 88.698C205.323 88.6233 205.421 88.5907 205.514 88.6C205.608 88.6093 205.687 88.6467 205.752 88.712C205.818 88.768 205.86 88.8427 205.878 88.936C205.906 89.0293 205.906 89.1227 205.878 89.216C205.85 89.3 205.79 89.3747 205.696 89.44C205.398 89.6827 205.071 89.86 204.716 89.972C204.362 90.0747 204.016 90.126 203.68 90.126ZM209.968 90.126C209.306 90.126 208.732 89.9813 208.246 89.692C207.761 89.4027 207.383 88.9967 207.112 88.474C206.851 87.942 206.72 87.3167 206.72 86.598C206.72 86.0567 206.795 85.5713 206.944 85.142C207.094 84.7033 207.313 84.33 207.602 84.022C207.892 83.714 208.232 83.4807 208.624 83.322C209.026 83.154 209.474 83.07 209.968 83.07C210.631 83.07 211.205 83.2147 211.69 83.504C212.176 83.7933 212.549 84.204 212.81 84.736C213.081 85.2587 213.216 85.8793 213.216 86.598C213.216 87.1393 213.142 87.6247 212.992 88.054C212.843 88.4833 212.624 88.8567 212.334 89.174C212.045 89.482 211.7 89.72 211.298 89.888C210.906 90.0467 210.463 90.126 209.968 90.126ZM209.968 89.216C210.388 89.216 210.757 89.1133 211.074 88.908C211.392 88.7027 211.634 88.404 211.802 88.012C211.98 87.62 212.068 87.1487 212.068 86.598C212.068 85.7487 211.877 85.1 211.494 84.652C211.121 84.204 210.612 83.98 209.968 83.98C209.539 83.98 209.166 84.0827 208.848 84.288C208.54 84.484 208.298 84.778 208.12 85.17C207.952 85.5527 207.868 86.0287 207.868 86.598C207.868 87.438 208.06 88.0867 208.442 88.544C208.825 88.992 209.334 89.216 209.968 89.216ZM215.479 90.098C215.293 90.098 215.153 90.0467 215.059 89.944C214.966 89.8413 214.919 89.6967 214.919 89.51V83.672C214.919 83.4853 214.966 83.3453 215.059 83.252C215.153 83.1493 215.288 83.098 215.465 83.098C215.643 83.098 215.778 83.1493 215.871 83.252C215.974 83.3453 216.025 83.4853 216.025 83.672V84.876L215.871 84.708C216.067 84.1667 216.385 83.7607 216.823 83.49C217.271 83.21 217.785 83.07 218.363 83.07C218.905 83.07 219.353 83.168 219.707 83.364C220.071 83.56 220.342 83.8587 220.519 84.26C220.697 84.652 220.785 85.1513 220.785 85.758V89.51C220.785 89.6967 220.734 89.8413 220.631 89.944C220.538 90.0467 220.403 90.098 220.225 90.098C220.039 90.098 219.894 90.0467 219.791 89.944C219.698 89.8413 219.651 89.6967 219.651 89.51V85.828C219.651 85.1933 219.525 84.7313 219.273 84.442C219.031 84.1433 218.639 83.994 218.097 83.994C217.472 83.994 216.973 84.19 216.599 84.582C216.235 84.9647 216.053 85.478 216.053 86.122V89.51C216.053 89.902 215.862 90.098 215.479 90.098ZM225.607 90.126C225.075 90.126 224.627 90.0327 224.263 89.846C223.908 89.65 223.642 89.37 223.465 89.006C223.287 88.6327 223.199 88.18 223.199 87.648V84.078H222.261C222.102 84.078 221.981 84.0407 221.897 83.966C221.812 83.882 221.77 83.77 221.77 83.63C221.77 83.49 221.812 83.3827 221.897 83.308C221.981 83.2333 222.102 83.196 222.261 83.196H223.199V81.586C223.199 81.3993 223.25 81.2593 223.353 81.166C223.455 81.0633 223.595 81.012 223.773 81.012C223.95 81.012 224.085 81.0633 224.179 81.166C224.281 81.2593 224.333 81.3993 224.333 81.586V83.196H226.097C226.255 83.196 226.377 83.2333 226.461 83.308C226.545 83.3827 226.587 83.49 226.587 83.63C226.587 83.77 226.545 83.882 226.461 83.966C226.377 84.0407 226.255 84.078 226.097 84.078H224.333V87.536C224.333 88.068 224.445 88.474 224.669 88.754C224.893 89.0247 225.257 89.16 225.761 89.16C225.938 89.16 226.087 89.1413 226.209 89.104C226.339 89.0667 226.447 89.048 226.531 89.048C226.615 89.0387 226.685 89.0667 226.741 89.132C226.797 89.1973 226.825 89.3093 226.825 89.468C226.825 89.58 226.801 89.6827 226.755 89.776C226.717 89.8693 226.647 89.9347 226.545 89.972C226.433 90.0093 226.283 90.042 226.097 90.07C225.919 90.1073 225.756 90.126 225.607 90.126ZM228.413 90.07C228.226 90.07 228.086 90.0187 227.993 89.916C227.9 89.804 227.853 89.65 227.853 89.454V83.728C227.853 83.532 227.9 83.3827 227.993 83.28C228.086 83.1773 228.226 83.126 228.413 83.126C228.59 83.126 228.73 83.1773 228.833 83.28C228.936 83.3827 228.987 83.532 228.987 83.728V89.454C228.987 89.65 228.936 89.804 228.833 89.916C228.74 90.0187 228.6 90.07 228.413 90.07ZM228.875 82.216C228.81 82.3093 228.73 82.3653 228.637 82.384C228.544 82.3933 228.455 82.3793 228.371 82.342C228.287 82.2953 228.226 82.23 228.189 82.146C228.152 82.062 228.161 81.964 228.217 81.852L229.393 79.57C229.458 79.4393 229.542 79.3553 229.645 79.318C229.748 79.2807 229.85 79.276 229.953 79.304C230.065 79.3227 230.158 79.3693 230.233 79.444C230.308 79.5187 230.35 79.6073 230.359 79.71C230.378 79.8127 230.35 79.92 230.275 80.032L228.875 82.216ZM231.667 90.098C231.48 90.098 231.34 90.0467 231.247 89.944C231.154 89.8413 231.107 89.6967 231.107 89.51V83.672C231.107 83.4853 231.154 83.3453 231.247 83.252C231.34 83.1493 231.476 83.098 231.653 83.098C231.83 83.098 231.966 83.1493 232.059 83.252C232.162 83.3453 232.213 83.4853 232.213 83.672V84.876L232.059 84.708C232.255 84.1667 232.572 83.7607 233.011 83.49C233.459 83.21 233.972 83.07 234.551 83.07C235.092 83.07 235.54 83.168 235.895 83.364C236.259 83.56 236.53 83.8587 236.707 84.26C236.884 84.652 236.973 85.1513 236.973 85.758V89.51C236.973 89.6967 236.922 89.8413 236.819 89.944C236.726 90.0467 236.59 90.098 236.413 90.098C236.226 90.098 236.082 90.0467 235.979 89.944C235.886 89.8413 235.839 89.6967 235.839 89.51V85.828C235.839 85.1933 235.713 84.7313 235.461 84.442C235.218 84.1433 234.826 83.994 234.285 83.994C233.66 83.994 233.16 84.19 232.787 84.582C232.423 84.9647 232.241 85.478 232.241 86.122V89.51C232.241 89.902 232.05 90.098 231.667 90.098ZM241.472 90.126C240.921 90.126 240.464 90.028 240.1 89.832C239.745 89.6267 239.475 89.3233 239.288 88.922C239.111 88.5207 239.022 88.0213 239.022 87.424V83.672C239.022 83.476 239.069 83.3313 239.162 83.238C239.265 83.1447 239.405 83.098 239.582 83.098C239.769 83.098 239.909 83.1447 240.002 83.238C240.105 83.3313 240.156 83.476 240.156 83.672V87.41C240.156 88.0073 240.277 88.4553 240.52 88.754C240.772 89.0433 241.164 89.188 241.696 89.188C242.275 89.188 242.746 88.992 243.11 88.6C243.474 88.208 243.656 87.6947 243.656 87.06V83.672C243.656 83.476 243.703 83.3313 243.796 83.238C243.899 83.1447 244.043 83.098 244.23 83.098C244.407 83.098 244.543 83.1447 244.636 83.238C244.739 83.3313 244.79 83.476 244.79 83.672V89.51C244.79 89.902 244.608 90.098 244.244 90.098C244.067 90.098 243.927 90.0467 243.824 89.944C243.731 89.8413 243.684 89.6967 243.684 89.51V88.236L243.866 88.432C243.679 88.9827 243.371 89.4027 242.942 89.692C242.522 89.9813 242.032 90.126 241.472 90.126ZM249.74 90.126C249.077 90.126 248.503 89.9813 248.018 89.692C247.532 89.4027 247.154 88.9967 246.884 88.474C246.622 87.942 246.492 87.3167 246.492 86.598C246.492 86.0567 246.566 85.5713 246.716 85.142C246.865 84.7033 247.084 84.33 247.374 84.022C247.663 83.714 248.004 83.4807 248.396 83.322C248.797 83.154 249.245 83.07 249.74 83.07C250.402 83.07 250.976 83.2147 251.462 83.504C251.947 83.7933 252.32 84.204 252.582 84.736C252.852 85.2587 252.988 85.8793 252.988 86.598C252.988 87.1393 252.913 87.6247 252.764 88.054C252.614 88.4833 252.395 88.8567 252.106 89.174C251.816 89.482 251.471 89.72 251.07 89.888C250.678 90.0467 250.234 90.126 249.74 90.126ZM249.74 89.216C250.16 89.216 250.528 89.1133 250.846 88.908C251.163 88.7027 251.406 88.404 251.574 88.012C251.751 87.62 251.84 87.1487 251.84 86.598C251.84 85.7487 251.648 85.1 251.266 84.652C250.892 84.204 250.384 83.98 249.74 83.98C249.31 83.98 248.937 84.0827 248.62 84.288C248.312 84.484 248.069 84.778 247.892 85.17C247.724 85.5527 247.64 86.0287 247.64 86.598C247.64 87.438 247.831 88.0867 248.214 88.544C248.596 88.992 249.105 89.216 249.74 89.216Z" fill="white"/>
<path d="M280.732 96.9462C280.528 96.1204 280.75 95.2471 281.325 94.6195L284.319 91.3416C284.543 91.096 284.607 90.7439 284.484 90.435C284.361 90.1261 284.073 89.9143 283.741 89.8895L279.217 89.5537C278.385 89.4925 277.635 89.0274 277.21 88.3089L274.91 84.4138C274.8 84.2245 274.622 84.0845 274.412 84.0221C274.311 83.9926 274.206 83.9813 274.101 83.9889C273.772 84.007 273.484 84.213 273.359 84.5178L271.6 88.6868C271.277 89.4561 270.597 90.0181 269.78 90.1912L265.349 91.1353C265.023 91.204 264.766 91.4526 264.686 91.7753C264.606 92.0981 264.717 92.4383 264.972 92.6513L268.381 95.4957C269.034 96.0405 269.373 96.8753 269.283 97.7211L268.816 102.128C268.782 102.456 268.936 102.775 269.214 102.952C269.492 103.129 269.847 103.133 270.129 102.962L274.056 100.588C274.762 100.161 275.631 100.102 276.388 100.43L280.599 102.254C280.902 102.385 281.253 102.333 281.505 102.12C281.757 101.907 281.867 101.57 281.787 101.249L280.732 96.9462Z" fill="url(#paint0_linear_150_35361)"/>
</g>
</g>
<g filter="url(#filter1_d_150_35361)">
<path d="M23.5232 53.5702C24.1652 50.0155 25.6675 47.783 25.7635 47.6447C26.3671 46.7765 27.5299 46.5734 28.368 47.1951C29.2017 47.8157 29.3628 48.9959 28.7967 49.8903C27.8654 51.3622 26.6485 55.3421 27.2156 58.8408C27.7832 62.3394 28.7464 65.1696 34.0105 66.2164C37.3506 66.8795 37.6807 69.7134 37.9196 71.782C38.1857 74.0542 38.5158 76.8839 41.6982 79.9835C42.9512 81.2056 44.5564 82.1185 46.2553 83.081C47.0988 83.56 47.9793 84.0608 48.8504 84.6275C50.16 81.5524 51.2425 76.2867 51.1518 73.1424C51.0405 69.248 49.8205 65.5338 47.6265 62.3999L47.153 61.7226L47.3038 60.9001C47.5728 59.4412 47.6841 57.9611 47.6556 56.4951C46.9934 56.7351 46.137 56.8957 45.293 56.887C41.715 56.8489 38.9627 55.3252 37.1008 52.8674C33.8868 48.629 34.6249 43.9142 34.7767 41.4455C34.9279 38.9779 35.0669 37.0138 35.3369 34.2271C35.7547 29.9081 36.272 24.5314 35.8808 22.6212C34.6732 16.7404 31.9293 16.8373 30.8971 16.8732C29.8653 16.9092 29.0061 16.0714 28.9755 15.0039C28.9445 13.9342 29.755 13.0392 30.7862 13.0028C33.3591 12.9135 37.9177 13.9342 39.5313 21.7987C40.0452 24.3006 39.5402 29.5358 39.0509 34.5979C38.7819 37.3769 38.5557 39.391 38.5075 41.6333C38.4592 43.8766 38.1305 48.0046 40.0467 50.4798C41.2494 52.0334 43.028 52.8756 45.5177 53.0193C46.4203 53.0813 48.402 52.0966 49.4604 50.0955C50.0871 48.544 50.398 46.8625 50.3497 45.163C50.2778 42.6567 49.4505 40.28 47.9606 38.2876L47.048 37.0682L47.995 35.8711C49.7496 33.6534 50.6704 30.8678 50.5887 28.0257C50.5202 25.6397 49.7678 23.3637 48.4138 21.4432L47.5757 20.2565L48.4592 19.0964C50.1339 16.9021 51.0114 14.1612 50.9316 11.3729C50.735 4.51008 46.4474 -0.137745 40.5069 0.0696591C36.4046 0.213372 33.3311 2.09308 31.6179 6.47579C27.4654 5.25967 22.6078 9.24553 21.5233 13.2069C20.4004 17.3109 21.0848 22.2238 25.7862 28.4416C26.4834 29.3632 27.2259 30.1907 27.9965 30.9021C28.7661 31.6104 28.8341 32.8341 28.1468 33.6338C27.7905 34.0497 27.3038 34.2707 26.8101 34.2876C26.3494 34.3034 25.8833 34.1428 25.5123 33.8014C24.5766 32.9392 23.6794 31.943 22.8462 30.8412C19.4855 26.3959 18.2847 21.3904 17.8635 18.0039C10.7645 23.3659 9.85103 33.2326 13.0847 38.6578C8.93755 45.5549 15.3842 53.9926 23.5232 53.5702Z" fill="white"/>
<path d="M44.4548 86.4807C42.5593 85.6004 40.7348 84.3702 39.1379 82.8133C34.9716 78.7555 34.5178 74.8475 34.2163 72.2618C33.9709 70.154 33.894 70.1404 33.2944 70.0201C30.2618 69.4185 28.1752 68.3347 26.7207 66.9558C24.9184 67.8268 23.1505 68.2204 21.5177 68.2775C16.7094 68.4463 13.0279 65.9493 12.8185 65.8028C11.9636 65.21 11.735 64.0081 12.309 63.1175C12.8835 62.2296 14.0438 61.9874 14.8927 62.5753C15.0967 62.7152 19.5897 65.7032 24.5257 63.7419C24.0453 62.6128 23.1022 60.2541 23.1658 57.4822C15.3268 57.7195 8.07366 52.6003 7.76079 44.0303C-2.37176 60.4784 9.70009 75.89 23.4698 80.2493C27.175 81.4229 29.8469 85.5237 29.8829 89.797C29.8878 90.5438 29.7962 91.6652 29.3848 92.9211C30.8481 93.2248 32.5696 93.7757 34.2882 94.6516C33.866 91.7207 34.1995 89.2667 34.2237 89.1051C34.3739 88.0474 35.3303 87.3184 36.3428 87.4654C37.3607 87.6168 38.0643 88.5977 37.916 89.6538C37.9081 89.705 37.0627 95.865 39.5228 98.7458C40.8294 100.276 42.1341 102.815 42.5105 105.634C42.6519 106.691 41.939 107.672 40.9176 107.823C40.8496 107.832 40.7821 107.839 40.7151 107.841C39.7755 107.874 38.9458 107.169 38.8147 106.176C37.7111 97.9179 30.042 96.7714 27.3312 96.4709C26.1063 97.8471 24.3118 99.1579 21.6665 100.133C21.4793 100.204 21.2901 100.238 21.1028 100.245C20.312 100.273 19.5631 99.7752 19.2867 98.9603C18.9443 97.9538 19.4552 96.846 20.4288 96.4867C24.1409 95.1154 26.1728 92.7561 26.1492 89.8427C26.1295 87.2597 24.4335 84.6614 22.2888 83.9281C14.6183 81.3064 8.98911 77.0206 5.50714 71.179C1.00576 84.1823 10.7604 89.7028 16.9991 88.8884C18.0086 88.773 18.9532 89.5084 19.0778 90.5694C19.2 91.632 18.4708 92.5983 17.4474 92.7306C16.9404 92.7959 16.4458 92.8362 15.9624 92.8536C13.8127 92.9293 11.9064 92.5482 10.2638 91.9461C8.79549 99.1291 15.447 111.105 27.5982 106.18C29.1197 115.596 41.6838 119.951 48.9271 111.004C56.0531 102.202 51.1083 89.5721 44.4548 86.4807Z" fill="white"/>
<path d="M53.4326 26.9195C53.4464 27.4029 53.4952 27.8819 53.5691 28.3545C55.0167 26.2303 56.6254 24.453 57.6808 23.5107C58.1055 23.1329 58.5154 22.7741 58.9115 22.4268C62.8409 18.9859 64.8107 17.2597 64.4683 11.4752C64.4062 10.4447 65.162 9.55252 66.1563 9.48392C67.1738 9.40989 68.0074 10.1987 68.0675 11.2297C68.5238 18.895 65.4646 21.5749 61.2332 25.2826C60.8449 25.6239 60.4409 25.9767 60.0251 26.3474C58.4415 27.7584 56.4312 30.3076 55.1433 32.7573L55.1655 32.8014L54.791 33.6457C54.0648 35.2843 53.7218 37.0154 53.7736 38.7895C53.8214 40.4667 54.2205 42.0861 54.9605 43.6066L55.3231 44.3545L55.0275 45.1346C54.2456 47.1885 53.882 49.3469 53.946 51.556C53.9968 53.3268 54.3574 55.0628 54.9487 56.7112C56.2578 54.8668 57.9857 53.2833 60.0802 52.0693C63.0503 50.3431 66.5086 49.5358 69.0431 49.9016C72.7133 45.348 77.7202 42.7307 83.2641 42.4944C83.3104 42.4928 83.3582 42.4906 83.4041 42.489C86.5958 42.3774 92.8675 43.379 95.6484 47.52C96.8575 40.0399 94.4397 33.895 87.3866 32.3033C88.7564 26.147 85.233 20.4116 81.9565 18.4486C80.6134 22.7377 78.4514 25.0926 76.1361 26.9522C76.9797 28.2167 78.9929 31.5994 79.0367 35.2124C79.0475 36.2353 78.2666 37.0796 77.2866 37.1128C77.2758 37.1139 77.2644 37.1139 77.2536 37.115C76.2578 37.1319 75.4399 36.306 75.4276 35.2734C75.3985 32.7301 73.8342 30.103 73.1971 29.14C70.2759 31.2701 67.5699 33.5597 65.8459 39.3371C65.6109 40.121 64.926 40.6321 64.1766 40.6583C63.983 40.6659 63.7854 40.6419 63.5888 40.5772C62.6379 40.2761 62.1053 39.2298 62.4004 38.2413C64.6338 30.7595 68.474 27.9908 71.8638 25.5488C74.7418 23.4742 77.2398 21.6614 78.6223 16.9831L78.9007 15.4257C79.0687 14.4888 79.1402 13.5487 79.1136 12.6309C78.9076 5.42783 73.0892 -0.235776 66.146 0.00755656C59.2062 0.250889 53.7233 6.30971 53.9298 13.5128C53.9825 15.3381 54.3969 17.1029 55.164 18.7578L55.5897 19.6767L55.0738 20.5482C53.9352 22.4698 53.3686 24.674 53.4326 26.9195Z" fill="white"/>
<path d="M96.7211 73.1593C95.2424 75.1321 93.6545 76.7407 93.382 77.0101C93.046 77.3444 92.6193 77.5202 92.1896 77.5349C91.6969 77.5523 91.2003 77.3618 90.8332 76.9649C90.1449 76.2213 90.1685 75.0373 90.8879 74.3199C91.6555 73.5518 93.4229 71.6225 94.6389 69.788L94.6113 69.7515L95.2582 68.6377C96.7452 66.0776 97.4867 63.1554 97.402 60.1864C97.2877 56.1891 95.6972 52.4635 92.9312 49.6643C92.8075 49.5353 92.6917 49.4047 92.5606 49.2838L92.4271 49.1526C90.2134 47.1951 86.8945 46.1189 83.3968 46.2348C80.6046 46.3524 75.305 47.4025 71.183 53.1134L70.3696 54.237L69.1038 53.7455C67.973 53.31 64.9675 53.5103 61.8314 55.3323C59.6029 56.6246 56.9886 59.1244 55.9588 63.3536C54.3383 70.0057 58.9727 73.8795 60.613 75.1642C61.4102 75.7886 61.7846 76.806 61.2973 77.7058C60.9756 78.3041 60.3902 78.647 59.7783 78.6683C59.4664 78.6797 59.1467 78.6073 58.8525 78.438C57.4778 77.6525 55.6006 76.0297 54.155 73.6732C53.7239 75.1375 53.4953 76.6628 53.5396 78.2105C53.6254 81.1833 54.5975 84.0075 56.352 86.3749L56.8708 87.0782C58.377 88.9318 60.5021 90.7451 62.1536 92.1474C62.939 92.8153 63.6421 93.4141 64.1787 93.922C69.2107 98.6765 68.2268 104.48 67.0044 106.885C66.688 107.503 66.0869 107.865 65.4617 107.887C65.1577 107.898 64.8507 107.828 64.564 107.672C63.6894 107.194 63.3519 106.071 63.8096 105.159C64.0363 104.693 65.8578 100.583 61.7447 96.694C61.2456 96.2225 60.5918 95.6678 59.863 95.0494C58.6071 93.9825 57.1024 92.6945 55.7125 91.2802C55.642 91.8213 55.5991 92.364 55.6154 92.9177C55.6563 94.3564 55.9928 95.7446 56.6136 97.0434L57.0349 97.927L56.5678 98.7881C55.579 100.619 55.0887 102.686 55.1478 104.754C55.3296 111.099 60.4523 116.084 66.5668 115.87C70.8455 115.72 74.595 113.095 76.355 109.018L76.6659 108.295L77.3838 108.021C79.392 107.257 81.083 105.802 82.2212 103.954C80.6716 103.767 79.2132 103.237 77.9124 102.359C75.4671 100.708 73.9008 98.0309 73.617 95.0091C73.3578 92.2378 74.1314 89.1376 74.9744 86.7233C73.4298 87.2835 71.8432 87.572 70.3967 87.6226C68.854 87.677 67.4739 87.4675 66.4801 87.0488C65.5583 86.6629 65.1153 85.572 65.4913 84.6117C65.8687 83.6541 66.9191 83.1925 67.8439 83.5774C69.8576 84.4212 76.22 83.6629 78.4042 79.3983C80.6411 74.9862 81.2348 72.6889 80.3972 70.4723C79.5911 68.3367 78.0277 67.5686 76.8585 67.2997C74.7143 66.8108 72.2285 67.623 70.3883 69.4303C69.6615 70.144 68.5224 70.1135 67.839 69.365C67.1561 68.6149 67.1896 67.4298 67.9144 66.7178C70.1735 64.5027 73.147 63.3312 75.9958 63.4466C76.8467 59.9654 76.0869 56.6088 76.0791 56.5718C75.8431 55.5696 76.4383 54.5549 77.4059 54.3062C78.3628 54.065 79.3482 54.6703 79.5847 55.6731C79.628 55.8641 80.5504 59.942 79.5024 64.3106C81.4328 65.2605 82.939 66.929 83.7564 69.0923C85.4927 73.6933 83.4125 77.8996 79.8754 84.3771C79.8636 84.4016 76.8063 90.3439 77.2084 94.6297C77.3833 96.5149 78.3396 98.2247 79.8862 99.2155C89.8227 105.582 101.614 87.7543 96.7211 73.1593Z" fill="white"/>
</g>
<defs>
<filter id="filter0_dd_150_35361" x="7.78616" y="1.72803" width="290.225" height="122.889" filterUnits="userSpaceOnUse" color-interpolation-filters="sRGB">
<feFlood flood-opacity="0" result="BackgroundImageFix"/>
<feColorMatrix in="SourceAlpha" type="matrix" values="0 0 0 0 0 0 0 0 0 0 0 0 0 0 0 0 0 0 127 0" result="hardAlpha"/>
<feMorphology radius="2.54394" operator="erode" in="SourceAlpha" result="effect1_dropShadow_150_35361"/>
<feOffset dy="2.54394"/>
<feGaussianBlur stdDeviation="1.90795"/>
<feComposite in2="hardAlpha" operator="out"/>
<feColorMatrix type="matrix" values="0 0 0 0 0 0 0 0 0 0 0 0 0 0 0 0 0 0 0.1 0"/>
<feBlend mode="normal" in2="BackgroundImageFix" result="effect1_dropShadow_150_35361"/>
<feColorMatrix in="SourceAlpha" type="matrix" values="0 0 0 0 0 0 0 0 0 0 0 0 0 0 0 0 0 0 127 0" result="hardAlpha"/>
<feMorphology radius="1.90795" operator="erode" in="SourceAlpha" result="effect2_dropShadow_150_35361"/>
<feOffset dy="6.35984"/>
<feGaussianBlur stdDeviation="4.76988"/>
<feComposite in2="hardAlpha" operator="out"/>
<feColorMatrix type="matrix" values="0 0 0 0 0 0 0 0 0 0 0 0 0 0 0 0 0 0 0.1 0"/>
<feBlend mode="normal" in2="effect1_dropShadow_150_35361" result="effect2_dropShadow_150_35361"/>
<feBlend mode="normal" in="SourceGraphic" in2="effect2_dropShadow_150_35361" result="shape"/>
</filter>
<filter id="filter1_d_150_35361" x="0" y="0" width="101.864" height="123.894" filterUnits="userSpaceOnUse" color-interpolation-filters="sRGB">
<feFlood flood-opacity="0" result="BackgroundImageFix"/>
<feColorMatrix in="SourceAlpha" type="matrix" values="0 0 0 0 0 0 0 0 0 0 0 0 0 0 0 0 0 0 127 0" result="hardAlpha"/>
<feOffset dy="4"/>
<feGaussianBlur stdDeviation="2"/>
<feComposite in2="hardAlpha" operator="out"/>
<feColorMatrix type="matrix" values="0 0 0 0 0 0 0 0 0 0 0 0 0 0 0 0 0 0 0.25 0"/>
<feBlend mode="normal" in2="BackgroundImageFix" result="effect1_dropShadow_150_35361"/>
<feBlend mode="normal" in="SourceGraphic" in2="effect1_dropShadow_150_35361" result="shape"/>
</filter>
<linearGradient id="paint0_linear_150_35361" x1="276.785" y1="84.7242" x2="271.208" y2="103.577" gradientUnits="userSpaceOnUse">
<stop stop-color="#FFF8C3"/>
<stop offset="1" stop-color="#FFEE69"/>
</linearGradient>
<clipPath id="clip0_150_35361">
<rect x="15.418" y="3" width="274.961" height="107.625" rx="11.0574" fill="white"/>
</clipPath>
</defs>
</svg>
