<svg width="120" height="95" viewBox="0 0 120 95" fill="none" xmlns="http://www.w3.org/2000/svg">
<g opacity="0.5">
<path d="M113.545 47.3885C113.545 53.8944 108.415 59.2119 101.969 59.5001C101.665 59.5137 101.418 59.7591 101.418 60.0635V88.7159C101.418 89.0202 101.171 89.2669 100.867 89.2669H75.3258C75.0707 89.2669 74.8498 89.0912 74.7838 88.8448C73.0383 82.334 67.2106 77.461 60.2187 77.1537C59.9885 77.1432 59.7579 77.1432 59.5274 77.1432C59.2972 77.1432 59.0667 77.1432 58.8361 77.1537C51.8442 77.461 46.0165 82.3337 44.2711 88.8447C44.205 89.0912 43.9842 89.2669 43.7291 89.2669H18.1884C17.8841 89.2669 17.6374 89.0202 17.6374 88.7159V60.0635C17.6374 59.7591 17.3901 59.5137 17.0861 59.5001C10.64 59.2119 5.51025 53.8944 5.51025 47.3885C5.51025 40.8729 10.64 35.5647 17.0861 35.277C17.3901 35.2635 17.6374 35.0181 17.6374 34.7137V6.06128C17.6374 5.75696 17.8841 5.51025 18.1884 5.51025H43.7291C43.9842 5.51025 44.205 5.68602 44.2711 5.93242C46.0165 12.4434 51.8442 17.3161 58.8361 17.6237C59.0664 17.6237 59.2969 17.6342 59.5274 17.6342C59.7577 17.6342 59.9882 17.6237 60.2187 17.6237C67.2106 17.3161 73.0383 12.4437 74.7838 5.93243C74.8498 5.68602 75.0707 5.51025 75.3258 5.51025H100.867C101.171 5.51025 101.418 5.75696 101.418 6.06128V34.714C101.418 35.0183 101.665 35.2637 101.969 35.2773C108.415 35.565 113.545 40.8729 113.545 47.3885Z" fill="#F7BD02"/>
<path d="M113.545 47.3885C113.545 53.8944 108.415 59.2119 101.969 59.5001C101.665 59.5137 101.418 59.7591 101.418 60.0635V88.7159C101.418 89.0202 101.171 89.2669 100.867 89.2669H75.3258C75.0707 89.2669 74.8498 89.0912 74.7838 88.8448C73.0383 82.334 67.2106 77.461 60.2187 77.1537C59.9885 77.1432 59.7579 77.1432 59.5274 77.1432C59.2972 77.1432 59.0667 77.1432 58.8361 77.1537C51.8442 77.461 46.0165 82.3337 44.2711 88.8447C44.205 89.0912 43.9842 89.2669 43.7291 89.2669H18.1884C17.8841 89.2669 17.6374 89.0202 17.6374 88.7159V60.0635C17.6374 59.7591 17.3901 59.5137 17.0861 59.5001C10.64 59.2119 5.51025 53.8944 5.51025 47.3885C5.51025 40.8729 10.64 35.5647 17.0861 35.277C17.3901 35.2635 17.6374 35.0181 17.6374 34.7137V6.06128C17.6374 5.75696 17.8841 5.51025 18.1884 5.51025H43.7291C43.9842 5.51025 44.205 5.68602 44.2711 5.93242C46.0165 12.4434 51.8442 17.3161 58.8361 17.6237C59.0664 17.6237 59.2969 17.6342 59.5274 17.6342C59.7577 17.6342 59.9882 17.6237 60.2187 17.6237C67.2106 17.3161 73.0383 12.4437 74.7838 5.93243C74.8498 5.68602 75.0707 5.51025 75.3258 5.51025H100.867C101.171 5.51025 101.418 5.75696 101.418 6.06128V34.714C101.418 35.0183 101.665 35.2637 101.969 35.2773C108.415 35.565 113.545 40.8729 113.545 47.3885Z" fill="#FFFBF9"/>
<path d="M43.729 2.75537C45.2786 2.75537 46.5557 3.81513 46.9321 5.21924C48.3713 10.5873 53.1794 14.6063 58.9341 14.8696C59.0499 14.8706 59.1586 14.8726 59.2446 14.8745C59.365 14.8773 59.4492 14.8794 59.5278 14.8794C59.6062 14.8794 59.6899 14.8773 59.8101 14.8745C59.8959 14.8726 60.0041 14.8706 60.1196 14.8696C65.8749 14.6068 70.6833 10.5878 72.1226 5.21924C72.4989 3.81519 73.7761 2.75542 75.3257 2.75537H100.867C102.693 2.75537 104.173 4.23522 104.173 6.06104V32.7642C111.08 34.0554 116.3 40.1072 116.3 47.3882C116.3 54.6593 111.081 60.7191 104.173 62.0122V88.7163C104.173 90.5421 102.693 92.022 100.867 92.022H75.3257C73.7761 92.0219 72.499 90.9622 72.1226 89.5581C70.6815 84.1831 65.8628 80.1593 60.0981 79.9058H60.0933C59.9363 79.8986 59.7686 79.8979 59.5278 79.8979C59.2872 79.8979 59.1189 79.8986 58.9614 79.9058H58.9575C53.1926 80.1591 48.3731 84.1827 46.9321 89.5581C46.5557 90.9622 45.2787 92.022 43.729 92.022H18.188C16.3624 92.0218 14.8826 90.5419 14.8823 88.7163V62.0122C7.97485 60.7193 2.75537 54.6595 2.75537 47.3882C2.7555 40.1071 7.97576 34.0552 14.8823 32.7642V6.06104C14.8825 4.23533 16.3623 2.75559 18.188 2.75537H43.729Z" stroke="#FFFAF9" stroke-opacity="0.5" stroke-width="5.51031"/>
</g>
</svg>
