<svg width="318" height="147" viewBox="0 0 318 147" fill="none" xmlns="http://www.w3.org/2000/svg">
<g filter="url(#filter0_dd_150_35231)">
<g clip-path="url(#clip0_150_35231)">
<rect x="34.4834" y="-0.930298" width="274.997" height="119.564" fill="#B45FFB"/>
<path d="M126.82 38.1606C126.407 38.1606 126.087 38.0473 125.86 37.8206C125.647 37.5806 125.54 37.2539 125.54 36.8406V25.2006C125.54 24.7739 125.653 24.4539 125.88 24.2406C126.107 24.0139 126.427 23.9006 126.84 23.9006H131.66C133.207 23.9006 134.4 24.2873 135.24 25.0606C136.08 25.8339 136.5 26.9139 136.5 28.3006C136.5 29.6873 136.08 30.7739 135.24 31.5606C134.4 32.3339 133.207 32.7206 131.66 32.7206H128.1V36.8406C128.1 37.2539 127.993 37.5806 127.78 37.8206C127.567 38.0473 127.247 38.1606 126.82 38.1606ZM128.1 30.7006H131.26C132.167 30.7006 132.853 30.5006 133.32 30.1006C133.787 29.6873 134.02 29.0873 134.02 28.3006C134.02 27.5139 133.787 26.9206 133.32 26.5206C132.853 26.1206 132.167 25.9206 131.26 25.9206H128.1V30.7006ZM139.867 38.1606C139.454 38.1606 139.134 38.0473 138.907 37.8206C138.694 37.5806 138.587 37.2539 138.587 36.8406V25.2006C138.587 24.7739 138.7 24.4539 138.927 24.2406C139.154 24.0139 139.474 23.9006 139.887 23.9006H144.707C146.254 23.9006 147.447 24.2739 148.287 25.0206C149.127 25.7539 149.547 26.7873 149.547 28.1206C149.547 28.9873 149.354 29.7339 148.967 30.3606C148.594 30.9873 148.047 31.4673 147.327 31.8006C146.607 32.1339 145.734 32.3006 144.707 32.3006L144.887 32.0006H145.547C146.094 32.0006 146.567 32.1339 146.967 32.4006C147.38 32.6673 147.74 33.0873 148.047 33.6606L149.547 36.4406C149.707 36.7206 149.78 36.9939 149.767 37.2606C149.754 37.5273 149.654 37.7473 149.467 37.9206C149.28 38.0806 149.007 38.1606 148.647 38.1606C148.287 38.1606 147.994 38.0873 147.767 37.9406C147.54 37.7806 147.34 37.5406 147.167 37.2206L145.147 33.5006C144.907 33.0473 144.62 32.7473 144.287 32.6006C143.967 32.4406 143.554 32.3606 143.047 32.3606H141.147V36.8406C141.147 37.2539 141.04 37.5806 140.827 37.8206C140.614 38.0473 140.294 38.1606 139.867 38.1606ZM141.147 30.4606H144.267C145.187 30.4606 145.88 30.2739 146.347 29.9006C146.827 29.5139 147.067 28.9406 147.067 28.1806C147.067 27.4339 146.827 26.8739 146.347 26.5006C145.88 26.1139 145.187 25.9206 144.267 25.9206H141.147V30.4606ZM158.52 38.2006C157.16 38.2006 155.967 37.9006 154.94 37.3006C153.927 36.7006 153.14 35.8606 152.58 34.7806C152.02 33.6873 151.74 32.4073 151.74 30.9406C151.74 29.8339 151.9 28.8406 152.22 27.9606C152.54 27.0673 152.993 26.3073 153.58 25.6806C154.18 25.0406 154.893 24.5539 155.72 24.2206C156.56 23.8739 157.493 23.7006 158.52 23.7006C159.893 23.7006 161.087 24.0006 162.1 24.6006C163.113 25.1873 163.9 26.0206 164.46 27.1006C165.02 28.1806 165.3 29.4539 165.3 30.9206C165.3 32.0273 165.14 33.0273 164.82 33.9206C164.5 34.8139 164.04 35.5806 163.44 36.2206C162.853 36.8606 162.14 37.3539 161.3 37.7006C160.473 38.0339 159.547 38.2006 158.52 38.2006ZM158.52 36.0006C159.387 36.0006 160.12 35.8006 160.72 35.4006C161.333 35.0006 161.8 34.4206 162.12 33.6606C162.453 32.9006 162.62 31.9939 162.62 30.9406C162.62 29.3406 162.26 28.1006 161.54 27.2206C160.833 26.3406 159.827 25.9006 158.52 25.9006C157.667 25.9006 156.933 26.1006 156.32 26.5006C155.707 26.8873 155.233 27.4606 154.9 28.2206C154.58 28.9673 154.42 29.8739 154.42 30.9406C154.42 32.5273 154.78 33.7673 155.5 34.6606C156.22 35.5539 157.227 36.0006 158.52 36.0006ZM169.223 38.1606C168.81 38.1606 168.483 38.0473 168.243 37.8206C168.017 37.5806 167.903 37.2406 167.903 36.8006V25.2606C167.903 24.8206 168.017 24.4873 168.243 24.2606C168.483 24.0206 168.823 23.9006 169.263 23.9006H176.243C176.59 23.9006 176.85 23.9873 177.023 24.1606C177.197 24.3339 177.283 24.5806 177.283 24.9006C177.283 25.2339 177.197 25.4939 177.023 25.6806C176.85 25.8539 176.59 25.9406 176.243 25.9406H170.463V29.9206H175.823C176.157 29.9206 176.41 30.0073 176.583 30.1806C176.77 30.3539 176.863 30.6006 176.863 30.9206C176.863 31.2539 176.77 31.5139 176.583 31.7006C176.41 31.8739 176.157 31.9606 175.823 31.9606H170.463V36.8006C170.463 37.7073 170.05 38.1606 169.223 38.1606ZM180.414 38.1606C180 38.1606 179.68 38.0473 179.454 37.8206C179.24 37.5806 179.134 37.2539 179.134 36.8406V25.0606C179.134 24.6339 179.24 24.3073 179.454 24.0806C179.68 23.8539 180 23.7406 180.414 23.7406C180.827 23.7406 181.14 23.8539 181.354 24.0806C181.58 24.3073 181.694 24.6339 181.694 25.0606V36.8406C181.694 37.2539 181.587 37.5806 181.374 37.8206C181.16 38.0473 180.84 38.1606 180.414 38.1606ZM189.638 38.2006C189.052 38.2006 188.465 38.1539 187.878 38.0606C187.292 37.9806 186.738 37.8539 186.218 37.6806C185.698 37.4939 185.232 37.2673 184.818 37.0006C184.578 36.8406 184.412 36.6473 184.318 36.4206C184.225 36.1939 184.192 35.9739 184.218 35.7606C184.258 35.5339 184.345 35.3406 184.478 35.1806C184.625 35.0073 184.805 34.9006 185.018 34.8606C185.232 34.8206 185.465 34.8806 185.718 35.0406C186.305 35.3873 186.925 35.6406 187.578 35.8006C188.232 35.9606 188.918 36.0406 189.638 36.0406C190.692 36.0406 191.458 35.8673 191.938 35.5206C192.418 35.1606 192.658 34.7006 192.658 34.1406C192.658 33.6739 192.485 33.3073 192.138 33.0406C191.805 32.7739 191.225 32.5539 190.398 32.3806L188.198 31.9206C186.932 31.6539 185.985 31.2073 185.358 30.5806C184.745 29.9406 184.438 29.1006 184.438 28.0606C184.438 27.4073 184.572 26.8139 184.838 26.2806C185.105 25.7473 185.478 25.2873 185.958 24.9006C186.452 24.5139 187.032 24.2206 187.698 24.0206C188.378 23.8073 189.125 23.7006 189.938 23.7006C190.738 23.7006 191.498 23.8006 192.218 24.0006C192.938 24.2006 193.585 24.4939 194.158 24.8806C194.372 25.0273 194.512 25.2073 194.578 25.4206C194.658 25.6339 194.678 25.8473 194.638 26.0606C194.598 26.2606 194.505 26.4339 194.358 26.5806C194.212 26.7273 194.025 26.8139 193.798 26.8406C193.585 26.8673 193.338 26.8006 193.058 26.6406C192.565 26.3606 192.065 26.1606 191.558 26.0406C191.052 25.9206 190.505 25.8606 189.918 25.8606C189.305 25.8606 188.778 25.9473 188.338 26.1206C187.898 26.2939 187.558 26.5406 187.318 26.8606C187.092 27.1673 186.978 27.5339 186.978 27.9606C186.978 28.4406 187.138 28.8273 187.458 29.1206C187.778 29.4006 188.325 29.6206 189.098 29.7806L191.278 30.2406C192.598 30.5206 193.578 30.9606 194.218 31.5606C194.872 32.1606 195.198 32.9606 195.198 33.9606C195.198 34.6006 195.065 35.1806 194.798 35.7006C194.545 36.2206 194.172 36.6673 193.678 37.0406C193.198 37.4139 192.618 37.7006 191.938 37.9006C191.258 38.1006 190.492 38.2006 189.638 38.2006ZM202.255 38.2006C201.669 38.2006 201.082 38.1539 200.495 38.0606C199.909 37.9806 199.355 37.8539 198.835 37.6806C198.315 37.4939 197.849 37.2673 197.435 37.0006C197.195 36.8406 197.029 36.6473 196.935 36.4206C196.842 36.1939 196.809 35.9739 196.835 35.7606C196.875 35.5339 196.962 35.3406 197.095 35.1806C197.242 35.0073 197.422 34.9006 197.635 34.8606C197.849 34.8206 198.082 34.8806 198.335 35.0406C198.922 35.3873 199.542 35.6406 200.195 35.8006C200.849 35.9606 201.535 36.0406 202.255 36.0406C203.309 36.0406 204.075 35.8673 204.555 35.5206C205.035 35.1606 205.275 34.7006 205.275 34.1406C205.275 33.6739 205.102 33.3073 204.755 33.0406C204.422 32.7739 203.842 32.5539 203.015 32.3806L200.815 31.9206C199.549 31.6539 198.602 31.2073 197.975 30.5806C197.362 29.9406 197.055 29.1006 197.055 28.0606C197.055 27.4073 197.189 26.8139 197.455 26.2806C197.722 25.7473 198.095 25.2873 198.575 24.9006C199.069 24.5139 199.649 24.2206 200.315 24.0206C200.995 23.8073 201.742 23.7006 202.555 23.7006C203.355 23.7006 204.115 23.8006 204.835 24.0006C205.555 24.2006 206.202 24.4939 206.775 24.8806C206.989 25.0273 207.129 25.2073 207.195 25.4206C207.275 25.6339 207.295 25.8473 207.255 26.0606C207.215 26.2606 207.122 26.4339 206.975 26.5806C206.829 26.7273 206.642 26.8139 206.415 26.8406C206.202 26.8673 205.955 26.8006 205.675 26.6406C205.182 26.3606 204.682 26.1606 204.175 26.0406C203.669 25.9206 203.122 25.8606 202.535 25.8606C201.922 25.8606 201.395 25.9473 200.955 26.1206C200.515 26.2939 200.175 26.5406 199.935 26.8606C199.709 27.1673 199.595 27.5339 199.595 27.9606C199.595 28.4406 199.755 28.8273 200.075 29.1206C200.395 29.4006 200.942 29.6206 201.715 29.7806L203.895 30.2406C205.215 30.5206 206.195 30.9606 206.835 31.5606C207.489 32.1606 207.815 32.9606 207.815 33.9606C207.815 34.6006 207.682 35.1806 207.415 35.7006C207.162 36.2206 206.789 36.6673 206.295 37.0406C205.815 37.4139 205.235 37.7006 204.555 37.9006C203.875 38.1006 203.109 38.2006 202.255 38.2006ZM211.293 38.1606C210.879 38.1606 210.559 38.0473 210.333 37.8206C210.119 37.5806 210.013 37.2539 210.013 36.8406V25.0606C210.013 24.6339 210.119 24.3073 210.333 24.0806C210.559 23.8539 210.879 23.7406 211.293 23.7406C211.706 23.7406 212.019 23.8539 212.233 24.0806C212.459 24.3073 212.573 24.6339 212.573 25.0606V36.8406C212.573 37.2539 212.466 37.5806 212.253 37.8206C212.039 38.0473 211.719 38.1606 211.293 38.1606ZM221.977 38.2006C220.617 38.2006 219.424 37.9006 218.397 37.3006C217.384 36.7006 216.597 35.8606 216.037 34.7806C215.477 33.6873 215.197 32.4073 215.197 30.9406C215.197 29.8339 215.357 28.8406 215.677 27.9606C215.997 27.0673 216.451 26.3073 217.037 25.6806C217.637 25.0406 218.351 24.5539 219.177 24.2206C220.017 23.8739 220.951 23.7006 221.977 23.7006C223.351 23.7006 224.544 24.0006 225.557 24.6006C226.571 25.1873 227.357 26.0206 227.917 27.1006C228.477 28.1806 228.757 29.4539 228.757 30.9206C228.757 32.0273 228.597 33.0273 228.277 33.9206C227.957 34.8139 227.497 35.5806 226.897 36.2206C226.311 36.8606 225.597 37.3539 224.757 37.7006C223.931 38.0339 223.004 38.2006 221.977 38.2006ZM221.977 36.0006C222.844 36.0006 223.577 35.8006 224.177 35.4006C224.791 35.0006 225.257 34.4206 225.577 33.6606C225.911 32.9006 226.077 31.9939 226.077 30.9406C226.077 29.3406 225.717 28.1006 224.997 27.2206C224.291 26.3406 223.284 25.9006 221.977 25.9006C221.124 25.9006 220.391 26.1006 219.777 26.5006C219.164 26.8873 218.691 27.4606 218.357 28.2206C218.037 28.9673 217.877 29.8739 217.877 30.9406C217.877 32.5273 218.237 33.7673 218.957 34.6606C219.677 35.5539 220.684 36.0006 221.977 36.0006ZM232.56 38.1606C232.174 38.1606 231.874 38.0539 231.66 37.8406C231.46 37.6273 231.36 37.3206 231.36 36.9206V25.0206C231.36 24.6073 231.46 24.2939 231.66 24.0806C231.874 23.8539 232.147 23.7406 232.48 23.7406C232.787 23.7406 233.014 23.8006 233.16 23.9206C233.32 24.0273 233.507 24.2139 233.72 24.4806L241.38 34.4206H240.86V24.9606C240.86 24.5739 240.96 24.2739 241.16 24.0606C241.374 23.8473 241.674 23.7406 242.06 23.7406C242.447 23.7406 242.74 23.8473 242.94 24.0606C243.14 24.2739 243.24 24.5739 243.24 24.9606V36.9606C243.24 37.3339 243.147 37.6273 242.96 37.8406C242.774 38.0539 242.52 38.1606 242.2 38.1606C241.894 38.1606 241.647 38.1006 241.46 37.9806C241.287 37.8606 241.094 37.6673 240.88 37.4006L233.24 27.4606H233.74V36.9206C233.74 37.3206 233.64 37.6273 233.44 37.8406C233.24 38.0539 232.947 38.1606 232.56 38.1606ZM246.461 38.1606C246.141 38.1606 245.881 38.0873 245.681 37.9406C245.495 37.7939 245.381 37.6006 245.341 37.3606C245.301 37.1073 245.348 36.8273 245.481 36.5206L250.761 24.8206C250.935 24.4339 251.141 24.1606 251.381 24.0006C251.635 23.8273 251.921 23.7406 252.241 23.7406C252.548 23.7406 252.821 23.8273 253.061 24.0006C253.315 24.1606 253.528 24.4339 253.701 24.8206L259.001 36.5206C259.148 36.8273 259.201 37.1073 259.161 37.3606C259.121 37.6139 259.008 37.8139 258.821 37.9606C258.635 38.0939 258.388 38.1606 258.081 38.1606C257.708 38.1606 257.415 38.0739 257.201 37.9006C257.001 37.7139 256.821 37.4339 256.661 37.0606L255.361 34.0406L256.441 34.7406H248.001L249.081 34.0406L247.801 37.0606C247.628 37.4473 247.448 37.7273 247.261 37.9006C247.075 38.0739 246.808 38.1606 246.461 38.1606ZM252.201 26.6806L249.401 33.3406L248.881 32.7006H255.561L255.061 33.3406L252.241 26.6806H252.201ZM262.504 38.0006C262.091 38.0006 261.771 37.8873 261.544 37.6606C261.317 37.4206 261.204 37.0939 261.204 36.6806V25.1406C261.204 24.7139 261.311 24.3939 261.524 24.1806C261.751 23.9539 262.071 23.8406 262.484 23.8406C262.897 23.8406 263.211 23.9539 263.424 24.1806C263.651 24.3939 263.764 24.7139 263.764 25.1406V35.8206H269.564C269.924 35.8206 270.197 35.9139 270.384 36.1006C270.584 36.2873 270.684 36.5539 270.684 36.9006C270.684 37.2473 270.584 37.5206 270.384 37.7206C270.197 37.9073 269.924 38.0006 269.564 38.0006H262.504Z" fill="white"/>
<path d="M125.848 59.0006C125.643 59.0006 125.484 58.9493 125.372 58.8466C125.269 58.7346 125.218 58.5759 125.218 58.3706V49.7606C125.218 49.5553 125.269 49.4013 125.372 49.2986C125.484 49.1866 125.643 49.1306 125.848 49.1306H128.55C130.146 49.1306 131.378 49.5506 132.246 50.3906C133.114 51.2306 133.548 52.4533 133.548 54.0586C133.548 54.8613 133.436 55.5706 133.212 56.1866C132.997 56.7933 132.675 57.3066 132.246 57.7266C131.817 58.1466 131.294 58.4639 130.678 58.6786C130.062 58.8933 129.353 59.0006 128.55 59.0006H125.848ZM126.366 58.0206H128.466C129.119 58.0206 129.684 57.9366 130.16 57.7686C130.645 57.6006 131.047 57.3533 131.364 57.0266C131.691 56.6999 131.933 56.2893 132.092 55.7946C132.251 55.2906 132.33 54.7119 132.33 54.0586C132.33 52.7426 132.008 51.7579 131.364 51.1046C130.72 50.4419 129.754 50.1106 128.466 50.1106H126.366V58.0206ZM138.521 59.1266C137.802 59.1266 137.181 58.9866 136.659 58.7066C136.145 58.4173 135.744 58.0113 135.455 57.4886C135.175 56.9659 135.035 56.3406 135.035 55.6126C135.035 54.9033 135.175 54.2873 135.455 53.7646C135.735 53.2326 136.117 52.8173 136.603 52.5186C137.097 52.2199 137.667 52.0706 138.311 52.0706C138.768 52.0706 139.179 52.1499 139.543 52.3086C139.907 52.4579 140.215 52.6773 140.467 52.9666C140.728 53.2559 140.924 53.6059 141.055 54.0166C141.195 54.4273 141.265 54.8893 141.265 55.4026C141.265 55.5519 141.223 55.6639 141.139 55.7386C141.055 55.8039 140.933 55.8366 140.775 55.8366H135.903V55.0946H140.509L140.285 55.2766C140.285 54.7726 140.21 54.3479 140.061 54.0026C139.911 53.6479 139.692 53.3773 139.403 53.1906C139.123 53.0039 138.768 52.9106 138.339 52.9106C137.863 52.9106 137.457 53.0226 137.121 53.2466C136.794 53.4613 136.547 53.7646 136.379 54.1566C136.211 54.5393 136.127 54.9873 136.127 55.5006V55.5846C136.127 56.4433 136.332 57.0966 136.743 57.5446C137.163 57.9926 137.755 58.2166 138.521 58.2166C138.838 58.2166 139.151 58.1746 139.459 58.0906C139.776 58.0066 140.084 57.8666 140.383 57.6706C140.513 57.5866 140.63 57.5493 140.733 57.5586C140.845 57.5586 140.933 57.5913 140.999 57.6566C141.064 57.7126 141.106 57.7873 141.125 57.8806C141.153 57.9646 141.143 58.0579 141.097 58.1606C141.059 58.2633 140.98 58.3519 140.859 58.4266C140.551 58.6506 140.187 58.8233 139.767 58.9446C139.347 59.0659 138.931 59.1266 138.521 59.1266ZM145.202 59.1266C144.782 59.1266 144.357 59.0753 143.928 58.9726C143.508 58.8699 143.116 58.6926 142.752 58.4406C142.658 58.3753 142.593 58.3006 142.556 58.2166C142.518 58.1233 142.504 58.0346 142.514 57.9506C142.532 57.8573 142.57 57.7779 142.626 57.7126C142.691 57.6473 142.766 57.6099 142.85 57.6006C142.943 57.5819 143.046 57.6006 143.158 57.6566C143.522 57.8806 143.872 58.0393 144.208 58.1326C144.553 58.2166 144.894 58.2586 145.23 58.2586C145.762 58.2586 146.163 58.1606 146.434 57.9646C146.704 57.7686 146.84 57.5026 146.84 57.1666C146.84 56.9053 146.751 56.6999 146.574 56.5506C146.396 56.3919 146.116 56.2706 145.734 56.1866L144.46 55.9066C143.872 55.7853 143.433 55.5753 143.144 55.2766C142.864 54.9779 142.724 54.5906 142.724 54.1146C142.724 53.6946 142.831 53.3353 143.046 53.0366C143.27 52.7286 143.582 52.4906 143.984 52.3226C144.385 52.1546 144.852 52.0706 145.384 52.0706C145.794 52.0706 146.182 52.1266 146.546 52.2386C146.919 52.3413 147.255 52.5093 147.554 52.7426C147.647 52.8079 147.708 52.8873 147.736 52.9806C147.773 53.0646 147.778 53.1533 147.75 53.2466C147.731 53.3306 147.689 53.4053 147.624 53.4706C147.558 53.5266 147.479 53.5593 147.386 53.5686C147.292 53.5779 147.194 53.5499 147.092 53.4846C146.812 53.2979 146.527 53.1626 146.238 53.0786C145.948 52.9853 145.664 52.9386 145.384 52.9386C144.861 52.9386 144.464 53.0413 144.194 53.2466C143.923 53.4519 143.788 53.7226 143.788 54.0586C143.788 54.3199 143.872 54.5346 144.04 54.7026C144.208 54.8706 144.469 54.9919 144.824 55.0666L146.098 55.3326C146.704 55.4633 147.157 55.6733 147.456 55.9626C147.764 56.2426 147.918 56.6253 147.918 57.1106C147.918 57.7266 147.67 58.2166 147.176 58.5806C146.681 58.9446 146.023 59.1266 145.202 59.1266ZM152.712 59.1266C151.993 59.1266 151.373 58.9866 150.85 58.7066C150.337 58.4173 149.935 58.0113 149.646 57.4886C149.366 56.9659 149.226 56.3406 149.226 55.6126C149.226 54.9033 149.366 54.2873 149.646 53.7646C149.926 53.2326 150.309 52.8173 150.794 52.5186C151.289 52.2199 151.858 52.0706 152.502 52.0706C152.959 52.0706 153.37 52.1499 153.734 52.3086C154.098 52.4579 154.406 52.6773 154.658 52.9666C154.919 53.2559 155.115 53.6059 155.246 54.0166C155.386 54.4273 155.456 54.8893 155.456 55.4026C155.456 55.5519 155.414 55.6639 155.33 55.7386C155.246 55.8039 155.125 55.8366 154.966 55.8366H150.094V55.0946H154.7L154.476 55.2766C154.476 54.7726 154.401 54.3479 154.252 54.0026C154.103 53.6479 153.883 53.3773 153.594 53.1906C153.314 53.0039 152.959 52.9106 152.53 52.9106C152.054 52.9106 151.648 53.0226 151.312 53.2466C150.985 53.4613 150.738 53.7646 150.57 54.1566C150.402 54.5393 150.318 54.9873 150.318 55.5006V55.5846C150.318 56.4433 150.523 57.0966 150.934 57.5446C151.354 57.9926 151.947 58.2166 152.712 58.2166C153.029 58.2166 153.342 58.1746 153.65 58.0906C153.967 58.0066 154.275 57.8666 154.574 57.6706C154.705 57.5866 154.821 57.5493 154.924 57.5586C155.036 57.5586 155.125 57.5913 155.19 57.6566C155.255 57.7126 155.297 57.7873 155.316 57.8806C155.344 57.9646 155.335 58.0579 155.288 58.1606C155.251 58.2633 155.171 58.3519 155.05 58.4266C154.742 58.6506 154.378 58.8233 153.958 58.9446C153.538 59.0659 153.123 59.1266 152.712 59.1266ZM157.657 59.0986C157.471 59.0986 157.331 59.0473 157.237 58.9446C157.144 58.8419 157.097 58.6973 157.097 58.5106V52.6726C157.097 52.4859 157.144 52.3459 157.237 52.2526C157.331 52.1499 157.466 52.0986 157.643 52.0986C157.821 52.0986 157.956 52.1499 158.049 52.2526C158.152 52.3459 158.203 52.4859 158.203 52.6726V53.8766L158.049 53.7086C158.245 53.1673 158.563 52.7613 159.001 52.4906C159.449 52.2106 159.963 52.0706 160.541 52.0706C161.083 52.0706 161.531 52.1686 161.885 52.3646C162.249 52.5606 162.52 52.8593 162.697 53.2606C162.875 53.6526 162.963 54.1519 162.963 54.7586V58.5106C162.963 58.6973 162.912 58.8419 162.809 58.9446C162.716 59.0473 162.581 59.0986 162.403 59.0986C162.217 59.0986 162.072 59.0473 161.969 58.9446C161.876 58.8419 161.829 58.6973 161.829 58.5106V54.8286C161.829 54.1939 161.703 53.7319 161.451 53.4426C161.209 53.1439 160.817 52.9946 160.275 52.9946C159.65 52.9946 159.151 53.1906 158.777 53.5826C158.413 53.9653 158.231 54.4786 158.231 55.1226V58.5106C158.231 58.9026 158.04 59.0986 157.657 59.0986ZM167.52 59.0986C167.361 59.0986 167.221 59.0566 167.1 58.9726C166.979 58.8793 166.876 58.7393 166.792 58.5526L164.37 52.8966C164.305 52.7566 164.281 52.6259 164.3 52.5046C164.319 52.3833 164.375 52.2853 164.468 52.2106C164.561 52.1359 164.692 52.0986 164.86 52.0986C165.009 52.0986 165.126 52.1313 165.21 52.1966C165.294 52.2619 165.369 52.3786 165.434 52.5466L167.73 58.1606H167.352L169.69 52.5466C169.755 52.3786 169.83 52.2619 169.914 52.1966C169.998 52.1313 170.119 52.0986 170.278 52.0986C170.427 52.0986 170.539 52.1359 170.614 52.2106C170.698 52.2853 170.745 52.3833 170.754 52.5046C170.773 52.6166 170.754 52.7426 170.698 52.8826L168.248 58.5526C168.183 58.7393 168.085 58.8793 167.954 58.9726C167.833 59.0566 167.688 59.0986 167.52 59.0986ZM174.923 59.1266C174.261 59.1266 173.687 58.9819 173.201 58.6926C172.716 58.4033 172.338 57.9973 172.067 57.4746C171.806 56.9426 171.675 56.3173 171.675 55.5986C171.675 55.0573 171.75 54.5719 171.899 54.1426C172.049 53.7039 172.268 53.3306 172.557 53.0226C172.847 52.7146 173.187 52.4813 173.579 52.3226C173.981 52.1546 174.429 52.0706 174.923 52.0706C175.586 52.0706 176.16 52.2153 176.645 52.5046C177.131 52.7939 177.504 53.2046 177.765 53.7366C178.036 54.2593 178.171 54.8799 178.171 55.5986C178.171 56.1399 178.097 56.6253 177.947 57.0546C177.798 57.4839 177.579 57.8573 177.289 58.1746C177 58.4826 176.655 58.7206 176.253 58.8886C175.861 59.0473 175.418 59.1266 174.923 59.1266ZM174.923 58.2166C175.343 58.2166 175.712 58.1139 176.029 57.9086C176.347 57.7033 176.589 57.4046 176.757 57.0126C176.935 56.6206 177.023 56.1493 177.023 55.5986C177.023 54.7493 176.832 54.1006 176.449 53.6526C176.076 53.2046 175.567 52.9806 174.923 52.9806C174.494 52.9806 174.121 53.0833 173.803 53.2886C173.495 53.4846 173.253 53.7786 173.075 54.1706C172.907 54.5533 172.823 55.0293 172.823 55.5986C172.823 56.4386 173.015 57.0873 173.397 57.5446C173.78 57.9926 174.289 58.2166 174.923 58.2166ZM181.947 59.1266C181.275 59.1266 180.761 58.9213 180.407 58.5106C180.052 58.0999 179.875 57.5119 179.875 56.7466V49.6066C179.875 49.4199 179.921 49.2799 180.015 49.1866C180.108 49.0839 180.248 49.0326 180.435 49.0326C180.612 49.0326 180.752 49.0839 180.855 49.1866C180.957 49.2799 181.009 49.4199 181.009 49.6066V56.6626C181.009 57.1666 181.107 57.5446 181.303 57.7966C181.508 58.0393 181.807 58.1606 182.199 58.1606C182.283 58.1606 182.357 58.1559 182.423 58.1466C182.488 58.1373 182.553 58.1326 182.619 58.1326C182.721 58.1233 182.791 58.1466 182.829 58.2026C182.875 58.2586 182.899 58.3706 182.899 58.5386C182.899 58.7066 182.861 58.8326 182.787 58.9166C182.712 59.0006 182.591 59.0566 182.423 59.0846C182.348 59.0939 182.269 59.1033 182.185 59.1126C182.101 59.1219 182.021 59.1266 181.947 59.1266ZM186.401 59.0986C186.242 59.0986 186.102 59.0566 185.981 58.9726C185.859 58.8793 185.757 58.7393 185.673 58.5526L183.251 52.8966C183.185 52.7566 183.162 52.6259 183.181 52.5046C183.199 52.3833 183.255 52.2853 183.349 52.2106C183.442 52.1359 183.573 52.0986 183.741 52.0986C183.89 52.0986 184.007 52.1313 184.091 52.1966C184.175 52.2619 184.249 52.3786 184.315 52.5466L186.611 58.1606H186.233L188.571 52.5466C188.636 52.3786 188.711 52.2619 188.795 52.1966C188.879 52.1313 189 52.0986 189.159 52.0986C189.308 52.0986 189.42 52.1359 189.495 52.2106C189.579 52.2853 189.625 52.3833 189.635 52.5046C189.653 52.6166 189.635 52.7426 189.579 52.8826L187.129 58.5526C187.063 58.7393 186.965 58.8793 186.835 58.9726C186.713 59.0566 186.569 59.0986 186.401 59.0986ZM194.042 59.1266C193.323 59.1266 192.703 58.9866 192.18 58.7066C191.667 58.4173 191.265 58.0113 190.976 57.4886C190.696 56.9659 190.556 56.3406 190.556 55.6126C190.556 54.9033 190.696 54.2873 190.976 53.7646C191.256 53.2326 191.639 52.8173 192.124 52.5186C192.619 52.2199 193.188 52.0706 193.832 52.0706C194.289 52.0706 194.7 52.1499 195.064 52.3086C195.428 52.4579 195.736 52.6773 195.988 52.9666C196.249 53.2559 196.445 53.6059 196.576 54.0166C196.716 54.4273 196.786 54.8893 196.786 55.4026C196.786 55.5519 196.744 55.6639 196.66 55.7386C196.576 55.8039 196.455 55.8366 196.296 55.8366H191.424V55.0946H196.03L195.806 55.2766C195.806 54.7726 195.731 54.3479 195.582 54.0026C195.433 53.6479 195.213 53.3773 194.924 53.1906C194.644 53.0039 194.289 52.9106 193.86 52.9106C193.384 52.9106 192.978 53.0226 192.642 53.2466C192.315 53.4613 192.068 53.7646 191.9 54.1566C191.732 54.5393 191.648 54.9873 191.648 55.5006V55.5846C191.648 56.4433 191.853 57.0966 192.264 57.5446C192.684 57.9926 193.277 58.2166 194.042 58.2166C194.359 58.2166 194.672 58.1746 194.98 58.0906C195.297 58.0066 195.605 57.8666 195.904 57.6706C196.035 57.5866 196.151 57.5493 196.254 57.5586C196.366 57.5586 196.455 57.5913 196.52 57.6566C196.585 57.7126 196.627 57.7873 196.646 57.8806C196.674 57.9646 196.665 58.0579 196.618 58.1606C196.581 58.2633 196.501 58.3519 196.38 58.4266C196.072 58.6506 195.708 58.8233 195.288 58.9446C194.868 59.0659 194.453 59.1266 194.042 59.1266ZM199.015 59.0986C198.829 59.0986 198.689 59.0473 198.595 58.9446C198.502 58.8419 198.455 58.6973 198.455 58.5106V52.6726C198.455 52.4859 198.502 52.3459 198.595 52.2526C198.689 52.1499 198.824 52.0986 199.001 52.0986C199.179 52.0986 199.314 52.1499 199.407 52.2526C199.51 52.3459 199.561 52.4859 199.561 52.6726V53.9046L199.407 53.7086C199.585 53.1859 199.869 52.7846 200.261 52.5046C200.663 52.2153 201.139 52.0706 201.689 52.0706C202.268 52.0706 202.735 52.2106 203.089 52.4906C203.453 52.7613 203.696 53.1859 203.817 53.7646H203.607C203.775 53.2419 204.074 52.8313 204.503 52.5326C204.942 52.2246 205.451 52.0706 206.029 52.0706C206.543 52.0706 206.963 52.1686 207.289 52.3646C207.625 52.5606 207.877 52.8593 208.045 53.2606C208.213 53.6526 208.297 54.1519 208.297 54.7586V58.5106C208.297 58.6973 208.246 58.8419 208.143 58.9446C208.05 59.0473 207.91 59.0986 207.723 59.0986C207.546 59.0986 207.406 59.0473 207.303 58.9446C207.21 58.8419 207.163 58.6973 207.163 58.5106V54.8146C207.163 54.1893 207.056 53.7319 206.841 53.4426C206.627 53.1439 206.263 52.9946 205.749 52.9946C205.189 52.9946 204.746 53.1906 204.419 53.5826C204.102 53.9653 203.943 54.4879 203.943 55.1506V58.5106C203.943 58.6973 203.892 58.8419 203.789 58.9446C203.696 59.0473 203.556 59.0986 203.369 59.0986C203.192 59.0986 203.052 59.0473 202.949 58.9446C202.856 58.8419 202.809 58.6973 202.809 58.5106V54.8146C202.809 54.1893 202.697 53.7319 202.473 53.4426C202.259 53.1439 201.899 52.9946 201.395 52.9946C200.835 52.9946 200.392 53.1906 200.065 53.5826C199.748 53.9653 199.589 54.4879 199.589 55.1506V58.5106C199.589 58.9026 199.398 59.0986 199.015 59.0986ZM213.246 59.1266C212.583 59.1266 212.009 58.9819 211.524 58.6926C211.038 58.4033 210.66 57.9973 210.39 57.4746C210.128 56.9426 209.998 56.3173 209.998 55.5986C209.998 55.0573 210.072 54.5719 210.222 54.1426C210.371 53.7039 210.59 53.3306 210.88 53.0226C211.169 52.7146 211.51 52.4813 211.902 52.3226C212.303 52.1546 212.751 52.0706 213.246 52.0706C213.908 52.0706 214.482 52.2153 214.968 52.5046C215.453 52.7939 215.826 53.2046 216.088 53.7366C216.358 54.2593 216.494 54.8799 216.494 55.5986C216.494 56.1399 216.419 56.6253 216.27 57.0546C216.12 57.4839 215.901 57.8573 215.612 58.1746C215.322 58.4826 214.977 58.7206 214.576 58.8886C214.184 59.0473 213.74 59.1266 213.246 59.1266ZM213.246 58.2166C213.666 58.2166 214.034 58.1139 214.352 57.9086C214.669 57.7033 214.912 57.4046 215.08 57.0126C215.257 56.6206 215.346 56.1493 215.346 55.5986C215.346 54.7493 215.154 54.1006 214.772 53.6526C214.398 53.2046 213.89 52.9806 213.246 52.9806C212.816 52.9806 212.443 53.0833 212.126 53.2886C211.818 53.4846 211.575 53.7786 211.398 54.1706C211.23 54.5533 211.146 55.0293 211.146 55.5986C211.146 56.4386 211.337 57.0873 211.72 57.5446C212.102 57.9926 212.611 58.2166 213.246 58.2166ZM220.493 59.1266C220.073 59.1266 219.648 59.0753 219.219 58.9726C218.799 58.8699 218.407 58.6926 218.043 58.4406C217.949 58.3753 217.884 58.3006 217.847 58.2166C217.809 58.1233 217.795 58.0346 217.805 57.9506C217.823 57.8573 217.861 57.7779 217.917 57.7126C217.982 57.6473 218.057 57.6099 218.141 57.6006C218.234 57.5819 218.337 57.6006 218.449 57.6566C218.813 57.8806 219.163 58.0393 219.499 58.1326C219.844 58.2166 220.185 58.2586 220.521 58.2586C221.053 58.2586 221.454 58.1606 221.725 57.9646C221.995 57.7686 222.131 57.5026 222.131 57.1666C222.131 56.9053 222.042 56.6999 221.865 56.5506C221.687 56.3919 221.407 56.2706 221.025 56.1866L219.751 55.9066C219.163 55.7853 218.724 55.5753 218.435 55.2766C218.155 54.9779 218.015 54.5906 218.015 54.1146C218.015 53.6946 218.122 53.3353 218.337 53.0366C218.561 52.7286 218.873 52.4906 219.275 52.3226C219.676 52.1546 220.143 52.0706 220.675 52.0706C221.085 52.0706 221.473 52.1266 221.837 52.2386C222.21 52.3413 222.546 52.5093 222.845 52.7426C222.938 52.8079 222.999 52.8873 223.027 52.9806C223.064 53.0646 223.069 53.1533 223.041 53.2466C223.022 53.3306 222.98 53.4053 222.915 53.4706C222.849 53.5266 222.77 53.5593 222.677 53.5686C222.583 53.5779 222.485 53.5499 222.383 53.4846C222.103 53.2979 221.818 53.1626 221.529 53.0786C221.239 52.9853 220.955 52.9386 220.675 52.9386C220.152 52.9386 219.755 53.0413 219.485 53.2466C219.214 53.4519 219.079 53.7226 219.079 54.0586C219.079 54.3199 219.163 54.5346 219.331 54.7026C219.499 54.8706 219.76 54.9919 220.115 55.0666L221.389 55.3326C221.995 55.4633 222.448 55.6733 222.747 55.9626C223.055 56.2426 223.209 56.6253 223.209 57.1106C223.209 57.7266 222.961 58.2166 222.467 58.5806C221.972 58.9446 221.314 59.1266 220.493 59.1266ZM229.106 59.0986C228.92 59.0986 228.78 59.0473 228.686 58.9446C228.593 58.8419 228.546 58.6973 228.546 58.5106V49.6066C228.546 49.4199 228.593 49.2799 228.686 49.1866C228.78 49.0839 228.92 49.0326 229.106 49.0326C229.284 49.0326 229.424 49.0839 229.526 49.1866C229.629 49.2799 229.68 49.4199 229.68 49.6066V53.7086H229.498C229.694 53.1673 230.012 52.7613 230.45 52.4906C230.898 52.2106 231.412 52.0706 231.99 52.0706C232.532 52.0706 232.98 52.1686 233.334 52.3646C233.698 52.5606 233.969 52.8593 234.146 53.2606C234.324 53.6526 234.412 54.1519 234.412 54.7586V58.5106C234.412 58.6973 234.361 58.8419 234.258 58.9446C234.165 59.0473 234.03 59.0986 233.852 59.0986C233.666 59.0986 233.521 59.0473 233.418 58.9446C233.325 58.8419 233.278 58.6973 233.278 58.5106V54.8286C233.278 54.1939 233.152 53.7319 232.9 53.4426C232.658 53.1439 232.266 52.9946 231.724 52.9946C231.099 52.9946 230.6 53.1906 230.226 53.5826C229.862 53.9653 229.68 54.4786 229.68 55.1226V58.5106C229.68 58.9026 229.489 59.0986 229.106 59.0986ZM238.645 59.1266C238.179 59.1266 237.759 59.0379 237.385 58.8606C237.021 58.6739 236.732 58.4219 236.517 58.1046C236.303 57.7873 236.195 57.4326 236.195 57.0406C236.195 56.5366 236.321 56.1399 236.573 55.8506C236.835 55.5613 237.259 55.3559 237.847 55.2346C238.445 55.1133 239.257 55.0526 240.283 55.0526H240.913V55.7946H240.297C239.541 55.7946 238.944 55.8319 238.505 55.9066C238.076 55.9719 237.773 56.0886 237.595 56.2566C237.427 56.4246 237.343 56.6626 237.343 56.9706C237.343 57.3533 237.474 57.6659 237.735 57.9086C238.006 58.1513 238.37 58.2726 238.827 58.2726C239.201 58.2726 239.527 58.1839 239.807 58.0066C240.097 57.8293 240.321 57.5866 240.479 57.2786C240.647 56.9706 240.731 56.6159 240.731 56.2146V54.6186C240.731 54.0399 240.615 53.6246 240.381 53.3726C240.148 53.1113 239.765 52.9806 239.233 52.9806C238.907 52.9806 238.58 53.0226 238.253 53.1066C237.927 53.1906 237.581 53.3259 237.217 53.5126C237.087 53.5779 236.975 53.6013 236.881 53.5826C236.788 53.5546 236.713 53.5033 236.657 53.4286C236.601 53.3539 236.569 53.2699 236.559 53.1766C236.55 53.0739 236.569 52.9759 236.615 52.8826C236.671 52.7893 236.755 52.7146 236.867 52.6586C237.278 52.4533 237.684 52.3039 238.085 52.2106C238.487 52.1173 238.869 52.0706 239.233 52.0706C239.821 52.0706 240.307 52.1686 240.689 52.3646C241.072 52.5513 241.357 52.8406 241.543 53.2326C241.73 53.6153 241.823 54.1099 241.823 54.7166V58.5106C241.823 58.6973 241.777 58.8419 241.683 58.9446C241.599 59.0473 241.473 59.0986 241.305 59.0986C241.128 59.0986 240.993 59.0473 240.899 58.9446C240.806 58.8419 240.759 58.6973 240.759 58.5106V57.4186H240.885C240.811 57.7733 240.666 58.0766 240.451 58.3286C240.246 58.5806 239.989 58.7766 239.681 58.9166C239.373 59.0566 239.028 59.1266 238.645 59.1266ZM247.371 59.1266C246.755 59.1266 246.223 58.9679 245.775 58.6506C245.337 58.3333 245.043 57.9086 244.893 57.3766L245.047 57.2226V58.5106C245.047 58.6973 244.996 58.8419 244.893 58.9446C244.8 59.0473 244.665 59.0986 244.487 59.0986C244.301 59.0986 244.161 59.0473 244.067 58.9446C243.974 58.8419 243.927 58.6973 243.927 58.5106V49.6066C243.927 49.4199 243.974 49.2799 244.067 49.1866C244.161 49.0839 244.301 49.0326 244.487 49.0326C244.665 49.0326 244.805 49.0839 244.907 49.1866C245.01 49.2799 245.061 49.4199 245.061 49.6066V53.7786H244.893C245.052 53.2559 245.351 52.8406 245.789 52.5326C246.228 52.2246 246.755 52.0706 247.371 52.0706C247.987 52.0706 248.519 52.2153 248.967 52.5046C249.415 52.7846 249.761 53.1906 250.003 53.7226C250.255 54.2453 250.381 54.8706 250.381 55.5986C250.381 56.3173 250.255 56.9426 250.003 57.4746C249.761 57.9973 249.411 58.4033 248.953 58.6926C248.505 58.9819 247.978 59.1266 247.371 59.1266ZM247.133 58.2166C247.563 58.2166 247.931 58.1139 248.239 57.9086C248.557 57.7033 248.799 57.4046 248.967 57.0126C249.145 56.6206 249.233 56.1493 249.233 55.5986C249.233 54.7493 249.042 54.1006 248.659 53.6526C248.286 53.2046 247.777 52.9806 247.133 52.9806C246.713 52.9806 246.345 53.0833 246.027 53.2886C245.71 53.4846 245.463 53.7786 245.285 54.1706C245.117 54.5533 245.033 55.0293 245.033 55.5986C245.033 56.4386 245.225 57.0873 245.607 57.5446C245.99 57.9926 246.499 58.2166 247.133 58.2166ZM252.649 59.0706C252.463 59.0706 252.323 59.0193 252.229 58.9166C252.136 58.8046 252.089 58.6506 252.089 58.4546V52.7286C252.089 52.5326 252.136 52.3833 252.229 52.2806C252.323 52.1779 252.463 52.1266 252.649 52.1266C252.827 52.1266 252.967 52.1779 253.069 52.2806C253.172 52.3833 253.223 52.5326 253.223 52.7286V58.4546C253.223 58.6506 253.172 58.8046 253.069 58.9166C252.976 59.0193 252.836 59.0706 252.649 59.0706ZM252.649 50.5586C252.416 50.5586 252.234 50.4979 252.103 50.3766C251.973 50.2459 251.907 50.0733 251.907 49.8586C251.907 49.6346 251.973 49.4666 252.103 49.3546C252.234 49.2333 252.416 49.1726 252.649 49.1726C252.892 49.1726 253.074 49.2333 253.195 49.3546C253.326 49.4666 253.391 49.6346 253.391 49.8586C253.391 50.0733 253.326 50.2459 253.195 50.3766C253.074 50.4979 252.892 50.5586 252.649 50.5586ZM257.415 59.1266C256.743 59.1266 256.23 58.9213 255.875 58.5106C255.521 58.0999 255.343 57.5119 255.343 56.7466V49.6066C255.343 49.4199 255.39 49.2799 255.483 49.1866C255.577 49.0839 255.717 49.0326 255.903 49.0326C256.081 49.0326 256.221 49.0839 256.323 49.1866C256.426 49.2799 256.477 49.4199 256.477 49.6066V56.6626C256.477 57.1666 256.575 57.5446 256.771 57.7966C256.977 58.0393 257.275 58.1606 257.667 58.1606C257.751 58.1606 257.826 58.1559 257.891 58.1466C257.957 58.1373 258.022 58.1326 258.087 58.1326C258.19 58.1233 258.26 58.1466 258.297 58.2026C258.344 58.2586 258.367 58.3706 258.367 58.5386C258.367 58.7066 258.33 58.8326 258.255 58.9166C258.181 59.0006 258.059 59.0566 257.891 59.0846C257.817 59.0939 257.737 59.1033 257.653 59.1126C257.569 59.1219 257.49 59.1266 257.415 59.1266ZM260.046 59.0706C259.859 59.0706 259.719 59.0193 259.626 58.9166C259.533 58.8046 259.486 58.6506 259.486 58.4546V52.7286C259.486 52.5326 259.533 52.3833 259.626 52.2806C259.719 52.1779 259.859 52.1266 260.046 52.1266C260.223 52.1266 260.363 52.1779 260.466 52.2806C260.569 52.3833 260.62 52.5326 260.62 52.7286V58.4546C260.62 58.6506 260.569 58.8046 260.466 58.9166C260.373 59.0193 260.233 59.0706 260.046 59.0706ZM260.046 50.5586C259.813 50.5586 259.631 50.4979 259.5 50.3766C259.369 50.2459 259.304 50.0733 259.304 49.8586C259.304 49.6346 259.369 49.4666 259.5 49.3546C259.631 49.2333 259.813 49.1726 260.046 49.1726C260.289 49.1726 260.471 49.2333 260.592 49.3546C260.723 49.4666 260.788 49.6346 260.788 49.8586C260.788 50.0733 260.723 50.2459 260.592 50.3766C260.471 50.4979 260.289 50.5586 260.046 50.5586ZM265.33 59.1266C264.723 59.1266 264.191 58.9819 263.734 58.6926C263.286 58.4033 262.936 57.9973 262.684 57.4746C262.441 56.9426 262.32 56.3173 262.32 55.5986C262.32 54.8706 262.441 54.2453 262.684 53.7226C262.936 53.1906 263.286 52.7846 263.734 52.5046C264.191 52.2153 264.723 52.0706 265.33 52.0706C265.946 52.0706 266.473 52.2246 266.912 52.5326C267.35 52.8406 267.644 53.2559 267.794 53.7786H267.64V49.6066C267.64 49.4199 267.686 49.2799 267.78 49.1866C267.882 49.0839 268.027 49.0326 268.214 49.0326C268.391 49.0326 268.526 49.0839 268.62 49.1866C268.722 49.2799 268.774 49.4199 268.774 49.6066V58.5106C268.774 58.6973 268.727 58.8419 268.634 58.9446C268.54 59.0473 268.4 59.0986 268.214 59.0986C268.036 59.0986 267.896 59.0473 267.794 58.9446C267.7 58.8419 267.654 58.6973 267.654 58.5106V57.1806L267.808 57.3766C267.658 57.9086 267.36 58.3333 266.912 58.6506C266.473 58.9679 265.946 59.1266 265.33 59.1266ZM265.568 58.2166C265.988 58.2166 266.356 58.1139 266.674 57.9086C266.991 57.7033 267.234 57.4046 267.402 57.0126C267.579 56.6206 267.668 56.1493 267.668 55.5986C267.668 54.7493 267.476 54.1006 267.094 53.6526C266.72 53.2046 266.212 52.9806 265.568 52.9806C265.138 52.9806 264.765 53.0833 264.448 53.2886C264.14 53.4846 263.897 53.7786 263.72 54.1706C263.552 54.5533 263.468 55.0293 263.468 55.5986C263.468 56.4386 263.659 57.0873 264.042 57.5446C264.424 57.9926 264.933 58.2166 265.568 58.2166ZM273.044 59.1266C272.577 59.1266 272.157 59.0379 271.784 58.8606C271.42 58.6739 271.131 58.4219 270.916 58.1046C270.701 57.7873 270.594 57.4326 270.594 57.0406C270.594 56.5366 270.72 56.1399 270.972 55.8506C271.233 55.5613 271.658 55.3559 272.246 55.2346C272.843 55.1133 273.655 55.0526 274.682 55.0526H275.312V55.7946H274.696C273.94 55.7946 273.343 55.8319 272.904 55.9066C272.475 55.9719 272.171 56.0886 271.994 56.2566C271.826 56.4246 271.742 56.6626 271.742 56.9706C271.742 57.3533 271.873 57.6659 272.134 57.9086C272.405 58.1513 272.769 58.2726 273.226 58.2726C273.599 58.2726 273.926 58.1839 274.206 58.0066C274.495 57.8293 274.719 57.5866 274.878 57.2786C275.046 56.9706 275.13 56.6159 275.13 56.2146V54.6186C275.13 54.0399 275.013 53.6246 274.78 53.3726C274.547 53.1113 274.164 52.9806 273.632 52.9806C273.305 52.9806 272.979 53.0226 272.652 53.1066C272.325 53.1906 271.98 53.3259 271.616 53.5126C271.485 53.5779 271.373 53.6013 271.28 53.5826C271.187 53.5546 271.112 53.5033 271.056 53.4286C271 53.3539 270.967 53.2699 270.958 53.1766C270.949 53.0739 270.967 52.9759 271.014 52.8826C271.07 52.7893 271.154 52.7146 271.266 52.6586C271.677 52.4533 272.083 52.3039 272.484 52.2106C272.885 52.1173 273.268 52.0706 273.632 52.0706C274.22 52.0706 274.705 52.1686 275.088 52.3646C275.471 52.5513 275.755 52.8406 275.942 53.2326C276.129 53.6153 276.222 54.1099 276.222 54.7166V58.5106C276.222 58.6973 276.175 58.8419 276.082 58.9446C275.998 59.0473 275.872 59.0986 275.704 59.0986C275.527 59.0986 275.391 59.0473 275.298 58.9446C275.205 58.8419 275.158 58.6973 275.158 58.5106V57.4186H275.284C275.209 57.7733 275.065 58.0766 274.85 58.3286C274.645 58.5806 274.388 58.7766 274.08 58.9166C273.772 59.0566 273.427 59.1266 273.044 59.1266ZM280.916 59.1266C280.309 59.1266 279.777 58.9819 279.32 58.6926C278.872 58.4033 278.522 57.9973 278.27 57.4746C278.027 56.9426 277.906 56.3173 277.906 55.5986C277.906 54.8706 278.027 54.2453 278.27 53.7226C278.522 53.1906 278.872 52.7846 279.32 52.5046C279.777 52.2153 280.309 52.0706 280.916 52.0706C281.532 52.0706 282.059 52.2246 282.498 52.5326C282.936 52.8406 283.23 53.2559 283.38 53.7786H283.226V49.6066C283.226 49.4199 283.272 49.2799 283.366 49.1866C283.468 49.0839 283.613 49.0326 283.8 49.0326C283.977 49.0326 284.112 49.0839 284.206 49.1866C284.308 49.2799 284.36 49.4199 284.36 49.6066V58.5106C284.36 58.6973 284.313 58.8419 284.22 58.9446C284.126 59.0473 283.986 59.0986 283.8 59.0986C283.622 59.0986 283.482 59.0473 283.38 58.9446C283.286 58.8419 283.24 58.6973 283.24 58.5106V57.1806L283.394 57.3766C283.244 57.9086 282.946 58.3333 282.498 58.6506C282.059 58.9679 281.532 59.1266 280.916 59.1266ZM281.154 58.2166C281.574 58.2166 281.942 58.1139 282.26 57.9086C282.577 57.7033 282.82 57.4046 282.988 57.0126C283.165 56.6206 283.254 56.1493 283.254 55.5986C283.254 54.7493 283.062 54.1006 282.68 53.6526C282.306 53.2046 281.798 52.9806 281.154 52.9806C280.724 52.9806 280.351 53.0833 280.034 53.2886C279.726 53.4846 279.483 53.7786 279.306 54.1706C279.138 54.5533 279.054 55.0293 279.054 55.5986C279.054 56.4386 279.245 57.0873 279.628 57.5446C280.01 57.9926 280.519 58.2166 281.154 58.2166ZM286.824 55.7386C286.684 55.7386 286.567 55.6966 286.474 55.6126C286.38 55.5193 286.334 55.4073 286.334 55.2766C286.334 55.1366 286.38 55.0246 286.474 54.9406C286.567 54.8473 286.684 54.8006 286.824 54.8006H289.974C290.104 54.8006 290.216 54.8473 290.31 54.9406C290.403 55.0246 290.45 55.1366 290.45 55.2766C290.45 55.4073 290.403 55.5193 290.31 55.6126C290.216 55.6966 290.104 55.7386 289.974 55.7386H286.824ZM128.13 75.1266C127.411 75.1266 126.791 74.9866 126.268 74.7066C125.755 74.4173 125.353 74.0113 125.064 73.4886C124.784 72.9659 124.644 72.3406 124.644 71.6126C124.644 70.9033 124.784 70.2873 125.064 69.7646C125.344 69.2326 125.727 68.8173 126.212 68.5186C126.707 68.2199 127.276 68.0706 127.92 68.0706C128.377 68.0706 128.788 68.1499 129.152 68.3086C129.516 68.4579 129.824 68.6773 130.076 68.9666C130.337 69.2559 130.533 69.6059 130.664 70.0166C130.804 70.4273 130.874 70.8893 130.874 71.4026C130.874 71.5519 130.832 71.6639 130.748 71.7386C130.664 71.8039 130.543 71.8366 130.384 71.8366H125.512V71.0946H130.118L129.894 71.2766C129.894 70.7726 129.819 70.3479 129.67 70.0026C129.521 69.6479 129.301 69.3773 129.012 69.1906C128.732 69.0039 128.377 68.9106 127.948 68.9106C127.472 68.9106 127.066 69.0226 126.73 69.2466C126.403 69.4613 126.156 69.7646 125.988 70.1566C125.82 70.5393 125.736 70.9873 125.736 71.5006V71.5846C125.736 72.4433 125.941 73.0966 126.352 73.5446C126.772 73.9926 127.365 74.2166 128.13 74.2166C128.447 74.2166 128.76 74.1746 129.068 74.0906C129.385 74.0066 129.693 73.8666 129.992 73.6706C130.123 73.5866 130.239 73.5493 130.342 73.5586C130.454 73.5586 130.543 73.5913 130.608 73.6566C130.673 73.7126 130.715 73.7873 130.734 73.8806C130.762 73.9646 130.753 74.0579 130.706 74.1606C130.669 74.2633 130.589 74.3519 130.468 74.4266C130.16 74.6506 129.796 74.8233 129.376 74.9446C128.956 75.0659 128.541 75.1266 128.13 75.1266ZM134.811 75.1266C134.391 75.1266 133.967 75.0753 133.537 74.9726C133.117 74.8699 132.725 74.6926 132.361 74.4406C132.268 74.3753 132.203 74.3006 132.165 74.2166C132.128 74.1233 132.114 74.0346 132.123 73.9506C132.142 73.8573 132.179 73.7779 132.235 73.7126C132.301 73.6473 132.375 73.6099 132.459 73.6006C132.553 73.5819 132.655 73.6006 132.767 73.6566C133.131 73.8806 133.481 74.0393 133.817 74.1326C134.163 74.2166 134.503 74.2586 134.839 74.2586C135.371 74.2586 135.773 74.1606 136.043 73.9646C136.314 73.7686 136.449 73.5026 136.449 73.1666C136.449 72.9053 136.361 72.6999 136.183 72.5506C136.006 72.3919 135.726 72.2706 135.343 72.1866L134.069 71.9066C133.481 71.7853 133.043 71.5753 132.753 71.2766C132.473 70.9779 132.333 70.5906 132.333 70.1146C132.333 69.6946 132.441 69.3353 132.655 69.0366C132.879 68.7286 133.192 68.4906 133.593 68.3226C133.995 68.1546 134.461 68.0706 134.993 68.0706C135.404 68.0706 135.791 68.1266 136.155 68.2386C136.529 68.3413 136.865 68.5093 137.163 68.7426C137.257 68.8079 137.317 68.8873 137.345 68.9806C137.383 69.0646 137.387 69.1533 137.359 69.2466C137.341 69.3306 137.299 69.4053 137.233 69.4706C137.168 69.5266 137.089 69.5593 136.995 69.5686C136.902 69.5779 136.804 69.5499 136.701 69.4846C136.421 69.2979 136.137 69.1626 135.847 69.0786C135.558 68.9853 135.273 68.9386 134.993 68.9386C134.471 68.9386 134.074 69.0413 133.803 69.2466C133.533 69.4519 133.397 69.7226 133.397 70.0586C133.397 70.3199 133.481 70.5346 133.649 70.7026C133.817 70.8706 134.079 70.9919 134.433 71.0666L135.707 71.3326C136.314 71.4633 136.767 71.6733 137.065 71.9626C137.373 72.2426 137.527 72.6253 137.527 73.1106C137.527 73.7266 137.28 74.2166 136.785 74.5806C136.291 74.9446 135.633 75.1266 134.811 75.1266ZM143.425 77.6186C143.238 77.6186 143.098 77.5673 143.005 77.4646C142.911 77.3713 142.865 77.2313 142.865 77.0446V68.6726C142.865 68.4859 142.911 68.3459 143.005 68.2526C143.098 68.1499 143.233 68.0986 143.411 68.0986C143.597 68.0986 143.737 68.1499 143.831 68.2526C143.933 68.3459 143.985 68.4859 143.985 68.6726V70.0026L143.831 69.8066C143.98 69.2746 144.274 68.8546 144.713 68.5466C145.161 68.2293 145.693 68.0706 146.309 68.0706C146.915 68.0706 147.443 68.2153 147.891 68.5046C148.348 68.7846 148.698 69.1906 148.941 69.7226C149.193 70.2453 149.319 70.8706 149.319 71.5986C149.319 72.3173 149.193 72.9426 148.941 73.4746C148.698 73.9973 148.353 74.4033 147.905 74.6926C147.457 74.9819 146.925 75.1266 146.309 75.1266C145.693 75.1266 145.165 74.9726 144.727 74.6646C144.288 74.3473 143.989 73.9273 143.831 73.4046H143.999V77.0446C143.999 77.2313 143.947 77.3713 143.845 77.4646C143.742 77.5673 143.602 77.6186 143.425 77.6186ZM146.071 74.2166C146.5 74.2166 146.869 74.1139 147.177 73.9086C147.494 73.7033 147.737 73.4046 147.905 73.0126C148.082 72.6206 148.171 72.1493 148.171 71.5986C148.171 70.7493 147.979 70.1006 147.597 69.6526C147.223 69.2046 146.715 68.9806 146.071 68.9806C145.651 68.9806 145.282 69.0833 144.965 69.2886C144.647 69.4846 144.4 69.7786 144.223 70.1706C144.055 70.5533 143.971 71.0293 143.971 71.5986C143.971 72.4386 144.162 73.0873 144.545 73.5446C144.927 73.9926 145.436 74.2166 146.071 74.2166ZM153.169 75.1266C152.702 75.1266 152.282 75.0379 151.909 74.8606C151.545 74.6739 151.256 74.4219 151.041 74.1046C150.826 73.7873 150.719 73.4326 150.719 73.0406C150.719 72.5366 150.845 72.1399 151.097 71.8506C151.358 71.5613 151.783 71.3559 152.371 71.2346C152.968 71.1133 153.78 71.0526 154.807 71.0526H155.437V71.7946H154.821C154.065 71.7946 153.468 71.8319 153.029 71.9066C152.6 71.9719 152.296 72.0886 152.119 72.2566C151.951 72.4246 151.867 72.6626 151.867 72.9706C151.867 73.3533 151.998 73.6659 152.259 73.9086C152.53 74.1513 152.894 74.2726 153.351 74.2726C153.724 74.2726 154.051 74.1839 154.331 74.0066C154.62 73.8293 154.844 73.5866 155.003 73.2786C155.171 72.9706 155.255 72.6159 155.255 72.2146V70.6186C155.255 70.0399 155.138 69.6246 154.905 69.3726C154.672 69.1113 154.289 68.9806 153.757 68.9806C153.43 68.9806 153.104 69.0226 152.777 69.1066C152.45 69.1906 152.105 69.3259 151.741 69.5126C151.61 69.5779 151.498 69.6013 151.405 69.5826C151.312 69.5546 151.237 69.5033 151.181 69.4286C151.125 69.3539 151.092 69.2699 151.083 69.1766C151.074 69.0739 151.092 68.9759 151.139 68.8826C151.195 68.7893 151.279 68.7146 151.391 68.6586C151.802 68.4533 152.208 68.3039 152.609 68.2106C153.01 68.1173 153.393 68.0706 153.757 68.0706C154.345 68.0706 154.83 68.1686 155.213 68.3646C155.596 68.5513 155.88 68.8406 156.067 69.2326C156.254 69.6153 156.347 70.1099 156.347 70.7166V74.5106C156.347 74.6973 156.3 74.8419 156.207 74.9446C156.123 75.0473 155.997 75.0986 155.829 75.0986C155.652 75.0986 155.516 75.0473 155.423 74.9446C155.33 74.8419 155.283 74.6973 155.283 74.5106V73.4186H155.409C155.334 73.7733 155.19 74.0766 154.975 74.3286C154.77 74.5806 154.513 74.7766 154.205 74.9166C153.897 75.0566 153.552 75.1266 153.169 75.1266ZM159.025 75.0986C158.838 75.0986 158.693 75.0473 158.591 74.9446C158.497 74.8419 158.451 74.6973 158.451 74.5106V68.6726C158.451 68.4859 158.497 68.3459 158.591 68.2526C158.684 68.1499 158.819 68.0986 158.997 68.0986C159.174 68.0986 159.309 68.1499 159.403 68.2526C159.505 68.3459 159.557 68.4859 159.557 68.6726V69.8066H159.417C159.566 69.2559 159.851 68.8313 160.271 68.5326C160.691 68.2339 161.209 68.0753 161.825 68.0566C161.965 68.0473 162.077 68.0799 162.161 68.1546C162.245 68.2199 162.291 68.3366 162.301 68.5046C162.31 68.6633 162.273 68.7893 162.189 68.8826C162.105 68.9759 161.974 69.0319 161.797 69.0506L161.573 69.0786C160.938 69.1346 160.448 69.3399 160.103 69.6946C159.767 70.0399 159.599 70.5159 159.599 71.1226V74.5106C159.599 74.6973 159.547 74.8419 159.445 74.9446C159.351 75.0473 159.211 75.0986 159.025 75.0986ZM165.542 75.1266C165.075 75.1266 164.655 75.0379 164.282 74.8606C163.918 74.6739 163.629 74.4219 163.414 74.1046C163.199 73.7873 163.092 73.4326 163.092 73.0406C163.092 72.5366 163.218 72.1399 163.47 71.8506C163.731 71.5613 164.156 71.3559 164.744 71.2346C165.341 71.1133 166.153 71.0526 167.18 71.0526H167.81V71.7946H167.194C166.438 71.7946 165.841 71.8319 165.402 71.9066C164.973 71.9719 164.669 72.0886 164.492 72.2566C164.324 72.4246 164.24 72.6626 164.24 72.9706C164.24 73.3533 164.371 73.6659 164.632 73.9086C164.903 74.1513 165.267 74.2726 165.724 74.2726C166.097 74.2726 166.424 74.1839 166.704 74.0066C166.993 73.8293 167.217 73.5866 167.376 73.2786C167.544 72.9706 167.628 72.6159 167.628 72.2146V70.6186C167.628 70.0399 167.511 69.6246 167.278 69.3726C167.045 69.1113 166.662 68.9806 166.13 68.9806C165.803 68.9806 165.477 69.0226 165.15 69.1066C164.823 69.1906 164.478 69.3259 164.114 69.5126C163.983 69.5779 163.871 69.6013 163.778 69.5826C163.685 69.5546 163.61 69.5033 163.554 69.4286C163.498 69.3539 163.465 69.2699 163.456 69.1766C163.447 69.0739 163.465 68.9759 163.512 68.8826C163.568 68.7893 163.652 68.7146 163.764 68.6586C164.175 68.4533 164.581 68.3039 164.982 68.2106C165.383 68.1173 165.766 68.0706 166.13 68.0706C166.718 68.0706 167.203 68.1686 167.586 68.3646C167.969 68.5513 168.253 68.8406 168.44 69.2326C168.627 69.6153 168.72 70.1099 168.72 70.7166V74.5106C168.72 74.6973 168.673 74.8419 168.58 74.9446C168.496 75.0473 168.37 75.0986 168.202 75.0986C168.025 75.0986 167.889 75.0473 167.796 74.9446C167.703 74.8419 167.656 74.6973 167.656 74.5106V73.4186H167.782C167.707 73.7733 167.563 74.0766 167.348 74.3286C167.143 74.5806 166.886 74.7766 166.578 74.9166C166.27 75.0566 165.925 75.1266 165.542 75.1266ZM177.261 75.1266C176.598 75.1266 176.024 74.9819 175.539 74.6926C175.054 74.4033 174.676 73.9973 174.405 73.4746C174.144 72.9426 174.013 72.3173 174.013 71.5986C174.013 71.0573 174.088 70.5719 174.237 70.1426C174.386 69.7039 174.606 69.3306 174.895 69.0226C175.184 68.7146 175.525 68.4813 175.917 68.3226C176.318 68.1546 176.766 68.0706 177.261 68.0706C177.924 68.0706 178.498 68.2153 178.983 68.5046C179.468 68.7939 179.842 69.2046 180.103 69.7366C180.374 70.2593 180.509 70.8799 180.509 71.5986C180.509 72.1399 180.434 72.6253 180.285 73.0546C180.136 73.4839 179.916 73.8573 179.627 74.1746C179.338 74.4826 178.992 74.7206 178.591 74.8886C178.199 75.0473 177.756 75.1266 177.261 75.1266ZM177.261 74.2166C177.681 74.2166 178.05 74.1139 178.367 73.9086C178.684 73.7033 178.927 73.4046 179.095 73.0126C179.272 72.6206 179.361 72.1493 179.361 71.5986C179.361 70.7493 179.17 70.1006 178.787 69.6526C178.414 69.2046 177.905 68.9806 177.261 68.9806C176.832 68.9806 176.458 69.0833 176.141 69.2886C175.833 69.4846 175.59 69.7786 175.413 70.1706C175.245 70.5533 175.161 71.0293 175.161 71.5986C175.161 72.4386 175.352 73.0873 175.735 73.5446C176.118 73.9926 176.626 74.2166 177.261 74.2166ZM188.552 75.1266C188.02 75.1266 187.572 75.0333 187.208 74.8466C186.853 74.6506 186.587 74.3706 186.41 74.0066C186.232 73.6333 186.144 73.1806 186.144 72.6486V69.0786H185.206C185.047 69.0786 184.926 69.0413 184.842 68.9666C184.758 68.8826 184.716 68.7706 184.716 68.6306C184.716 68.4906 184.758 68.3833 184.842 68.3086C184.926 68.2339 185.047 68.1966 185.206 68.1966H186.144V66.5866C186.144 66.3999 186.195 66.2599 186.298 66.1666C186.4 66.0639 186.54 66.0126 186.718 66.0126C186.895 66.0126 187.03 66.0639 187.124 66.1666C187.226 66.2599 187.278 66.3999 187.278 66.5866V68.1966H189.042C189.2 68.1966 189.322 68.2339 189.406 68.3086C189.49 68.3833 189.532 68.4906 189.532 68.6306C189.532 68.7706 189.49 68.8826 189.406 68.9666C189.322 69.0413 189.2 69.0786 189.042 69.0786H187.278V72.5366C187.278 73.0686 187.39 73.4746 187.614 73.7546C187.838 74.0253 188.202 74.1606 188.706 74.1606C188.883 74.1606 189.032 74.1419 189.154 74.1046C189.284 74.0673 189.392 74.0486 189.476 74.0486C189.56 74.0393 189.63 74.0673 189.686 74.1326C189.742 74.1979 189.77 74.3099 189.77 74.4686C189.77 74.5806 189.746 74.6833 189.7 74.7766C189.662 74.8699 189.592 74.9353 189.49 74.9726C189.378 75.0099 189.228 75.0426 189.042 75.0706C188.864 75.1079 188.701 75.1266 188.552 75.1266ZM191.29 75.0986C191.104 75.0986 190.959 75.0473 190.856 74.9446C190.763 74.8419 190.716 74.6973 190.716 74.5106V68.6726C190.716 68.4859 190.763 68.3459 190.856 68.2526C190.95 68.1499 191.085 68.0986 191.262 68.0986C191.44 68.0986 191.575 68.1499 191.668 68.2526C191.771 68.3459 191.822 68.4859 191.822 68.6726V69.8066H191.682C191.832 69.2559 192.116 68.8313 192.536 68.5326C192.956 68.2339 193.474 68.0753 194.09 68.0566C194.23 68.0473 194.342 68.0799 194.426 68.1546C194.51 68.2199 194.557 68.3366 194.566 68.5046C194.576 68.6633 194.538 68.7893 194.454 68.8826C194.37 68.9759 194.24 69.0319 194.062 69.0506L193.838 69.0786C193.204 69.1346 192.714 69.3399 192.368 69.6946C192.032 70.0399 191.864 70.5159 191.864 71.1226V74.5106C191.864 74.6973 191.813 74.8419 191.71 74.9446C191.617 75.0473 191.477 75.0986 191.29 75.0986ZM197.808 75.1266C197.341 75.1266 196.921 75.0379 196.548 74.8606C196.184 74.6739 195.894 74.4219 195.68 74.1046C195.465 73.7873 195.358 73.4326 195.358 73.0406C195.358 72.5366 195.484 72.1399 195.736 71.8506C195.997 71.5613 196.422 71.3559 197.01 71.2346C197.607 71.1133 198.419 71.0526 199.446 71.0526H200.076V71.7946H199.46C198.704 71.7946 198.106 71.8319 197.668 71.9066C197.238 71.9719 196.935 72.0886 196.758 72.2566C196.59 72.4246 196.506 72.6626 196.506 72.9706C196.506 73.3533 196.636 73.6659 196.898 73.9086C197.168 74.1513 197.532 74.2726 197.99 74.2726C198.363 74.2726 198.69 74.1839 198.97 74.0066C199.259 73.8293 199.483 73.5866 199.642 73.2786C199.81 72.9706 199.894 72.6159 199.894 72.2146V70.6186C199.894 70.0399 199.777 69.6246 199.544 69.3726C199.31 69.1113 198.928 68.9806 198.396 68.9806C198.069 68.9806 197.742 69.0226 197.416 69.1066C197.089 69.1906 196.744 69.3259 196.38 69.5126C196.249 69.5779 196.137 69.6013 196.044 69.5826C195.95 69.5546 195.876 69.5033 195.82 69.4286C195.764 69.3539 195.731 69.2699 195.722 69.1766C195.712 69.0739 195.731 68.9759 195.778 68.8826C195.834 68.7893 195.918 68.7146 196.03 68.6586C196.44 68.4533 196.846 68.3039 197.248 68.2106C197.649 68.1173 198.032 68.0706 198.396 68.0706C198.984 68.0706 199.469 68.1686 199.852 68.3646C200.234 68.5513 200.519 68.8406 200.706 69.2326C200.892 69.6153 200.986 70.1099 200.986 70.7166V74.5106C200.986 74.6973 200.939 74.8419 200.846 74.9446C200.762 75.0473 200.636 75.0986 200.468 75.0986C200.29 75.0986 200.155 75.0473 200.062 74.9446C199.968 74.8419 199.922 74.6973 199.922 74.5106V73.4186H200.048C199.973 73.7733 199.828 74.0766 199.614 74.3286C199.408 74.5806 199.152 74.7766 198.844 74.9166C198.536 75.0566 198.19 75.1266 197.808 75.1266ZM206.533 75.1266C205.917 75.1266 205.385 74.9679 204.937 74.6506C204.499 74.3333 204.205 73.9086 204.055 73.3766L204.209 73.2226V74.5106C204.209 74.6973 204.158 74.8419 204.055 74.9446C203.962 75.0473 203.827 75.0986 203.649 75.0986C203.463 75.0986 203.323 75.0473 203.229 74.9446C203.136 74.8419 203.089 74.6973 203.089 74.5106V65.6066C203.089 65.4199 203.136 65.2799 203.229 65.1866C203.323 65.0839 203.463 65.0326 203.649 65.0326C203.827 65.0326 203.967 65.0839 204.069 65.1866C204.172 65.2799 204.223 65.4199 204.223 65.6066V69.7786H204.055C204.214 69.2559 204.513 68.8406 204.951 68.5326C205.39 68.2246 205.917 68.0706 206.533 68.0706C207.149 68.0706 207.681 68.2153 208.129 68.5046C208.577 68.7846 208.923 69.1906 209.165 69.7226C209.417 70.2453 209.543 70.8706 209.543 71.5986C209.543 72.3173 209.417 72.9426 209.165 73.4746C208.923 73.9973 208.573 74.4033 208.115 74.6926C207.667 74.9819 207.14 75.1266 206.533 75.1266ZM206.295 74.2166C206.725 74.2166 207.093 74.1139 207.401 73.9086C207.719 73.7033 207.961 73.4046 208.129 73.0126C208.307 72.6206 208.395 72.1493 208.395 71.5986C208.395 70.7493 208.204 70.1006 207.821 69.6526C207.448 69.2046 206.939 68.9806 206.295 68.9806C205.875 68.9806 205.507 69.0833 205.189 69.2886C204.872 69.4846 204.625 69.7786 204.447 70.1706C204.279 70.5533 204.195 71.0293 204.195 71.5986C204.195 72.4386 204.387 73.0873 204.769 73.5446C205.152 73.9926 205.661 74.2166 206.295 74.2166ZM213.394 75.1266C212.927 75.1266 212.507 75.0379 212.134 74.8606C211.77 74.6739 211.48 74.4219 211.266 74.1046C211.051 73.7873 210.944 73.4326 210.944 73.0406C210.944 72.5366 211.07 72.1399 211.322 71.8506C211.583 71.5613 212.008 71.3559 212.596 71.2346C213.193 71.1133 214.005 71.0526 215.032 71.0526H215.662V71.7946H215.046C214.29 71.7946 213.692 71.8319 213.254 71.9066C212.824 71.9719 212.521 72.0886 212.344 72.2566C212.176 72.4246 212.092 72.6626 212.092 72.9706C212.092 73.3533 212.222 73.6659 212.484 73.9086C212.754 74.1513 213.118 74.2726 213.576 74.2726C213.949 74.2726 214.276 74.1839 214.556 74.0066C214.845 73.8293 215.069 73.5866 215.228 73.2786C215.396 72.9706 215.48 72.6159 215.48 72.2146V70.6186C215.48 70.0399 215.363 69.6246 215.13 69.3726C214.896 69.1113 214.514 68.9806 213.982 68.9806C213.655 68.9806 213.328 69.0226 213.002 69.1066C212.675 69.1906 212.33 69.3259 211.966 69.5126C211.835 69.5779 211.723 69.6013 211.63 69.5826C211.536 69.5546 211.462 69.5033 211.406 69.4286C211.35 69.3539 211.317 69.2699 211.308 69.1766C211.298 69.0739 211.317 68.9759 211.364 68.8826C211.42 68.7893 211.504 68.7146 211.616 68.6586C212.026 68.4533 212.432 68.3039 212.834 68.2106C213.235 68.1173 213.618 68.0706 213.982 68.0706C214.57 68.0706 215.055 68.1686 215.438 68.3646C215.82 68.5513 216.105 68.8406 216.292 69.2326C216.478 69.6153 216.572 70.1099 216.572 70.7166V74.5106C216.572 74.6973 216.525 74.8419 216.432 74.9446C216.348 75.0473 216.222 75.0986 216.054 75.0986C215.876 75.0986 215.741 75.0473 215.648 74.9446C215.554 74.8419 215.508 74.6973 215.508 74.5106V73.4186H215.634C215.559 73.7733 215.414 74.0766 215.2 74.3286C214.994 74.5806 214.738 74.7766 214.43 74.9166C214.122 75.0566 213.776 75.1266 213.394 75.1266ZM220.747 75.1266C220.075 75.1266 219.562 74.9213 219.207 74.5106C218.853 74.0999 218.675 73.5119 218.675 72.7466V65.6066C218.675 65.4199 218.722 65.2799 218.815 65.1866C218.909 65.0839 219.049 65.0326 219.235 65.0326C219.413 65.0326 219.553 65.0839 219.655 65.1866C219.758 65.2799 219.809 65.4199 219.809 65.6066V72.6626C219.809 73.1666 219.907 73.5446 220.103 73.7966C220.309 74.0393 220.607 74.1606 220.999 74.1606C221.083 74.1606 221.158 74.1559 221.223 74.1466C221.289 74.1373 221.354 74.1326 221.419 74.1326C221.522 74.1233 221.592 74.1466 221.629 74.2026C221.676 74.2586 221.699 74.3706 221.699 74.5386C221.699 74.7066 221.662 74.8326 221.587 74.9166C221.513 75.0006 221.391 75.0566 221.223 75.0846C221.149 75.0939 221.069 75.1033 220.985 75.1126C220.901 75.1219 220.822 75.1266 220.747 75.1266ZM223.378 75.0986C223.191 75.0986 223.051 75.0473 222.958 74.9446C222.865 74.8419 222.818 74.6973 222.818 74.5106V65.6066C222.818 65.4199 222.865 65.2799 222.958 65.1866C223.051 65.0839 223.191 65.0326 223.378 65.0326C223.555 65.0326 223.695 65.0839 223.798 65.1866C223.901 65.2799 223.952 65.4199 223.952 65.6066V69.7086H223.77C223.966 69.1673 224.283 68.7613 224.722 68.4906C225.17 68.2106 225.683 68.0706 226.262 68.0706C226.803 68.0706 227.251 68.1686 227.606 68.3646C227.97 68.5606 228.241 68.8593 228.418 69.2606C228.595 69.6526 228.684 70.1519 228.684 70.7586V74.5106C228.684 74.6973 228.633 74.8419 228.53 74.9446C228.437 75.0473 228.301 75.0986 228.124 75.0986C227.937 75.0986 227.793 75.0473 227.69 74.9446C227.597 74.8419 227.55 74.6973 227.55 74.5106V70.8286C227.55 70.1939 227.424 69.7319 227.172 69.4426C226.929 69.1439 226.537 68.9946 225.996 68.9946C225.371 68.9946 224.871 69.1906 224.498 69.5826C224.134 69.9653 223.952 70.4786 223.952 71.1226V74.5106C223.952 74.9026 223.761 75.0986 223.378 75.0986ZM233.603 75.1266C232.94 75.1266 232.366 74.9819 231.881 74.6926C231.396 74.4033 231.018 73.9973 230.747 73.4746C230.486 72.9426 230.355 72.3173 230.355 71.5986C230.355 71.0573 230.43 70.5719 230.579 70.1426C230.728 69.7039 230.948 69.3306 231.237 69.0226C231.526 68.7146 231.867 68.4813 232.259 68.3226C232.66 68.1546 233.108 68.0706 233.603 68.0706C234.266 68.0706 234.84 68.2153 235.325 68.5046C235.81 68.7939 236.184 69.2046 236.445 69.7366C236.716 70.2593 236.851 70.8799 236.851 71.5986C236.851 72.1399 236.776 72.6253 236.627 73.0546C236.478 73.4839 236.258 73.8573 235.969 74.1746C235.68 74.4826 235.334 74.7206 234.933 74.8886C234.541 75.0473 234.098 75.1266 233.603 75.1266ZM233.603 74.2166C234.023 74.2166 234.392 74.1139 234.709 73.9086C235.026 73.7033 235.269 73.4046 235.437 73.0126C235.614 72.6206 235.703 72.1493 235.703 71.5986C235.703 70.7493 235.512 70.1006 235.129 69.6526C234.756 69.2046 234.247 68.9806 233.603 68.9806C233.174 68.9806 232.8 69.0833 232.483 69.2886C232.175 69.4846 231.932 69.7786 231.755 70.1706C231.587 70.5533 231.503 71.0293 231.503 71.5986C231.503 72.4386 231.694 73.0873 232.077 73.5446C232.46 73.9926 232.968 74.2166 233.603 74.2166ZM245.23 75.1266C244.511 75.1266 243.89 74.9866 243.368 74.7066C242.854 74.4173 242.453 74.0113 242.164 73.4886C241.884 72.9659 241.744 72.3406 241.744 71.6126C241.744 70.9033 241.884 70.2873 242.164 69.7646C242.444 69.2326 242.826 68.8173 243.312 68.5186C243.806 68.2199 244.376 68.0706 245.02 68.0706C245.477 68.0706 245.888 68.1499 246.252 68.3086C246.616 68.4579 246.924 68.6773 247.176 68.9666C247.437 69.2559 247.633 69.6059 247.764 70.0166C247.904 70.4273 247.974 70.8893 247.974 71.4026C247.974 71.5519 247.932 71.6639 247.848 71.7386C247.764 71.8039 247.642 71.8366 247.484 71.8366H242.612V71.0946H247.218L246.994 71.2766C246.994 70.7726 246.919 70.3479 246.77 70.0026C246.62 69.6479 246.401 69.3773 246.112 69.1906C245.832 69.0039 245.477 68.9106 245.048 68.9106C244.572 68.9106 244.166 69.0226 243.83 69.2466C243.503 69.4613 243.256 69.7646 243.088 70.1566C242.92 70.5393 242.836 70.9873 242.836 71.5006V71.5846C242.836 72.4433 243.041 73.0966 243.452 73.5446C243.872 73.9926 244.464 74.2166 245.23 74.2166C245.547 74.2166 245.86 74.1746 246.168 74.0906C246.485 74.0066 246.793 73.8666 247.092 73.6706C247.222 73.5866 247.339 73.5493 247.442 73.5586C247.554 73.5586 247.642 73.5913 247.708 73.6566C247.773 73.7126 247.815 73.7873 247.834 73.8806C247.862 73.9646 247.852 74.0579 247.806 74.1606C247.768 74.2633 247.689 74.3519 247.568 74.4266C247.26 74.6506 246.896 74.8233 246.476 74.9446C246.056 75.0659 245.64 75.1266 245.23 75.1266ZM256.052 75.1266C255.389 75.1266 254.815 74.9819 254.33 74.6926C253.845 74.4033 253.467 73.9973 253.196 73.4746C252.935 72.9426 252.804 72.3173 252.804 71.5986C252.804 71.0573 252.879 70.5719 253.028 70.1426C253.177 69.7039 253.397 69.3306 253.686 69.0226C253.975 68.7146 254.316 68.4813 254.708 68.3226C255.109 68.1546 255.557 68.0706 256.052 68.0706C256.715 68.0706 257.289 68.2153 257.774 68.5046C258.259 68.7939 258.633 69.2046 258.894 69.7366C259.165 70.2593 259.3 70.8799 259.3 71.5986C259.3 72.1399 259.225 72.6253 259.076 73.0546C258.927 73.4839 258.707 73.8573 258.418 74.1746C258.129 74.4826 257.783 74.7206 257.382 74.8886C256.99 75.0473 256.547 75.1266 256.052 75.1266ZM256.052 74.2166C256.472 74.2166 256.841 74.1139 257.158 73.9086C257.475 73.7033 257.718 73.4046 257.886 73.0126C258.063 72.6206 258.152 72.1493 258.152 71.5986C258.152 70.7493 257.961 70.1006 257.578 69.6526C257.205 69.2046 256.696 68.9806 256.052 68.9806C255.623 68.9806 255.249 69.0833 254.932 69.2886C254.624 69.4846 254.381 69.7786 254.204 70.1706C254.036 70.5533 253.952 71.0293 253.952 71.5986C253.952 72.4386 254.143 73.0873 254.526 73.5446C254.909 73.9926 255.417 74.2166 256.052 74.2166ZM265.173 77.6186C264.986 77.6186 264.846 77.5673 264.753 77.4646C264.659 77.3713 264.613 77.2313 264.613 77.0446V68.6726C264.613 68.4859 264.659 68.3459 264.753 68.2526C264.846 68.1499 264.981 68.0986 265.159 68.0986C265.345 68.0986 265.485 68.1499 265.579 68.2526C265.681 68.3459 265.733 68.4859 265.733 68.6726V70.0026L265.579 69.8066C265.728 69.2746 266.022 68.8546 266.461 68.5466C266.909 68.2293 267.441 68.0706 268.057 68.0706C268.663 68.0706 269.191 68.2153 269.639 68.5046C270.096 68.7846 270.446 69.1906 270.689 69.7226C270.941 70.2453 271.067 70.8706 271.067 71.5986C271.067 72.3173 270.941 72.9426 270.689 73.4746C270.446 73.9973 270.101 74.4033 269.653 74.6926C269.205 74.9819 268.673 75.1266 268.057 75.1266C267.441 75.1266 266.913 74.9726 266.475 74.6646C266.036 74.3473 265.737 73.9273 265.579 73.4046H265.747V77.0446C265.747 77.2313 265.695 77.3713 265.593 77.4646C265.49 77.5673 265.35 77.6186 265.173 77.6186ZM267.819 74.2166C268.248 74.2166 268.617 74.1139 268.925 73.9086C269.242 73.7033 269.485 73.4046 269.653 73.0126C269.83 72.6206 269.919 72.1493 269.919 71.5986C269.919 70.7493 269.727 70.1006 269.345 69.6526C268.971 69.2046 268.463 68.9806 267.819 68.9806C267.399 68.9806 267.03 69.0833 266.713 69.2886C266.395 69.4846 266.148 69.7786 265.971 70.1706C265.803 70.5533 265.719 71.0293 265.719 71.5986C265.719 72.4386 265.91 73.0873 266.293 73.5446C266.675 73.9926 267.184 74.2166 267.819 74.2166ZM273.349 75.0986C273.162 75.0986 273.018 75.0473 272.915 74.9446C272.822 74.8419 272.775 74.6973 272.775 74.5106V68.6726C272.775 68.4859 272.822 68.3459 272.915 68.2526C273.008 68.1499 273.144 68.0986 273.321 68.0986C273.498 68.0986 273.634 68.1499 273.727 68.2526C273.83 68.3459 273.881 68.4859 273.881 68.6726V69.8066H273.741C273.89 69.2559 274.175 68.8313 274.595 68.5326C275.015 68.2339 275.533 68.0753 276.149 68.0566C276.289 68.0473 276.401 68.0799 276.485 68.1546C276.569 68.2199 276.616 68.3366 276.625 68.5046C276.634 68.6633 276.597 68.7893 276.513 68.8826C276.429 68.9759 276.298 69.0319 276.121 69.0506L275.897 69.0786C275.262 69.1346 274.772 69.3399 274.427 69.6946C274.091 70.0399 273.923 70.5159 273.923 71.1226V74.5106C273.923 74.6973 273.872 74.8419 273.769 74.9446C273.676 75.0473 273.536 75.0986 273.349 75.0986ZM280.538 75.1266C279.876 75.1266 279.302 74.9819 278.816 74.6926C278.331 74.4033 277.953 73.9973 277.682 73.4746C277.421 72.9426 277.29 72.3173 277.29 71.5986C277.29 71.0573 277.365 70.5719 277.514 70.1426C277.664 69.7039 277.883 69.3306 278.172 69.0226C278.462 68.7146 278.802 68.4813 279.194 68.3226C279.596 68.1546 280.044 68.0706 280.538 68.0706C281.201 68.0706 281.775 68.2153 282.26 68.5046C282.746 68.7939 283.119 69.2046 283.38 69.7366C283.651 70.2593 283.786 70.8799 283.786 71.5986C283.786 72.1399 283.712 72.6253 283.562 73.0546C283.413 73.4839 283.194 73.8573 282.904 74.1746C282.615 74.4826 282.27 74.7206 281.868 74.8886C281.476 75.0473 281.033 75.1266 280.538 75.1266ZM280.538 74.2166C280.958 74.2166 281.327 74.1139 281.644 73.9086C281.962 73.7033 282.204 73.4046 282.372 73.0126C282.55 72.6206 282.638 72.1493 282.638 71.5986C282.638 70.7493 282.447 70.1006 282.064 69.6526C281.691 69.2046 281.182 68.9806 280.538 68.9806C280.109 68.9806 279.736 69.0833 279.418 69.2886C279.11 69.4846 278.868 69.7786 278.69 70.1706C278.522 70.5533 278.438 71.0293 278.438 71.5986C278.438 72.4386 278.63 73.0873 279.012 73.5446C279.395 73.9926 279.904 74.2166 280.538 74.2166ZM286.031 71.7386C285.891 71.7386 285.774 71.6966 285.681 71.6126C285.588 71.5193 285.541 71.4073 285.541 71.2766C285.541 71.1366 285.588 71.0246 285.681 70.9406C285.774 70.8473 285.891 70.8006 286.031 70.8006H289.181C289.312 70.8006 289.424 70.8473 289.517 70.9406C289.61 71.0246 289.657 71.1366 289.657 71.2766C289.657 71.4073 289.61 71.5193 289.517 71.6126C289.424 71.6966 289.312 71.7386 289.181 71.7386H286.031ZM125.624 94.6186C125.437 94.6186 125.297 94.5673 125.204 94.4646C125.111 94.3713 125.064 94.2313 125.064 94.0446V85.6726C125.064 85.4859 125.111 85.3459 125.204 85.2526C125.297 85.1499 125.433 85.0986 125.61 85.0986C125.797 85.0986 125.937 85.1499 126.03 85.2526C126.133 85.3459 126.184 85.4859 126.184 85.6726V87.0026L126.03 86.8066C126.179 86.2746 126.473 85.8546 126.912 85.5466C127.36 85.2293 127.892 85.0706 128.508 85.0706C129.115 85.0706 129.642 85.2153 130.09 85.5046C130.547 85.7846 130.897 86.1906 131.14 86.7226C131.392 87.2453 131.518 87.8706 131.518 88.5986C131.518 89.3173 131.392 89.9426 131.14 90.4746C130.897 90.9973 130.552 91.4033 130.104 91.6926C129.656 91.9819 129.124 92.1266 128.508 92.1266C127.892 92.1266 127.365 91.9726 126.926 91.6646C126.487 91.3473 126.189 90.9273 126.03 90.4046H126.198V94.0446C126.198 94.2313 126.147 94.3713 126.044 94.4646C125.941 94.5673 125.801 94.6186 125.624 94.6186ZM128.27 91.2166C128.699 91.2166 129.068 91.1139 129.376 90.9086C129.693 90.7033 129.936 90.4046 130.104 90.0126C130.281 89.6206 130.37 89.1493 130.37 88.5986C130.37 87.7493 130.179 87.1006 129.796 86.6526C129.423 86.2046 128.914 85.9806 128.27 85.9806C127.85 85.9806 127.481 86.0833 127.164 86.2886C126.847 86.4846 126.599 86.7786 126.422 87.1706C126.254 87.5533 126.17 88.0293 126.17 88.5986C126.17 89.4386 126.361 90.0873 126.744 90.5446C127.127 90.9926 127.635 91.2166 128.27 91.2166ZM136.054 92.1266C135.391 92.1266 134.817 91.9819 134.332 91.6926C133.847 91.4033 133.469 90.9973 133.198 90.4746C132.937 89.9426 132.806 89.3173 132.806 88.5986C132.806 88.0573 132.881 87.5719 133.03 87.1426C133.179 86.7039 133.399 86.3306 133.688 86.0226C133.977 85.7146 134.318 85.4813 134.71 85.3226C135.111 85.1546 135.559 85.0706 136.054 85.0706C136.717 85.0706 137.291 85.2153 137.776 85.5046C138.261 85.7939 138.635 86.2046 138.896 86.7366C139.167 87.2593 139.302 87.8799 139.302 88.5986C139.302 89.1399 139.227 89.6253 139.078 90.0546C138.929 90.4839 138.709 90.8573 138.42 91.1746C138.131 91.4826 137.785 91.7206 137.384 91.8886C136.992 92.0473 136.549 92.1266 136.054 92.1266ZM136.054 91.2166C136.474 91.2166 136.843 91.1139 137.16 90.9086C137.477 90.7033 137.72 90.4046 137.888 90.0126C138.065 89.6206 138.154 89.1493 138.154 88.5986C138.154 87.7493 137.963 87.1006 137.58 86.6526C137.207 86.2046 136.698 85.9806 136.054 85.9806C135.625 85.9806 135.251 86.0833 134.934 86.2886C134.626 86.4846 134.383 86.7786 134.206 87.1706C134.038 87.5533 133.954 88.0293 133.954 88.5986C133.954 89.4386 134.145 90.0873 134.528 90.5446C134.911 90.9926 135.419 91.2166 136.054 91.2166ZM136.516 84.2166C136.451 84.3099 136.371 84.3659 136.278 84.3846C136.185 84.3939 136.096 84.3799 136.012 84.3426C135.928 84.2959 135.867 84.2306 135.83 84.1466C135.793 84.0626 135.802 83.9646 135.858 83.8526L137.034 81.5706C137.099 81.4399 137.183 81.3559 137.286 81.3186C137.389 81.2813 137.491 81.2766 137.594 81.3046C137.706 81.3233 137.799 81.3699 137.874 81.4446C137.949 81.5193 137.991 81.6079 138 81.7106C138.019 81.8133 137.991 81.9206 137.916 82.0326L136.516 84.2166ZM143.301 92.1266C142.881 92.1266 142.457 92.0753 142.027 91.9726C141.607 91.8699 141.215 91.6926 140.851 91.4406C140.758 91.3753 140.693 91.3006 140.655 91.2166C140.618 91.1233 140.604 91.0346 140.613 90.9506C140.632 90.8573 140.669 90.7779 140.725 90.7126C140.791 90.6473 140.865 90.6099 140.949 90.6006C141.043 90.5819 141.145 90.6006 141.257 90.6566C141.621 90.8806 141.971 91.0393 142.307 91.1326C142.653 91.2166 142.993 91.2586 143.329 91.2586C143.861 91.2586 144.263 91.1606 144.533 90.9646C144.804 90.7686 144.939 90.5026 144.939 90.1666C144.939 89.9053 144.851 89.6999 144.673 89.5506C144.496 89.3919 144.216 89.2706 143.833 89.1866L142.559 88.9066C141.971 88.7853 141.533 88.5753 141.243 88.2766C140.963 87.9779 140.823 87.5906 140.823 87.1146C140.823 86.6946 140.931 86.3353 141.145 86.0366C141.369 85.7286 141.682 85.4906 142.083 85.3226C142.485 85.1546 142.951 85.0706 143.483 85.0706C143.894 85.0706 144.281 85.1266 144.645 85.2386C145.019 85.3413 145.355 85.5093 145.653 85.7426C145.747 85.8079 145.807 85.8873 145.835 85.9806C145.873 86.0646 145.877 86.1533 145.849 86.2466C145.831 86.3306 145.789 86.4053 145.723 86.4706C145.658 86.5266 145.579 86.5593 145.485 86.5686C145.392 86.5779 145.294 86.5499 145.191 86.4846C144.911 86.2979 144.627 86.1626 144.337 86.0786C144.048 85.9853 143.763 85.9386 143.483 85.9386C142.961 85.9386 142.564 86.0413 142.293 86.2466C142.023 86.4519 141.887 86.7226 141.887 87.0586C141.887 87.3199 141.971 87.5346 142.139 87.7026C142.307 87.8706 142.569 87.9919 142.923 88.0666L144.197 88.3326C144.804 88.4633 145.257 88.6733 145.555 88.9626C145.863 89.2426 146.017 89.6253 146.017 90.1106C146.017 90.7266 145.77 91.2166 145.275 91.5806C144.781 91.9446 144.123 92.1266 143.301 92.1266ZM148.306 92.0706C148.119 92.0706 147.979 92.0193 147.886 91.9166C147.792 91.8046 147.746 91.6506 147.746 91.4546V85.7286C147.746 85.5326 147.792 85.3833 147.886 85.2806C147.979 85.1779 148.119 85.1266 148.306 85.1266C148.483 85.1266 148.623 85.1779 148.726 85.2806C148.828 85.3833 148.88 85.5326 148.88 85.7286V91.4546C148.88 91.6506 148.828 91.8046 148.726 91.9166C148.632 92.0193 148.492 92.0706 148.306 92.0706ZM148.306 83.5586C148.072 83.5586 147.89 83.4979 147.76 83.3766C147.629 83.2459 147.564 83.0733 147.564 82.8586C147.564 82.6346 147.629 82.4666 147.76 82.3546C147.89 82.2333 148.072 82.1726 148.306 82.1726C148.548 82.1726 148.73 82.2333 148.852 82.3546C148.982 82.4666 149.048 82.6346 149.048 82.8586C149.048 83.0733 148.982 83.2459 148.852 83.3766C148.73 83.4979 148.548 83.5586 148.306 83.5586ZM153.73 92.1266C153.198 92.1266 152.75 92.0333 152.386 91.8466C152.031 91.6506 151.765 91.3706 151.588 91.0066C151.41 90.6333 151.322 90.1806 151.322 89.6486V86.0786H150.384C150.225 86.0786 150.104 86.0413 150.02 85.9666C149.936 85.8826 149.894 85.7706 149.894 85.6306C149.894 85.4906 149.936 85.3833 150.02 85.3086C150.104 85.2339 150.225 85.1966 150.384 85.1966H151.322V83.5866C151.322 83.3999 151.373 83.2599 151.476 83.1666C151.578 83.0639 151.718 83.0126 151.896 83.0126C152.073 83.0126 152.208 83.0639 152.302 83.1666C152.404 83.2599 152.456 83.3999 152.456 83.5866V85.1966H154.22C154.378 85.1966 154.5 85.2339 154.584 85.3086C154.668 85.3833 154.71 85.4906 154.71 85.6306C154.71 85.7706 154.668 85.8826 154.584 85.9666C154.5 86.0413 154.378 86.0786 154.22 86.0786H152.456V89.5366C152.456 90.0686 152.568 90.4746 152.792 90.7546C153.016 91.0253 153.38 91.1606 153.884 91.1606C154.061 91.1606 154.21 91.1419 154.332 91.1046C154.462 91.0673 154.57 91.0486 154.654 91.0486C154.738 91.0393 154.808 91.0673 154.864 91.1326C154.92 91.1979 154.948 91.3099 154.948 91.4686C154.948 91.5806 154.924 91.6833 154.878 91.7766C154.84 91.8699 154.77 91.9353 154.668 91.9726C154.556 92.0099 154.406 92.0426 154.22 92.0706C154.042 92.1079 153.879 92.1266 153.73 92.1266ZM158.654 92.1266C157.991 92.1266 157.417 91.9819 156.932 91.6926C156.446 91.4033 156.068 90.9973 155.798 90.4746C155.536 89.9426 155.406 89.3173 155.406 88.5986C155.406 88.0573 155.48 87.5719 155.63 87.1426C155.779 86.7039 155.998 86.3306 156.288 86.0226C156.577 85.7146 156.918 85.4813 157.31 85.3226C157.711 85.1546 158.159 85.0706 158.654 85.0706C159.316 85.0706 159.89 85.2153 160.376 85.5046C160.861 85.7939 161.234 86.2046 161.496 86.7366C161.766 87.2593 161.902 87.8799 161.902 88.5986C161.902 89.1399 161.827 89.6253 161.678 90.0546C161.528 90.4839 161.309 90.8573 161.02 91.1746C160.73 91.4826 160.385 91.7206 159.984 91.8886C159.592 92.0473 159.148 92.1266 158.654 92.1266ZM158.654 91.2166C159.074 91.2166 159.442 91.1139 159.76 90.9086C160.077 90.7033 160.32 90.4046 160.488 90.0126C160.665 89.6206 160.754 89.1493 160.754 88.5986C160.754 87.7493 160.562 87.1006 160.18 86.6526C159.806 86.2046 159.298 85.9806 158.654 85.9806C158.224 85.9806 157.851 86.0833 157.534 86.2886C157.226 86.4846 156.983 86.7786 156.806 87.1706C156.638 87.5533 156.554 88.0293 156.554 88.5986C156.554 89.4386 156.745 90.0873 157.128 90.5446C157.51 90.9926 158.019 91.2166 158.654 91.2166ZM170.098 92.1266C169.417 92.1266 168.829 91.9773 168.334 91.6786C167.84 91.3799 167.457 90.9646 167.186 90.4326C166.925 89.8913 166.794 89.2659 166.794 88.5566C166.794 88.0153 166.869 87.5299 167.018 87.1006C167.168 86.6713 167.387 86.3073 167.676 86.0086C167.966 85.7006 168.311 85.4673 168.712 85.3086C169.123 85.1499 169.585 85.0706 170.098 85.0706C170.434 85.0706 170.784 85.1219 171.148 85.2246C171.512 85.3273 171.844 85.5046 172.142 85.7566C172.236 85.8219 172.296 85.9013 172.324 85.9946C172.352 86.0879 172.352 86.1813 172.324 86.2746C172.296 86.3586 172.25 86.4333 172.184 86.4986C172.119 86.5546 172.035 86.5873 171.932 86.5966C171.839 86.6059 171.741 86.5733 171.638 86.4986C171.396 86.3119 171.148 86.1813 170.896 86.1066C170.644 86.0319 170.402 85.9946 170.168 85.9946C169.804 85.9946 169.487 86.0553 169.216 86.1766C168.946 86.2886 168.717 86.4519 168.53 86.6666C168.344 86.8813 168.199 87.1473 168.096 87.4646C168.003 87.7819 167.956 88.1506 167.956 88.5706C167.956 89.3826 168.148 90.0266 168.53 90.5026C168.913 90.9693 169.459 91.2026 170.168 91.2026C170.402 91.2026 170.64 91.1653 170.882 91.0906C171.134 91.0159 171.386 90.8853 171.638 90.6986C171.741 90.6239 171.839 90.5913 171.932 90.6006C172.026 90.6099 172.105 90.6473 172.17 90.7126C172.236 90.7686 172.278 90.8433 172.296 90.9366C172.324 91.0299 172.324 91.1233 172.296 91.2166C172.268 91.3006 172.208 91.3753 172.114 91.4406C171.816 91.6833 171.489 91.8606 171.134 91.9726C170.78 92.0753 170.434 92.1266 170.098 92.1266ZM176.386 92.1266C175.723 92.1266 175.149 91.9819 174.664 91.6926C174.179 91.4033 173.801 90.9973 173.53 90.4746C173.269 89.9426 173.138 89.3173 173.138 88.5986C173.138 88.0573 173.213 87.5719 173.362 87.1426C173.511 86.7039 173.731 86.3306 174.02 86.0226C174.309 85.7146 174.65 85.4813 175.042 85.3226C175.443 85.1546 175.891 85.0706 176.386 85.0706C177.049 85.0706 177.623 85.2153 178.108 85.5046C178.593 85.7939 178.967 86.2046 179.228 86.7366C179.499 87.2593 179.634 87.8799 179.634 88.5986C179.634 89.1399 179.559 89.6253 179.41 90.0546C179.261 90.4839 179.041 90.8573 178.752 91.1746C178.463 91.4826 178.117 91.7206 177.716 91.8886C177.324 92.0473 176.881 92.1266 176.386 92.1266ZM176.386 91.2166C176.806 91.2166 177.175 91.1139 177.492 90.9086C177.809 90.7033 178.052 90.4046 178.22 90.0126C178.397 89.6206 178.486 89.1493 178.486 88.5986C178.486 87.7493 178.295 87.1006 177.912 86.6526C177.539 86.2046 177.03 85.9806 176.386 85.9806C175.957 85.9806 175.583 86.0833 175.266 86.2886C174.958 86.4846 174.715 86.7786 174.538 87.1706C174.37 87.5533 174.286 88.0293 174.286 88.5986C174.286 89.4386 174.477 90.0873 174.86 90.5446C175.243 90.9926 175.751 91.2166 176.386 91.2166ZM181.925 92.0986C181.739 92.0986 181.599 92.0473 181.505 91.9446C181.412 91.8419 181.365 91.6973 181.365 91.5106V85.6726C181.365 85.4859 181.412 85.3459 181.505 85.2526C181.599 85.1499 181.734 85.0986 181.911 85.0986C182.089 85.0986 182.224 85.1499 182.317 85.2526C182.42 85.3459 182.471 85.4859 182.471 85.6726V86.9046L182.317 86.7086C182.495 86.1859 182.779 85.7846 183.171 85.5046C183.573 85.2153 184.049 85.0706 184.599 85.0706C185.178 85.0706 185.645 85.2106 185.999 85.4906C186.363 85.7613 186.606 86.1859 186.727 86.7646H186.517C186.685 86.2419 186.984 85.8313 187.413 85.5326C187.852 85.2246 188.361 85.0706 188.939 85.0706C189.453 85.0706 189.873 85.1686 190.199 85.3646C190.535 85.5606 190.787 85.8593 190.955 86.2606C191.123 86.6526 191.207 87.1519 191.207 87.7586V91.5106C191.207 91.6973 191.156 91.8419 191.053 91.9446C190.96 92.0473 190.82 92.0986 190.633 92.0986C190.456 92.0986 190.316 92.0473 190.213 91.9446C190.12 91.8419 190.073 91.6973 190.073 91.5106V87.8146C190.073 87.1893 189.966 86.7319 189.751 86.4426C189.537 86.1439 189.173 85.9946 188.659 85.9946C188.099 85.9946 187.656 86.1906 187.329 86.5826C187.012 86.9653 186.853 87.4879 186.853 88.1506V91.5106C186.853 91.6973 186.802 91.8419 186.699 91.9446C186.606 92.0473 186.466 92.0986 186.279 92.0986C186.102 92.0986 185.962 92.0473 185.859 91.9446C185.766 91.8419 185.719 91.6973 185.719 91.5106V87.8146C185.719 87.1893 185.607 86.7319 185.383 86.4426C185.169 86.1439 184.809 85.9946 184.305 85.9946C183.745 85.9946 183.302 86.1906 182.975 86.5826C182.658 86.9653 182.499 87.4879 182.499 88.1506V91.5106C182.499 91.9026 182.308 92.0986 181.925 92.0986ZM200.003 92.1266C199.284 92.1266 198.664 91.9866 198.141 91.7066C197.628 91.4173 197.226 91.0113 196.937 90.4886C196.657 89.9659 196.517 89.3406 196.517 88.6126C196.517 87.9033 196.657 87.2873 196.937 86.7646C197.217 86.2326 197.6 85.8173 198.085 85.5186C198.58 85.2199 199.149 85.0706 199.793 85.0706C200.25 85.0706 200.661 85.1499 201.025 85.3086C201.389 85.4579 201.697 85.6773 201.949 85.9666C202.21 86.2559 202.406 86.6059 202.537 87.0166C202.677 87.4273 202.747 87.8893 202.747 88.4026C202.747 88.5519 202.705 88.6639 202.621 88.7386C202.537 88.8039 202.416 88.8366 202.257 88.8366H197.385V88.0946H201.991L201.767 88.2766C201.767 87.7726 201.692 87.3479 201.543 87.0026C201.394 86.6479 201.174 86.3773 200.885 86.1906C200.605 86.0039 200.25 85.9106 199.821 85.9106C199.345 85.9106 198.939 86.0226 198.603 86.2466C198.276 86.4613 198.029 86.7646 197.861 87.1566C197.693 87.5393 197.609 87.9873 197.609 88.5006V88.5846C197.609 89.4433 197.814 90.0966 198.225 90.5446C198.645 90.9926 199.238 91.2166 200.003 91.2166C200.32 91.2166 200.633 91.1746 200.941 91.0906C201.258 91.0066 201.566 90.8666 201.865 90.6706C201.996 90.5866 202.112 90.5493 202.215 90.5586C202.327 90.5586 202.416 90.5913 202.481 90.6566C202.546 90.7126 202.588 90.7873 202.607 90.8806C202.635 90.9646 202.626 91.0579 202.579 91.1606C202.542 91.2633 202.462 91.3519 202.341 91.4266C202.033 91.6506 201.669 91.8233 201.249 91.9446C200.829 92.0659 200.414 92.1266 200.003 92.1266ZM204.362 92.0846C204.24 92.0846 204.133 92.0473 204.04 91.9726C203.946 91.8979 203.895 91.7999 203.886 91.6786C203.886 91.5479 203.946 91.4126 204.068 91.2726L206.518 88.1926V88.7806L204.222 85.9106C204.1 85.7613 204.04 85.6259 204.04 85.5046C204.049 85.3833 204.1 85.2853 204.194 85.2106C204.287 85.1359 204.394 85.0986 204.516 85.0986C204.656 85.0986 204.772 85.1266 204.866 85.1826C204.968 85.2293 205.062 85.3086 205.146 85.4206L207.148 87.9546H206.756L208.772 85.4206C208.856 85.3086 208.944 85.2293 209.038 85.1826C209.131 85.1266 209.248 85.0986 209.388 85.0986C209.518 85.0986 209.626 85.1359 209.71 85.2106C209.803 85.2853 209.85 85.3879 209.85 85.5186C209.859 85.6399 209.803 85.7753 209.682 85.9246L207.4 88.7526V88.2346L209.85 91.2726C209.962 91.4126 210.013 91.5479 210.004 91.6786C210.004 91.7999 209.957 91.8979 209.864 91.9726C209.77 92.0473 209.658 92.0846 209.528 92.0846C209.397 92.0846 209.28 92.0566 209.178 92.0006C209.084 91.9539 208.991 91.8746 208.898 91.7626L206.742 89.0466H207.148L204.992 91.7626C204.908 91.8653 204.814 91.9446 204.712 92.0006C204.618 92.0566 204.502 92.0846 204.362 92.0846ZM214.423 92.1266C213.741 92.1266 213.153 91.9773 212.659 91.6786C212.164 91.3799 211.781 90.9646 211.511 90.4326C211.249 89.8913 211.119 89.2659 211.119 88.5566C211.119 88.0153 211.193 87.5299 211.343 87.1006C211.492 86.6713 211.711 86.3073 212.001 86.0086C212.29 85.7006 212.635 85.4673 213.037 85.3086C213.447 85.1499 213.909 85.0706 214.423 85.0706C214.759 85.0706 215.109 85.1219 215.473 85.2246C215.837 85.3273 216.168 85.5046 216.467 85.7566C216.56 85.8219 216.621 85.9013 216.649 85.9946C216.677 86.0879 216.677 86.1813 216.649 86.2746C216.621 86.3586 216.574 86.4333 216.509 86.4986C216.443 86.5546 216.359 86.5873 216.257 86.5966C216.163 86.6059 216.065 86.5733 215.963 86.4986C215.72 86.3119 215.473 86.1813 215.221 86.1066C214.969 86.0319 214.726 85.9946 214.493 85.9946C214.129 85.9946 213.811 86.0553 213.541 86.1766C213.27 86.2886 213.041 86.4519 212.855 86.6666C212.668 86.8813 212.523 87.1473 212.421 87.4646C212.327 87.7819 212.281 88.1506 212.281 88.5706C212.281 89.3826 212.472 90.0266 212.855 90.5026C213.237 90.9693 213.783 91.2026 214.493 91.2026C214.726 91.2026 214.964 91.1653 215.207 91.0906C215.459 91.0159 215.711 90.8853 215.963 90.6986C216.065 90.6239 216.163 90.5913 216.257 90.6006C216.35 90.6099 216.429 90.6473 216.495 90.7126C216.56 90.7686 216.602 90.8433 216.621 90.9366C216.649 91.0299 216.649 91.1233 216.621 91.2166C216.593 91.3006 216.532 91.3753 216.439 91.4406C216.14 91.6833 215.813 91.8606 215.459 91.9726C215.104 92.0753 214.759 92.1266 214.423 92.1266ZM220.948 92.1266C220.23 92.1266 219.609 91.9866 219.086 91.7066C218.573 91.4173 218.172 91.0113 217.882 90.4886C217.602 89.9659 217.462 89.3406 217.462 88.6126C217.462 87.9033 217.602 87.2873 217.882 86.7646C218.162 86.2326 218.545 85.8173 219.03 85.5186C219.525 85.2199 220.094 85.0706 220.738 85.0706C221.196 85.0706 221.606 85.1499 221.97 85.3086C222.334 85.4579 222.642 85.6773 222.894 85.9666C223.156 86.2559 223.352 86.6059 223.482 87.0166C223.622 87.4273 223.692 87.8893 223.692 88.4026C223.692 88.5519 223.65 88.6639 223.566 88.7386C223.482 88.8039 223.361 88.8366 223.202 88.8366H218.33V88.0946H222.936L222.712 88.2766C222.712 87.7726 222.638 87.3479 222.488 87.0026C222.339 86.6479 222.12 86.3773 221.83 86.1906C221.55 86.0039 221.196 85.9106 220.766 85.9106C220.29 85.9106 219.884 86.0226 219.548 86.2466C219.222 86.4613 218.974 86.7646 218.806 87.1566C218.638 87.5393 218.554 87.9873 218.554 88.5006V88.5846C218.554 89.4433 218.76 90.0966 219.17 90.5446C219.59 90.9926 220.183 91.2166 220.948 91.2166C221.266 91.2166 221.578 91.1746 221.886 91.0906C222.204 91.0066 222.512 90.8666 222.81 90.6706C222.941 90.5866 223.058 90.5493 223.16 90.5586C223.272 90.5586 223.361 90.5913 223.426 90.6566C223.492 90.7126 223.534 90.7873 223.552 90.8806C223.58 90.9646 223.571 91.0579 223.524 91.1606C223.487 91.2633 223.408 91.3519 223.286 91.4266C222.978 91.6506 222.614 91.8233 222.194 91.9446C221.774 92.0659 221.359 92.1266 220.948 92.1266ZM227.406 92.1266C226.734 92.1266 226.22 91.9213 225.866 91.5106C225.511 91.0999 225.334 90.5119 225.334 89.7466V82.6066C225.334 82.4199 225.38 82.2799 225.474 82.1866C225.567 82.0839 225.707 82.0326 225.894 82.0326C226.071 82.0326 226.211 82.0839 226.314 82.1866C226.416 82.2799 226.468 82.4199 226.468 82.6066V89.6626C226.468 90.1666 226.566 90.5446 226.762 90.7966C226.967 91.0393 227.266 91.1606 227.658 91.1606C227.742 91.1606 227.816 91.1559 227.882 91.1466C227.947 91.1373 228.012 91.1326 228.078 91.1326C228.18 91.1233 228.25 91.1466 228.288 91.2026C228.334 91.2586 228.358 91.3706 228.358 91.5386C228.358 91.7066 228.32 91.8326 228.246 91.9166C228.171 92.0006 228.05 92.0566 227.882 92.0846C227.807 92.0939 227.728 92.1033 227.644 92.1126C227.56 92.1219 227.48 92.1266 227.406 92.1266ZM232.474 92.1266C231.755 92.1266 231.134 91.9866 230.612 91.7066C230.098 91.4173 229.697 91.0113 229.408 90.4886C229.128 89.9659 228.988 89.3406 228.988 88.6126C228.988 87.9033 229.128 87.2873 229.408 86.7646C229.688 86.2326 230.07 85.8173 230.556 85.5186C231.05 85.2199 231.62 85.0706 232.264 85.0706C232.721 85.0706 233.132 85.1499 233.496 85.3086C233.86 85.4579 234.168 85.6773 234.42 85.9666C234.681 86.2559 234.877 86.6059 235.008 87.0166C235.148 87.4273 235.218 87.8893 235.218 88.4026C235.218 88.5519 235.176 88.6639 235.092 88.7386C235.008 88.8039 234.886 88.8366 234.728 88.8366H229.856V88.0946H234.462L234.238 88.2766C234.238 87.7726 234.163 87.3479 234.014 87.0026C233.864 86.6479 233.645 86.3773 233.356 86.1906C233.076 86.0039 232.721 85.9106 232.292 85.9106C231.816 85.9106 231.41 86.0226 231.074 86.2466C230.747 86.4613 230.5 86.7646 230.332 87.1566C230.164 87.5393 230.08 87.9873 230.08 88.5006V88.5846C230.08 89.4433 230.285 90.0966 230.696 90.5446C231.116 90.9926 231.708 91.2166 232.474 91.2166C232.791 91.2166 233.104 91.1746 233.412 91.0906C233.729 91.0066 234.037 90.8666 234.336 90.6706C234.466 90.5866 234.583 90.5493 234.686 90.5586C234.798 90.5586 234.886 90.5913 234.952 90.6566C235.017 90.7126 235.059 90.7873 235.078 90.8806C235.106 90.9646 235.096 91.0579 235.05 91.1606C235.012 91.2633 234.933 91.3519 234.812 91.4266C234.504 91.6506 234.14 91.8233 233.72 91.9446C233.3 92.0659 232.884 92.1266 232.474 92.1266ZM234.112 83.8526C234.168 83.9646 234.177 84.0673 234.14 84.1606C234.112 84.2446 234.056 84.3053 233.972 84.3426C233.897 84.3799 233.813 84.3939 233.72 84.3846C233.636 84.3659 233.566 84.3099 233.51 84.2166L232.264 82.2146L231.018 84.2166C230.962 84.3099 230.887 84.3659 230.794 84.3846C230.71 84.3939 230.626 84.3799 230.542 84.3426C230.467 84.3053 230.411 84.2446 230.374 84.1606C230.346 84.0673 230.36 83.9646 230.416 83.8526L231.578 81.7246C231.662 81.5753 231.76 81.4633 231.872 81.3886C231.984 81.3139 232.114 81.2766 232.264 81.2766C232.413 81.2766 232.544 81.3139 232.656 81.3886C232.768 81.4633 232.866 81.5753 232.95 81.7246L234.112 83.8526ZM237.419 92.0986C237.232 92.0986 237.092 92.0473 236.999 91.9446C236.906 91.8419 236.859 91.6973 236.859 91.5106V85.6726C236.859 85.4859 236.906 85.3459 236.999 85.2526C237.092 85.1499 237.228 85.0986 237.405 85.0986C237.582 85.0986 237.718 85.1499 237.811 85.2526C237.914 85.3459 237.965 85.4859 237.965 85.6726V86.8766L237.811 86.7086C238.007 86.1673 238.324 85.7613 238.763 85.4906C239.211 85.2106 239.724 85.0706 240.303 85.0706C240.844 85.0706 241.292 85.1686 241.647 85.3646C242.011 85.5606 242.282 85.8593 242.459 86.2606C242.636 86.6526 242.725 87.1519 242.725 87.7586V91.5106C242.725 91.6973 242.674 91.8419 242.571 91.9446C242.478 92.0473 242.342 92.0986 242.165 92.0986C241.978 92.0986 241.834 92.0473 241.731 91.9446C241.638 91.8419 241.591 91.6973 241.591 91.5106V87.8286C241.591 87.1939 241.465 86.7319 241.213 86.4426C240.97 86.1439 240.578 85.9946 240.037 85.9946C239.412 85.9946 238.912 86.1906 238.539 86.5826C238.175 86.9653 237.993 87.4786 237.993 88.1226V91.5106C237.993 91.9026 237.802 92.0986 237.419 92.0986ZM247.7 92.1266C247.019 92.1266 246.431 91.9773 245.936 91.6786C245.441 91.3799 245.059 90.9646 244.788 90.4326C244.527 89.8913 244.396 89.2659 244.396 88.5566C244.396 88.0153 244.471 87.5299 244.62 87.1006C244.769 86.6713 244.989 86.3073 245.278 86.0086C245.567 85.7006 245.913 85.4673 246.314 85.3086C246.725 85.1499 247.187 85.0706 247.7 85.0706C248.036 85.0706 248.386 85.1219 248.75 85.2246C249.114 85.3273 249.445 85.5046 249.744 85.7566C249.837 85.8219 249.898 85.9013 249.926 85.9946C249.954 86.0879 249.954 86.1813 249.926 86.2746C249.898 86.3586 249.851 86.4333 249.786 86.4986C249.721 86.5546 249.637 86.5873 249.534 86.5966C249.441 86.6059 249.343 86.5733 249.24 86.4986C248.997 86.3119 248.75 86.1813 248.498 86.1066C248.246 86.0319 248.003 85.9946 247.77 85.9946C247.406 85.9946 247.089 86.0553 246.818 86.1766C246.547 86.2886 246.319 86.4519 246.132 86.6666C245.945 86.8813 245.801 87.1473 245.698 87.4646C245.605 87.7819 245.558 88.1506 245.558 88.5706C245.558 89.3826 245.749 90.0266 246.132 90.5026C246.515 90.9693 247.061 91.2026 247.77 91.2026C248.003 91.2026 248.241 91.1653 248.484 91.0906C248.736 91.0159 248.988 90.8853 249.24 90.6986C249.343 90.6239 249.441 90.5913 249.534 90.6006C249.627 90.6099 249.707 90.6473 249.772 90.7126C249.837 90.7686 249.879 90.8433 249.898 90.9366C249.926 91.0299 249.926 91.1233 249.898 91.2166C249.87 91.3006 249.809 91.3753 249.716 91.4406C249.417 91.6833 249.091 91.8606 248.736 91.9726C248.381 92.0753 248.036 92.1266 247.7 92.1266ZM251.856 92.0706C251.67 92.0706 251.53 92.0193 251.436 91.9166C251.343 91.8046 251.296 91.6506 251.296 91.4546V85.7286C251.296 85.5326 251.343 85.3833 251.436 85.2806C251.53 85.1779 251.67 85.1266 251.856 85.1266C252.034 85.1266 252.174 85.1779 252.276 85.2806C252.379 85.3833 252.43 85.5326 252.43 85.7286V91.4546C252.43 91.6506 252.379 91.8046 252.276 91.9166C252.183 92.0193 252.043 92.0706 251.856 92.0706ZM251.856 83.5586C251.623 83.5586 251.441 83.4979 251.31 83.3766C251.18 83.2459 251.114 83.0733 251.114 82.8586C251.114 82.6346 251.18 82.4666 251.31 82.3546C251.441 82.2333 251.623 82.1726 251.856 82.1726C252.099 82.1726 252.281 82.2333 252.402 82.3546C252.533 82.4666 252.598 82.6346 252.598 82.8586C252.598 83.0733 252.533 83.2459 252.402 83.3766C252.281 83.4979 252.099 83.5586 251.856 83.5586ZM256.692 92.1266C256.226 92.1266 255.806 92.0379 255.432 91.8606C255.068 91.6739 254.779 91.4219 254.564 91.1046C254.35 90.7873 254.242 90.4326 254.242 90.0406C254.242 89.5366 254.368 89.1399 254.62 88.8506C254.882 88.5613 255.306 88.3559 255.894 88.2346C256.492 88.1133 257.304 88.0526 258.33 88.0526H258.96V88.7946H258.344C257.588 88.7946 256.991 88.8319 256.552 88.9066C256.123 88.9719 255.82 89.0886 255.642 89.2566C255.474 89.4246 255.39 89.6626 255.39 89.9706C255.39 90.3533 255.521 90.6659 255.782 90.9086C256.053 91.1513 256.417 91.2726 256.874 91.2726C257.248 91.2726 257.574 91.1839 257.854 91.0066C258.144 90.8293 258.368 90.5866 258.526 90.2786C258.694 89.9706 258.778 89.6159 258.778 89.2146V87.6186C258.778 87.0399 258.662 86.6246 258.428 86.3726C258.195 86.1113 257.812 85.9806 257.28 85.9806C256.954 85.9806 256.627 86.0226 256.3 86.1066C255.974 86.1906 255.628 86.3259 255.264 86.5126C255.134 86.5779 255.022 86.6013 254.928 86.5826C254.835 86.5546 254.76 86.5033 254.704 86.4286C254.648 86.3539 254.616 86.2699 254.606 86.1766C254.597 86.0739 254.616 85.9759 254.662 85.8826C254.718 85.7893 254.802 85.7146 254.914 85.6586C255.325 85.4533 255.731 85.3039 256.132 85.2106C256.534 85.1173 256.916 85.0706 257.28 85.0706C257.868 85.0706 258.354 85.1686 258.736 85.3646C259.119 85.5513 259.404 85.8406 259.59 86.2326C259.777 86.6153 259.87 87.1099 259.87 87.7166V91.5106C259.87 91.6973 259.824 91.8419 259.73 91.9446C259.646 92.0473 259.52 92.0986 259.352 92.0986C259.175 92.0986 259.04 92.0473 258.946 91.9446C258.853 91.8419 258.806 91.6973 258.806 91.5106V90.4186H258.932C258.858 90.7733 258.713 91.0766 258.498 91.3286C258.293 91.5806 258.036 91.7766 257.728 91.9166C257.42 92.0566 257.075 92.1266 256.692 92.1266ZM262.52 92.0566C262.287 92.0566 262.1 91.9866 261.96 91.8466C261.82 91.6973 261.75 91.5106 261.75 91.2866C261.75 91.0626 261.82 90.8806 261.96 90.7406C262.1 90.5913 262.287 90.5166 262.52 90.5166C262.753 90.5166 262.935 90.5913 263.066 90.7406C263.206 90.8806 263.276 91.0626 263.276 91.2866C263.276 91.5106 263.206 91.6973 263.066 91.8466C262.935 91.9866 262.753 92.0566 262.52 92.0566Z" fill="white"/>
<path d="M300.731 96.9468C300.527 96.121 300.75 95.2477 301.324 94.6202L304.318 91.3422C304.542 91.0966 304.606 90.7446 304.484 90.4356C304.361 90.1267 304.072 89.9149 303.741 89.8901L299.217 89.5543C298.384 89.4931 297.635 89.028 297.21 88.3095L294.909 84.4144C294.799 84.2251 294.621 84.0851 294.412 84.0227C294.311 83.9932 294.206 83.9819 294.101 83.9895C293.772 84.0076 293.483 84.2136 293.359 84.5184L291.6 88.6874C291.276 89.4567 290.596 90.0187 289.78 90.1918L285.348 91.1359C285.023 91.2046 284.765 91.4532 284.685 91.776C284.605 92.0987 284.716 92.4389 284.972 92.6519L288.381 95.4963C289.034 96.0411 289.372 96.8759 289.282 97.7217L288.816 102.128C288.781 102.456 288.935 102.775 289.214 102.952C289.492 103.129 289.846 103.133 290.129 102.963L294.055 100.588C294.761 100.162 295.63 100.103 296.387 100.431L300.599 102.254C300.901 102.386 301.252 102.334 301.504 102.121C301.757 101.908 301.866 101.57 301.787 101.25L300.731 96.9468Z" fill="url(#paint0_linear_150_35231)"/>
</g>
</g>
<g clip-path="url(#clip1_150_35231)" filter="url(#filter1_d_150_35231)">
<path d="M98.1946 119.105L98.0505 89.6169C103.016 85.9365 106.881 80.9694 109.229 75.252C112.661 66.8169 112.602 57.3639 109.064 48.9725C105.527 40.5811 98.8005 33.9387 90.3654 30.5066C81.9303 27.0744 72.4773 27.1336 64.0859 30.6713C55.6945 34.2089 49.0521 40.935 45.62 49.3701C43.3089 55.1024 42.6081 61.3572 43.5934 67.4588L22.9023 88.4689C22.4199 88.964 22.0947 89.5907 21.9676 90.2702C21.8406 90.9497 21.9174 91.6516 22.1884 92.2875C22.4594 92.9234 22.9124 93.465 23.4905 93.8441C24.0685 94.2231 24.7458 94.4227 25.4371 94.4177C37.6373 94.2753 43.2196 99.7997 43.5424 112.3C43.5595 112.984 43.7764 113.648 44.1661 114.21C44.5559 114.771 45.1015 115.207 45.7358 115.462C46.3749 115.711 47.0729 115.767 47.7434 115.623C48.4139 115.479 49.0274 115.141 49.5078 114.652L60.7597 103.267L60.8341 119.261C60.8363 119.946 61.0398 120.616 61.4192 121.188C61.7986 121.759 62.3374 122.206 62.9687 122.474C63.6012 122.734 64.2959 122.803 64.9672 122.673C65.6386 122.543 66.2571 122.219 66.7467 121.742C75.7056 113.018 83.5591 112.96 92.194 121.58C92.6854 122.067 93.3096 122.397 93.9881 122.529C94.6666 122.661 95.3691 122.59 96.0071 122.324C96.6451 122.058 97.1901 121.609 97.5736 121.033C97.957 120.458 98.1618 119.783 98.1621 119.091L98.1946 119.105ZM49.6391 104.568C48.9105 100.452 46.928 96.6609 43.9628 93.7143C40.9977 90.7677 37.1947 88.8091 33.0739 88.1062L45.8502 75.2993L46.1329 75.9061C49.0899 82.807 54.2465 88.536 60.7993 92.2004L49.6391 104.568ZM59.2844 74.4485L66.5955 62.7088L61.0425 50.0471L74.4521 53.3472L84.8457 44.0721L85.8505 57.8716L97.7547 64.8714L84.9389 70.0591L81.9766 83.5683L73.0536 73.0532L59.2844 74.4485ZM67.8131 111.963L67.8345 95.1764L68.6134 95.4933C76.1009 97.4679 84.0369 96.8429 91.1229 93.7204L91.328 111.809C87.878 109.389 83.7601 108.104 79.5461 108.131C75.3321 108.159 71.2312 109.498 67.8131 111.963Z" fill="white"/>
</g>
<defs>
<filter id="filter0_dd_150_35231" x="26.8516" y="3.69544" width="290.225" height="122.889" filterUnits="userSpaceOnUse" color-interpolation-filters="sRGB">
<feFlood flood-opacity="0" result="BackgroundImageFix"/>
<feColorMatrix in="SourceAlpha" type="matrix" values="0 0 0 0 0 0 0 0 0 0 0 0 0 0 0 0 0 0 127 0" result="hardAlpha"/>
<feMorphology radius="2.54394" operator="erode" in="SourceAlpha" result="effect1_dropShadow_150_35231"/>
<feOffset dy="2.54394"/>
<feGaussianBlur stdDeviation="1.90795"/>
<feComposite in2="hardAlpha" operator="out"/>
<feColorMatrix type="matrix" values="0 0 0 0 0 0 0 0 0 0 0 0 0 0 0 0 0 0 0.1 0"/>
<feBlend mode="normal" in2="BackgroundImageFix" result="effect1_dropShadow_150_35231"/>
<feColorMatrix in="SourceAlpha" type="matrix" values="0 0 0 0 0 0 0 0 0 0 0 0 0 0 0 0 0 0 127 0" result="hardAlpha"/>
<feMorphology radius="1.90795" operator="erode" in="SourceAlpha" result="effect2_dropShadow_150_35231"/>
<feOffset dy="6.35984"/>
<feGaussianBlur stdDeviation="4.76988"/>
<feComposite in2="hardAlpha" operator="out"/>
<feColorMatrix type="matrix" values="0 0 0 0 0 0 0 0 0 0 0 0 0 0 0 0 0 0 0.1 0"/>
<feBlend mode="normal" in2="effect1_dropShadow_150_35231" result="effect2_dropShadow_150_35231"/>
<feBlend mode="normal" in="SourceGraphic" in2="effect2_dropShadow_150_35231" result="shape"/>
</filter>
<filter id="filter1_d_150_35231" x="-4" y="0" width="154.107" height="154.108" filterUnits="userSpaceOnUse" color-interpolation-filters="sRGB">
<feFlood flood-opacity="0" result="BackgroundImageFix"/>
<feColorMatrix in="SourceAlpha" type="matrix" values="0 0 0 0 0 0 0 0 0 0 0 0 0 0 0 0 0 0 127 0" result="hardAlpha"/>
<feOffset dy="4"/>
<feGaussianBlur stdDeviation="2"/>
<feComposite in2="hardAlpha" operator="out"/>
<feColorMatrix type="matrix" values="0 0 0 0 0 0 0 0 0 0 0 0 0 0 0 0 0 0 0.25 0"/>
<feBlend mode="normal" in2="BackgroundImageFix" result="effect1_dropShadow_150_35231"/>
<feBlend mode="normal" in="SourceGraphic" in2="effect1_dropShadow_150_35231" result="shape"/>
</filter>
<linearGradient id="paint0_linear_150_35231" x1="296.785" y1="84.7248" x2="291.208" y2="103.577" gradientUnits="userSpaceOnUse">
<stop stop-color="#FFF8C3"/>
<stop offset="1" stop-color="#FFEE69"/>
</linearGradient>
<clipPath id="clip0_150_35231">
<rect x="34.4834" y="4.96741" width="274.961" height="107.625" rx="11.0574" fill="white"/>
</clipPath>
<clipPath id="clip1_150_35231">
<rect width="112.119" height="112.119" fill="white" transform="translate(42.2559) rotate(22.1409)"/>
</clipPath>
</defs>
</svg>
