<svg width="311" height="138" viewBox="0 0 311 138" fill="none" xmlns="http://www.w3.org/2000/svg">
<g filter="url(#filter0_dd_150_35372)">
<g clip-path="url(#clip0_150_35372)">
<rect x="27.5117" y="9.88049" width="274.997" height="119.564" fill="#FE5651"/>
<path d="M130.905 44.1596C130.492 44.1596 130.172 44.0463 129.945 43.8196C129.732 43.5796 129.625 43.253 129.625 42.8396V31.1996C129.625 30.773 129.738 30.453 129.965 30.2396C130.192 30.013 130.512 29.8996 130.925 29.8996H135.745C137.292 29.8996 138.485 30.273 139.325 31.0196C140.165 31.753 140.585 32.7863 140.585 34.1196C140.585 34.9863 140.392 35.733 140.005 36.3596C139.632 36.9863 139.085 37.4663 138.365 37.7996C137.645 38.133 136.772 38.2996 135.745 38.2996L135.925 37.9996H136.585C137.132 37.9996 137.605 38.133 138.005 38.3996C138.418 38.6663 138.778 39.0863 139.085 39.6596L140.585 42.4396C140.745 42.7196 140.818 42.993 140.805 43.2596C140.792 43.5263 140.692 43.7463 140.505 43.9196C140.318 44.0796 140.045 44.1596 139.685 44.1596C139.325 44.1596 139.032 44.0863 138.805 43.9396C138.578 43.7796 138.378 43.5396 138.205 43.2196L136.185 39.4996C135.945 39.0463 135.658 38.7463 135.325 38.5996C135.005 38.4396 134.592 38.3596 134.085 38.3596H132.185V42.8396C132.185 43.253 132.078 43.5796 131.865 43.8196C131.652 44.0463 131.332 44.1596 130.905 44.1596ZM132.185 36.4596H135.305C136.225 36.4596 136.918 36.273 137.385 35.8996C137.865 35.513 138.105 34.9396 138.105 34.1796C138.105 33.433 137.865 32.873 137.385 32.4996C136.918 32.113 136.225 31.9196 135.305 31.9196H132.185V36.4596ZM144.696 43.9996C144.256 43.9996 143.916 43.8863 143.676 43.6596C143.449 43.4196 143.336 43.0796 143.336 42.6396V31.2596C143.336 30.8196 143.449 30.4863 143.676 30.2596C143.916 30.0196 144.256 29.8996 144.696 29.8996H151.836C152.169 29.8996 152.423 29.9863 152.596 30.1596C152.783 30.333 152.876 30.5796 152.876 30.8996C152.876 31.233 152.783 31.493 152.596 31.6796C152.423 31.853 152.169 31.9396 151.836 31.9396H145.796V35.8196H151.396C151.743 35.8196 152.003 35.9063 152.176 36.0796C152.349 36.253 152.436 36.5063 152.436 36.8396C152.436 37.173 152.349 37.4263 152.176 37.5996C152.003 37.773 151.743 37.8596 151.396 37.8596H145.796V41.9596H151.836C152.169 41.9596 152.423 42.0463 152.596 42.2196C152.783 42.393 152.876 42.6463 152.876 42.9796C152.876 43.313 152.783 43.5663 152.596 43.7396C152.423 43.913 152.169 43.9996 151.836 43.9996H144.696ZM156.569 43.9996C156.156 43.9996 155.836 43.8863 155.609 43.6596C155.383 43.4196 155.269 43.093 155.269 42.6796V31.1396C155.269 30.713 155.376 30.393 155.589 30.1796C155.816 29.953 156.136 29.8396 156.549 29.8396C156.963 29.8396 157.276 29.953 157.489 30.1796C157.716 30.393 157.829 30.713 157.829 31.1396V41.8196H163.629C163.989 41.8196 164.263 41.913 164.449 42.0996C164.649 42.2863 164.749 42.553 164.749 42.8996C164.749 43.2463 164.649 43.5196 164.449 43.7196C164.263 43.9063 163.989 43.9996 163.629 43.9996H156.569ZM166.327 44.1596C166.007 44.1596 165.747 44.0863 165.547 43.9396C165.361 43.793 165.247 43.5996 165.207 43.3596C165.167 43.1063 165.214 42.8263 165.347 42.5196L170.627 30.8196C170.801 30.433 171.007 30.1596 171.247 29.9996C171.501 29.8263 171.787 29.7396 172.107 29.7396C172.414 29.7396 172.687 29.8263 172.927 29.9996C173.181 30.1596 173.394 30.433 173.567 30.8196L178.867 42.5196C179.014 42.8263 179.067 43.1063 179.027 43.3596C178.987 43.613 178.874 43.813 178.687 43.9596C178.501 44.093 178.254 44.1596 177.947 44.1596C177.574 44.1596 177.281 44.073 177.067 43.8996C176.867 43.713 176.687 43.433 176.527 43.0596L175.227 40.0396L176.307 40.7396H167.867L168.947 40.0396L167.667 43.0596C167.494 43.4463 167.314 43.7263 167.127 43.8996C166.941 44.073 166.674 44.1596 166.327 44.1596ZM172.067 32.6796L169.267 39.3396L168.747 38.6996H175.427L174.927 39.3396L172.107 32.6796H172.067ZM187.337 44.1996C185.871 44.1996 184.611 43.9063 183.557 43.3196C182.517 42.7196 181.717 41.8796 181.157 40.7996C180.597 39.7063 180.317 38.4196 180.317 36.9396C180.317 35.833 180.477 34.8396 180.797 33.9596C181.117 33.0663 181.577 32.3063 182.177 31.6796C182.777 31.0396 183.511 30.553 184.377 30.2196C185.257 29.873 186.244 29.6996 187.337 29.6996C188.071 29.6996 188.791 29.793 189.497 29.9796C190.204 30.1663 190.824 30.433 191.357 30.7796C191.637 30.953 191.824 31.1663 191.917 31.4196C192.011 31.6596 192.031 31.8996 191.977 32.1396C191.924 32.3663 191.811 32.5596 191.637 32.7196C191.477 32.8796 191.271 32.973 191.017 32.9996C190.777 33.013 190.511 32.9263 190.217 32.7396C189.804 32.473 189.357 32.2796 188.877 32.1596C188.397 32.0396 187.911 31.9796 187.417 31.9796C186.471 31.9796 185.671 32.173 185.017 32.5596C184.364 32.9463 183.871 33.5063 183.537 34.2396C183.204 34.973 183.037 35.873 183.037 36.9396C183.037 37.993 183.204 38.893 183.537 39.6396C183.871 40.3863 184.364 40.953 185.017 41.3396C185.671 41.7263 186.471 41.9196 187.417 41.9196C187.924 41.9196 188.424 41.8596 188.917 41.7396C189.411 41.6063 189.877 41.4063 190.317 41.1396C190.611 40.9663 190.871 40.893 191.097 40.9196C191.337 40.933 191.537 41.013 191.697 41.1596C191.857 41.3063 191.964 41.493 192.017 41.7196C192.071 41.933 192.057 42.1596 191.977 42.3996C191.897 42.6263 191.737 42.8263 191.497 42.9996C190.964 43.3863 190.324 43.6863 189.577 43.8996C188.844 44.0996 188.097 44.1996 187.337 44.1996ZM195.651 44.1596C195.238 44.1596 194.918 44.0463 194.691 43.8196C194.478 43.5796 194.371 43.253 194.371 42.8396V31.0596C194.371 30.633 194.478 30.3063 194.691 30.0796C194.918 29.853 195.238 29.7396 195.651 29.7396C196.064 29.7396 196.378 29.853 196.591 30.0796C196.818 30.3063 196.931 30.633 196.931 31.0596V42.8396C196.931 43.253 196.824 43.5796 196.611 43.8196C196.398 44.0463 196.078 44.1596 195.651 44.1596ZM206.336 44.1996C204.976 44.1996 203.782 43.8996 202.756 43.2996C201.742 42.6996 200.956 41.8596 200.396 40.7796C199.836 39.6863 199.556 38.4063 199.556 36.9396C199.556 35.833 199.716 34.8396 200.036 33.9596C200.356 33.0663 200.809 32.3063 201.396 31.6796C201.996 31.0396 202.709 30.553 203.536 30.2196C204.376 29.873 205.309 29.6996 206.336 29.6996C207.709 29.6996 208.902 29.9996 209.916 30.5996C210.929 31.1863 211.716 32.0196 212.276 33.0996C212.836 34.1796 213.116 35.453 213.116 36.9196C213.116 38.0263 212.956 39.0263 212.636 39.9196C212.316 40.813 211.856 41.5796 211.256 42.2196C210.669 42.8596 209.956 43.353 209.116 43.6996C208.289 44.033 207.362 44.1996 206.336 44.1996ZM206.336 41.9996C207.202 41.9996 207.936 41.7996 208.536 41.3996C209.149 40.9996 209.616 40.4196 209.936 39.6596C210.269 38.8996 210.436 37.993 210.436 36.9396C210.436 35.3396 210.076 34.0996 209.356 33.2196C208.649 32.3396 207.642 31.8996 206.336 31.8996C205.482 31.8996 204.749 32.0996 204.136 32.4996C203.522 32.8863 203.049 33.4596 202.716 34.2196C202.396 34.9663 202.236 35.873 202.236 36.9396C202.236 38.5263 202.596 39.7663 203.316 40.6596C204.036 41.553 205.042 41.9996 206.336 41.9996ZM216.919 44.1596C216.532 44.1596 216.232 44.053 216.019 43.8396C215.819 43.6263 215.719 43.3196 215.719 42.9196V31.0196C215.719 30.6063 215.819 30.293 216.019 30.0796C216.232 29.853 216.505 29.7396 216.839 29.7396C217.145 29.7396 217.372 29.7996 217.519 29.9196C217.679 30.0263 217.865 30.213 218.079 30.4796L225.739 40.4196H225.219V30.9596C225.219 30.573 225.319 30.273 225.519 30.0596C225.732 29.8463 226.032 29.7396 226.419 29.7396C226.805 29.7396 227.099 29.8463 227.299 30.0596C227.499 30.273 227.599 30.573 227.599 30.9596V42.9596C227.599 43.333 227.505 43.6263 227.319 43.8396C227.132 44.053 226.879 44.1596 226.559 44.1596C226.252 44.1596 226.005 44.0996 225.819 43.9796C225.645 43.8596 225.452 43.6663 225.239 43.3996L217.599 33.4596H218.099V42.9196C218.099 43.3196 217.999 43.6263 217.799 43.8396C217.599 44.053 217.305 44.1596 216.919 44.1596ZM230.82 44.1596C230.5 44.1596 230.24 44.0863 230.04 43.9396C229.853 43.793 229.74 43.5996 229.7 43.3596C229.66 43.1063 229.706 42.8263 229.84 42.5196L235.12 30.8196C235.293 30.433 235.5 30.1596 235.74 29.9996C235.993 29.8263 236.28 29.7396 236.6 29.7396C236.906 29.7396 237.18 29.8263 237.42 29.9996C237.673 30.1596 237.886 30.433 238.06 30.8196L243.36 42.5196C243.506 42.8263 243.56 43.1063 243.52 43.3596C243.48 43.613 243.366 43.813 243.18 43.9596C242.993 44.093 242.746 44.1596 242.44 44.1596C242.066 44.1596 241.773 44.073 241.56 43.8996C241.36 43.713 241.18 43.433 241.02 43.0596L239.72 40.0396L240.8 40.7396H232.36L233.44 40.0396L232.16 43.0596C231.986 43.4463 231.806 43.7263 231.62 43.8996C231.433 44.073 231.166 44.1596 230.82 44.1596ZM236.56 32.6796L233.76 39.3396L233.24 38.6996H239.92L239.42 39.3396L236.6 32.6796H236.56ZM246.862 43.9996C246.449 43.9996 246.129 43.8863 245.902 43.6596C245.676 43.4196 245.562 43.093 245.562 42.6796V31.1396C245.562 30.713 245.669 30.393 245.882 30.1796C246.109 29.953 246.429 29.8396 246.842 29.8396C247.256 29.8396 247.569 29.953 247.782 30.1796C248.009 30.393 248.122 30.713 248.122 31.1396V41.8196H253.922C254.282 41.8196 254.556 41.913 254.742 42.0996C254.942 42.2863 255.042 42.553 255.042 42.8996C255.042 43.2463 254.942 43.5196 254.742 43.7196C254.556 43.9063 254.282 43.9996 253.922 43.9996H246.862Z" fill="white"/>
<path d="M133.933 69.9996C133.728 69.9996 133.569 69.9483 133.457 69.8456C133.354 69.7336 133.303 69.575 133.303 69.3696V60.7596C133.303 60.5543 133.354 60.4003 133.457 60.2976C133.569 60.1856 133.728 60.1296 133.933 60.1296H139.141C139.3 60.1296 139.421 60.1716 139.505 60.2556C139.589 60.3396 139.631 60.4563 139.631 60.6056C139.631 60.7643 139.589 60.8856 139.505 60.9696C139.421 61.0536 139.3 61.0956 139.141 61.0956H134.423V64.5116H138.847C139.006 64.5116 139.127 64.5536 139.211 64.6376C139.295 64.7123 139.337 64.829 139.337 64.9876C139.337 65.1463 139.295 65.2676 139.211 65.3516C139.127 65.4356 139.006 65.4776 138.847 65.4776H134.423V69.0336H139.141C139.3 69.0336 139.421 69.0756 139.505 69.1596C139.589 69.2436 139.631 69.3603 139.631 69.5096C139.631 69.6683 139.589 69.7896 139.505 69.8736C139.421 69.9576 139.3 69.9996 139.141 69.9996H133.933ZM141.871 70.0976C141.684 70.0976 141.544 70.0463 141.451 69.9436C141.358 69.841 141.311 69.6963 141.311 69.5096V63.6716C141.311 63.485 141.358 63.345 141.451 63.2516C141.544 63.149 141.68 63.0976 141.857 63.0976C142.034 63.0976 142.17 63.149 142.263 63.2516C142.366 63.345 142.417 63.485 142.417 63.6716V64.8756L142.263 64.7076C142.459 64.1663 142.776 63.7603 143.215 63.4896C143.663 63.2096 144.176 63.0696 144.755 63.0696C145.296 63.0696 145.744 63.1676 146.099 63.3636C146.463 63.5596 146.734 63.8583 146.911 64.2596C147.088 64.6516 147.177 65.151 147.177 65.7576V69.5096C147.177 69.6963 147.126 69.841 147.023 69.9436C146.93 70.0463 146.794 70.0976 146.617 70.0976C146.43 70.0976 146.286 70.0463 146.183 69.9436C146.09 69.841 146.043 69.6963 146.043 69.5096V65.8276C146.043 65.193 145.917 64.731 145.665 64.4416C145.422 64.143 145.03 63.9936 144.489 63.9936C143.864 63.9936 143.364 64.1896 142.991 64.5816C142.627 64.9643 142.445 65.4776 142.445 66.1216V69.5096C142.445 69.9016 142.254 70.0976 141.871 70.0976ZM151.564 70.1256C151.144 70.1256 150.719 70.0743 150.29 69.9716C149.87 69.869 149.478 69.6916 149.114 69.4396C149.021 69.3743 148.955 69.2996 148.918 69.2156C148.881 69.1223 148.867 69.0336 148.876 68.9496C148.895 68.8563 148.932 68.777 148.988 68.7116C149.053 68.6463 149.128 68.609 149.212 68.5996C149.305 68.581 149.408 68.5996 149.52 68.6556C149.884 68.8796 150.234 69.0383 150.57 69.1316C150.915 69.2156 151.256 69.2576 151.592 69.2576C152.124 69.2576 152.525 69.1596 152.796 68.9636C153.067 68.7676 153.202 68.5016 153.202 68.1656C153.202 67.9043 153.113 67.699 152.936 67.5496C152.759 67.391 152.479 67.2696 152.096 67.1856L150.822 66.9056C150.234 66.7843 149.795 66.5743 149.506 66.2756C149.226 65.977 149.086 65.5896 149.086 65.1136C149.086 64.6936 149.193 64.3343 149.408 64.0356C149.632 63.7276 149.945 63.4896 150.346 63.3216C150.747 63.1536 151.214 63.0696 151.746 63.0696C152.157 63.0696 152.544 63.1256 152.908 63.2376C153.281 63.3403 153.617 63.5083 153.916 63.7416C154.009 63.807 154.07 63.8863 154.098 63.9796C154.135 64.0636 154.14 64.1523 154.112 64.2456C154.093 64.3296 154.051 64.4043 153.986 64.4696C153.921 64.5256 153.841 64.5583 153.748 64.5676C153.655 64.577 153.557 64.549 153.454 64.4836C153.174 64.297 152.889 64.1616 152.6 64.0776C152.311 63.9843 152.026 63.9376 151.746 63.9376C151.223 63.9376 150.827 64.0403 150.556 64.2456C150.285 64.451 150.15 64.7216 150.15 65.0576C150.15 65.319 150.234 65.5336 150.402 65.7016C150.57 65.8696 150.831 65.991 151.186 66.0656L152.46 66.3316C153.067 66.4623 153.519 66.6723 153.818 66.9616C154.126 67.2416 154.28 67.6243 154.28 68.1096C154.28 68.7256 154.033 69.2156 153.538 69.5796C153.043 69.9436 152.385 70.1256 151.564 70.1256ZM156.568 70.0696C156.382 70.0696 156.242 70.0183 156.148 69.9156C156.055 69.8036 156.008 69.6496 156.008 69.4536V63.7276C156.008 63.5316 156.055 63.3823 156.148 63.2796C156.242 63.177 156.382 63.1256 156.568 63.1256C156.746 63.1256 156.886 63.177 156.988 63.2796C157.091 63.3823 157.142 63.5316 157.142 63.7276V69.4536C157.142 69.6496 157.091 69.8036 156.988 69.9156C156.895 70.0183 156.755 70.0696 156.568 70.0696ZM156.568 61.5576C156.335 61.5576 156.153 61.497 156.022 61.3756C155.892 61.245 155.826 61.0723 155.826 60.8576C155.826 60.6336 155.892 60.4656 156.022 60.3536C156.153 60.2323 156.335 60.1716 156.568 60.1716C156.811 60.1716 156.993 60.2323 157.114 60.3536C157.245 60.4656 157.31 60.6336 157.31 60.8576C157.31 61.0723 157.245 61.245 157.114 61.3756C156.993 61.497 156.811 61.5576 156.568 61.5576ZM159.822 70.0976C159.636 70.0976 159.496 70.0463 159.402 69.9436C159.309 69.841 159.262 69.6963 159.262 69.5096V63.6716C159.262 63.485 159.309 63.345 159.402 63.2516C159.496 63.149 159.631 63.0976 159.808 63.0976C159.986 63.0976 160.121 63.149 160.214 63.2516C160.317 63.345 160.368 63.485 160.368 63.6716V64.8756L160.214 64.7076C160.41 64.1663 160.728 63.7603 161.166 63.4896C161.614 63.2096 162.128 63.0696 162.706 63.0696C163.248 63.0696 163.696 63.1676 164.05 63.3636C164.414 63.5596 164.685 63.8583 164.862 64.2596C165.04 64.6516 165.128 65.151 165.128 65.7576V69.5096C165.128 69.6963 165.077 69.841 164.974 69.9436C164.881 70.0463 164.746 70.0976 164.568 70.0976C164.382 70.0976 164.237 70.0463 164.134 69.9436C164.041 69.841 163.994 69.6963 163.994 69.5096V65.8276C163.994 65.193 163.868 64.731 163.616 64.4416C163.374 64.143 162.982 63.9936 162.44 63.9936C161.815 63.9936 161.316 64.1896 160.942 64.5816C160.578 64.9643 160.396 65.4776 160.396 66.1216V69.5096C160.396 69.9016 160.205 70.0976 159.822 70.0976ZM169.361 70.1256C168.895 70.1256 168.475 70.037 168.101 69.8596C167.737 69.673 167.448 69.421 167.233 69.1036C167.019 68.7863 166.911 68.4316 166.911 68.0396C166.911 67.5356 167.037 67.139 167.289 66.8496C167.551 66.5603 167.975 66.355 168.563 66.2336C169.161 66.1123 169.973 66.0516 170.999 66.0516H171.629V66.7936H171.013C170.257 66.7936 169.66 66.831 169.221 66.9056C168.792 66.971 168.489 67.0876 168.311 67.2556C168.143 67.4236 168.059 67.6616 168.059 67.9696C168.059 68.3523 168.19 68.665 168.451 68.9076C168.722 69.1503 169.086 69.2716 169.543 69.2716C169.917 69.2716 170.243 69.183 170.523 69.0056C170.813 68.8283 171.037 68.5856 171.195 68.2776C171.363 67.9696 171.447 67.615 171.447 67.2136V65.6176C171.447 65.039 171.331 64.6236 171.097 64.3716C170.864 64.1103 170.481 63.9796 169.949 63.9796C169.623 63.9796 169.296 64.0216 168.969 64.1056C168.643 64.1896 168.297 64.325 167.933 64.5116C167.803 64.577 167.691 64.6003 167.597 64.5816C167.504 64.5536 167.429 64.5023 167.373 64.4276C167.317 64.353 167.285 64.269 167.275 64.1756C167.266 64.073 167.285 63.975 167.331 63.8816C167.387 63.7883 167.471 63.7136 167.583 63.6576C167.994 63.4523 168.4 63.303 168.801 63.2096C169.203 63.1163 169.585 63.0696 169.949 63.0696C170.537 63.0696 171.023 63.1676 171.405 63.3636C171.788 63.5503 172.073 63.8396 172.259 64.2316C172.446 64.6143 172.539 65.109 172.539 65.7156V69.5096C172.539 69.6963 172.493 69.841 172.399 69.9436C172.315 70.0463 172.189 70.0976 172.021 70.0976C171.844 70.0976 171.709 70.0463 171.615 69.9436C171.522 69.841 171.475 69.6963 171.475 69.5096V68.4176H171.601C171.527 68.7723 171.382 69.0756 171.167 69.3276C170.962 69.5796 170.705 69.7756 170.397 69.9156C170.089 70.0556 169.744 70.1256 169.361 70.1256ZM175.231 70.0976C175.044 70.0976 174.904 70.0463 174.811 69.9436C174.718 69.841 174.671 69.6963 174.671 69.5096V63.6716C174.671 63.485 174.718 63.345 174.811 63.2516C174.904 63.149 175.04 63.0976 175.217 63.0976C175.394 63.0976 175.53 63.149 175.623 63.2516C175.726 63.345 175.777 63.485 175.777 63.6716V64.9036L175.623 64.7076C175.8 64.185 176.085 63.7836 176.477 63.5036C176.878 63.2143 177.354 63.0696 177.905 63.0696C178.484 63.0696 178.95 63.2096 179.305 63.4896C179.669 63.7603 179.912 64.185 180.033 64.7636H179.823C179.991 64.241 180.29 63.8303 180.719 63.5316C181.158 63.2236 181.666 63.0696 182.245 63.0696C182.758 63.0696 183.178 63.1676 183.505 63.3636C183.841 63.5596 184.093 63.8583 184.261 64.2596C184.429 64.6516 184.513 65.151 184.513 65.7576V69.5096C184.513 69.6963 184.462 69.841 184.359 69.9436C184.266 70.0463 184.126 70.0976 183.939 70.0976C183.762 70.0976 183.622 70.0463 183.519 69.9436C183.426 69.841 183.379 69.6963 183.379 69.5096V65.8136C183.379 65.1883 183.272 64.731 183.057 64.4416C182.842 64.143 182.478 63.9936 181.965 63.9936C181.405 63.9936 180.962 64.1896 180.635 64.5816C180.318 64.9643 180.159 65.487 180.159 66.1496V69.5096C180.159 69.6963 180.108 69.841 180.005 69.9436C179.912 70.0463 179.772 70.0976 179.585 70.0976C179.408 70.0976 179.268 70.0463 179.165 69.9436C179.072 69.841 179.025 69.6963 179.025 69.5096V65.8136C179.025 65.1883 178.913 64.731 178.689 64.4416C178.474 64.143 178.115 63.9936 177.611 63.9936C177.051 63.9936 176.608 64.1896 176.281 64.5816C175.964 64.9643 175.805 65.487 175.805 66.1496V69.5096C175.805 69.9016 175.614 70.0976 175.231 70.0976ZM189.461 70.1256C188.799 70.1256 188.225 69.981 187.739 69.6916C187.254 69.4023 186.876 68.9963 186.605 68.4736C186.344 67.9416 186.213 67.3163 186.213 66.5976C186.213 66.0563 186.288 65.571 186.437 65.1416C186.587 64.703 186.806 64.3296 187.095 64.0216C187.385 63.7136 187.725 63.4803 188.117 63.3216C188.519 63.1536 188.967 63.0696 189.461 63.0696C190.124 63.0696 190.698 63.2143 191.183 63.5036C191.669 63.793 192.042 64.2036 192.303 64.7356C192.574 65.2583 192.709 65.879 192.709 66.5976C192.709 67.139 192.635 67.6243 192.485 68.0536C192.336 68.483 192.117 68.8563 191.827 69.1736C191.538 69.4816 191.193 69.7196 190.791 69.8876C190.399 70.0463 189.956 70.1256 189.461 70.1256ZM189.461 69.2156C189.881 69.2156 190.25 69.113 190.567 68.9076C190.885 68.7023 191.127 68.4036 191.295 68.0116C191.473 67.6196 191.561 67.1483 191.561 66.5976C191.561 65.7483 191.37 65.0996 190.987 64.6516C190.614 64.2036 190.105 63.9796 189.461 63.9796C189.032 63.9796 188.659 64.0823 188.341 64.2876C188.033 64.4836 187.791 64.7776 187.613 65.1696C187.445 65.5523 187.361 66.0283 187.361 66.5976C187.361 67.4376 187.553 68.0863 187.935 68.5436C188.318 68.9916 188.827 69.2156 189.461 69.2156ZM196.709 70.1256C196.289 70.1256 195.864 70.0743 195.435 69.9716C195.015 69.869 194.623 69.6916 194.259 69.4396C194.165 69.3743 194.1 69.2996 194.063 69.2156C194.025 69.1223 194.011 69.0336 194.021 68.9496C194.039 68.8563 194.077 68.777 194.133 68.7116C194.198 68.6463 194.273 68.609 194.357 68.5996C194.45 68.581 194.553 68.5996 194.665 68.6556C195.029 68.8796 195.379 69.0383 195.715 69.1316C196.06 69.2156 196.401 69.2576 196.737 69.2576C197.269 69.2576 197.67 69.1596 197.941 68.9636C198.211 68.7676 198.347 68.5016 198.347 68.1656C198.347 67.9043 198.258 67.699 198.081 67.5496C197.903 67.391 197.623 67.2696 197.241 67.1856L195.967 66.9056C195.379 66.7843 194.94 66.5743 194.651 66.2756C194.371 65.977 194.231 65.5896 194.231 65.1136C194.231 64.6936 194.338 64.3343 194.553 64.0356C194.777 63.7276 195.089 63.4896 195.491 63.3216C195.892 63.1536 196.359 63.0696 196.891 63.0696C197.301 63.0696 197.689 63.1256 198.053 63.2376C198.426 63.3403 198.762 63.5083 199.061 63.7416C199.154 63.807 199.215 63.8863 199.243 63.9796C199.28 64.0636 199.285 64.1523 199.257 64.2456C199.238 64.3296 199.196 64.4043 199.131 64.4696C199.065 64.5256 198.986 64.5583 198.893 64.5676C198.799 64.577 198.701 64.549 198.599 64.4836C198.319 64.297 198.034 64.1616 197.745 64.0776C197.455 63.9843 197.171 63.9376 196.891 63.9376C196.368 63.9376 195.971 64.0403 195.701 64.2456C195.43 64.451 195.295 64.7216 195.295 65.0576C195.295 65.319 195.379 65.5336 195.547 65.7016C195.715 65.8696 195.976 65.991 196.331 66.0656L197.605 66.3316C198.211 66.4623 198.664 66.6723 198.963 66.9616C199.271 67.2416 199.425 67.6243 199.425 68.1096C199.425 68.7256 199.177 69.2156 198.683 69.5796C198.188 69.9436 197.53 70.1256 196.709 70.1256ZM206.904 70.1256C206.438 70.1256 206.018 70.037 205.644 69.8596C205.28 69.673 204.991 69.421 204.776 69.1036C204.562 68.7863 204.454 68.4316 204.454 68.0396C204.454 67.5356 204.58 67.139 204.832 66.8496C205.094 66.5603 205.518 66.355 206.106 66.2336C206.704 66.1123 207.516 66.0516 208.542 66.0516H209.172V66.7936H208.556C207.8 66.7936 207.203 66.831 206.764 66.9056C206.335 66.971 206.032 67.0876 205.854 67.2556C205.686 67.4236 205.602 67.6616 205.602 67.9696C205.602 68.3523 205.733 68.665 205.994 68.9076C206.265 69.1503 206.629 69.2716 207.086 69.2716C207.46 69.2716 207.786 69.183 208.066 69.0056C208.356 68.8283 208.58 68.5856 208.738 68.2776C208.906 67.9696 208.99 67.615 208.99 67.2136V65.6176C208.99 65.039 208.874 64.6236 208.64 64.3716C208.407 64.1103 208.024 63.9796 207.492 63.9796C207.166 63.9796 206.839 64.0216 206.512 64.1056C206.186 64.1896 205.84 64.325 205.476 64.5116C205.346 64.577 205.234 64.6003 205.14 64.5816C205.047 64.5536 204.972 64.5023 204.916 64.4276C204.86 64.353 204.828 64.269 204.818 64.1756C204.809 64.073 204.828 63.975 204.874 63.8816C204.93 63.7883 205.014 63.7136 205.126 63.6576C205.537 63.4523 205.943 63.303 206.344 63.2096C206.746 63.1163 207.128 63.0696 207.492 63.0696C208.08 63.0696 208.566 63.1676 208.948 63.3636C209.331 63.5503 209.616 63.8396 209.802 64.2316C209.989 64.6143 210.082 65.109 210.082 65.7156V69.5096C210.082 69.6963 210.036 69.841 209.942 69.9436C209.858 70.0463 209.732 70.0976 209.564 70.0976C209.387 70.0976 209.252 70.0463 209.158 69.9436C209.065 69.841 209.018 69.6963 209.018 69.5096V68.4176H209.144C209.07 68.7723 208.925 69.0756 208.71 69.3276C208.505 69.5796 208.248 69.7756 207.94 69.9156C207.632 70.0556 207.287 70.1256 206.904 70.1256ZM218.679 70.1256C217.998 70.1256 217.41 69.9763 216.915 69.6776C216.421 69.379 216.038 68.9636 215.767 68.4316C215.506 67.8903 215.375 67.265 215.375 66.5556C215.375 66.0143 215.45 65.529 215.599 65.0996C215.749 64.6703 215.968 64.3063 216.257 64.0076C216.547 63.6996 216.892 63.4663 217.293 63.3076C217.704 63.149 218.166 63.0696 218.679 63.0696C219.015 63.0696 219.365 63.121 219.729 63.2236C220.093 63.3263 220.425 63.5036 220.723 63.7556C220.817 63.821 220.877 63.9003 220.905 63.9936C220.933 64.087 220.933 64.1803 220.905 64.2736C220.877 64.3576 220.831 64.4323 220.765 64.4976C220.7 64.5536 220.616 64.5863 220.513 64.5956C220.42 64.605 220.322 64.5723 220.219 64.4976C219.977 64.311 219.729 64.1803 219.477 64.1056C219.225 64.031 218.983 63.9936 218.749 63.9936C218.385 63.9936 218.068 64.0543 217.797 64.1756C217.527 64.2876 217.298 64.451 217.111 64.6656C216.925 64.8803 216.78 65.1463 216.677 65.4636C216.584 65.781 216.537 66.1496 216.537 66.5696C216.537 67.3816 216.729 68.0256 217.111 68.5016C217.494 68.9683 218.04 69.2016 218.749 69.2016C218.983 69.2016 219.221 69.1643 219.463 69.0896C219.715 69.015 219.967 68.8843 220.219 68.6976C220.322 68.623 220.42 68.5903 220.513 68.5996C220.607 68.609 220.686 68.6463 220.751 68.7116C220.817 68.7676 220.859 68.8423 220.877 68.9356C220.905 69.029 220.905 69.1223 220.877 69.2156C220.849 69.2996 220.789 69.3743 220.695 69.4396C220.397 69.6823 220.07 69.8596 219.715 69.9716C219.361 70.0743 219.015 70.1256 218.679 70.1256ZM224.967 70.1256C224.305 70.1256 223.731 69.981 223.245 69.6916C222.76 69.4023 222.382 68.9963 222.111 68.4736C221.85 67.9416 221.719 67.3163 221.719 66.5976C221.719 66.0563 221.794 65.571 221.943 65.1416C222.093 64.703 222.312 64.3296 222.601 64.0216C222.891 63.7136 223.231 63.4803 223.623 63.3216C224.025 63.1536 224.473 63.0696 224.967 63.0696C225.63 63.0696 226.204 63.2143 226.689 63.5036C227.175 63.793 227.548 64.2036 227.809 64.7356C228.08 65.2583 228.215 65.879 228.215 66.5976C228.215 67.139 228.141 67.6243 227.991 68.0536C227.842 68.483 227.623 68.8563 227.333 69.1736C227.044 69.4816 226.699 69.7196 226.297 69.8876C225.905 70.0463 225.462 70.1256 224.967 70.1256ZM224.967 69.2156C225.387 69.2156 225.756 69.113 226.073 68.9076C226.391 68.7023 226.633 68.4036 226.801 68.0116C226.979 67.6196 227.067 67.1483 227.067 66.5976C227.067 65.7483 226.876 65.0996 226.493 64.6516C226.12 64.2036 225.611 63.9796 224.967 63.9796C224.538 63.9796 224.165 64.0823 223.847 64.2876C223.539 64.4836 223.297 64.7776 223.119 65.1696C222.951 65.5523 222.867 66.0283 222.867 66.5976C222.867 67.4376 223.059 68.0863 223.441 68.5436C223.824 68.9916 224.333 69.2156 224.967 69.2156ZM230.478 70.0976C230.292 70.0976 230.152 70.0463 230.058 69.9436C229.965 69.841 229.918 69.6963 229.918 69.5096V63.6716C229.918 63.485 229.965 63.345 230.058 63.2516C230.152 63.149 230.287 63.0976 230.464 63.0976C230.642 63.0976 230.777 63.149 230.87 63.2516C230.973 63.345 231.024 63.485 231.024 63.6716V64.8756L230.87 64.7076C231.066 64.1663 231.384 63.7603 231.822 63.4896C232.27 63.2096 232.784 63.0696 233.362 63.0696C233.904 63.0696 234.352 63.1676 234.706 63.3636C235.07 63.5596 235.341 63.8583 235.518 64.2596C235.696 64.6516 235.784 65.151 235.784 65.7576V69.5096C235.784 69.6963 235.733 69.841 235.63 69.9436C235.537 70.0463 235.402 70.0976 235.224 70.0976C235.038 70.0976 234.893 70.0463 234.79 69.9436C234.697 69.841 234.65 69.6963 234.65 69.5096V65.8276C234.65 65.193 234.524 64.731 234.272 64.4416C234.03 64.143 233.638 63.9936 233.096 63.9936C232.471 63.9936 231.972 64.1896 231.598 64.5816C231.234 64.9643 231.052 65.4776 231.052 66.1216V69.5096C231.052 69.9016 230.861 70.0976 230.478 70.0976ZM240.172 70.1256C239.752 70.1256 239.327 70.0743 238.898 69.9716C238.478 69.869 238.086 69.6916 237.722 69.4396C237.628 69.3743 237.563 69.2996 237.526 69.2156C237.488 69.1223 237.474 69.0336 237.484 68.9496C237.502 68.8563 237.54 68.777 237.596 68.7116C237.661 68.6463 237.736 68.609 237.82 68.5996C237.913 68.581 238.016 68.5996 238.128 68.6556C238.492 68.8796 238.842 69.0383 239.178 69.1316C239.523 69.2156 239.864 69.2576 240.2 69.2576C240.732 69.2576 241.133 69.1596 241.404 68.9636C241.674 68.7676 241.81 68.5016 241.81 68.1656C241.81 67.9043 241.721 67.699 241.544 67.5496C241.366 67.391 241.086 67.2696 240.704 67.1856L239.43 66.9056C238.842 66.7843 238.403 66.5743 238.114 66.2756C237.834 65.977 237.694 65.5896 237.694 65.1136C237.694 64.6936 237.801 64.3343 238.016 64.0356C238.24 63.7276 238.552 63.4896 238.954 63.3216C239.355 63.1536 239.822 63.0696 240.354 63.0696C240.764 63.0696 241.152 63.1256 241.516 63.2376C241.889 63.3403 242.225 63.5083 242.524 63.7416C242.617 63.807 242.678 63.8863 242.706 63.9796C242.743 64.0636 242.748 64.1523 242.72 64.2456C242.701 64.3296 242.659 64.4043 242.594 64.4696C242.528 64.5256 242.449 64.5583 242.356 64.5676C242.262 64.577 242.164 64.549 242.062 64.4836C241.782 64.297 241.497 64.1616 241.208 64.0776C240.918 63.9843 240.634 63.9376 240.354 63.9376C239.831 63.9376 239.434 64.0403 239.164 64.2456C238.893 64.451 238.758 64.7216 238.758 65.0576C238.758 65.319 238.842 65.5336 239.01 65.7016C239.178 65.8696 239.439 65.991 239.794 66.0656L241.068 66.3316C241.674 66.4623 242.127 66.6723 242.426 66.9616C242.734 67.2416 242.888 67.6243 242.888 68.1096C242.888 68.7256 242.64 69.2156 242.146 69.5796C241.651 69.9436 240.993 70.1256 240.172 70.1256ZM247.277 70.1256C246.745 70.1256 246.297 70.0323 245.933 69.8456C245.579 69.6496 245.313 69.3696 245.135 69.0056C244.958 68.6323 244.869 68.1796 244.869 67.6476V64.0776H243.931C243.773 64.0776 243.651 64.0403 243.567 63.9656C243.483 63.8816 243.441 63.7696 243.441 63.6296C243.441 63.4896 243.483 63.3823 243.567 63.3076C243.651 63.233 243.773 63.1956 243.931 63.1956H244.869V61.5856C244.869 61.399 244.921 61.259 245.023 61.1656C245.126 61.063 245.266 61.0116 245.443 61.0116C245.621 61.0116 245.756 61.063 245.849 61.1656C245.952 61.259 246.003 61.399 246.003 61.5856V63.1956H247.767C247.926 63.1956 248.047 63.233 248.131 63.3076C248.215 63.3823 248.257 63.4896 248.257 63.6296C248.257 63.7696 248.215 63.8816 248.131 63.9656C248.047 64.0403 247.926 64.0776 247.767 64.0776H246.003V67.5356C246.003 68.0676 246.115 68.4736 246.339 68.7536C246.563 69.0243 246.927 69.1596 247.431 69.1596C247.609 69.1596 247.758 69.141 247.879 69.1036C248.01 69.0663 248.117 69.0476 248.201 69.0476C248.285 69.0383 248.355 69.0663 248.411 69.1316C248.467 69.197 248.495 69.309 248.495 69.4676C248.495 69.5796 248.472 69.6823 248.425 69.7756C248.388 69.869 248.318 69.9343 248.215 69.9716C248.103 70.009 247.954 70.0416 247.767 70.0696C247.59 70.107 247.427 70.1256 247.277 70.1256ZM250.016 70.0976C249.829 70.0976 249.685 70.0463 249.582 69.9436C249.489 69.841 249.442 69.6963 249.442 69.5096V63.6716C249.442 63.485 249.489 63.345 249.582 63.2516C249.675 63.149 249.811 63.0976 249.988 63.0976C250.165 63.0976 250.301 63.149 250.394 63.2516C250.497 63.345 250.548 63.485 250.548 63.6716V64.8056H250.408C250.557 64.255 250.842 63.8303 251.262 63.5316C251.682 63.233 252.2 63.0743 252.816 63.0556C252.956 63.0463 253.068 63.079 253.152 63.1536C253.236 63.219 253.283 63.3356 253.292 63.5036C253.301 63.6623 253.264 63.7883 253.18 63.8816C253.096 63.975 252.965 64.031 252.788 64.0496L252.564 64.0776C251.929 64.1336 251.439 64.339 251.094 64.6936C250.758 65.039 250.59 65.515 250.59 66.1216V69.5096C250.59 69.6963 250.539 69.841 250.436 69.9436C250.343 70.0463 250.203 70.0976 250.016 70.0976ZM256.868 70.1256C256.317 70.1256 255.86 70.0276 255.496 69.8316C255.141 69.6263 254.87 69.323 254.684 68.9216C254.506 68.5203 254.418 68.021 254.418 67.4236V63.6716C254.418 63.4756 254.464 63.331 254.558 63.2376C254.66 63.1443 254.8 63.0976 254.978 63.0976C255.164 63.0976 255.304 63.1443 255.398 63.2376C255.5 63.331 255.552 63.4756 255.552 63.6716V67.4096C255.552 68.007 255.673 68.455 255.916 68.7536C256.168 69.043 256.56 69.1876 257.092 69.1876C257.67 69.1876 258.142 68.9916 258.506 68.5996C258.87 68.2076 259.052 67.6943 259.052 67.0596V63.6716C259.052 63.4756 259.098 63.331 259.192 63.2376C259.294 63.1443 259.439 63.0976 259.626 63.0976C259.803 63.0976 259.938 63.1443 260.032 63.2376C260.134 63.331 260.186 63.4756 260.186 63.6716V69.5096C260.186 69.9016 260.004 70.0976 259.64 70.0976C259.462 70.0976 259.322 70.0463 259.22 69.9436C259.126 69.841 259.08 69.6963 259.08 69.5096V68.2356L259.262 68.4316C259.075 68.9823 258.767 69.4023 258.338 69.6916C257.918 69.981 257.428 70.1256 256.868 70.1256ZM262.867 70.0696C262.68 70.0696 262.54 70.0183 262.447 69.9156C262.354 69.8036 262.307 69.6496 262.307 69.4536V63.7276C262.307 63.5316 262.354 63.3823 262.447 63.2796C262.54 63.177 262.68 63.1256 262.867 63.1256C263.044 63.1256 263.184 63.177 263.287 63.2796C263.39 63.3823 263.441 63.5316 263.441 63.7276V69.4536C263.441 69.6496 263.39 69.8036 263.287 69.9156C263.194 70.0183 263.054 70.0696 262.867 70.0696ZM262.867 61.5576C262.634 61.5576 262.452 61.497 262.321 61.3756C262.19 61.245 262.125 61.0723 262.125 60.8576C262.125 60.6336 262.19 60.4656 262.321 60.3536C262.452 60.2323 262.634 60.1716 262.867 60.1716C263.11 60.1716 263.292 60.2323 263.413 60.3536C263.544 60.4656 263.609 60.6336 263.609 60.8576C263.609 61.0723 263.544 61.245 263.413 61.3756C263.292 61.497 263.11 61.5576 262.867 61.5576ZM266.135 70.0976C265.948 70.0976 265.804 70.0463 265.701 69.9436C265.608 69.841 265.561 69.6963 265.561 69.5096V63.6716C265.561 63.485 265.608 63.345 265.701 63.2516C265.794 63.149 265.93 63.0976 266.107 63.0976C266.284 63.0976 266.42 63.149 266.513 63.2516C266.616 63.345 266.667 63.485 266.667 63.6716V64.8056H266.527C266.676 64.255 266.961 63.8303 267.381 63.5316C267.801 63.233 268.319 63.0743 268.935 63.0556C269.075 63.0463 269.187 63.079 269.271 63.1536C269.355 63.219 269.402 63.3356 269.411 63.5036C269.42 63.6623 269.383 63.7883 269.299 63.8816C269.215 63.975 269.084 64.031 268.907 64.0496L268.683 64.0776C268.048 64.1336 267.558 64.339 267.213 64.6936C266.877 65.039 266.709 65.515 266.709 66.1216V69.5096C266.709 69.6963 266.658 69.841 266.555 69.9436C266.462 70.0463 266.322 70.0976 266.135 70.0976ZM135.683 86.0976C135.524 86.0976 135.384 86.0556 135.263 85.9716C135.142 85.8783 135.039 85.7383 134.955 85.5516L132.533 79.8956C132.468 79.7556 132.444 79.625 132.463 79.5036C132.482 79.3823 132.538 79.2843 132.631 79.2096C132.724 79.135 132.855 79.0976 133.023 79.0976C133.172 79.0976 133.289 79.1303 133.373 79.1956C133.457 79.261 133.532 79.3776 133.597 79.5456L135.893 85.1596H135.515L137.853 79.5456C137.918 79.3776 137.993 79.261 138.077 79.1956C138.161 79.1303 138.282 79.0976 138.441 79.0976C138.59 79.0976 138.702 79.135 138.777 79.2096C138.861 79.2843 138.908 79.3823 138.917 79.5036C138.936 79.6156 138.917 79.7416 138.861 79.8816L136.411 85.5516C136.346 85.7383 136.248 85.8783 136.117 85.9716C135.996 86.0556 135.851 86.0976 135.683 86.0976ZM140.914 86.0696C140.727 86.0696 140.587 86.0183 140.494 85.9156C140.401 85.8036 140.354 85.6496 140.354 85.4536V79.7276C140.354 79.5316 140.401 79.3823 140.494 79.2796C140.587 79.177 140.727 79.1256 140.914 79.1256C141.091 79.1256 141.231 79.177 141.334 79.2796C141.437 79.3823 141.488 79.5316 141.488 79.7276V85.4536C141.488 85.6496 141.437 85.8036 141.334 85.9156C141.241 86.0183 141.101 86.0696 140.914 86.0696ZM141.376 78.2156C141.311 78.309 141.231 78.365 141.138 78.3836C141.045 78.393 140.956 78.379 140.872 78.3416C140.788 78.295 140.727 78.2296 140.69 78.1456C140.653 78.0616 140.662 77.9636 140.718 77.8516L141.894 75.5696C141.959 75.439 142.043 75.355 142.146 75.3176C142.249 75.2803 142.351 75.2756 142.454 75.3036C142.566 75.3223 142.659 75.369 142.734 75.4436C142.809 75.5183 142.851 75.607 142.86 75.7096C142.879 75.8123 142.851 75.9196 142.776 76.0316L141.376 78.2156ZM144.168 86.0976C143.981 86.0976 143.841 86.0463 143.748 85.9436C143.655 85.841 143.608 85.6963 143.608 85.5096V79.6716C143.608 79.485 143.655 79.345 143.748 79.2516C143.841 79.149 143.977 79.0976 144.154 79.0976C144.331 79.0976 144.467 79.149 144.56 79.2516C144.663 79.345 144.714 79.485 144.714 79.6716V80.8756L144.56 80.7076C144.756 80.1663 145.073 79.7603 145.512 79.4896C145.96 79.2096 146.473 79.0696 147.052 79.0696C147.593 79.0696 148.041 79.1676 148.396 79.3636C148.76 79.5596 149.031 79.8583 149.208 80.2596C149.385 80.6516 149.474 81.151 149.474 81.7576V85.5096C149.474 85.6963 149.423 85.841 149.32 85.9436C149.227 86.0463 149.091 86.0976 148.914 86.0976C148.727 86.0976 148.583 86.0463 148.48 85.9436C148.387 85.841 148.34 85.6963 148.34 85.5096V81.8276C148.34 81.193 148.214 80.731 147.962 80.4416C147.719 80.143 147.327 79.9936 146.786 79.9936C146.161 79.9936 145.661 80.1896 145.288 80.5816C144.924 80.9643 144.742 81.4776 144.742 82.1216V85.5096C144.742 85.9016 144.551 86.0976 144.168 86.0976ZM154.449 86.1256C153.768 86.1256 153.18 85.9763 152.685 85.6776C152.19 85.379 151.808 84.9636 151.537 84.4316C151.276 83.8903 151.145 83.265 151.145 82.5556C151.145 82.0143 151.22 81.529 151.369 81.0996C151.518 80.6703 151.738 80.3063 152.027 80.0076C152.316 79.6996 152.662 79.4663 153.063 79.3076C153.474 79.149 153.936 79.0696 154.449 79.0696C154.785 79.0696 155.135 79.121 155.499 79.2236C155.863 79.3263 156.194 79.5036 156.493 79.7556C156.586 79.821 156.647 79.9003 156.675 79.9936C156.703 80.087 156.703 80.1803 156.675 80.2736C156.647 80.3576 156.6 80.4323 156.535 80.4976C156.47 80.5536 156.386 80.5863 156.283 80.5956C156.19 80.605 156.092 80.5723 155.989 80.4976C155.746 80.311 155.499 80.1803 155.247 80.1056C154.995 80.031 154.752 79.9936 154.519 79.9936C154.155 79.9936 153.838 80.0543 153.567 80.1756C153.296 80.2876 153.068 80.451 152.881 80.6656C152.694 80.8803 152.55 81.1463 152.447 81.4636C152.354 81.781 152.307 82.1496 152.307 82.5696C152.307 83.3816 152.498 84.0256 152.881 84.5016C153.264 84.9683 153.81 85.2016 154.519 85.2016C154.752 85.2016 154.99 85.1643 155.233 85.0896C155.485 85.015 155.737 84.8843 155.989 84.6976C156.092 84.623 156.19 84.5903 156.283 84.5996C156.376 84.609 156.456 84.6463 156.521 84.7116C156.586 84.7676 156.628 84.8423 156.647 84.9356C156.675 85.029 156.675 85.1223 156.647 85.2156C156.619 85.2996 156.558 85.3743 156.465 85.4396C156.166 85.6823 155.84 85.8596 155.485 85.9716C155.13 86.0743 154.785 86.1256 154.449 86.1256ZM160.453 86.1256C159.903 86.1256 159.445 86.0276 159.081 85.8316C158.727 85.6263 158.456 85.323 158.269 84.9216C158.092 84.5203 158.003 84.021 158.003 83.4236V79.6716C158.003 79.4756 158.05 79.331 158.143 79.2376C158.246 79.1443 158.386 79.0976 158.563 79.0976C158.75 79.0976 158.89 79.1443 158.983 79.2376C159.086 79.331 159.137 79.4756 159.137 79.6716V83.4096C159.137 84.007 159.259 84.455 159.501 84.7536C159.753 85.043 160.145 85.1876 160.677 85.1876C161.256 85.1876 161.727 84.9916 162.091 84.5996C162.455 84.2076 162.637 83.6943 162.637 83.0596V79.6716C162.637 79.4756 162.684 79.331 162.777 79.2376C162.88 79.1443 163.025 79.0976 163.211 79.0976C163.389 79.0976 163.524 79.1443 163.617 79.2376C163.72 79.331 163.771 79.4756 163.771 79.6716V85.5096C163.771 85.9016 163.589 86.0976 163.225 86.0976C163.048 86.0976 162.908 86.0463 162.805 85.9436C162.712 85.841 162.665 85.6963 162.665 85.5096V84.2356L162.847 84.4316C162.661 84.9823 162.353 85.4023 161.923 85.6916C161.503 85.981 161.013 86.1256 160.453 86.1256ZM167.965 86.1256C167.293 86.1256 166.78 85.9203 166.425 85.5096C166.07 85.099 165.893 84.511 165.893 83.7456V76.6056C165.893 76.419 165.94 76.279 166.033 76.1856C166.126 76.083 166.266 76.0316 166.453 76.0316C166.63 76.0316 166.77 76.083 166.873 76.1856C166.976 76.279 167.027 76.419 167.027 76.6056V83.6616C167.027 84.1656 167.125 84.5436 167.321 84.7956C167.526 85.0383 167.825 85.1596 168.217 85.1596C168.301 85.1596 168.376 85.155 168.441 85.1456C168.506 85.1363 168.572 85.1316 168.637 85.1316C168.74 85.1223 168.81 85.1456 168.847 85.2016C168.894 85.2576 168.917 85.3696 168.917 85.5376C168.917 85.7056 168.88 85.8316 168.805 85.9156C168.73 85.9996 168.609 86.0556 168.441 86.0836C168.366 86.093 168.287 86.1023 168.203 86.1116C168.119 86.121 168.04 86.1256 167.965 86.1256ZM172.795 86.1256C172.133 86.1256 171.559 85.981 171.073 85.6916C170.588 85.4023 170.21 84.9963 169.939 84.4736C169.678 83.9416 169.547 83.3163 169.547 82.5976C169.547 82.0563 169.622 81.571 169.771 81.1416C169.921 80.703 170.14 80.3296 170.429 80.0216C170.719 79.7136 171.059 79.4803 171.451 79.3216C171.853 79.1536 172.301 79.0696 172.795 79.0696C173.458 79.0696 174.032 79.2143 174.517 79.5036C175.003 79.793 175.376 80.2036 175.637 80.7356C175.908 81.2583 176.043 81.879 176.043 82.5976C176.043 83.139 175.969 83.6243 175.819 84.0536C175.67 84.483 175.451 84.8563 175.161 85.1736C174.872 85.4816 174.527 85.7196 174.125 85.8876C173.733 86.0463 173.29 86.1256 172.795 86.1256ZM172.795 85.2156C173.215 85.2156 173.584 85.113 173.901 84.9076C174.219 84.7023 174.461 84.4036 174.629 84.0116C174.807 83.6196 174.895 83.1483 174.895 82.5976C174.895 81.7483 174.704 81.0996 174.321 80.6516C173.948 80.2036 173.439 79.9796 172.795 79.9796C172.366 79.9796 171.993 80.0823 171.675 80.2876C171.367 80.4836 171.125 80.7776 170.947 81.1696C170.779 81.5523 170.695 82.0283 170.695 82.5976C170.695 83.4376 170.887 84.0863 171.269 84.5436C171.652 84.9916 172.161 85.2156 172.795 85.2156ZM180.043 86.1256C179.623 86.1256 179.198 86.0743 178.769 85.9716C178.349 85.869 177.957 85.6916 177.593 85.4396C177.499 85.3743 177.434 85.2996 177.397 85.2156C177.359 85.1223 177.345 85.0336 177.355 84.9496C177.373 84.8563 177.411 84.777 177.467 84.7116C177.532 84.6463 177.607 84.609 177.691 84.5996C177.784 84.581 177.887 84.5996 177.999 84.6556C178.363 84.8796 178.713 85.0383 179.049 85.1316C179.394 85.2156 179.735 85.2576 180.071 85.2576C180.603 85.2576 181.004 85.1596 181.275 84.9636C181.545 84.7676 181.681 84.5016 181.681 84.1656C181.681 83.9043 181.592 83.699 181.415 83.5496C181.237 83.391 180.957 83.2696 180.575 83.1856L179.301 82.9056C178.713 82.7843 178.274 82.5743 177.985 82.2756C177.705 81.977 177.565 81.5896 177.565 81.1136C177.565 80.6936 177.672 80.3343 177.887 80.0356C178.111 79.7276 178.423 79.4896 178.825 79.3216C179.226 79.1536 179.693 79.0696 180.225 79.0696C180.635 79.0696 181.023 79.1256 181.387 79.2376C181.76 79.3403 182.096 79.5083 182.395 79.7416C182.488 79.807 182.549 79.8863 182.577 79.9796C182.614 80.0636 182.619 80.1523 182.591 80.2456C182.572 80.3296 182.53 80.4043 182.465 80.4696C182.399 80.5256 182.32 80.5583 182.227 80.5676C182.133 80.577 182.035 80.549 181.933 80.4836C181.653 80.297 181.368 80.1616 181.079 80.0776C180.789 79.9843 180.505 79.9376 180.225 79.9376C179.702 79.9376 179.305 80.0403 179.035 80.2456C178.764 80.451 178.629 80.7216 178.629 81.0576C178.629 81.319 178.713 81.5336 178.881 81.7016C179.049 81.8696 179.31 81.991 179.665 82.0656L180.939 82.3316C181.545 82.4623 181.998 82.6723 182.297 82.9616C182.605 83.2416 182.759 83.6243 182.759 84.1096C182.759 84.7256 182.511 85.2156 182.017 85.5796C181.522 85.9436 180.864 86.1256 180.043 86.1256ZM190.392 86.1256C189.972 86.1256 189.548 86.0743 189.118 85.9716C188.698 85.869 188.306 85.6916 187.942 85.4396C187.849 85.3743 187.784 85.2996 187.746 85.2156C187.709 85.1223 187.695 85.0336 187.704 84.9496C187.723 84.8563 187.76 84.777 187.816 84.7116C187.882 84.6463 187.956 84.609 188.04 84.5996C188.134 84.581 188.236 84.5996 188.348 84.6556C188.712 84.8796 189.062 85.0383 189.398 85.1316C189.744 85.2156 190.084 85.2576 190.42 85.2576C190.952 85.2576 191.354 85.1596 191.624 84.9636C191.895 84.7676 192.03 84.5016 192.03 84.1656C192.03 83.9043 191.942 83.699 191.764 83.5496C191.587 83.391 191.307 83.2696 190.924 83.1856L189.65 82.9056C189.062 82.7843 188.624 82.5743 188.334 82.2756C188.054 81.977 187.914 81.5896 187.914 81.1136C187.914 80.6936 188.022 80.3343 188.236 80.0356C188.46 79.7276 188.773 79.4896 189.174 79.3216C189.576 79.1536 190.042 79.0696 190.574 79.0696C190.985 79.0696 191.372 79.1256 191.736 79.2376C192.11 79.3403 192.446 79.5083 192.744 79.7416C192.838 79.807 192.898 79.8863 192.926 79.9796C192.964 80.0636 192.968 80.1523 192.94 80.2456C192.922 80.3296 192.88 80.4043 192.814 80.4696C192.749 80.5256 192.67 80.5583 192.576 80.5676C192.483 80.577 192.385 80.549 192.282 80.4836C192.002 80.297 191.718 80.1616 191.428 80.0776C191.139 79.9843 190.854 79.9376 190.574 79.9376C190.052 79.9376 189.655 80.0403 189.384 80.2456C189.114 80.451 188.978 80.7216 188.978 81.0576C188.978 81.319 189.062 81.5336 189.23 81.7016C189.398 81.8696 189.66 81.991 190.014 82.0656L191.288 82.3316C191.895 82.4623 192.348 82.6723 192.646 82.9616C192.954 83.2416 193.108 83.6243 193.108 84.1096C193.108 84.7256 192.861 85.2156 192.366 85.5796C191.872 85.9436 191.214 86.1256 190.392 86.1256ZM196.978 86.1256C196.512 86.1256 196.092 86.037 195.718 85.8596C195.354 85.673 195.065 85.421 194.85 85.1036C194.636 84.7863 194.528 84.4316 194.528 84.0396C194.528 83.5356 194.654 83.139 194.906 82.8496C195.168 82.5603 195.592 82.355 196.18 82.2336C196.778 82.1123 197.59 82.0516 198.616 82.0516H199.246V82.7936H198.63C197.874 82.7936 197.277 82.831 196.838 82.9056C196.409 82.971 196.106 83.0876 195.928 83.2556C195.76 83.4236 195.676 83.6616 195.676 83.9696C195.676 84.3523 195.807 84.665 196.068 84.9076C196.339 85.1503 196.703 85.2716 197.16 85.2716C197.534 85.2716 197.86 85.183 198.14 85.0056C198.43 84.8283 198.654 84.5856 198.812 84.2776C198.98 83.9696 199.064 83.615 199.064 83.2136V81.6176C199.064 81.039 198.948 80.6236 198.714 80.3716C198.481 80.1103 198.098 79.9796 197.566 79.9796C197.24 79.9796 196.913 80.0216 196.586 80.1056C196.26 80.1896 195.914 80.325 195.55 80.5116C195.42 80.577 195.308 80.6003 195.214 80.5816C195.121 80.5536 195.046 80.5023 194.99 80.4276C194.934 80.353 194.902 80.269 194.892 80.1756C194.883 80.073 194.902 79.975 194.948 79.8816C195.004 79.7883 195.088 79.7136 195.2 79.6576C195.611 79.4523 196.017 79.303 196.418 79.2096C196.82 79.1163 197.202 79.0696 197.566 79.0696C198.154 79.0696 198.64 79.1676 199.022 79.3636C199.405 79.5503 199.69 79.8396 199.876 80.2316C200.063 80.6143 200.156 81.109 200.156 81.7156V85.5096C200.156 85.6963 200.11 85.841 200.016 85.9436C199.932 86.0463 199.806 86.0976 199.638 86.0976C199.461 86.0976 199.326 86.0463 199.232 85.9436C199.139 85.841 199.092 85.6963 199.092 85.5096V84.4176H199.218C199.144 84.7723 198.999 85.0756 198.784 85.3276C198.579 85.5796 198.322 85.7756 198.014 85.9156C197.706 86.0556 197.361 86.1256 196.978 86.1256ZM204.668 86.1256C204.118 86.1256 203.66 86.0276 203.296 85.8316C202.942 85.6263 202.671 85.323 202.484 84.9216C202.307 84.5203 202.218 84.021 202.218 83.4236V79.6716C202.218 79.4756 202.265 79.331 202.358 79.2376C202.461 79.1443 202.601 79.0976 202.778 79.0976C202.965 79.0976 203.105 79.1443 203.198 79.2376C203.301 79.331 203.352 79.4756 203.352 79.6716V83.4096C203.352 84.007 203.474 84.455 203.716 84.7536C203.968 85.043 204.36 85.1876 204.892 85.1876C205.471 85.1876 205.942 84.9916 206.306 84.5996C206.67 84.2076 206.852 83.6943 206.852 83.0596V79.6716C206.852 79.4756 206.899 79.331 206.992 79.2376C207.095 79.1443 207.24 79.0976 207.426 79.0976C207.604 79.0976 207.739 79.1443 207.832 79.2376C207.935 79.331 207.986 79.4756 207.986 79.6716V85.5096C207.986 85.9016 207.804 86.0976 207.44 86.0976C207.263 86.0976 207.123 86.0463 207.02 85.9436C206.927 85.841 206.88 85.6963 206.88 85.5096V84.2356L207.062 84.4316C206.876 84.9823 206.568 85.4023 206.138 85.6916C205.718 85.981 205.228 86.1256 204.668 86.1256ZM212.698 86.1256C212.091 86.1256 211.559 85.981 211.102 85.6916C210.654 85.4023 210.304 84.9963 210.052 84.4736C209.809 83.9416 209.688 83.3163 209.688 82.5976C209.688 81.8696 209.809 81.2443 210.052 80.7216C210.304 80.1896 210.654 79.7836 211.102 79.5036C211.559 79.2143 212.091 79.0696 212.698 79.0696C213.314 79.0696 213.841 79.2236 214.28 79.5316C214.719 79.8396 215.013 80.255 215.162 80.7776H215.008V76.6056C215.008 76.419 215.055 76.279 215.148 76.1856C215.251 76.083 215.395 76.0316 215.582 76.0316C215.759 76.0316 215.895 76.083 215.988 76.1856C216.091 76.279 216.142 76.419 216.142 76.6056V85.5096C216.142 85.6963 216.095 85.841 216.002 85.9436C215.909 86.0463 215.769 86.0976 215.582 86.0976C215.405 86.0976 215.265 86.0463 215.162 85.9436C215.069 85.841 215.022 85.6963 215.022 85.5096V84.1796L215.176 84.3756C215.027 84.9076 214.728 85.3323 214.28 85.6496C213.841 85.967 213.314 86.1256 212.698 86.1256ZM212.936 85.2156C213.356 85.2156 213.725 85.113 214.042 84.9076C214.359 84.7023 214.602 84.4036 214.77 84.0116C214.947 83.6196 215.036 83.1483 215.036 82.5976C215.036 81.7483 214.845 81.0996 214.462 80.6516C214.089 80.2036 213.58 79.9796 212.936 79.9796C212.507 79.9796 212.133 80.0823 211.816 80.2876C211.508 80.4836 211.265 80.7776 211.088 81.1696C210.92 81.5523 210.836 82.0283 210.836 82.5976C210.836 83.4376 211.027 84.0863 211.41 84.5436C211.793 84.9916 212.301 85.2156 212.936 85.2156ZM220.412 86.1256C219.945 86.1256 219.525 86.037 219.152 85.8596C218.788 85.673 218.499 85.421 218.284 85.1036C218.069 84.7863 217.962 84.4316 217.962 84.0396C217.962 83.5356 218.088 83.139 218.34 82.8496C218.601 82.5603 219.026 82.355 219.614 82.2336C220.211 82.1123 221.023 82.0516 222.05 82.0516H222.68V82.7936H222.064C221.308 82.7936 220.711 82.831 220.272 82.9056C219.843 82.971 219.539 83.0876 219.362 83.2556C219.194 83.4236 219.11 83.6616 219.11 83.9696C219.11 84.3523 219.241 84.665 219.502 84.9076C219.773 85.1503 220.137 85.2716 220.594 85.2716C220.967 85.2716 221.294 85.183 221.574 85.0056C221.863 84.8283 222.087 84.5856 222.246 84.2776C222.414 83.9696 222.498 83.615 222.498 83.2136V81.6176C222.498 81.039 222.381 80.6236 222.148 80.3716C221.915 80.1103 221.532 79.9796 221 79.9796C220.673 79.9796 220.347 80.0216 220.02 80.1056C219.693 80.1896 219.348 80.325 218.984 80.5116C218.853 80.577 218.741 80.6003 218.648 80.5816C218.555 80.5536 218.48 80.5023 218.424 80.4276C218.368 80.353 218.335 80.269 218.326 80.1756C218.317 80.073 218.335 79.975 218.382 79.8816C218.438 79.7883 218.522 79.7136 218.634 79.6576C219.045 79.4523 219.451 79.303 219.852 79.2096C220.253 79.1163 220.636 79.0696 221 79.0696C221.588 79.0696 222.073 79.1676 222.456 79.3636C222.839 79.5503 223.123 79.8396 223.31 80.2316C223.497 80.6143 223.59 81.109 223.59 81.7156V85.5096C223.59 85.6963 223.543 85.841 223.45 85.9436C223.366 86.0463 223.24 86.0976 223.072 86.0976C222.895 86.0976 222.759 86.0463 222.666 85.9436C222.573 85.841 222.526 85.6963 222.526 85.5096V84.4176H222.652C222.577 84.7723 222.433 85.0756 222.218 85.3276C222.013 85.5796 221.756 85.7756 221.448 85.9156C221.14 86.0556 220.795 86.1256 220.412 86.1256ZM221.476 78.2156C221.411 78.309 221.331 78.365 221.238 78.3836C221.145 78.393 221.056 78.379 220.972 78.3416C220.888 78.295 220.827 78.2296 220.79 78.1456C220.753 78.0616 220.762 77.9636 220.818 77.8516L221.994 75.5696C222.059 75.439 222.143 75.355 222.246 75.3176C222.349 75.2803 222.451 75.2756 222.554 75.3036C222.666 75.3223 222.759 75.369 222.834 75.4436C222.909 75.5183 222.951 75.607 222.96 75.7096C222.979 75.8123 222.951 75.9196 222.876 76.0316L221.476 78.2156ZM228.228 86.0976C228.069 86.0976 227.929 86.0556 227.808 85.9716C227.687 85.8783 227.584 85.7383 227.5 85.5516L225.078 79.8956C225.013 79.7556 224.989 79.625 225.008 79.5036C225.027 79.3823 225.083 79.2843 225.176 79.2096C225.269 79.135 225.4 79.0976 225.568 79.0976C225.717 79.0976 225.834 79.1303 225.918 79.1956C226.002 79.261 226.077 79.3776 226.142 79.5456L228.438 85.1596H228.06L230.398 79.5456C230.463 79.3776 230.538 79.261 230.622 79.1956C230.706 79.1303 230.827 79.0976 230.986 79.0976C231.135 79.0976 231.247 79.135 231.322 79.2096C231.406 79.2843 231.453 79.3823 231.462 79.5036C231.481 79.6156 231.462 79.7416 231.406 79.8816L228.956 85.5516C228.891 85.7383 228.793 85.8783 228.662 85.9716C228.541 86.0556 228.396 86.0976 228.228 86.0976ZM235.869 86.1256C235.151 86.1256 234.53 85.9856 234.007 85.7056C233.494 85.4163 233.093 85.0103 232.803 84.4876C232.523 83.965 232.383 83.3396 232.383 82.6116C232.383 81.9023 232.523 81.2863 232.803 80.7636C233.083 80.2316 233.466 79.8163 233.951 79.5176C234.446 79.219 235.015 79.0696 235.659 79.0696C236.117 79.0696 236.527 79.149 236.891 79.3076C237.255 79.457 237.563 79.6763 237.815 79.9656C238.077 80.255 238.273 80.605 238.403 81.0156C238.543 81.4263 238.613 81.8883 238.613 82.4016C238.613 82.551 238.571 82.663 238.487 82.7376C238.403 82.803 238.282 82.8356 238.123 82.8356H233.251V82.0936H237.857L237.633 82.2756C237.633 81.7716 237.559 81.347 237.409 81.0016C237.26 80.647 237.041 80.3763 236.751 80.1896C236.471 80.003 236.117 79.9096 235.687 79.9096C235.211 79.9096 234.805 80.0216 234.469 80.2456C234.143 80.4603 233.895 80.7636 233.727 81.1556C233.559 81.5383 233.475 81.9863 233.475 82.4996V82.5836C233.475 83.4423 233.681 84.0956 234.091 84.5436C234.511 84.9916 235.104 85.2156 235.869 85.2156C236.187 85.2156 236.499 85.1736 236.807 85.0896C237.125 85.0056 237.433 84.8656 237.731 84.6696C237.862 84.5856 237.979 84.5483 238.081 84.5576C238.193 84.5576 238.282 84.5903 238.347 84.6556C238.413 84.7116 238.455 84.7863 238.473 84.8796C238.501 84.9636 238.492 85.057 238.445 85.1596C238.408 85.2623 238.329 85.351 238.207 85.4256C237.899 85.6496 237.535 85.8223 237.115 85.9436C236.695 86.065 236.28 86.1256 235.869 86.1256ZM240.814 86.0696C240.628 86.0696 240.488 86.0183 240.394 85.9156C240.301 85.8036 240.254 85.6496 240.254 85.4536V79.7276C240.254 79.5316 240.301 79.3823 240.394 79.2796C240.488 79.177 240.628 79.1256 240.814 79.1256C240.992 79.1256 241.132 79.177 241.234 79.2796C241.337 79.3823 241.388 79.5316 241.388 79.7276V85.4536C241.388 85.6496 241.337 85.8036 241.234 85.9156C241.141 86.0183 241.001 86.0696 240.814 86.0696ZM240.814 77.5576C240.581 77.5576 240.399 77.497 240.268 77.3756C240.138 77.245 240.072 77.0723 240.072 76.8576C240.072 76.6336 240.138 76.4656 240.268 76.3536C240.399 76.2323 240.581 76.1716 240.814 76.1716C241.057 76.1716 241.239 76.2323 241.36 76.3536C241.491 76.4656 241.556 76.6336 241.556 76.8576C241.556 77.0723 241.491 77.245 241.36 77.3756C241.239 77.497 241.057 77.5576 240.814 77.5576ZM245.804 86.1256C245.384 86.1256 244.96 86.0743 244.53 85.9716C244.11 85.869 243.718 85.6916 243.354 85.4396C243.261 85.3743 243.196 85.2996 243.158 85.2156C243.121 85.1223 243.107 85.0336 243.116 84.9496C243.135 84.8563 243.172 84.777 243.228 84.7116C243.294 84.6463 243.368 84.609 243.452 84.5996C243.546 84.581 243.648 84.5996 243.76 84.6556C244.124 84.8796 244.474 85.0383 244.81 85.1316C245.156 85.2156 245.496 85.2576 245.832 85.2576C246.364 85.2576 246.766 85.1596 247.036 84.9636C247.307 84.7676 247.442 84.5016 247.442 84.1656C247.442 83.9043 247.354 83.699 247.176 83.5496C246.999 83.391 246.719 83.2696 246.336 83.1856L245.062 82.9056C244.474 82.7843 244.036 82.5743 243.746 82.2756C243.466 81.977 243.326 81.5896 243.326 81.1136C243.326 80.6936 243.434 80.3343 243.648 80.0356C243.872 79.7276 244.185 79.4896 244.586 79.3216C244.988 79.1536 245.454 79.0696 245.986 79.0696C246.397 79.0696 246.784 79.1256 247.148 79.2376C247.522 79.3403 247.858 79.5083 248.156 79.7416C248.25 79.807 248.31 79.8863 248.338 79.9796C248.376 80.0636 248.38 80.1523 248.352 80.2456C248.334 80.3296 248.292 80.4043 248.226 80.4696C248.161 80.5256 248.082 80.5583 247.988 80.5676C247.895 80.577 247.797 80.549 247.694 80.4836C247.414 80.297 247.13 80.1616 246.84 80.0776C246.551 79.9843 246.266 79.9376 245.986 79.9376C245.464 79.9376 245.067 80.0403 244.796 80.2456C244.526 80.451 244.39 80.7216 244.39 81.0576C244.39 81.319 244.474 81.5336 244.642 81.7016C244.81 81.8696 245.072 81.991 245.426 82.0656L246.7 82.3316C247.307 82.4623 247.76 82.6723 248.058 82.9616C248.366 83.2416 248.52 83.6243 248.52 84.1096C248.52 84.7256 248.273 85.2156 247.778 85.5796C247.284 85.9436 246.626 86.1256 245.804 86.1256ZM250.852 87.3296C250.759 87.451 250.661 87.521 250.558 87.5396C250.456 87.5583 250.367 87.5396 250.292 87.4836C250.218 87.4276 250.176 87.3483 250.166 87.2456C250.166 87.143 250.213 87.031 250.306 86.9096C250.456 86.7136 250.558 86.513 250.614 86.3076C250.67 86.1116 250.698 85.9296 250.698 85.7616L250.754 86.0556C250.512 86.0556 250.316 85.9856 250.166 85.8456C250.026 85.6963 249.956 85.5096 249.956 85.2856C249.956 85.0616 250.022 84.8796 250.152 84.7396C250.292 84.5903 250.474 84.5156 250.698 84.5156C250.941 84.5156 251.132 84.5996 251.272 84.7676C251.412 84.9263 251.482 85.1596 251.482 85.4676C251.482 85.6636 251.464 85.8643 251.426 86.0696C251.389 86.2843 251.324 86.499 251.23 86.7136C251.137 86.9283 251.011 87.1336 250.852 87.3296ZM260.041 86.1256C259.322 86.1256 258.702 85.9856 258.179 85.7056C257.666 85.4163 257.264 85.0103 256.975 84.4876C256.695 83.965 256.555 83.3396 256.555 82.6116C256.555 81.9023 256.695 81.2863 256.975 80.7636C257.255 80.2316 257.638 79.8163 258.123 79.5176C258.618 79.219 259.187 79.0696 259.831 79.0696C260.288 79.0696 260.699 79.149 261.063 79.3076C261.427 79.457 261.735 79.6763 261.987 79.9656C262.248 80.255 262.444 80.605 262.575 81.0156C262.715 81.4263 262.785 81.8883 262.785 82.4016C262.785 82.551 262.743 82.663 262.659 82.7376C262.575 82.803 262.454 82.8356 262.295 82.8356H257.423V82.0936H262.029L261.805 82.2756C261.805 81.7716 261.73 81.347 261.581 81.0016C261.432 80.647 261.212 80.3763 260.923 80.1896C260.643 80.003 260.288 79.9096 259.859 79.9096C259.383 79.9096 258.977 80.0216 258.641 80.2456C258.314 80.4603 258.067 80.7636 257.899 81.1556C257.731 81.5383 257.647 81.9863 257.647 82.4996V82.5836C257.647 83.4423 257.852 84.0956 258.263 84.5436C258.683 84.9916 259.276 85.2156 260.041 85.2156C260.358 85.2156 260.671 85.1736 260.979 85.0896C261.296 85.0056 261.604 84.8656 261.903 84.6696C262.034 84.5856 262.15 84.5483 262.253 84.5576C262.365 84.5576 262.454 84.5903 262.519 84.6556C262.584 84.7116 262.626 84.7863 262.645 84.8796C262.673 84.9636 262.664 85.057 262.617 85.1596C262.58 85.2623 262.5 85.351 262.379 85.4256C262.071 85.6496 261.707 85.8223 261.287 85.9436C260.867 86.065 260.452 86.1256 260.041 86.1256ZM265.014 86.0976C264.828 86.0976 264.688 86.0463 264.594 85.9436C264.501 85.841 264.454 85.6963 264.454 85.5096V79.6716C264.454 79.485 264.501 79.345 264.594 79.2516C264.688 79.149 264.823 79.0976 265 79.0976C265.178 79.0976 265.313 79.149 265.406 79.2516C265.509 79.345 265.56 79.485 265.56 79.6716V80.9036L265.406 80.7076C265.584 80.185 265.868 79.7836 266.26 79.5036C266.662 79.2143 267.138 79.0696 267.688 79.0696C268.267 79.0696 268.734 79.2096 269.088 79.4896C269.452 79.7603 269.695 80.185 269.816 80.7636H269.606C269.774 80.241 270.073 79.8303 270.502 79.5316C270.941 79.2236 271.45 79.0696 272.028 79.0696C272.542 79.0696 272.962 79.1676 273.288 79.3636C273.624 79.5596 273.876 79.8583 274.044 80.2596C274.212 80.6516 274.296 81.151 274.296 81.7576V85.5096C274.296 85.6963 274.245 85.841 274.142 85.9436C274.049 86.0463 273.909 86.0976 273.722 86.0976C273.545 86.0976 273.405 86.0463 273.302 85.9436C273.209 85.841 273.162 85.6963 273.162 85.5096V81.8136C273.162 81.1883 273.055 80.731 272.84 80.4416C272.626 80.143 272.262 79.9936 271.748 79.9936C271.188 79.9936 270.745 80.1896 270.418 80.5816C270.101 80.9643 269.942 81.487 269.942 82.1496V85.5096C269.942 85.6963 269.891 85.841 269.788 85.9436C269.695 86.0463 269.555 86.0976 269.368 86.0976C269.191 86.0976 269.051 86.0463 268.948 85.9436C268.855 85.841 268.808 85.6963 268.808 85.5096V81.8136C268.808 81.1883 268.696 80.731 268.472 80.4416C268.258 80.143 267.898 79.9936 267.394 79.9936C266.834 79.9936 266.391 80.1896 266.064 80.5816C265.747 80.9643 265.588 81.487 265.588 82.1496V85.5096C265.588 85.9016 265.397 86.0976 265.014 86.0976ZM276.753 82.7376C276.613 82.7376 276.496 82.6956 276.403 82.6116C276.309 82.5183 276.263 82.4063 276.263 82.2756C276.263 82.1356 276.309 82.0236 276.403 81.9396C276.496 81.8463 276.613 81.7996 276.753 81.7996H279.903C280.033 81.7996 280.145 81.8463 280.239 81.9396C280.332 82.0236 280.379 82.1356 280.379 82.2756C280.379 82.4063 280.332 82.5183 280.239 82.6116C280.145 82.6956 280.033 82.7376 279.903 82.7376H276.753ZM133.709 105.618C133.522 105.618 133.382 105.566 133.289 105.464C133.196 105.37 133.149 105.23 133.149 105.044V96.6716C133.149 96.485 133.196 96.345 133.289 96.2516C133.382 96.149 133.518 96.0976 133.695 96.0976C133.882 96.0976 134.022 96.149 134.115 96.2516C134.218 96.345 134.269 96.485 134.269 96.6716V98.0016L134.115 97.8056C134.264 97.2736 134.558 96.8536 134.997 96.5456C135.445 96.2283 135.977 96.0696 136.593 96.0696C137.2 96.0696 137.727 96.2143 138.175 96.5036C138.632 96.7836 138.982 97.1896 139.225 97.7216C139.477 98.2443 139.603 98.8696 139.603 99.5976C139.603 100.316 139.477 100.942 139.225 101.474C138.982 101.996 138.637 102.402 138.189 102.692C137.741 102.981 137.209 103.126 136.593 103.126C135.977 103.126 135.45 102.972 135.011 102.664C134.572 102.346 134.274 101.926 134.115 101.404H134.283V105.044C134.283 105.23 134.232 105.37 134.129 105.464C134.026 105.566 133.886 105.618 133.709 105.618ZM136.355 102.216C136.784 102.216 137.153 102.113 137.461 101.908C137.778 101.702 138.021 101.404 138.189 101.012C138.366 100.62 138.455 100.148 138.455 99.5976C138.455 98.7483 138.264 98.0996 137.881 97.6516C137.508 97.2036 136.999 96.9796 136.355 96.9796C135.935 96.9796 135.566 97.0823 135.249 97.2876C134.932 97.4836 134.684 97.7776 134.507 98.1696C134.339 98.5523 134.255 99.0283 134.255 99.5976C134.255 100.438 134.446 101.086 134.829 101.544C135.212 101.992 135.72 102.216 136.355 102.216ZM143.453 103.126C142.986 103.126 142.566 103.037 142.193 102.86C141.829 102.673 141.54 102.421 141.325 102.104C141.11 101.786 141.003 101.432 141.003 101.04C141.003 100.536 141.129 100.139 141.381 99.8496C141.642 99.5603 142.067 99.355 142.655 99.2336C143.252 99.1123 144.064 99.0516 145.091 99.0516H145.721V99.7936H145.105C144.349 99.7936 143.752 99.831 143.313 99.9056C142.884 99.971 142.58 100.088 142.403 100.256C142.235 100.424 142.151 100.662 142.151 100.97C142.151 101.352 142.282 101.665 142.543 101.908C142.814 102.15 143.178 102.272 143.635 102.272C144.008 102.272 144.335 102.183 144.615 102.006C144.904 101.828 145.128 101.586 145.287 101.278C145.455 100.97 145.539 100.615 145.539 100.214V98.6176C145.539 98.039 145.422 97.6236 145.189 97.3716C144.956 97.1103 144.573 96.9796 144.041 96.9796C143.714 96.9796 143.388 97.0216 143.061 97.1056C142.734 97.1896 142.389 97.325 142.025 97.5116C141.894 97.577 141.782 97.6003 141.689 97.5816C141.596 97.5536 141.521 97.5023 141.465 97.4276C141.409 97.353 141.376 97.269 141.367 97.1756C141.358 97.073 141.376 96.975 141.423 96.8816C141.479 96.7883 141.563 96.7136 141.675 96.6576C142.086 96.4523 142.492 96.303 142.893 96.2096C143.294 96.1163 143.677 96.0696 144.041 96.0696C144.629 96.0696 145.114 96.1676 145.497 96.3636C145.88 96.5503 146.164 96.8396 146.351 97.2316C146.538 97.6143 146.631 98.109 146.631 98.7156V102.51C146.631 102.696 146.584 102.841 146.491 102.944C146.407 103.046 146.281 103.098 146.113 103.098C145.936 103.098 145.8 103.046 145.707 102.944C145.614 102.841 145.567 102.696 145.567 102.51V101.418H145.693C145.618 101.772 145.474 102.076 145.259 102.328C145.054 102.58 144.797 102.776 144.489 102.916C144.181 103.056 143.836 103.126 143.453 103.126ZM144.517 95.2156C144.452 95.309 144.372 95.365 144.279 95.3836C144.186 95.393 144.097 95.379 144.013 95.3416C143.929 95.295 143.868 95.2296 143.831 95.1456C143.794 95.0616 143.803 94.9636 143.859 94.8516L145.035 92.5696C145.1 92.439 145.184 92.355 145.287 92.3176C145.39 92.2803 145.492 92.2756 145.595 92.3036C145.707 92.3223 145.8 92.369 145.875 92.4436C145.95 92.5183 145.992 92.607 146.001 92.7096C146.02 92.8123 145.992 92.9196 145.917 93.0316L144.517 95.2156ZM151.465 103.126C150.933 103.126 150.485 103.032 150.121 102.846C149.766 102.65 149.5 102.37 149.323 102.006C149.146 101.632 149.057 101.18 149.057 100.648V97.0776H148.119C147.96 97.0776 147.839 97.0403 147.755 96.9656C147.671 96.8816 147.629 96.7696 147.629 96.6296C147.629 96.4896 147.671 96.3823 147.755 96.3076C147.839 96.233 147.96 96.1956 148.119 96.1956H149.057V94.5856C149.057 94.399 149.108 94.259 149.211 94.1656C149.314 94.063 149.454 94.0116 149.631 94.0116C149.808 94.0116 149.944 94.063 150.037 94.1656C150.14 94.259 150.191 94.399 150.191 94.5856V96.1956H151.955C152.114 96.1956 152.235 96.233 152.319 96.3076C152.403 96.3823 152.445 96.4896 152.445 96.6296C152.445 96.7696 152.403 96.8816 152.319 96.9656C152.235 97.0403 152.114 97.0776 151.955 97.0776H150.191V100.536C150.191 101.068 150.303 101.474 150.527 101.754C150.751 102.024 151.115 102.16 151.619 102.16C151.796 102.16 151.946 102.141 152.067 102.104C152.198 102.066 152.305 102.048 152.389 102.048C152.473 102.038 152.543 102.066 152.599 102.132C152.655 102.197 152.683 102.309 152.683 102.468C152.683 102.58 152.66 102.682 152.613 102.776C152.576 102.869 152.506 102.934 152.403 102.972C152.291 103.009 152.142 103.042 151.955 103.07C151.778 103.107 151.614 103.126 151.465 103.126ZM154.271 103.07C154.085 103.07 153.945 103.018 153.851 102.916C153.758 102.804 153.711 102.65 153.711 102.454V96.7276C153.711 96.5316 153.758 96.3823 153.851 96.2796C153.945 96.177 154.085 96.1256 154.271 96.1256C154.449 96.1256 154.589 96.177 154.691 96.2796C154.794 96.3823 154.845 96.5316 154.845 96.7276V102.454C154.845 102.65 154.794 102.804 154.691 102.916C154.598 103.018 154.458 103.07 154.271 103.07ZM154.271 94.5576C154.038 94.5576 153.856 94.497 153.725 94.3756C153.595 94.245 153.529 94.0723 153.529 93.8576C153.529 93.6336 153.595 93.4656 153.725 93.3536C153.856 93.2323 154.038 93.1716 154.271 93.1716C154.514 93.1716 154.696 93.2323 154.817 93.3536C154.948 93.4656 155.013 93.6336 155.013 93.8576C155.013 94.0723 154.948 94.245 154.817 94.3756C154.696 94.497 154.514 94.5576 154.271 94.5576ZM159.849 103.126C159.168 103.126 158.58 102.976 158.085 102.678C157.591 102.379 157.208 101.964 156.937 101.432C156.676 100.89 156.545 100.265 156.545 99.5556C156.545 99.0143 156.62 98.529 156.769 98.0996C156.919 97.6703 157.138 97.3063 157.427 97.0076C157.717 96.6996 158.062 96.4663 158.463 96.3076C158.874 96.149 159.336 96.0696 159.849 96.0696C160.185 96.0696 160.535 96.121 160.899 96.2236C161.263 96.3263 161.595 96.5036 161.893 96.7556C161.987 96.821 162.047 96.9003 162.075 96.9936C162.103 97.087 162.103 97.1803 162.075 97.2736C162.047 97.3576 162.001 97.4323 161.935 97.4976C161.87 97.5536 161.786 97.5863 161.683 97.5956C161.59 97.605 161.492 97.5723 161.389 97.4976C161.147 97.311 160.899 97.1803 160.647 97.1056C160.395 97.031 160.153 96.9936 159.919 96.9936C159.555 96.9936 159.238 97.0543 158.967 97.1756C158.697 97.2876 158.468 97.451 158.281 97.6656C158.095 97.8803 157.95 98.1463 157.847 98.4636C157.754 98.781 157.707 99.1496 157.707 99.5696C157.707 100.382 157.899 101.026 158.281 101.502C158.664 101.968 159.21 102.202 159.919 102.202C160.153 102.202 160.391 102.164 160.633 102.09C160.885 102.015 161.137 101.884 161.389 101.698C161.492 101.623 161.59 101.59 161.683 101.6C161.777 101.609 161.856 101.646 161.921 101.712C161.987 101.768 162.029 101.842 162.047 101.936C162.075 102.029 162.075 102.122 162.047 102.216C162.019 102.3 161.959 102.374 161.865 102.44C161.567 102.682 161.24 102.86 160.885 102.972C160.531 103.074 160.185 103.126 159.849 103.126ZM166.137 103.126C165.474 103.126 164.9 102.981 164.415 102.692C163.93 102.402 163.552 101.996 163.281 101.474C163.02 100.942 162.889 100.316 162.889 99.5976C162.889 99.0563 162.964 98.571 163.113 98.1416C163.262 97.703 163.482 97.3296 163.771 97.0216C164.06 96.7136 164.401 96.4803 164.793 96.3216C165.194 96.1536 165.642 96.0696 166.137 96.0696C166.8 96.0696 167.374 96.2143 167.859 96.5036C168.344 96.793 168.718 97.2036 168.979 97.7356C169.25 98.2583 169.385 98.879 169.385 99.5976C169.385 100.139 169.31 100.624 169.161 101.054C169.012 101.483 168.792 101.856 168.503 102.174C168.214 102.482 167.868 102.72 167.467 102.888C167.075 103.046 166.632 103.126 166.137 103.126ZM166.137 102.216C166.557 102.216 166.926 102.113 167.243 101.908C167.56 101.702 167.803 101.404 167.971 101.012C168.148 100.62 168.237 100.148 168.237 99.5976C168.237 98.7483 168.046 98.0996 167.663 97.6516C167.29 97.2036 166.781 96.9796 166.137 96.9796C165.708 96.9796 165.334 97.0823 165.017 97.2876C164.709 97.4836 164.466 97.7776 164.289 98.1696C164.121 98.5523 164.037 99.0283 164.037 99.5976C164.037 100.438 164.228 101.086 164.611 101.544C164.994 101.992 165.502 102.216 166.137 102.216ZM173.384 103.126C172.964 103.126 172.54 103.074 172.11 102.972C171.69 102.869 171.298 102.692 170.934 102.44C170.841 102.374 170.776 102.3 170.738 102.216C170.701 102.122 170.687 102.034 170.696 101.95C170.715 101.856 170.752 101.777 170.808 101.712C170.874 101.646 170.948 101.609 171.032 101.6C171.126 101.581 171.228 101.6 171.34 101.656C171.704 101.88 172.054 102.038 172.39 102.132C172.736 102.216 173.076 102.258 173.412 102.258C173.944 102.258 174.346 102.16 174.616 101.964C174.887 101.768 175.022 101.502 175.022 101.166C175.022 100.904 174.934 100.699 174.756 100.55C174.579 100.391 174.299 100.27 173.916 100.186L172.642 99.9056C172.054 99.7843 171.616 99.5743 171.326 99.2756C171.046 98.977 170.906 98.5896 170.906 98.1136C170.906 97.6936 171.014 97.3343 171.228 97.0356C171.452 96.7276 171.765 96.4896 172.166 96.3216C172.568 96.1536 173.034 96.0696 173.566 96.0696C173.977 96.0696 174.364 96.1256 174.728 96.2376C175.102 96.3403 175.438 96.5083 175.736 96.7416C175.83 96.807 175.89 96.8863 175.918 96.9796C175.956 97.0636 175.96 97.1523 175.932 97.2456C175.914 97.3296 175.872 97.4043 175.806 97.4696C175.741 97.5256 175.662 97.5583 175.568 97.5676C175.475 97.577 175.377 97.549 175.274 97.4836C174.994 97.297 174.71 97.1616 174.42 97.0776C174.131 96.9843 173.846 96.9376 173.566 96.9376C173.044 96.9376 172.647 97.0403 172.376 97.2456C172.106 97.451 171.97 97.7216 171.97 98.0576C171.97 98.319 172.054 98.5336 172.222 98.7016C172.39 98.8696 172.652 98.991 173.006 99.0656L174.28 99.3316C174.887 99.4623 175.34 99.6723 175.638 99.9616C175.946 100.242 176.1 100.624 176.1 101.11C176.1 101.726 175.853 102.216 175.358 102.58C174.864 102.944 174.206 103.126 173.384 103.126ZM184.504 103.126C183.785 103.126 183.165 102.986 182.642 102.706C182.129 102.416 181.727 102.01 181.438 101.488C181.158 100.965 181.018 100.34 181.018 99.6116C181.018 98.9023 181.158 98.2863 181.438 97.7636C181.718 97.2316 182.101 96.8163 182.586 96.5176C183.081 96.219 183.65 96.0696 184.294 96.0696C184.751 96.0696 185.162 96.149 185.526 96.3076C185.89 96.457 186.198 96.6763 186.45 96.9656C186.711 97.255 186.907 97.605 187.038 98.0156C187.178 98.4263 187.248 98.8883 187.248 99.4016C187.248 99.551 187.206 99.663 187.122 99.7376C187.038 99.803 186.917 99.8356 186.758 99.8356H181.886V99.0936H186.492L186.268 99.2756C186.268 98.7716 186.193 98.347 186.044 98.0016C185.895 97.647 185.675 97.3763 185.386 97.1896C185.106 97.003 184.751 96.9096 184.322 96.9096C183.846 96.9096 183.44 97.0216 183.104 97.2456C182.777 97.4603 182.53 97.7636 182.362 98.1556C182.194 98.5383 182.11 98.9863 182.11 99.4996V99.5836C182.11 100.442 182.315 101.096 182.726 101.544C183.146 101.992 183.739 102.216 184.504 102.216C184.821 102.216 185.134 102.174 185.442 102.09C185.759 102.006 186.067 101.866 186.366 101.67C186.497 101.586 186.613 101.548 186.716 101.558C186.828 101.558 186.917 101.59 186.982 101.656C187.047 101.712 187.089 101.786 187.108 101.88C187.136 101.964 187.127 102.057 187.08 102.16C187.043 102.262 186.963 102.351 186.842 102.426C186.534 102.65 186.17 102.822 185.75 102.944C185.33 103.065 184.915 103.126 184.504 103.126ZM195.383 103.126C194.701 103.126 194.113 102.976 193.619 102.678C193.124 102.379 192.741 101.964 192.471 101.432C192.209 100.89 192.079 100.265 192.079 99.5556C192.079 99.0143 192.153 98.529 192.303 98.0996C192.452 97.6703 192.671 97.3063 192.961 97.0076C193.25 96.6996 193.595 96.4663 193.997 96.3076C194.407 96.149 194.869 96.0696 195.383 96.0696C195.719 96.0696 196.069 96.121 196.433 96.2236C196.797 96.3263 197.128 96.5036 197.427 96.7556C197.52 96.821 197.581 96.9003 197.609 96.9936C197.637 97.087 197.637 97.1803 197.609 97.2736C197.581 97.3576 197.534 97.4323 197.469 97.4976C197.403 97.5536 197.319 97.5863 197.217 97.5956C197.123 97.605 197.025 97.5723 196.923 97.4976C196.68 97.311 196.433 97.1803 196.181 97.1056C195.929 97.031 195.686 96.9936 195.453 96.9936C195.089 96.9936 194.771 97.0543 194.501 97.1756C194.23 97.2876 194.001 97.451 193.815 97.6656C193.628 97.8803 193.483 98.1463 193.381 98.4636C193.287 98.781 193.241 99.1496 193.241 99.5696C193.241 100.382 193.432 101.026 193.815 101.502C194.197 101.968 194.743 102.202 195.453 102.202C195.686 102.202 195.924 102.164 196.167 102.09C196.419 102.015 196.671 101.884 196.923 101.698C197.025 101.623 197.123 101.59 197.217 101.6C197.31 101.609 197.389 101.646 197.455 101.712C197.52 101.768 197.562 101.842 197.581 101.936C197.609 102.029 197.609 102.122 197.581 102.216C197.553 102.3 197.492 102.374 197.399 102.44C197.1 102.682 196.773 102.86 196.419 102.972C196.064 103.074 195.719 103.126 195.383 103.126ZM201.67 103.126C201.008 103.126 200.434 102.981 199.948 102.692C199.463 102.402 199.085 101.996 198.814 101.474C198.553 100.942 198.422 100.316 198.422 99.5976C198.422 99.0563 198.497 98.571 198.646 98.1416C198.796 97.703 199.015 97.3296 199.304 97.0216C199.594 96.7136 199.934 96.4803 200.326 96.3216C200.728 96.1536 201.176 96.0696 201.67 96.0696C202.333 96.0696 202.907 96.2143 203.392 96.5036C203.878 96.793 204.251 97.2036 204.512 97.7356C204.783 98.2583 204.918 98.879 204.918 99.5976C204.918 100.139 204.844 100.624 204.694 101.054C204.545 101.483 204.326 101.856 204.036 102.174C203.747 102.482 203.402 102.72 203 102.888C202.608 103.046 202.165 103.126 201.67 103.126ZM201.67 102.216C202.09 102.216 202.459 102.113 202.776 101.908C203.094 101.702 203.336 101.404 203.504 101.012C203.682 100.62 203.77 100.148 203.77 99.5976C203.77 98.7483 203.579 98.0996 203.196 97.6516C202.823 97.2036 202.314 96.9796 201.67 96.9796C201.241 96.9796 200.868 97.0823 200.55 97.2876C200.242 97.4836 200 97.7776 199.822 98.1696C199.654 98.5523 199.57 99.0283 199.57 99.5976C199.57 100.438 199.762 101.086 200.144 101.544C200.527 101.992 201.036 102.216 201.67 102.216ZM209.45 103.126C208.787 103.126 208.213 102.981 207.728 102.692C207.242 102.402 206.864 101.996 206.594 101.474C206.332 100.942 206.202 100.316 206.202 99.5976C206.202 99.0563 206.276 98.571 206.426 98.1416C206.575 97.703 206.794 97.3296 207.084 97.0216C207.373 96.7136 207.714 96.4803 208.106 96.3216C208.507 96.1536 208.955 96.0696 209.45 96.0696C210.112 96.0696 210.686 96.2143 211.172 96.5036C211.657 96.793 212.03 97.2036 212.292 97.7356C212.562 98.2583 212.698 98.879 212.698 99.5976C212.698 100.139 212.623 100.624 212.474 101.054C212.324 101.483 212.105 101.856 211.816 102.174C211.526 102.482 211.181 102.72 210.78 102.888C210.388 103.046 209.944 103.126 209.45 103.126ZM209.45 102.216C209.87 102.216 210.238 102.113 210.556 101.908C210.873 101.702 211.116 101.404 211.284 101.012C211.461 100.62 211.55 100.148 211.55 99.5976C211.55 98.7483 211.358 98.0996 210.976 97.6516C210.602 97.2036 210.094 96.9796 209.45 96.9796C209.02 96.9796 208.647 97.0823 208.33 97.2876C208.022 97.4836 207.779 97.7776 207.602 98.1696C207.434 98.5523 207.35 99.0283 207.35 99.5976C207.35 100.438 207.541 101.086 207.924 101.544C208.306 101.992 208.815 102.216 209.45 102.216ZM214.961 105.618C214.774 105.618 214.634 105.566 214.541 105.464C214.448 105.37 214.401 105.23 214.401 105.044V96.6716C214.401 96.485 214.448 96.345 214.541 96.2516C214.634 96.149 214.77 96.0976 214.947 96.0976C215.134 96.0976 215.274 96.149 215.367 96.2516C215.47 96.345 215.521 96.485 215.521 96.6716V98.0016L215.367 97.8056C215.516 97.2736 215.81 96.8536 216.249 96.5456C216.697 96.2283 217.229 96.0696 217.845 96.0696C218.452 96.0696 218.979 96.2143 219.427 96.5036C219.884 96.7836 220.234 97.1896 220.477 97.7216C220.729 98.2443 220.855 98.8696 220.855 99.5976C220.855 100.316 220.729 100.942 220.477 101.474C220.234 101.996 219.889 102.402 219.441 102.692C218.993 102.981 218.461 103.126 217.845 103.126C217.229 103.126 216.702 102.972 216.263 102.664C215.824 102.346 215.526 101.926 215.367 101.404H215.535V105.044C215.535 105.23 215.484 105.37 215.381 105.464C215.278 105.566 215.138 105.618 214.961 105.618ZM217.607 102.216C218.036 102.216 218.405 102.113 218.713 101.908C219.03 101.702 219.273 101.404 219.441 101.012C219.618 100.62 219.707 100.148 219.707 99.5976C219.707 98.7483 219.516 98.0996 219.133 97.6516C218.76 97.2036 218.251 96.9796 217.607 96.9796C217.187 96.9796 216.818 97.0823 216.501 97.2876C216.184 97.4836 215.936 97.7776 215.759 98.1696C215.591 98.5523 215.507 99.0283 215.507 99.5976C215.507 100.438 215.698 101.086 216.081 101.544C216.464 101.992 216.972 102.216 217.607 102.216ZM225.629 103.126C224.91 103.126 224.29 102.986 223.767 102.706C223.254 102.416 222.852 102.01 222.563 101.488C222.283 100.965 222.143 100.34 222.143 99.6116C222.143 98.9023 222.283 98.2863 222.563 97.7636C222.843 97.2316 223.226 96.8163 223.711 96.5176C224.206 96.219 224.775 96.0696 225.419 96.0696C225.876 96.0696 226.287 96.149 226.651 96.3076C227.015 96.457 227.323 96.6763 227.575 96.9656C227.836 97.255 228.032 97.605 228.163 98.0156C228.303 98.4263 228.373 98.8883 228.373 99.4016C228.373 99.551 228.331 99.663 228.247 99.7376C228.163 99.803 228.042 99.8356 227.883 99.8356H223.011V99.0936H227.617L227.393 99.2756C227.393 98.7716 227.318 98.347 227.169 98.0016C227.02 97.647 226.8 97.3763 226.511 97.1896C226.231 97.003 225.876 96.9096 225.447 96.9096C224.971 96.9096 224.565 97.0216 224.229 97.2456C223.902 97.4603 223.655 97.7636 223.487 98.1556C223.319 98.5383 223.235 98.9863 223.235 99.4996V99.5836C223.235 100.442 223.44 101.096 223.851 101.544C224.271 101.992 224.864 102.216 225.629 102.216C225.946 102.216 226.259 102.174 226.567 102.09C226.884 102.006 227.192 101.866 227.491 101.67C227.622 101.586 227.738 101.548 227.841 101.558C227.953 101.558 228.042 101.59 228.107 101.656C228.172 101.712 228.214 101.786 228.233 101.88C228.261 101.964 228.252 102.057 228.205 102.16C228.168 102.262 228.088 102.351 227.967 102.426C227.659 102.65 227.295 102.822 226.875 102.944C226.455 103.065 226.04 103.126 225.629 103.126ZM230.588 103.098C230.402 103.098 230.257 103.046 230.154 102.944C230.061 102.841 230.014 102.696 230.014 102.51V96.6716C230.014 96.485 230.061 96.345 230.154 96.2516C230.248 96.149 230.383 96.0976 230.56 96.0976C230.738 96.0976 230.873 96.149 230.966 96.2516C231.069 96.345 231.12 96.485 231.12 96.6716V97.8056H230.98C231.13 97.255 231.414 96.8303 231.834 96.5316C232.254 96.233 232.772 96.0743 233.388 96.0556C233.528 96.0463 233.64 96.079 233.724 96.1536C233.808 96.219 233.855 96.3356 233.864 96.5036C233.874 96.6623 233.836 96.7883 233.752 96.8816C233.668 96.975 233.538 97.031 233.36 97.0496L233.136 97.0776C232.502 97.1336 232.012 97.339 231.666 97.6936C231.33 98.039 231.162 98.515 231.162 99.1216V102.51C231.162 102.696 231.111 102.841 231.008 102.944C230.915 103.046 230.775 103.098 230.588 103.098ZM237.105 103.126C236.639 103.126 236.219 103.037 235.845 102.86C235.481 102.673 235.192 102.421 234.977 102.104C234.763 101.786 234.655 101.432 234.655 101.04C234.655 100.536 234.781 100.139 235.033 99.8496C235.295 99.5603 235.719 99.355 236.307 99.2336C236.905 99.1123 237.717 99.0516 238.743 99.0516H239.373V99.7936H238.757C238.001 99.7936 237.404 99.831 236.965 99.9056C236.536 99.971 236.233 100.088 236.055 100.256C235.887 100.424 235.803 100.662 235.803 100.97C235.803 101.352 235.934 101.665 236.195 101.908C236.466 102.15 236.83 102.272 237.287 102.272C237.661 102.272 237.987 102.183 238.267 102.006C238.557 101.828 238.781 101.586 238.939 101.278C239.107 100.97 239.191 100.615 239.191 100.214V98.6176C239.191 98.039 239.075 97.6236 238.841 97.3716C238.608 97.1103 238.225 96.9796 237.693 96.9796C237.367 96.9796 237.04 97.0216 236.713 97.1056C236.387 97.1896 236.041 97.325 235.677 97.5116C235.547 97.577 235.435 97.6003 235.341 97.5816C235.248 97.5536 235.173 97.5023 235.117 97.4276C235.061 97.353 235.029 97.269 235.019 97.1756C235.01 97.073 235.029 96.975 235.075 96.8816C235.131 96.7883 235.215 96.7136 235.327 96.6576C235.738 96.4523 236.144 96.303 236.545 96.2096C236.947 96.1163 237.329 96.0696 237.693 96.0696C238.281 96.0696 238.767 96.1676 239.149 96.3636C239.532 96.5503 239.817 96.8396 240.003 97.2316C240.19 97.6143 240.283 98.109 240.283 98.7156V102.51C240.283 102.696 240.237 102.841 240.143 102.944C240.059 103.046 239.933 103.098 239.765 103.098C239.588 103.098 239.453 103.046 239.359 102.944C239.266 102.841 239.219 102.696 239.219 102.51V101.418H239.345C239.271 101.772 239.126 102.076 238.911 102.328C238.706 102.58 238.449 102.776 238.141 102.916C237.833 103.056 237.488 103.126 237.105 103.126ZM245.117 103.126C244.585 103.126 244.137 103.032 243.773 102.846C243.419 102.65 243.153 102.37 242.975 102.006C242.798 101.632 242.709 101.18 242.709 100.648V97.0776H241.771C241.613 97.0776 241.491 97.0403 241.407 96.9656C241.323 96.8816 241.281 96.7696 241.281 96.6296C241.281 96.4896 241.323 96.3823 241.407 96.3076C241.491 96.233 241.613 96.1956 241.771 96.1956H242.709V94.5856C242.709 94.399 242.761 94.259 242.863 94.1656C242.966 94.063 243.106 94.0116 243.283 94.0116C243.461 94.0116 243.596 94.063 243.689 94.1656C243.792 94.259 243.843 94.399 243.843 94.5856V96.1956H245.607C245.766 96.1956 245.887 96.233 245.971 96.3076C246.055 96.3823 246.097 96.4896 246.097 96.6296C246.097 96.7696 246.055 96.8816 245.971 96.9656C245.887 97.0403 245.766 97.0776 245.607 97.0776H243.843V100.536C243.843 101.068 243.955 101.474 244.179 101.754C244.403 102.024 244.767 102.16 245.271 102.16C245.449 102.16 245.598 102.141 245.719 102.104C245.85 102.066 245.957 102.048 246.041 102.048C246.125 102.038 246.195 102.066 246.251 102.132C246.307 102.197 246.335 102.309 246.335 102.468C246.335 102.58 246.312 102.682 246.265 102.776C246.228 102.869 246.158 102.934 246.055 102.972C245.943 103.009 245.794 103.042 245.607 103.07C245.43 103.107 245.267 103.126 245.117 103.126ZM247.924 103.07C247.737 103.07 247.597 103.018 247.504 102.916C247.41 102.804 247.364 102.65 247.364 102.454V96.7276C247.364 96.5316 247.41 96.3823 247.504 96.2796C247.597 96.177 247.737 96.1256 247.924 96.1256C248.101 96.1256 248.241 96.177 248.344 96.2796C248.446 96.3823 248.498 96.5316 248.498 96.7276V102.454C248.498 102.65 248.446 102.804 248.344 102.916C248.25 103.018 248.11 103.07 247.924 103.07ZM247.924 94.5576C247.69 94.5576 247.508 94.497 247.378 94.3756C247.247 94.245 247.182 94.0723 247.182 93.8576C247.182 93.6336 247.247 93.4656 247.378 93.3536C247.508 93.2323 247.69 93.1716 247.924 93.1716C248.166 93.1716 248.348 93.2323 248.47 93.3536C248.6 93.4656 248.666 93.6336 248.666 93.8576C248.666 94.0723 248.6 94.245 248.47 94.3756C248.348 94.497 248.166 94.5576 247.924 94.5576ZM253.152 103.098C252.993 103.098 252.853 103.056 252.732 102.972C252.61 102.878 252.508 102.738 252.424 102.552L250.002 96.8956C249.936 96.7556 249.913 96.625 249.932 96.5036C249.95 96.3823 250.006 96.2843 250.1 96.2096C250.193 96.135 250.324 96.0976 250.492 96.0976C250.641 96.0976 250.758 96.1303 250.842 96.1956C250.926 96.261 251 96.3776 251.066 96.5456L253.362 102.16H252.984L255.322 96.5456C255.387 96.3776 255.462 96.261 255.546 96.1956C255.63 96.1303 255.751 96.0976 255.91 96.0976C256.059 96.0976 256.171 96.135 256.246 96.2096C256.33 96.2843 256.376 96.3823 256.386 96.5036C256.404 96.6156 256.386 96.7416 256.33 96.8816L253.88 102.552C253.814 102.738 253.716 102.878 253.586 102.972C253.464 103.056 253.32 103.098 253.152 103.098ZM260.555 103.126C259.892 103.126 259.318 102.981 258.833 102.692C258.348 102.402 257.97 101.996 257.699 101.474C257.438 100.942 257.307 100.316 257.307 99.5976C257.307 99.0563 257.382 98.571 257.531 98.1416C257.68 97.703 257.9 97.3296 258.189 97.0216C258.478 96.7136 258.819 96.4803 259.211 96.3216C259.612 96.1536 260.06 96.0696 260.555 96.0696C261.218 96.0696 261.792 96.2143 262.277 96.5036C262.762 96.793 263.136 97.2036 263.397 97.7356C263.668 98.2583 263.803 98.879 263.803 99.5976C263.803 100.139 263.728 100.624 263.579 101.054C263.43 101.483 263.21 101.856 262.921 102.174C262.632 102.482 262.286 102.72 261.885 102.888C261.493 103.046 261.05 103.126 260.555 103.126ZM260.555 102.216C260.975 102.216 261.344 102.113 261.661 101.908C261.978 101.702 262.221 101.404 262.389 101.012C262.566 100.62 262.655 100.148 262.655 99.5976C262.655 98.7483 262.464 98.0996 262.081 97.6516C261.708 97.2036 261.199 96.9796 260.555 96.9796C260.126 96.9796 259.752 97.0823 259.435 97.2876C259.127 97.4836 258.884 97.7776 258.707 98.1696C258.539 98.5523 258.455 99.0283 258.455 99.5976C258.455 100.438 258.646 101.086 259.029 101.544C259.412 101.992 259.92 102.216 260.555 102.216ZM267.802 103.126C267.382 103.126 266.958 103.074 266.528 102.972C266.108 102.869 265.716 102.692 265.352 102.44C265.259 102.374 265.194 102.3 265.156 102.216C265.119 102.122 265.105 102.034 265.114 101.95C265.133 101.856 265.17 101.777 265.226 101.712C265.292 101.646 265.366 101.609 265.45 101.6C265.544 101.581 265.646 101.6 265.758 101.656C266.122 101.88 266.472 102.038 266.808 102.132C267.154 102.216 267.494 102.258 267.83 102.258C268.362 102.258 268.764 102.16 269.034 101.964C269.305 101.768 269.44 101.502 269.44 101.166C269.44 100.904 269.352 100.699 269.174 100.55C268.997 100.391 268.717 100.27 268.334 100.186L267.06 99.9056C266.472 99.7843 266.034 99.5743 265.744 99.2756C265.464 98.977 265.324 98.5896 265.324 98.1136C265.324 97.6936 265.432 97.3343 265.646 97.0356C265.87 96.7276 266.183 96.4896 266.584 96.3216C266.986 96.1536 267.452 96.0696 267.984 96.0696C268.395 96.0696 268.782 96.1256 269.146 96.2376C269.52 96.3403 269.856 96.5083 270.154 96.7416C270.248 96.807 270.308 96.8863 270.336 96.9796C270.374 97.0636 270.378 97.1523 270.35 97.2456C270.332 97.3296 270.29 97.4043 270.224 97.4696C270.159 97.5256 270.08 97.5583 269.986 97.5676C269.893 97.577 269.795 97.549 269.692 97.4836C269.412 97.297 269.128 97.1616 268.838 97.0776C268.549 96.9843 268.264 96.9376 267.984 96.9376C267.462 96.9376 267.065 97.0403 266.794 97.2456C266.524 97.451 266.388 97.7216 266.388 98.0576C266.388 98.319 266.472 98.5336 266.64 98.7016C266.808 98.8696 267.07 98.991 267.424 99.0656L268.698 99.3316C269.305 99.4623 269.758 99.6723 270.056 99.9616C270.364 100.242 270.518 100.624 270.518 101.11C270.518 101.726 270.271 102.216 269.776 102.58C269.282 102.944 268.624 103.126 267.802 103.126ZM272.724 103.056C272.491 103.056 272.304 102.986 272.164 102.846C272.024 102.696 271.954 102.51 271.954 102.286C271.954 102.062 272.024 101.88 272.164 101.74C272.304 101.59 272.491 101.516 272.724 101.516C272.958 101.516 273.14 101.59 273.27 101.74C273.41 101.88 273.48 102.062 273.48 102.286C273.48 102.51 273.41 102.696 273.27 102.846C273.14 102.986 272.958 103.056 272.724 103.056Z" fill="white"/>
<path d="M291.817 109.946C291.613 109.12 291.835 108.247 292.41 107.619L295.404 104.341C295.628 104.096 295.692 103.744 295.569 103.435C295.446 103.126 295.158 102.914 294.826 102.889L290.302 102.553C289.47 102.492 288.72 102.027 288.295 101.309L285.995 97.4134C285.885 97.2242 285.707 97.0841 285.497 97.0217C285.396 96.9922 285.291 96.9809 285.186 96.9885C284.857 97.0067 284.569 97.2126 284.444 97.5174L282.685 101.686C282.362 102.456 281.682 103.018 280.865 103.191L276.434 104.135C276.108 104.204 275.851 104.452 275.771 104.775C275.691 105.098 275.802 105.438 276.057 105.651L279.466 108.495C280.119 109.04 280.458 109.875 280.368 110.721L279.901 115.128C279.867 115.455 280.021 115.774 280.299 115.951C280.577 116.128 280.932 116.132 281.214 115.962L285.141 113.587C285.847 113.161 286.716 113.102 287.473 113.43L291.684 115.253C291.987 115.385 292.338 115.333 292.59 115.12C292.842 114.907 292.951 114.57 292.872 114.249L291.817 109.946Z" fill="url(#paint0_linear_150_35372)"/>
</g>
</g>
<g filter="url(#filter1_d_150_35372)">
<path d="M108.367 48.9051C112.254 49.6876 116.039 47.1714 116.821 43.285C117.604 39.3987 115.087 35.6138 111.201 34.8313C107.315 34.0488 103.53 36.565 102.747 40.4513C101.965 44.3377 104.481 48.1226 108.367 48.9051Z" fill="white"/>
<path d="M79.4408 120.24C83.5134 121.06 87.4797 118.423 88.2997 114.351C89.1197 110.278 86.4829 106.312 82.4103 105.492C78.3377 104.672 74.3714 107.309 73.5514 111.381C72.7314 115.454 75.3681 119.42 79.4408 120.24Z" fill="white"/>
<path d="M88.6805 51.7133L101.884 47.6132C100.923 45.7891 100.301 43.8004 100.06 41.7518L86.1717 46.0644C87.2763 47.8148 88.122 49.7192 88.6805 51.7133Z" fill="white"/>
<path d="M78.569 102.608L65.1288 80.7318C63.2396 81.5194 61.2824 82.3248 59.3797 83.1017L73.3359 105.818C74.8667 104.435 76.6445 103.348 78.569 102.608Z" fill="white"/>
<path d="M84.43 79.6343C89.1811 75.9119 92.2916 70.2035 93.2916 63.7716C95.5077 49.5178 85.7491 36.1662 71.4952 33.9501C64.1501 32.8082 57.0488 34.852 51.5833 39.0463C47.6489 33.3906 41.5036 29.2872 34.1585 28.1453C19.9047 25.9292 6.55311 35.6877 4.33702 49.9416C3.33704 56.3735 4.56801 62.7565 7.96434 67.7459C14.4963 77.3405 40.6126 109.612 40.6126 109.612C40.6126 109.612 75.2941 86.7929 84.43 79.6343Z" fill="white"/>
</g>
<defs>
<filter id="filter0_dd_150_35372" x="19.8799" y="14.506" width="290.225" height="122.889" filterUnits="userSpaceOnUse" color-interpolation-filters="sRGB">
<feFlood flood-opacity="0" result="BackgroundImageFix"/>
<feColorMatrix in="SourceAlpha" type="matrix" values="0 0 0 0 0 0 0 0 0 0 0 0 0 0 0 0 0 0 127 0" result="hardAlpha"/>
<feMorphology radius="2.54394" operator="erode" in="SourceAlpha" result="effect1_dropShadow_150_35372"/>
<feOffset dy="2.54394"/>
<feGaussianBlur stdDeviation="1.90795"/>
<feComposite in2="hardAlpha" operator="out"/>
<feColorMatrix type="matrix" values="0 0 0 0 0 0 0 0 0 0 0 0 0 0 0 0 0 0 0.1 0"/>
<feBlend mode="normal" in2="BackgroundImageFix" result="effect1_dropShadow_150_35372"/>
<feColorMatrix in="SourceAlpha" type="matrix" values="0 0 0 0 0 0 0 0 0 0 0 0 0 0 0 0 0 0 127 0" result="hardAlpha"/>
<feMorphology radius="1.90795" operator="erode" in="SourceAlpha" result="effect2_dropShadow_150_35372"/>
<feOffset dy="6.35984"/>
<feGaussianBlur stdDeviation="4.76988"/>
<feComposite in2="hardAlpha" operator="out"/>
<feColorMatrix type="matrix" values="0 0 0 0 0 0 0 0 0 0 0 0 0 0 0 0 0 0 0.1 0"/>
<feBlend mode="normal" in2="effect1_dropShadow_150_35372" result="effect2_dropShadow_150_35372"/>
<feBlend mode="normal" in="SourceGraphic" in2="effect2_dropShadow_150_35372" result="shape"/>
</filter>
<filter id="filter1_d_150_35372" x="-2.91504" y="0" width="142.931" height="142.931" filterUnits="userSpaceOnUse" color-interpolation-filters="sRGB">
<feFlood flood-opacity="0" result="BackgroundImageFix"/>
<feColorMatrix in="SourceAlpha" type="matrix" values="0 0 0 0 0 0 0 0 0 0 0 0 0 0 0 0 0 0 127 0" result="hardAlpha"/>
<feOffset dy="4"/>
<feGaussianBlur stdDeviation="2"/>
<feComposite in2="hardAlpha" operator="out"/>
<feColorMatrix type="matrix" values="0 0 0 0 0 0 0 0 0 0 0 0 0 0 0 0 0 0 0.25 0"/>
<feBlend mode="normal" in2="BackgroundImageFix" result="effect1_dropShadow_150_35372"/>
<feBlend mode="normal" in="SourceGraphic" in2="effect1_dropShadow_150_35372" result="shape"/>
</filter>
<linearGradient id="paint0_linear_150_35372" x1="287.87" y1="97.7238" x2="282.293" y2="116.576" gradientUnits="userSpaceOnUse">
<stop stop-color="#FFF8C3"/>
<stop offset="1" stop-color="#FFEE69"/>
</linearGradient>
<clipPath id="clip0_150_35372">
<rect x="27.5117" y="15.778" width="274.961" height="107.625" rx="11.0574" fill="white"/>
</clipPath>
</defs>
</svg>
