<svg width="500" height="150" viewBox="0 0 500 150" fill="none" xmlns="http://www.w3.org/2000/svg">
<g filter="url(#filter0_dd_855_28545)">
<path d="M128.996 62.0873C128.996 68.5932 123.866 73.9108 117.42 74.199C117.116 74.2126 116.868 74.458 116.868 74.7623V103.415C116.868 103.719 116.622 103.966 116.317 103.966H90.7765C90.5213 103.966 90.3005 103.79 90.2345 103.544C88.489 97.0328 82.6613 92.1599 75.6694 91.8526C75.4391 91.8421 75.2086 91.8421 74.9781 91.8421C74.7479 91.8421 74.5173 91.8421 74.2871 91.8526C67.2952 92.1599 61.4672 97.0326 59.722 103.544C59.656 103.79 59.4351 103.966 59.18 103.966H33.6391C33.3348 103.966 33.0881 103.719 33.0881 103.415V74.7623C33.0881 74.458 32.8408 74.2126 32.5368 74.199C26.0907 73.9108 20.9609 68.5932 20.9609 62.0873C20.9609 55.5717 26.0907 50.2636 32.5368 49.9759C32.8408 49.9623 33.0881 49.7169 33.0881 49.4126V20.7601C33.0881 20.4558 33.3348 20.2091 33.6391 20.2091H59.18C59.4351 20.2091 59.656 20.3849 59.722 20.6313C61.4675 27.1423 67.2952 32.015 74.2871 32.3226C74.5173 32.3226 74.7479 32.3331 74.9781 32.3331C75.2084 32.3331 75.4389 32.3226 75.6694 32.3226C82.6613 32.015 88.4893 27.1426 90.2345 20.6313C90.3005 20.3849 90.5214 20.2091 90.7765 20.2091H116.317C116.622 20.2091 116.868 20.4558 116.868 20.7601V49.4129C116.868 49.7172 117.116 49.9626 117.42 49.9762C123.866 50.2638 128.996 55.5717 128.996 62.0873Z" fill="#3A81F6"/>
<path d="M128.996 62.0873C128.996 68.5932 123.866 73.9108 117.42 74.199C117.116 74.2126 116.868 74.458 116.868 74.7623V103.415C116.868 103.719 116.622 103.966 116.317 103.966H90.7765C90.5213 103.966 90.3005 103.79 90.2345 103.544C88.489 97.0328 82.6613 92.1599 75.6694 91.8526C75.4391 91.8421 75.2086 91.8421 74.9781 91.8421C74.7479 91.8421 74.5173 91.8421 74.2871 91.8526C67.2952 92.1599 61.4672 97.0326 59.722 103.544C59.656 103.79 59.4351 103.966 59.18 103.966H33.6391C33.3348 103.966 33.0881 103.719 33.0881 103.415V74.7623C33.0881 74.458 32.8408 74.2126 32.5368 74.199C26.0907 73.9108 20.9609 68.5932 20.9609 62.0873C20.9609 55.5717 26.0907 50.2636 32.5368 49.9759C32.8408 49.9623 33.0881 49.7169 33.0881 49.4126V20.7601C33.0881 20.4558 33.3348 20.2091 33.6391 20.2091H59.18C59.4351 20.2091 59.656 20.3849 59.722 20.6313C61.4675 27.1423 67.2952 32.015 74.2871 32.3226C74.5173 32.3226 74.7479 32.3331 74.9781 32.3331C75.2084 32.3331 75.4389 32.3226 75.6694 32.3226C82.6613 32.015 88.4893 27.1426 90.2345 20.6313C90.3005 20.3849 90.5214 20.2091 90.7765 20.2091H116.317C116.622 20.2091 116.868 20.4558 116.868 20.7601V49.4129C116.868 49.7172 117.116 49.9626 117.42 49.9762C123.866 50.2638 128.996 55.5717 128.996 62.0873Z" fill="url(#paint0_linear_855_28545)"/>
<path d="M59.1797 17.4542C60.7293 17.4542 62.0064 18.514 62.3828 19.9181C63.8219 25.2861 68.6302 29.305 74.3848 29.5685C74.5007 29.5695 74.6092 29.5714 74.6953 29.5734C74.8158 29.5761 74.9 29.5782 74.9785 29.5782C75.0569 29.5782 75.1405 29.5761 75.2607 29.5734C75.3466 29.5714 75.4548 29.5695 75.5703 29.5685C81.3257 29.3056 86.1343 25.2866 87.5732 19.9181C87.9496 18.514 89.2267 17.4543 90.7764 17.4542H116.317C118.143 17.4542 119.624 18.9341 119.624 20.7599V47.464C126.53 48.7553 131.751 54.8061 131.751 62.087C131.751 69.3582 126.531 75.4179 119.624 76.7111V103.415C119.624 105.241 118.143 106.721 116.317 106.721H90.7764C89.2268 106.721 87.9496 105.661 87.5732 104.257C86.1322 98.8819 81.3135 94.8582 75.5488 94.6046H75.5439C75.387 94.5975 75.2193 94.5968 74.9785 94.5968C74.7378 94.5968 74.5692 94.5975 74.4121 94.6046H74.4082C68.6432 94.858 63.8236 98.8817 62.3828 104.257C62.0064 105.661 60.7293 106.721 59.1797 106.721H33.6387C31.813 106.721 30.3332 105.241 30.333 103.415V76.7111C23.4255 75.4181 18.2061 69.3584 18.2061 62.087C18.2062 54.806 23.4265 48.7541 30.333 47.463V20.7599C30.3331 18.9342 31.813 17.4545 33.6387 17.4542H59.1797Z" stroke="#FFFAF9" stroke-opacity="0.5" stroke-width="5.51031"/>
<g opacity="0.5">
<path d="M192.187 62.0875C192.187 69.3799 197.162 75.5366 203.892 77.3398C204.139 77.4058 204.315 77.6267 204.315 77.8818V103.415C204.315 103.719 204.068 103.966 203.764 103.966H175.103C174.798 103.966 174.553 104.213 174.539 104.517C174.251 110.961 168.932 116.09 162.424 116.09C155.907 116.09 150.597 110.962 150.31 104.517C150.296 104.213 150.051 103.966 149.746 103.966H121.085C120.781 103.966 120.534 103.719 120.534 103.415V77.8818C120.534 77.6267 120.71 77.4058 120.956 77.3398C127.687 75.5366 132.661 69.3799 132.661 62.0875C132.661 54.7956 127.687 48.6386 120.956 46.8355C120.71 46.7694 120.534 46.5486 120.534 46.2934V20.7601C120.534 20.4557 120.781 20.209 121.085 20.209H149.746C150.05 20.209 150.296 19.9618 150.309 19.6578C150.597 13.2135 155.907 8.08533 162.424 8.08533C168.932 8.08533 174.251 13.2135 174.539 19.6578C174.553 19.9618 174.798 20.209 175.102 20.209H203.763C204.068 20.209 204.314 20.4557 204.314 20.7601V46.2934C204.314 46.5486 204.138 46.7694 203.892 46.8355C197.162 48.6386 192.187 54.7956 192.187 62.0875Z" fill="#985D30"/>
<path d="M192.187 62.0875C192.187 69.3799 197.162 75.5366 203.892 77.3398C204.139 77.4058 204.315 77.6267 204.315 77.8818V103.415C204.315 103.719 204.068 103.966 203.764 103.966H175.103C174.798 103.966 174.553 104.213 174.539 104.517C174.251 110.961 168.932 116.09 162.424 116.09C155.907 116.09 150.597 110.962 150.31 104.517C150.296 104.213 150.051 103.966 149.746 103.966H121.085C120.781 103.966 120.534 103.719 120.534 103.415V77.8818C120.534 77.6267 120.71 77.4058 120.956 77.3398C127.687 75.5366 132.661 69.3799 132.661 62.0875C132.661 54.7956 127.687 48.6386 120.956 46.8355C120.71 46.7694 120.534 46.5486 120.534 46.2934V20.7601C120.534 20.4557 120.781 20.209 121.085 20.209H149.746C150.05 20.209 150.296 19.9618 150.309 19.6578C150.597 13.2135 155.907 8.08533 162.424 8.08533C168.932 8.08533 174.251 13.2135 174.539 19.6578C174.553 19.9618 174.798 20.209 175.102 20.209H203.763C204.068 20.209 204.314 20.4557 204.314 20.7601V46.2934C204.314 46.5486 204.138 46.7694 203.892 46.8355C197.162 48.6386 192.187 54.7956 192.187 62.0875Z" fill="#FEFAF8"/>
<path d="M162.424 5.33044C169.695 5.33044 175.757 10.5472 177.051 17.4535H203.764C205.589 17.4537 207.069 18.9343 207.069 20.7601V46.2933C207.069 47.8432 206.009 49.1201 204.605 49.4965C199.047 50.9857 194.942 56.0763 194.942 62.0873C194.942 68.0988 199.047 73.1888 204.605 74.6781C206.01 75.0543 207.069 76.3322 207.069 77.8822V103.415C207.069 105.241 205.589 106.721 203.764 106.721H177.051C175.757 113.627 169.696 118.845 162.425 118.845C155.143 118.845 149.09 113.627 147.798 106.721H121.085C119.259 106.721 117.78 105.241 117.779 103.415V77.8822C117.779 76.3322 118.839 75.0543 120.243 74.6781L120.76 74.5287C126.054 72.8706 129.906 67.9111 129.906 62.0873C129.906 56.0764 125.802 50.9857 120.243 49.4965C118.839 49.1202 117.779 47.8432 117.779 46.2933V20.7601C117.779 18.9343 119.259 17.4536 121.085 17.4535H147.798C149.09 10.5483 155.142 5.33064 162.424 5.33044Z" stroke="#FFFAF9" stroke-opacity="0.5" stroke-width="5.51031"/>
</g>
<path d="M234.071 17.4542C235.621 17.4542 236.898 18.514 237.274 19.9181C238.714 25.2861 243.522 29.305 249.276 29.5685C249.392 29.5695 249.501 29.5714 249.587 29.5734C249.707 29.5761 249.791 29.5782 249.87 29.5782C249.948 29.5782 250.032 29.5761 250.152 29.5734C250.238 29.5714 250.347 29.5695 250.463 29.5685C256.218 29.3053 261.026 25.2864 262.465 19.9181C262.841 18.514 264.118 17.4544 265.668 17.4542H291.209C293.035 17.4542 294.515 18.934 294.516 20.7599V47.464C301.422 48.7553 306.642 54.8061 306.643 62.087C306.643 69.3582 301.423 75.4179 294.516 76.7111V103.415C294.515 105.241 293.035 106.721 291.209 106.721H265.668C264.119 106.721 262.841 105.661 262.465 104.257C261.024 98.8819 256.205 94.858 250.44 94.6046H250.436C250.279 94.5975 250.111 94.5968 249.87 94.5968C249.629 94.5968 249.461 94.5974 249.304 94.6046H249.3C243.535 94.858 238.715 98.8816 237.274 104.257C236.898 105.661 235.621 106.721 234.071 106.721H208.53C206.705 106.721 205.225 105.241 205.225 103.415V76.7111C198.317 75.4181 193.098 69.3584 193.098 62.087C193.098 54.806 198.318 48.7541 205.225 47.463V20.7599C205.225 18.9342 206.705 17.4544 208.53 17.4542H234.071Z" stroke="#FFFAF9" stroke-opacity="0.5" stroke-width="5.51031"/>
<g opacity="0.5">
<path d="M367.078 62.0875C367.078 69.3799 372.053 75.5366 378.783 77.3398C379.03 77.4058 379.205 77.6267 379.205 77.8818V103.415C379.205 103.719 378.959 103.966 378.654 103.966H349.993C349.689 103.966 349.444 104.213 349.43 104.517C349.142 110.961 343.823 116.09 337.315 116.09C330.798 116.09 325.488 110.962 325.2 104.517C325.187 104.213 324.942 103.966 324.637 103.966H295.976C295.672 103.966 295.425 103.719 295.425 103.415V77.8818C295.425 77.6267 295.601 77.4058 295.848 77.3398C302.578 75.5366 307.552 69.3799 307.552 62.0875C307.552 54.7956 302.578 48.6386 295.848 46.8355C295.601 46.7694 295.425 46.5486 295.425 46.2934V20.7601C295.425 20.4557 295.672 20.209 295.976 20.209H324.637C324.942 20.209 325.187 19.9618 325.2 19.6578C325.488 13.2135 330.798 8.08533 337.315 8.08533C343.823 8.08533 349.142 13.2135 349.43 19.6578C349.444 19.9618 349.689 20.209 349.993 20.209H378.654C378.959 20.209 379.205 20.4557 379.205 20.7601V46.2934C379.205 46.5486 379.03 46.7694 378.783 46.8355C372.053 48.6386 367.078 54.7956 367.078 62.0875Z" fill="#34966D"/>
<path d="M367.078 62.0875C367.078 69.3799 372.053 75.5366 378.783 77.3398C379.03 77.4058 379.205 77.6267 379.205 77.8818V103.415C379.205 103.719 378.959 103.966 378.654 103.966H349.993C349.689 103.966 349.444 104.213 349.43 104.517C349.142 110.961 343.823 116.09 337.315 116.09C330.798 116.09 325.488 110.962 325.2 104.517C325.187 104.213 324.942 103.966 324.637 103.966H295.976C295.672 103.966 295.425 103.719 295.425 103.415V77.8818C295.425 77.6267 295.601 77.4058 295.848 77.3398C302.578 75.5366 307.552 69.3799 307.552 62.0875C307.552 54.7956 302.578 48.6386 295.848 46.8355C295.601 46.7694 295.425 46.5486 295.425 46.2934V20.7601C295.425 20.4557 295.672 20.209 295.976 20.209H324.637C324.942 20.209 325.187 19.9618 325.2 19.6578C325.488 13.2135 330.798 8.08533 337.315 8.08533C343.823 8.08533 349.142 13.2135 349.43 19.6578C349.444 19.9618 349.689 20.209 349.993 20.209H378.654C378.959 20.209 379.205 20.4557 379.205 20.7601V46.2934C379.205 46.5486 379.03 46.7694 378.783 46.8355C372.053 48.6386 367.078 54.7956 367.078 62.0875Z" fill="#FFFAF9"/>
<path d="M337.315 5.33044C344.586 5.33044 350.648 10.5472 351.942 17.4535H378.655C380.481 17.4537 381.96 18.9343 381.96 20.7601V46.2933C381.96 47.8432 380.9 49.1201 379.497 49.4965C373.938 50.9857 369.834 56.0764 369.833 62.0873C369.833 68.0988 373.938 73.1888 379.497 74.6781C380.901 75.0544 381.96 76.3323 381.96 77.8822V103.415C381.96 105.241 380.48 106.721 378.655 106.721H351.942C350.648 113.628 344.586 118.845 337.315 118.845C330.033 118.845 323.981 113.627 322.689 106.721H295.976C294.15 106.721 292.671 105.241 292.67 103.415V77.8822C292.67 76.3322 293.73 75.0543 295.134 74.6781L295.651 74.5287C300.945 72.8706 304.797 67.9111 304.797 62.0873C304.797 56.0764 300.693 50.9857 295.134 49.4965C293.73 49.1202 292.67 47.8432 292.67 46.2933V20.7601C292.67 18.9343 294.15 17.4536 295.976 17.4535H322.689C323.981 10.5483 330.034 5.33063 337.315 5.33044Z" stroke="#FFFAF9" stroke-opacity="0.5" stroke-width="5.51031"/>
</g>
<g opacity="0.5">
<path d="M478.779 62.0873C478.779 68.5932 473.649 73.9108 467.203 74.199C466.899 74.2126 466.652 74.458 466.652 74.7623V103.415C466.652 103.719 466.405 103.966 466.101 103.966H440.56C440.305 103.966 440.084 103.79 440.018 103.544C438.272 97.0328 432.444 92.1599 425.453 91.8526C425.222 91.8421 424.992 91.8421 424.761 91.8421C424.531 91.8421 424.301 91.8421 424.07 91.8526C417.078 92.1599 411.25 97.0326 409.505 103.544C409.439 103.79 409.218 103.966 408.963 103.966H383.422C383.118 103.966 382.871 103.719 382.871 103.415V74.7623C382.871 74.458 382.624 74.2126 382.32 74.199C375.874 73.9108 370.744 68.5932 370.744 62.0873C370.744 55.5717 375.874 50.2636 382.32 49.9759C382.624 49.9623 382.871 49.7169 382.871 49.4126V20.7601C382.871 20.4558 383.118 20.2091 383.422 20.2091H408.963C409.218 20.2091 409.439 20.3849 409.505 20.6313C411.25 27.1423 417.078 32.015 424.07 32.3226C424.3 32.3226 424.531 32.3331 424.761 32.3331C424.992 32.3331 425.222 32.3226 425.453 32.3226C432.445 32.015 438.272 27.1425 440.018 20.6313C440.084 20.3849 440.305 20.2091 440.56 20.2091H466.101C466.405 20.2091 466.652 20.4558 466.652 20.7601V49.4129C466.652 49.7172 466.899 49.9626 467.203 49.9762C473.649 50.2638 478.779 55.5717 478.779 62.0873Z" fill="#F7BD02"/>
<path d="M478.779 62.0873C478.779 68.5932 473.649 73.9108 467.203 74.199C466.899 74.2126 466.652 74.458 466.652 74.7623V103.415C466.652 103.719 466.405 103.966 466.101 103.966H440.56C440.305 103.966 440.084 103.79 440.018 103.544C438.272 97.0328 432.444 92.1599 425.453 91.8526C425.222 91.8421 424.992 91.8421 424.761 91.8421C424.531 91.8421 424.301 91.8421 424.07 91.8526C417.078 92.1599 411.25 97.0326 409.505 103.544C409.439 103.79 409.218 103.966 408.963 103.966H383.422C383.118 103.966 382.871 103.719 382.871 103.415V74.7623C382.871 74.458 382.624 74.2126 382.32 74.199C375.874 73.9108 370.744 68.5932 370.744 62.0873C370.744 55.5717 375.874 50.2636 382.32 49.9759C382.624 49.9623 382.871 49.7169 382.871 49.4126V20.7601C382.871 20.4558 383.118 20.2091 383.422 20.2091H408.963C409.218 20.2091 409.439 20.3849 409.505 20.6313C411.25 27.1423 417.078 32.015 424.07 32.3226C424.3 32.3226 424.531 32.3331 424.761 32.3331C424.992 32.3331 425.222 32.3226 425.453 32.3226C432.445 32.015 438.272 27.1425 440.018 20.6313C440.084 20.3849 440.305 20.2091 440.56 20.2091H466.101C466.405 20.2091 466.652 20.4558 466.652 20.7601V49.4129C466.652 49.7172 466.899 49.9626 467.203 49.9762C473.649 50.2638 478.779 55.5717 478.779 62.0873Z" fill="#FFFBF9"/>
<path d="M408.963 17.4542C410.513 17.4542 411.79 18.514 412.166 19.9181C413.605 25.2862 418.413 29.3051 424.168 29.5685C424.284 29.5695 424.392 29.5714 424.479 29.5734C424.599 29.5761 424.683 29.5782 424.762 29.5782C424.84 29.5782 424.924 29.5761 425.044 29.5734C425.13 29.5714 425.238 29.5695 425.354 29.5685C431.109 29.3056 435.917 25.2867 437.356 19.9181C437.733 18.514 439.01 17.4543 440.56 17.4542H466.101C467.926 17.4542 469.407 18.9341 469.407 20.7599V47.463C476.313 48.7542 481.534 54.8061 481.534 62.087C481.534 69.3582 476.314 75.4179 469.407 76.7111V103.415C469.407 105.241 467.926 106.721 466.101 106.721H440.56C439.01 106.721 437.733 105.661 437.356 104.257C435.915 98.8819 431.097 94.8582 425.332 94.6046H425.327C425.17 94.5975 425.003 94.5968 424.762 94.5968C424.521 94.5968 424.353 94.5974 424.195 94.6046H424.191C418.426 94.858 413.607 98.8816 412.166 104.257C411.79 105.661 410.513 106.721 408.963 106.721H383.422C381.596 106.721 380.116 105.241 380.116 103.415V76.7111C373.209 75.4181 367.989 69.3584 367.989 62.087C367.989 54.806 373.21 48.7541 380.116 47.463V20.7599C380.116 18.9342 381.596 17.4544 383.422 17.4542H408.963Z" stroke="#FFFAF9" stroke-opacity="0.5" stroke-width="5.51031"/>
</g>
<mask id="path-10-outside-1_855_28545" maskUnits="userSpaceOnUse" x="61.1865" y="43.5147" width="27" height="34" fill="black">
<rect fill="white" x="61.1865" y="43.5147" width="27" height="34"/>
<path d="M74.388 76.9555C73.0949 76.9555 71.8018 76.8527 70.5087 76.647C69.2157 76.4706 67.996 76.1914 66.8499 75.8094C65.7037 75.398 64.6752 74.8984 63.7641 74.3106C63.2351 73.9579 62.8678 73.5318 62.6621 73.0322C62.4563 72.5326 62.3829 72.0477 62.4416 71.5775C62.5298 71.0779 62.7208 70.6517 63.0147 70.2991C63.338 69.917 63.7347 69.6819 64.2049 69.5938C64.6752 69.5056 65.1895 69.6378 65.7478 69.9905C67.0409 70.7546 68.4075 71.313 69.8475 71.6656C71.2875 72.0183 72.801 72.1946 74.388 72.1946C76.7097 72.1946 78.3995 71.8126 79.4575 71.0485C80.5155 70.255 81.0444 69.2411 81.0444 68.0068C81.0444 66.9782 80.6624 66.17 79.8983 65.5823C79.1636 64.9945 77.8852 64.5096 76.0631 64.1275L71.2141 63.1136C68.4222 62.5259 66.3356 61.5414 64.9543 60.1601C63.6025 58.7495 62.9266 56.898 62.9266 54.6057C62.9266 53.1657 63.2204 51.8579 63.8082 50.6824C64.396 49.5068 65.2188 48.4929 66.2768 47.6407C67.3642 46.7884 68.6426 46.1419 70.112 45.7011C71.6108 45.2308 73.2565 44.9957 75.0492 44.9957C76.8125 44.9957 78.4877 45.2162 80.0746 45.657C81.6616 46.0978 83.0869 46.7443 84.3506 47.5966C84.8208 47.9199 85.1294 48.3166 85.2764 48.7868C85.4527 49.257 85.4968 49.7273 85.4086 50.1975C85.3204 50.6383 85.1147 51.0203 84.7915 51.3436C84.4682 51.6669 84.0568 51.8579 83.5571 51.9167C83.0869 51.9755 82.5433 51.8285 81.9261 51.4759C80.8387 50.8587 79.7367 50.4179 78.6199 50.1534C77.5032 49.8889 76.2982 49.7566 75.0052 49.7566C73.6533 49.7566 72.4924 49.9477 71.5226 50.3297C70.5528 50.7118 69.8034 51.2555 69.2744 51.9608C68.7748 52.6367 68.525 53.4449 68.525 54.3853C68.525 55.4433 68.8777 56.2955 69.583 56.9421C70.2883 57.5592 71.4932 58.0442 73.1978 58.3968L78.0028 59.4107C80.9122 60.0279 83.0722 60.9977 84.4829 62.3202C85.9229 63.6426 86.6429 65.4059 86.6429 67.61C86.6429 69.0207 86.349 70.2991 85.7613 71.4452C85.2029 72.5914 84.38 73.5759 83.2927 74.3988C82.2347 75.2216 80.9563 75.8535 79.4575 76.2943C77.9587 76.7351 76.2688 76.9555 74.388 76.9555Z"/>
</mask>
<path d="M74.388 76.9555C73.0949 76.9555 71.8018 76.8527 70.5087 76.647C69.2157 76.4706 67.996 76.1914 66.8499 75.8094C65.7037 75.398 64.6752 74.8984 63.7641 74.3106C63.2351 73.9579 62.8678 73.5318 62.6621 73.0322C62.4563 72.5326 62.3829 72.0477 62.4416 71.5775C62.5298 71.0779 62.7208 70.6517 63.0147 70.2991C63.338 69.917 63.7347 69.6819 64.2049 69.5938C64.6752 69.5056 65.1895 69.6378 65.7478 69.9905C67.0409 70.7546 68.4075 71.313 69.8475 71.6656C71.2875 72.0183 72.801 72.1946 74.388 72.1946C76.7097 72.1946 78.3995 71.8126 79.4575 71.0485C80.5155 70.255 81.0444 69.2411 81.0444 68.0068C81.0444 66.9782 80.6624 66.17 79.8983 65.5823C79.1636 64.9945 77.8852 64.5096 76.0631 64.1275L71.2141 63.1136C68.4222 62.5259 66.3356 61.5414 64.9543 60.1601C63.6025 58.7495 62.9266 56.898 62.9266 54.6057C62.9266 53.1657 63.2204 51.8579 63.8082 50.6824C64.396 49.5068 65.2188 48.4929 66.2768 47.6407C67.3642 46.7884 68.6426 46.1419 70.112 45.7011C71.6108 45.2308 73.2565 44.9957 75.0492 44.9957C76.8125 44.9957 78.4877 45.2162 80.0746 45.657C81.6616 46.0978 83.0869 46.7443 84.3506 47.5966C84.8208 47.9199 85.1294 48.3166 85.2764 48.7868C85.4527 49.257 85.4968 49.7273 85.4086 50.1975C85.3204 50.6383 85.1147 51.0203 84.7915 51.3436C84.4682 51.6669 84.0568 51.8579 83.5571 51.9167C83.0869 51.9755 82.5433 51.8285 81.9261 51.4759C80.8387 50.8587 79.7367 50.4179 78.6199 50.1534C77.5032 49.8889 76.2982 49.7566 75.0052 49.7566C73.6533 49.7566 72.4924 49.9477 71.5226 50.3297C70.5528 50.7118 69.8034 51.2555 69.2744 51.9608C68.7748 52.6367 68.525 53.4449 68.525 54.3853C68.525 55.4433 68.8777 56.2955 69.583 56.9421C70.2883 57.5592 71.4932 58.0442 73.1978 58.3968L78.0028 59.4107C80.9122 60.0279 83.0722 60.9977 84.4829 62.3202C85.9229 63.6426 86.6429 65.4059 86.6429 67.61C86.6429 69.0207 86.349 70.2991 85.7613 71.4452C85.2029 72.5914 84.38 73.5759 83.2927 74.3988C82.2347 75.2216 80.9563 75.8535 79.4575 76.2943C77.9587 76.7351 76.2688 76.9555 74.388 76.9555Z" fill="white"/>
<path d="M70.5087 76.647L70.5953 76.1026L70.5832 76.101L70.5087 76.647ZM66.8499 75.8094L66.6637 76.3282L66.6756 76.3321L66.8499 75.8094ZM63.7641 74.3106L63.4584 74.7691L63.4654 74.7736L63.7641 74.3106ZM62.6621 73.0322L62.1525 73.242V73.242L62.6621 73.0322ZM62.4416 71.5775L61.899 71.4817L61.8966 71.4954L61.8949 71.5091L62.4416 71.5775ZM63.0147 70.2991L62.5941 69.9431L62.5914 69.9463L63.0147 70.2991ZM64.2049 69.5938L64.3065 70.1354H64.3065L64.2049 69.5938ZM65.7478 69.9905L65.4536 70.4564L65.4605 70.4608L65.4675 70.4649L65.7478 69.9905ZM79.4575 71.0485L79.7802 71.4953L79.7881 71.4893L79.4575 71.0485ZM79.8983 65.5823L79.554 66.0126L79.5623 66.019L79.8983 65.5823ZM76.0631 64.1275L76.1762 63.5882L76.1759 63.5882L76.0631 64.1275ZM71.2141 63.1136L71.1005 63.6528L71.1013 63.653L71.2141 63.1136ZM64.9543 60.1601L64.5564 60.5415L64.5647 60.5497L64.9543 60.1601ZM63.8082 50.6824L64.3011 50.9288V50.9288L63.8082 50.6824ZM66.2768 47.6407L65.9369 47.207L65.9311 47.2116L66.2768 47.6407ZM70.112 45.7011L70.2703 46.2289L70.2769 46.2268L70.112 45.7011ZM80.0746 45.657L80.2221 45.126V45.126L80.0746 45.657ZM84.3506 47.5966L84.6628 47.1425L84.6587 47.1398L84.3506 47.5966ZM85.2764 48.7868L84.7504 48.9512L84.755 48.9659L84.7604 48.9803L85.2764 48.7868ZM85.4086 50.1975L85.949 50.3055L85.9502 50.299L85.4086 50.1975ZM83.5571 51.9167L83.4928 51.3694L83.4888 51.3699L83.5571 51.9167ZM81.9261 51.4759L82.1995 50.9974L82.1981 50.9966L81.9261 51.4759ZM78.6199 50.1534L78.4929 50.6896V50.6896L78.6199 50.1534ZM71.5226 50.3297L71.7246 50.8424L71.7246 50.8424L71.5226 50.3297ZM69.2744 51.9608L68.8336 51.6301L68.8313 51.6332L69.2744 51.9608ZM69.583 56.9421L69.2106 57.3484L69.2201 57.3568L69.583 56.9421ZM73.1978 58.3968L73.3115 57.8576L73.3094 57.8572L73.1978 58.3968ZM78.0028 59.4107L78.1171 58.8717L78.1165 58.8716L78.0028 59.4107ZM84.4829 62.3202L84.106 62.7222L84.1102 62.726L84.4829 62.3202ZM85.7613 71.4452L85.2709 71.1937L85.2659 71.2039L85.7613 71.4452ZM83.2927 74.3988L82.9601 73.9593L82.9544 73.9638L83.2927 74.3988ZM79.4575 76.2943L79.613 76.8229V76.8229L79.4575 76.2943ZM74.388 76.9555V76.4045C73.1243 76.4045 71.8601 76.304 70.5953 76.1028L70.5087 76.647L70.4222 77.1911C71.7435 77.4014 73.0656 77.5066 74.388 77.5066V76.9555ZM70.5087 76.647L70.5832 76.101C69.3213 75.9289 68.1353 75.657 67.0241 75.2866L66.8499 75.8094L66.6756 76.3321C67.8567 76.7258 69.11 77.0123 70.4343 77.1929L70.5087 76.647ZM66.8499 75.8094L67.0361 75.2908C65.9247 74.8918 64.9346 74.41 64.0628 73.8476L63.7641 74.3106L63.4654 74.7736C64.4157 75.3867 65.4828 75.9041 66.6637 76.328L66.8499 75.8094ZM63.7641 74.3106L64.0698 73.8521C63.6155 73.5492 63.3286 73.2038 63.1716 72.8224L62.6621 73.0322L62.1525 73.242C62.4069 73.8598 62.8548 74.3666 63.4585 74.7691L63.7641 74.3106ZM62.6621 73.0322L63.1716 72.8224C62.9969 72.3982 62.943 72.0091 62.9884 71.6458L62.4416 71.5775L61.8949 71.5091C61.8227 72.0863 61.9157 72.667 62.1525 73.242L62.6621 73.0322ZM62.4416 71.5775L62.9843 71.6732C63.0576 71.258 63.212 70.9231 63.438 70.6518L63.0147 70.2991L62.5914 69.9463C62.2297 70.3803 62.0021 70.8977 61.899 71.4817L62.4416 71.5775ZM63.0147 70.2991L63.4354 70.655C63.6809 70.3649 63.9669 70.199 64.3065 70.1354L64.2049 69.5938L64.1034 69.0522C63.5026 69.1648 62.9951 69.4692 62.5941 69.9431L63.0147 70.2991ZM64.2049 69.5938L64.3065 70.1354C64.5952 70.0812 64.9677 70.1495 65.4536 70.4564L65.7478 69.9905L66.0421 69.5246C65.4112 69.1262 64.7551 68.93 64.1034 69.0522L64.2049 69.5938ZM65.7478 69.9905L65.4675 70.4649C66.8065 71.2561 68.2232 71.8352 69.7164 72.2009L69.8475 71.6656L69.9786 71.1304C68.5917 70.7908 67.2754 70.2531 66.0282 69.5161L65.7478 69.9905ZM69.8475 71.6656L69.7164 72.2009C71.2023 72.5647 72.7599 72.7457 74.388 72.7457V72.1946V71.6436C72.8421 71.6436 71.3728 71.4719 69.9786 71.1304L69.8475 71.6656ZM74.388 72.1946V72.7457C76.7461 72.7457 78.5796 72.3622 79.7801 71.4952L79.4575 71.0485L79.1349 70.6018C78.2194 71.2629 76.6733 71.6436 74.388 71.6436V72.1946ZM79.4575 71.0485L79.7881 71.4893C80.9733 70.6004 81.5955 69.4285 81.5955 68.0068H81.0444H80.4934C80.4934 69.0537 80.0576 69.9096 79.1269 70.6077L79.4575 71.0485ZM81.0444 68.0068H81.5955C81.5955 66.8204 81.1442 65.8454 80.2343 65.1455L79.8983 65.5823L79.5623 66.019C80.1806 66.4946 80.4934 67.136 80.4934 68.0068H81.0444ZM79.8983 65.5823L80.2425 65.152C79.4019 64.4795 78.0156 63.9739 76.1762 63.5882L76.0631 64.1275L75.95 64.6668C77.7548 65.0453 78.9253 65.5095 79.5541 66.0125L79.8983 65.5823ZM76.0631 64.1275L76.1759 63.5882L71.3268 62.5743L71.2141 63.1136L71.1013 63.653L75.9504 64.6669L76.0631 64.1275ZM71.2141 63.1136L71.3276 62.5744C68.5947 61.9991 66.6224 61.0488 65.344 59.7705L64.9543 60.1601L64.5647 60.5497C66.0488 62.0339 68.2496 63.0527 71.1005 63.6528L71.2141 63.1136ZM64.9543 60.1601L65.3522 59.7788C64.1155 58.4884 63.4776 56.7823 63.4776 54.6057H62.9266H62.3755C62.3755 57.0137 63.0895 59.0106 64.5565 60.5414L64.9543 60.1601ZM62.9266 54.6057H63.4776C63.4776 53.2429 63.7551 52.0207 64.3011 50.9288L63.8082 50.6824L63.3153 50.436C62.6858 51.6951 62.3755 53.0885 62.3755 54.6057H62.9266ZM63.8082 50.6824L64.3011 50.9288C64.8522 49.8264 65.624 48.8742 66.6225 48.0698L66.2768 47.6407L65.9311 47.2116C64.8137 48.1117 63.9397 49.1873 63.3153 50.436L63.8082 50.6824ZM66.2768 47.6407L66.6167 48.0744C67.6443 47.269 68.8595 46.6521 70.2703 46.2288L70.112 45.7011L69.9537 45.1733C68.4256 45.6317 67.0841 46.3079 65.9369 47.207L66.2768 47.6407ZM70.112 45.7011L70.2769 46.2268C71.7154 45.7755 73.3047 45.5468 75.0492 45.5468V44.9957V44.4447C73.2084 44.4447 71.5062 44.6862 69.947 45.1753L70.112 45.7011ZM75.0492 44.9957V45.5468C76.7662 45.5468 78.3915 45.7613 79.9272 46.1879L80.0746 45.657L80.2221 45.126C78.5839 44.671 76.8589 44.4447 75.0492 44.4447V44.9957ZM80.0746 45.657L79.9272 46.1879C81.4615 46.6141 82.8318 47.2369 84.0425 48.0535L84.3506 47.5966L84.6587 47.1398C83.342 46.2517 81.8617 45.5815 80.2221 45.126L80.0746 45.657ZM84.3506 47.5966L84.0385 48.0507C84.4238 48.3156 84.6459 48.6169 84.7504 48.9512L85.2764 48.7868L85.8023 48.6225C85.6129 48.0164 85.2179 47.5241 84.6628 47.1425L84.3506 47.5966ZM85.2764 48.7868L84.7604 48.9803C84.9033 49.3613 84.9357 49.7296 84.867 50.0959L85.4086 50.1975L85.9502 50.299C86.0578 49.725 86.0021 49.1528 85.7923 48.5934L85.2764 48.7868ZM85.4086 50.1975L84.8683 50.0894C84.8018 50.4216 84.6496 50.7062 84.4018 50.954L84.7915 51.3436L85.1811 51.7333C85.5799 51.3344 85.8391 50.8549 85.9489 50.3055L85.4086 50.1975ZM84.7915 51.3436L84.4018 50.954C84.1751 51.1807 83.8824 51.3236 83.4928 51.3694L83.5571 51.9167L83.6215 52.4639C84.2311 52.3922 84.7613 52.153 85.1811 51.7333L84.7915 51.3436ZM83.5571 51.9167L83.4888 51.3699C83.1829 51.4081 82.7623 51.3191 82.1995 50.9974L81.9261 51.4759L81.6527 51.9543C82.3242 52.338 82.991 52.5428 83.6255 52.4635L83.5571 51.9167ZM81.9261 51.4759L82.1981 50.9966C81.0694 50.356 79.9188 49.8947 78.7469 49.6172L78.6199 50.1534L78.4929 50.6896C79.5546 50.941 80.6081 51.3614 81.6541 51.9551L81.9261 51.4759ZM78.6199 50.1534L78.7469 49.6172C77.5837 49.3417 76.3357 49.2056 75.0051 49.2056V49.7566V50.3077C76.2608 50.3077 77.4226 50.4361 78.4929 50.6896L78.6199 50.1534ZM75.0051 49.7566V49.2056C73.6037 49.2056 72.3708 49.4034 71.3207 49.817L71.5226 50.3297L71.7246 50.8424C72.6141 50.492 73.7029 50.3077 75.0051 50.3077V49.7566ZM71.5226 50.3297L71.3207 49.817C70.2734 50.2296 69.4342 50.8294 68.8336 51.6302L69.2744 51.9608L69.7153 52.2914C70.1726 51.6815 70.8322 51.1939 71.7246 50.8424L71.5226 50.3297ZM69.2744 51.9608L68.8313 51.6332C68.2534 52.4152 67.974 53.3417 67.974 54.3853H68.525H69.0761C69.0761 53.5481 69.2963 52.8582 69.7176 52.2883L69.2744 51.9608ZM68.525 54.3853H67.974C67.974 55.5796 68.3787 56.5857 69.2107 57.3483L69.583 56.9421L69.9553 56.5359C69.3766 56.0054 69.0761 55.307 69.0761 54.3853H68.525ZM69.583 56.9421L69.2201 57.3568C70.0353 58.07 71.3558 58.5784 73.0861 58.9364L73.1978 58.3968L73.3094 57.8572C71.6306 57.5099 70.5413 57.0484 69.9459 56.5274L69.583 56.9421ZM73.1978 58.3968L73.084 58.936L77.889 59.9499L78.0028 59.4107L78.1165 58.8716L73.3115 57.8577L73.1978 58.3968ZM78.0028 59.4107L77.8884 59.9497C80.7482 60.5564 82.7981 61.496 84.106 62.7221L84.4829 62.3202L84.8598 61.9182C83.3464 60.4994 81.0762 59.4994 78.1171 58.8717L78.0028 59.4107ZM84.4829 62.3202L84.1102 62.726C85.4215 63.9303 86.0919 65.5385 86.0919 67.6101H86.6429H87.194C87.194 65.2734 86.4243 63.355 84.8556 61.9143L84.4829 62.3202ZM86.6429 67.6101H86.0919C86.0919 68.9417 85.8151 70.1327 85.271 71.1938L85.7613 71.4452L86.2516 71.6967C86.883 70.4655 87.194 69.0997 87.194 67.6101H86.6429ZM85.7613 71.4452L85.2659 71.2039C84.7481 72.2668 83.9833 73.185 82.9601 73.9594L83.2927 74.3988L83.6252 74.8381C84.7767 73.9667 85.6577 72.916 86.2566 71.6866L85.7613 71.4452ZM83.2927 74.3988L82.9544 73.9638C81.9591 74.7379 80.7453 75.3411 79.302 75.7657L79.4575 76.2943L79.613 76.8229C81.1672 76.3658 82.5102 75.7054 83.631 74.8337L83.2927 74.3988ZM79.4575 76.2943L79.302 75.7657C77.8627 76.189 76.2266 76.4045 74.388 76.4045V76.9555V77.5066C76.3111 77.5066 78.0546 77.2813 79.613 76.8229L79.4575 76.2943Z" fill="#FFFAF9" fill-opacity="0.5" mask="url(#path-10-outside-1_855_28545)"/>
<mask id="path-12-outside-2_855_28545" maskUnits="userSpaceOnUse" x="147.453" y="44.5147" width="30" height="33" fill="black">
<rect fill="white" x="147.453" y="44.5147" width="30" height="33"/>
<path d="M162.473 76.8674C161.562 76.8674 160.857 76.6176 160.357 76.118C159.887 75.589 159.652 74.869 159.652 73.9579V50.1534H151.056C150.292 50.1534 149.689 49.9477 149.248 49.5362C148.837 49.0954 148.631 48.5076 148.631 47.7729C148.631 47.0088 148.837 46.4358 149.248 46.0537C149.689 45.6423 150.292 45.4366 151.056 45.4366H173.89C174.655 45.4366 175.242 45.6423 175.654 46.0537C176.095 46.4358 176.315 47.0088 176.315 47.7729C176.315 48.5076 176.095 49.0954 175.654 49.5362C175.242 49.9477 174.655 50.1534 173.89 50.1534H165.294V73.9579C165.294 74.869 165.059 75.589 164.589 76.118C164.119 76.6176 163.414 76.8674 162.473 76.8674Z"/>
</mask>
<path d="M162.473 76.8674C161.562 76.8674 160.857 76.6176 160.357 76.118C159.887 75.589 159.652 74.869 159.652 73.9579V50.1534H151.056C150.292 50.1534 149.689 49.9477 149.248 49.5362C148.837 49.0954 148.631 48.5076 148.631 47.7729C148.631 47.0088 148.837 46.4358 149.248 46.0537C149.689 45.6423 150.292 45.4366 151.056 45.4366H173.89C174.655 45.4366 175.242 45.6423 175.654 46.0537C176.095 46.4358 176.315 47.0088 176.315 47.7729C176.315 48.5076 176.095 49.0954 175.654 49.5362C175.242 49.9477 174.655 50.1534 173.89 50.1534H165.294V73.9579C165.294 74.869 165.059 75.589 164.589 76.118C164.119 76.6176 163.414 76.8674 162.473 76.8674Z" fill="#4B5563"/>
<path d="M160.357 76.118L159.945 76.4841L159.956 76.4962L159.968 76.5076L160.357 76.118ZM159.652 50.1534H160.203V49.6024H159.652V50.1534ZM149.248 49.5362L148.846 49.9122L148.858 49.9261L148.872 49.9391L149.248 49.5362ZM149.248 46.0537L149.623 46.4575L149.624 46.4566L149.248 46.0537ZM175.654 46.0537L175.264 46.4434L175.278 46.4573L175.293 46.4701L175.654 46.0537ZM165.294 50.1534V49.6024H164.743V50.1534H165.294ZM164.589 76.118L164.99 76.4956L164.996 76.4899L165.001 76.4841L164.589 76.118ZM162.473 76.8674V76.3163C161.664 76.3163 161.115 76.097 160.747 75.7283L160.357 76.118L159.968 76.5076C160.598 77.1381 161.46 77.4184 162.473 77.4184V76.8674ZM160.357 76.118L160.769 75.7519C160.412 75.35 160.203 74.7738 160.203 73.9579H159.652H159.101C159.101 74.9641 159.362 75.8279 159.945 76.4841L160.357 76.118ZM159.652 73.9579H160.203V50.1534H159.652H159.101V73.9579H159.652ZM159.652 50.1534V49.6024H151.056V50.1534V50.7044H159.652V50.1534ZM151.056 50.1534V49.6024C150.392 49.6024 149.938 49.4261 149.624 49.1334L149.248 49.5362L148.872 49.9391C149.44 50.4693 150.191 50.7044 151.056 50.7044V50.1534ZM149.248 49.5362L149.651 49.1603C149.355 48.8428 149.182 48.4002 149.182 47.7729H148.631H148.08C148.08 48.6151 148.319 49.3481 148.846 49.9122L149.248 49.5362ZM148.631 47.7729H149.182C149.182 47.1047 149.36 46.7018 149.623 46.4575L149.248 46.0537L148.873 45.6499C148.314 46.1697 148.08 46.913 148.08 47.7729H148.631ZM149.248 46.0537L149.624 46.4566C149.938 46.1639 150.392 45.9876 151.056 45.9876V45.4366V44.8855C150.191 44.8855 149.44 45.1207 148.872 45.6509L149.248 46.0537ZM151.056 45.4366V45.9876H173.89V45.4366V44.8855H151.056V45.4366ZM173.89 45.4366V45.9876C174.556 45.9876 174.985 46.1646 175.264 46.4434L175.654 46.0537L176.043 45.6641C175.499 45.1199 174.753 44.8855 173.89 44.8855V45.4366ZM175.654 46.0537L175.293 46.4701C175.578 46.7173 175.764 47.116 175.764 47.7729H176.315H176.866C176.866 46.9017 176.611 46.1542 176.015 45.6373L175.654 46.0537ZM176.315 47.7729H175.764C175.764 48.3896 175.583 48.8274 175.264 49.1466L175.654 49.5362L176.043 49.9259C176.606 49.3634 176.866 48.6257 176.866 47.7729H176.315ZM175.654 49.5362L175.264 49.1466C174.985 49.4253 174.556 49.6024 173.89 49.6024V50.1534V50.7044C174.753 50.7044 175.499 50.47 176.043 49.9259L175.654 49.5362ZM173.89 50.1534V49.6024H165.294V50.1534V50.7044H173.89V50.1534ZM165.294 50.1534H164.743V73.9579H165.294H165.845V50.1534H165.294ZM165.294 73.9579H164.743C164.743 74.7738 164.534 75.35 164.177 75.7519L164.589 76.118L165.001 76.4841C165.584 75.8279 165.845 74.9641 165.845 73.9579H165.294ZM164.589 76.118L164.188 75.7403C163.856 76.0931 163.32 76.3163 162.473 76.3163V76.8674V77.4184C163.507 77.4184 164.382 77.1421 164.99 76.4956L164.589 76.118Z" fill="#FFFAF9" fill-opacity="0.5" mask="url(#path-12-outside-2_855_28545)"/>
<mask id="path-14-outside-3_855_28545" maskUnits="userSpaceOnUse" x="233.312" y="44.5147" width="33" height="33" fill="black">
<rect fill="white" x="233.312" y="44.5147" width="33" height="33"/>
<path d="M237.113 76.8674C236.408 76.8674 235.835 76.7057 235.394 76.3825C234.983 76.0592 234.733 75.6331 234.645 75.1041C234.556 74.5457 234.659 73.9285 234.953 73.2526L246.591 47.4644C246.973 46.6121 247.428 46.0096 247.957 45.657C248.516 45.2749 249.148 45.0839 249.853 45.0839C250.529 45.0839 251.131 45.2749 251.66 45.657C252.219 46.0096 252.689 46.6121 253.071 47.4644L264.753 73.2526C265.076 73.9285 265.194 74.5457 265.106 75.1041C265.017 75.6624 264.768 76.1033 264.356 76.4265C263.945 76.7204 263.401 76.8674 262.725 76.8674C261.902 76.8674 261.256 76.6763 260.785 76.2943C260.345 75.8829 259.948 75.2657 259.595 74.4428L256.73 67.7864L259.11 69.3293H240.508L242.888 67.7864L240.067 74.4428C239.685 75.2951 239.288 75.9122 238.876 76.2943C238.465 76.6763 237.877 76.8674 237.113 76.8674ZM249.765 51.564L243.593 66.2435L242.447 64.8329H257.171L256.069 66.2435L249.853 51.564H249.765Z"/>
</mask>
<path d="M237.113 76.8674C236.408 76.8674 235.835 76.7057 235.394 76.3825C234.983 76.0592 234.733 75.6331 234.645 75.1041C234.556 74.5457 234.659 73.9285 234.953 73.2526L246.591 47.4644C246.973 46.6121 247.428 46.0096 247.957 45.657C248.516 45.2749 249.148 45.0839 249.853 45.0839C250.529 45.0839 251.131 45.2749 251.66 45.657C252.219 46.0096 252.689 46.6121 253.071 47.4644L264.753 73.2526C265.076 73.9285 265.194 74.5457 265.106 75.1041C265.017 75.6624 264.768 76.1033 264.356 76.4265C263.945 76.7204 263.401 76.8674 262.725 76.8674C261.902 76.8674 261.256 76.6763 260.785 76.2943C260.345 75.8829 259.948 75.2657 259.595 74.4428L256.73 67.7864L259.11 69.3293H240.508L242.888 67.7864L240.067 74.4428C239.685 75.2951 239.288 75.9122 238.876 76.2943C238.465 76.6763 237.877 76.8674 237.113 76.8674ZM249.765 51.564L243.593 66.2435L242.447 64.8329H257.171L256.069 66.2435L249.853 51.564H249.765Z" fill="#4B5563"/>
<path d="M235.394 76.3825L235.054 76.8157L235.061 76.8214L235.068 76.8268L235.394 76.3825ZM234.645 75.1041L234.1 75.19L234.101 75.1947L234.645 75.1041ZM234.953 73.2526L234.451 73.0259L234.448 73.0329L234.953 73.2526ZM246.591 47.4644L247.093 47.691L247.094 47.6898L246.591 47.4644ZM247.957 45.657L248.263 46.1155L248.269 46.1117L247.957 45.657ZM251.66 45.657L251.338 46.1037L251.352 46.1137L251.366 46.1229L251.66 45.657ZM253.071 47.4644L252.568 47.6898L252.569 47.6917L253.071 47.4644ZM264.753 73.2526L264.251 73.48L264.256 73.4904L264.753 73.2526ZM264.356 76.4265L264.676 76.8749L264.687 76.8676L264.697 76.8598L264.356 76.4265ZM260.785 76.2943L260.409 76.6971L260.423 76.71L260.438 76.722L260.785 76.2943ZM259.595 74.4428L260.102 74.2258L260.101 74.225L259.595 74.4428ZM256.73 67.7864L257.03 67.324L255.506 66.3363L256.224 68.0042L256.73 67.7864ZM259.11 69.3293V69.8803H260.974L259.41 68.8669L259.11 69.3293ZM240.508 69.3293L240.208 68.8669L238.644 69.8803H240.508V69.3293ZM242.888 67.7864L243.395 68.0014L244.097 66.3462L242.588 67.324L242.888 67.7864ZM240.067 74.4428L240.57 74.6683L240.574 74.6579L240.067 74.4428ZM238.876 76.2943L238.502 75.8905H238.502L238.876 76.2943ZM249.765 51.564V51.013H249.399L249.257 51.3505L249.765 51.564ZM243.593 66.2435L243.166 66.591L243.745 67.3042L244.101 66.4571L243.593 66.2435ZM242.447 64.8329V64.2818H241.289L242.019 65.1803L242.447 64.8329ZM257.171 64.8329L257.605 65.1721L258.3 64.2818H257.171V64.8329ZM256.069 66.2435L255.561 66.4583L255.926 67.3207L256.503 66.5827L256.069 66.2435ZM249.853 51.564L250.36 51.3492L250.218 51.013H249.853V51.564ZM237.113 76.8674V76.3163C236.491 76.3163 236.042 76.1743 235.72 75.9381L235.394 76.3825L235.068 76.8268C235.628 77.2371 236.325 77.4184 237.113 77.4184V76.8674ZM235.394 76.3825L235.734 75.9492C235.434 75.7131 235.254 75.4106 235.188 75.0135L234.645 75.1041L234.101 75.1947C234.211 75.8555 234.531 76.4053 235.054 76.8157L235.394 76.3825ZM234.645 75.1041L235.189 75.0181C235.121 74.5904 235.194 74.0808 235.458 73.4723L234.953 73.2526L234.448 73.0329C234.125 73.7762 233.991 74.501 234.1 75.19L234.645 75.1041ZM234.953 73.2526L235.455 73.4793L247.093 47.691L246.591 47.4644L246.089 47.2377L234.451 73.0259L234.953 73.2526ZM246.591 47.4644L247.094 47.6898C247.452 46.8904 247.852 46.3896 248.263 46.1155L247.957 45.657L247.652 45.1985C247.005 45.6297 246.494 46.3338 246.088 47.239L246.591 47.4644ZM247.957 45.657L248.269 46.1117C248.731 45.7952 249.254 45.6349 249.853 45.6349V45.0839V44.5329C249.042 44.5329 248.3 44.7547 247.646 45.2022L247.957 45.657ZM249.853 45.0839V45.6349C250.418 45.6349 250.906 45.792 251.338 46.1037L251.66 45.657L251.983 45.2103C251.357 44.7578 250.64 44.5329 249.853 44.5329V45.0839ZM251.66 45.657L251.366 46.1229C251.802 46.3983 252.213 46.8971 252.568 47.6898L253.071 47.4644L253.574 47.239C253.165 46.3271 252.635 45.621 251.955 45.1911L251.66 45.657ZM253.071 47.4644L252.569 47.6917L264.251 73.48L264.753 73.2526L265.255 73.0252L253.573 47.237L253.071 47.4644ZM264.753 73.2526L264.256 73.4904C264.546 74.0979 264.627 74.6007 264.561 75.0181L265.106 75.1041L265.65 75.19C265.76 74.4907 265.606 73.7592 265.25 73.0149L264.753 73.2526ZM265.106 75.1041L264.561 75.0181C264.493 75.4512 264.309 75.7632 264.016 75.9933L264.356 76.4265L264.697 76.8598C265.227 76.4434 265.542 75.8737 265.65 75.19L265.106 75.1041ZM264.356 76.4265L264.036 75.9782C263.745 76.1861 263.324 76.3163 262.725 76.3163V76.8674V77.4184C263.478 77.4184 264.145 77.2548 264.676 76.8749L264.356 76.4265ZM262.725 76.8674V76.3163C261.984 76.3163 261.475 76.1444 261.133 75.8666L260.785 76.2943L260.438 76.722C261.037 77.2083 261.821 77.4184 262.725 77.4184V76.8674ZM260.785 76.2943L261.161 75.8915C260.797 75.5512 260.438 75.0094 260.102 74.2258L259.595 74.4428L259.089 74.6599C259.458 75.522 259.892 76.2145 260.409 76.6971L260.785 76.2943ZM259.595 74.4428L260.101 74.225L257.236 67.5685L256.73 67.7864L256.224 68.0042L259.089 74.6607L259.595 74.4428ZM256.73 67.7864L256.43 68.2488L258.811 69.7917L259.11 69.3293L259.41 68.8669L257.03 67.324L256.73 67.7864ZM259.11 69.3293V68.7782H240.508V69.3293V69.8803H259.11V69.3293ZM240.508 69.3293L240.807 69.7917L243.188 68.2488L242.888 67.7864L242.588 67.324L240.208 68.8669L240.508 69.3293ZM242.888 67.7864L242.381 67.5713L239.559 74.2278L240.067 74.4428L240.574 74.6579L243.395 68.0014L242.888 67.7864ZM240.067 74.4428L239.564 74.2174C239.195 75.0412 238.834 75.5813 238.502 75.8905L238.876 76.2943L239.251 76.6981C239.741 76.2432 240.175 75.549 240.57 74.6682L240.067 74.4428ZM238.876 76.2943L238.502 75.8905C238.224 76.1482 237.789 76.3163 237.113 76.3163V76.8674V77.4184C237.965 77.4184 238.706 77.2045 239.251 76.6981L238.876 76.2943ZM249.765 51.564L249.257 51.3505L243.085 66.0299L243.593 66.2435L244.101 66.4571L250.273 51.7776L249.765 51.564ZM243.593 66.2435L244.021 65.896L242.875 64.4854L242.447 64.8329L242.019 65.1803L243.166 66.591L243.593 66.2435ZM242.447 64.8329V65.3839H257.171V64.8329V64.2818H242.447V64.8329ZM257.171 64.8329L256.736 64.4936L255.634 65.9043L256.069 66.2435L256.503 66.5827L257.605 65.1721L257.171 64.8329ZM256.069 66.2435L256.576 66.0286L250.36 51.3492L249.853 51.564L249.346 51.7789L255.561 66.4583L256.069 66.2435ZM249.853 51.564V51.013H249.765V51.564V52.1151H249.853V51.564Z" fill="#FFFAF9" fill-opacity="0.5" mask="url(#path-14-outside-3_855_28545)"/>
<mask id="path-16-outside-4_855_28545" maskUnits="userSpaceOnUse" x="325.477" y="44.5147" width="26" height="33" fill="black">
<rect fill="white" x="325.477" y="44.5147" width="26" height="33"/>
<path d="M329.082 76.8674C328.171 76.8674 327.466 76.6176 326.966 76.118C326.496 75.589 326.261 74.869 326.261 73.9579V48.3019C326.261 47.3615 326.511 46.6562 327.011 46.186C327.51 45.6864 328.215 45.4366 329.126 45.4366H339.75C343.159 45.4366 345.79 46.2594 347.641 47.9052C349.493 49.5215 350.418 51.7991 350.418 54.738C350.418 56.6482 349.992 58.294 349.14 59.6752C348.317 61.0565 347.112 62.1144 345.525 62.8491C343.938 63.5838 342.013 63.9512 339.75 63.9512L340.147 63.29H341.602C342.807 63.29 343.85 63.5839 344.732 64.1716C345.643 64.7594 346.436 65.6851 347.112 66.9488L350.418 73.0763C350.771 73.6934 350.933 74.2959 350.903 74.8837C350.874 75.4714 350.653 75.9563 350.242 76.3384C349.831 76.691 349.228 76.8674 348.435 76.8674C347.641 76.8674 346.995 76.7057 346.495 76.3825C345.995 76.0298 345.555 75.5008 345.172 74.7955L340.72 66.5962C340.191 65.5969 339.559 64.9357 338.825 64.6124C338.119 64.2598 337.208 64.0835 336.091 64.0835H331.904V73.9579C331.904 74.869 331.669 75.589 331.198 76.118C330.728 76.6176 330.023 76.8674 329.082 76.8674ZM331.904 59.8956H338.781C340.808 59.8956 342.337 59.4842 343.365 58.6613C344.423 57.809 344.952 56.5453 344.952 54.8702C344.952 53.2245 344.423 51.9902 343.365 51.1673C342.337 50.315 340.808 49.8889 338.781 49.8889H331.904V59.8956Z"/>
</mask>
<path d="M329.082 76.8674C328.171 76.8674 327.466 76.6176 326.966 76.118C326.496 75.589 326.261 74.869 326.261 73.9579V48.3019C326.261 47.3615 326.511 46.6562 327.011 46.186C327.51 45.6864 328.215 45.4366 329.126 45.4366H339.75C343.159 45.4366 345.79 46.2594 347.641 47.9052C349.493 49.5215 350.418 51.7991 350.418 54.738C350.418 56.6482 349.992 58.294 349.14 59.6752C348.317 61.0565 347.112 62.1144 345.525 62.8491C343.938 63.5838 342.013 63.9512 339.75 63.9512L340.147 63.29H341.602C342.807 63.29 343.85 63.5839 344.732 64.1716C345.643 64.7594 346.436 65.6851 347.112 66.9488L350.418 73.0763C350.771 73.6934 350.933 74.2959 350.903 74.8837C350.874 75.4714 350.653 75.9563 350.242 76.3384C349.831 76.691 349.228 76.8674 348.435 76.8674C347.641 76.8674 346.995 76.7057 346.495 76.3825C345.995 76.0298 345.555 75.5008 345.172 74.7955L340.72 66.5962C340.191 65.5969 339.559 64.9357 338.825 64.6124C338.119 64.2598 337.208 64.0835 336.091 64.0835H331.904V73.9579C331.904 74.869 331.669 75.589 331.198 76.118C330.728 76.6176 330.023 76.8674 329.082 76.8674ZM331.904 59.8956H338.781C340.808 59.8956 342.337 59.4842 343.365 58.6613C344.423 57.809 344.952 56.5453 344.952 54.8702C344.952 53.2245 344.423 51.9902 343.365 51.1673C342.337 50.315 340.808 49.8889 338.781 49.8889H331.904V59.8956Z" fill="#4B5563"/>
<path d="M326.966 76.118L326.555 76.4841L326.565 76.4962L326.577 76.5076L326.966 76.118ZM327.011 46.186L327.388 46.5872L327.394 46.5815L327.4 46.5756L327.011 46.186ZM347.641 47.9052L347.275 48.317L347.279 48.3203L347.641 47.9052ZM349.14 59.6752L348.671 59.3858L348.667 59.3932L349.14 59.6752ZM345.525 62.8491L345.757 63.3492V63.3492L345.525 62.8491ZM339.75 63.9512L339.278 63.6677L338.777 64.5022H339.75V63.9512ZM340.147 63.29V62.7389H339.835L339.675 63.0065L340.147 63.29ZM344.732 64.1716L344.426 64.6302L344.433 64.6346L344.732 64.1716ZM347.112 66.9488L346.626 67.2087L346.627 67.2105L347.112 66.9488ZM350.418 73.0763L349.933 73.338L349.94 73.3497L350.418 73.0763ZM350.903 74.8837L351.454 74.9112L350.903 74.8837ZM350.242 76.3384L350.601 76.7568L350.609 76.7496L350.617 76.7422L350.242 76.3384ZM346.495 76.3825L346.177 76.8326L346.186 76.8391L346.196 76.8451L346.495 76.3825ZM345.172 74.7955L345.657 74.533L345.657 74.5325L345.172 74.7955ZM340.72 66.5962L340.233 66.854L340.236 66.8591L340.72 66.5962ZM338.825 64.6124L338.578 65.1053L338.59 65.1114L338.603 65.1168L338.825 64.6124ZM331.904 64.0835V63.5324H331.353V64.0835H331.904ZM331.198 76.118L331.6 76.4956L331.605 76.4899L331.61 76.4841L331.198 76.118ZM331.904 59.8956H331.353V60.4466H331.904V59.8956ZM343.365 58.6613L343.709 59.0916L343.711 59.0904L343.365 58.6613ZM343.365 51.1673L343.014 51.5916L343.02 51.597L343.027 51.6022L343.365 51.1673ZM331.904 49.8889V49.3379H331.353V49.8889H331.904ZM329.082 76.8674V76.3163C328.273 76.3163 327.725 76.097 327.356 75.7283L326.966 76.118L326.577 76.5076C327.207 77.1381 328.069 77.4184 329.082 77.4184V76.8674ZM326.966 76.118L327.378 75.7519C327.021 75.35 326.812 74.7738 326.812 73.9579H326.261H325.71C325.71 74.9641 325.971 75.8279 326.555 76.4841L326.966 76.118ZM326.261 73.9579H326.812V48.3019H326.261H325.71V73.9579H326.261ZM326.261 48.3019H326.812C326.812 47.4553 327.035 46.9192 327.388 46.5872L327.011 46.186L326.633 45.7847C325.986 46.3931 325.71 47.2677 325.71 48.3019H326.261ZM327.011 46.186L327.4 46.5756C327.769 46.2069 328.317 45.9876 329.126 45.9876V45.4366V44.8855C328.113 44.8855 327.251 45.1658 326.621 45.7963L327.011 46.186ZM329.126 45.4366V45.9876H339.75V45.4366V44.8855H329.126V45.4366ZM339.75 45.4366V45.9876C343.075 45.9876 345.557 46.7898 347.275 48.317L347.641 47.9052L348.007 47.4933C346.022 45.729 343.243 44.8855 339.75 44.8855V45.4366ZM347.641 47.9052L347.279 48.3203C348.987 49.8115 349.867 51.9241 349.867 54.738H350.418H350.969C350.969 51.6741 349.998 49.2316 348.003 47.4901L347.641 47.9052ZM350.418 54.738H349.867C349.867 56.5643 349.461 58.1059 348.671 59.3859L349.14 59.6752L349.609 59.9646C350.524 58.482 350.969 56.7321 350.969 54.738H350.418ZM349.14 59.6752L348.667 59.3932C347.905 60.6706 346.789 61.6568 345.294 62.3491L345.525 62.8491L345.757 63.3492C347.435 62.5721 348.729 61.4423 349.613 59.9572L349.14 59.6752ZM345.525 62.8491L345.294 62.3491C343.797 63.0419 341.956 63.4002 339.75 63.4002V63.9512V64.5022C342.071 64.5022 344.079 64.1258 345.757 63.3492L345.525 62.8491ZM339.75 63.9512L340.223 64.2347L340.62 63.5735L340.147 63.29L339.675 63.0065L339.278 63.6677L339.75 63.9512ZM340.147 63.29V63.841H341.602V63.29V62.7389H340.147V63.29ZM341.602 63.29V63.841C342.713 63.841 343.647 64.1107 344.426 64.6301L344.732 64.1716L345.037 63.7131C344.053 63.057 342.9 62.7389 341.602 62.7389V63.29ZM344.732 64.1716L344.433 64.6346C345.244 65.158 345.981 66.0019 346.626 67.2087L347.112 66.9488L347.598 66.6889C346.892 65.3684 346.041 64.3608 345.03 63.7086L344.732 64.1716ZM347.112 66.9488L346.627 67.2105L349.933 73.3379L350.418 73.0763L350.903 72.8146L347.597 66.6872L347.112 66.9488ZM350.418 73.0763L349.94 73.3497C350.251 73.8946 350.376 74.3935 350.353 74.8561L350.903 74.8837L351.454 74.9112C351.489 74.1982 351.291 73.4923 350.897 72.8029L350.418 73.0763ZM350.903 74.8837L350.353 74.8561C350.33 75.3081 350.168 75.6554 349.867 75.9346L350.242 76.3384L350.617 76.7422C351.139 76.2573 351.417 75.6348 351.454 74.9112L350.903 74.8837ZM350.242 76.3384L349.883 75.92C349.609 76.155 349.156 76.3163 348.435 76.3163V76.8674V77.4184C349.3 77.4184 350.052 77.2271 350.601 76.7568L350.242 76.3384ZM348.435 76.8674V76.3163C347.713 76.3163 347.18 76.1691 346.794 75.9198L346.495 76.3825L346.196 76.8451C346.81 77.2424 347.569 77.4184 348.435 77.4184V76.8674ZM346.495 76.3825L346.813 75.9323C346.401 75.6413 346.011 75.1861 345.657 74.533L345.172 74.7955L344.688 75.0579C345.098 75.8155 345.59 76.4183 346.177 76.8326L346.495 76.3825ZM345.172 74.7955L345.657 74.5325L341.204 66.3332L340.72 66.5962L340.236 66.8591L344.688 75.0584L345.172 74.7955ZM340.72 66.5962L341.207 66.3383C340.643 65.2734 339.933 64.4982 339.047 64.1081L338.825 64.6124L338.603 65.1168C339.185 65.3732 339.739 65.9205 340.233 66.854L340.72 66.5962ZM338.825 64.6124L339.071 64.1196C338.264 63.7161 337.26 63.5324 336.091 63.5324V64.0835V64.6345C337.156 64.6345 337.974 64.8034 338.578 65.1053L338.825 64.6124ZM336.091 64.0835V63.5324H331.904V64.0835V64.6345H336.091V64.0835ZM331.904 64.0835H331.353V73.9579H331.904H332.455V64.0835H331.904ZM331.904 73.9579H331.353C331.353 74.7738 331.144 75.35 330.786 75.7519L331.198 76.118L331.61 76.4841C332.193 75.8279 332.455 74.9641 332.455 73.9579H331.904ZM331.198 76.118L330.797 75.7403C330.465 76.0931 329.929 76.3163 329.082 76.3163V76.8674V77.4184C330.117 77.4184 330.991 77.1421 331.6 76.4956L331.198 76.118ZM331.904 59.8956V60.4466H338.781V59.8956V59.3446H331.904V59.8956ZM338.781 59.8956V60.4466C340.869 60.4466 342.543 60.0249 343.709 59.0916L343.365 58.6613L343.021 58.231C342.13 58.9434 340.747 59.3446 338.781 59.3446V59.8956ZM343.365 58.6613L343.711 59.0904C344.929 58.1094 345.503 56.6693 345.503 54.8702H344.952H344.401C344.401 56.4213 343.918 57.5087 343.019 58.2322L343.365 58.6613ZM344.952 54.8702H345.503C345.503 53.0974 344.926 51.6834 343.703 50.7323L343.365 51.1673L343.027 51.6022C343.92 52.2969 344.401 53.3516 344.401 54.8702H344.952ZM343.365 51.1673L343.717 50.743C342.549 49.7757 340.873 49.3379 338.781 49.3379V49.8889V50.4399C340.744 50.4399 342.124 50.8543 343.014 51.5916L343.365 51.1673ZM338.781 49.8889V49.3379H331.904V49.8889V50.4399H338.781V49.8889ZM331.904 49.8889H331.353V59.8956H331.904H332.455V49.8889H331.904Z" fill="#FFFAF9" fill-opacity="0.5" mask="url(#path-16-outside-4_855_28545)"/>
<mask id="path-18-outside-5_855_28545" maskUnits="userSpaceOnUse" x="411.091" y="43.5147" width="27" height="34" fill="black">
<rect fill="white" x="411.091" y="43.5147" width="27" height="34"/>
<path d="M424.292 76.9555C422.999 76.9555 421.706 76.8527 420.413 76.647C419.12 76.4706 417.9 76.1914 416.754 75.8094C415.608 75.398 414.579 74.8984 413.668 74.3106C413.139 73.9579 412.772 73.5318 412.566 73.0322C412.361 72.5326 412.287 72.0477 412.346 71.5775C412.434 71.0779 412.625 70.6517 412.919 70.2991C413.242 69.917 413.639 69.6819 414.109 69.5938C414.579 69.5056 415.094 69.6378 415.652 69.9905C416.945 70.7546 418.312 71.313 419.752 71.6656C421.192 72.0183 422.705 72.1946 424.292 72.1946C426.614 72.1946 428.304 71.8126 429.362 71.0485C430.42 70.255 430.949 69.2411 430.949 68.0068C430.949 66.9782 430.567 66.17 429.803 65.5823C429.068 64.9945 427.79 64.5096 425.967 64.1275L421.118 63.1136C418.326 62.5259 416.24 61.5414 414.859 60.1601C413.507 58.7495 412.831 56.898 412.831 54.6057C412.831 53.1657 413.125 51.8579 413.712 50.6824C414.3 49.5068 415.123 48.4929 416.181 47.6407C417.268 46.7884 418.547 46.1419 420.016 45.7011C421.515 45.2308 423.161 44.9957 424.954 44.9957C426.717 44.9957 428.392 45.2162 429.979 45.657C431.566 46.0978 432.991 46.7443 434.255 47.5966C434.725 47.9199 435.034 48.3166 435.181 48.7868C435.357 49.257 435.401 49.7273 435.313 50.1975C435.225 50.6383 435.019 51.0203 434.696 51.3436C434.372 51.6669 433.961 51.8579 433.461 51.9167C432.991 51.9755 432.448 51.8285 431.83 51.4759C430.743 50.8587 429.641 50.4179 428.524 50.1534C427.407 49.8889 426.203 49.7566 424.909 49.7566C423.558 49.7566 422.397 49.9477 421.427 50.3297C420.457 50.7118 419.708 51.2555 419.179 51.9608C418.679 52.6367 418.429 53.4449 418.429 54.3853C418.429 55.4433 418.782 56.2955 419.487 56.9421C420.193 57.5592 421.398 58.0442 423.102 58.3968L427.907 59.4107C430.816 60.0279 432.977 60.9977 434.387 62.3202C435.827 63.6426 436.547 65.4059 436.547 67.61C436.547 69.0207 436.253 70.2991 435.666 71.4452C435.107 72.5914 434.284 73.5759 433.197 74.3988C432.139 75.2216 430.861 75.8535 429.362 76.2943C427.863 76.7351 426.173 76.9555 424.292 76.9555Z"/>
</mask>
<path d="M424.292 76.9555C422.999 76.9555 421.706 76.8527 420.413 76.647C419.12 76.4706 417.9 76.1914 416.754 75.8094C415.608 75.398 414.579 74.8984 413.668 74.3106C413.139 73.9579 412.772 73.5318 412.566 73.0322C412.361 72.5326 412.287 72.0477 412.346 71.5775C412.434 71.0779 412.625 70.6517 412.919 70.2991C413.242 69.917 413.639 69.6819 414.109 69.5938C414.579 69.5056 415.094 69.6378 415.652 69.9905C416.945 70.7546 418.312 71.313 419.752 71.6656C421.192 72.0183 422.705 72.1946 424.292 72.1946C426.614 72.1946 428.304 71.8126 429.362 71.0485C430.42 70.255 430.949 69.2411 430.949 68.0068C430.949 66.9782 430.567 66.17 429.803 65.5823C429.068 64.9945 427.79 64.5096 425.967 64.1275L421.118 63.1136C418.326 62.5259 416.24 61.5414 414.859 60.1601C413.507 58.7495 412.831 56.898 412.831 54.6057C412.831 53.1657 413.125 51.8579 413.712 50.6824C414.3 49.5068 415.123 48.4929 416.181 47.6407C417.268 46.7884 418.547 46.1419 420.016 45.7011C421.515 45.2308 423.161 44.9957 424.954 44.9957C426.717 44.9957 428.392 45.2162 429.979 45.657C431.566 46.0978 432.991 46.7443 434.255 47.5966C434.725 47.9199 435.034 48.3166 435.181 48.7868C435.357 49.257 435.401 49.7273 435.313 50.1975C435.225 50.6383 435.019 51.0203 434.696 51.3436C434.372 51.6669 433.961 51.8579 433.461 51.9167C432.991 51.9755 432.448 51.8285 431.83 51.4759C430.743 50.8587 429.641 50.4179 428.524 50.1534C427.407 49.8889 426.203 49.7566 424.909 49.7566C423.558 49.7566 422.397 49.9477 421.427 50.3297C420.457 50.7118 419.708 51.2555 419.179 51.9608C418.679 52.6367 418.429 53.4449 418.429 54.3853C418.429 55.4433 418.782 56.2955 419.487 56.9421C420.193 57.5592 421.398 58.0442 423.102 58.3968L427.907 59.4107C430.816 60.0279 432.977 60.9977 434.387 62.3202C435.827 63.6426 436.547 65.4059 436.547 67.61C436.547 69.0207 436.253 70.2991 435.666 71.4452C435.107 72.5914 434.284 73.5759 433.197 74.3988C432.139 75.2216 430.861 75.8535 429.362 76.2943C427.863 76.7351 426.173 76.9555 424.292 76.9555Z" fill="#4B5563"/>
<path d="M420.413 76.647L420.5 76.1026L420.487 76.101L420.413 76.647ZM416.754 75.8094L416.568 76.3282L416.58 76.3321L416.754 75.8094ZM413.668 74.3106L413.363 74.7691L413.37 74.7736L413.668 74.3106ZM412.566 73.0322L412.057 73.242V73.242L412.566 73.0322ZM412.346 71.5775L411.803 71.4817L411.801 71.4954L411.799 71.5091L412.346 71.5775ZM412.919 70.2991L412.498 69.9431L412.496 69.9463L412.919 70.2991ZM414.109 69.5938L414.211 70.1354H414.211L414.109 69.5938ZM415.652 69.9905L415.358 70.4564L415.365 70.4608L415.372 70.4649L415.652 69.9905ZM429.362 71.0485L429.684 71.4953L429.692 71.4893L429.362 71.0485ZM429.803 65.5823L429.458 66.0126L429.467 66.019L429.803 65.5823ZM425.967 64.1275L426.081 63.5882L426.08 63.5882L425.967 64.1275ZM421.118 63.1136L421.005 63.6528L421.006 63.653L421.118 63.1136ZM414.859 60.1601L414.461 60.5415L414.469 60.5497L414.859 60.1601ZM413.712 50.6824L414.205 50.9288V50.9288L413.712 50.6824ZM416.181 47.6407L415.841 47.207L415.835 47.2116L416.181 47.6407ZM420.016 45.7011L420.175 46.2289L420.181 46.2268L420.016 45.7011ZM429.979 45.657L430.126 45.126V45.126L429.979 45.657ZM434.255 47.5966L434.567 47.1425L434.563 47.1398L434.255 47.5966ZM435.181 48.7868L434.655 48.9512L434.659 48.9659L434.665 48.9803L435.181 48.7868ZM435.313 50.1975L435.853 50.3055L435.855 50.299L435.313 50.1975ZM433.461 51.9167L433.397 51.3694L433.393 51.3699L433.461 51.9167ZM431.83 51.4759L432.104 50.9974L432.102 50.9966L431.83 51.4759ZM428.524 50.1534L428.397 50.6896V50.6896L428.524 50.1534ZM421.427 50.3297L421.629 50.8424L421.629 50.8424L421.427 50.3297ZM419.179 51.9608L418.738 51.6301L418.736 51.6332L419.179 51.9608ZM419.487 56.9421L419.115 57.3484L419.124 57.3568L419.487 56.9421ZM423.102 58.3968L423.216 57.8576L423.214 57.8572L423.102 58.3968ZM427.907 59.4107L428.021 58.8717L428.021 58.8716L427.907 59.4107ZM434.387 62.3202L434.01 62.7222L434.014 62.726L434.387 62.3202ZM435.666 71.4452L435.175 71.1937L435.17 71.2039L435.666 71.4452ZM433.197 74.3988L432.864 73.9593L432.859 73.9638L433.197 74.3988ZM429.362 76.2943L429.517 76.8229V76.8229L429.362 76.2943ZM424.292 76.9555V76.4045C423.029 76.4045 421.764 76.304 420.5 76.1028L420.413 76.647L420.326 77.1911C421.648 77.4014 422.97 77.5066 424.292 77.5066V76.9555ZM420.413 76.647L420.487 76.101C419.226 75.9289 418.04 75.657 416.928 75.2866L416.754 75.8094L416.58 76.3321C417.761 76.7258 419.014 77.0123 420.339 77.1929L420.413 76.647ZM416.754 75.8094L416.94 75.2908C415.829 74.8918 414.839 74.41 413.967 73.8476L413.668 74.3106L413.37 74.7736C414.32 75.3867 415.387 75.9041 416.568 76.328L416.754 75.8094ZM413.668 74.3106L413.974 73.8521C413.52 73.5492 413.233 73.2038 413.076 72.8224L412.566 73.0322L412.057 73.242C412.311 73.8598 412.759 74.3666 413.363 74.7691L413.668 74.3106ZM412.566 73.0322L413.076 72.8224C412.901 72.3982 412.847 72.0091 412.893 71.6458L412.346 71.5775L411.799 71.5091C411.727 72.0863 411.82 72.667 412.057 73.242L412.566 73.0322ZM412.346 71.5775L412.889 71.6732C412.962 71.258 413.116 70.9231 413.342 70.6518L412.919 70.2991L412.496 69.9463C412.134 70.3803 411.906 70.8977 411.803 71.4817L412.346 71.5775ZM412.919 70.2991L413.34 70.655C413.585 70.3649 413.871 70.199 414.211 70.1354L414.109 69.5938L414.008 69.0522C413.407 69.1648 412.899 69.4692 412.498 69.9431L412.919 70.2991ZM414.109 69.5938L414.211 70.1354C414.5 70.0812 414.872 70.1495 415.358 70.4564L415.652 69.9905L415.946 69.5246C415.316 69.1262 414.659 68.93 414.008 69.0522L414.109 69.5938ZM415.652 69.9905L415.372 70.4649C416.711 71.2561 418.128 71.8352 419.621 72.2009L419.752 71.6656L419.883 71.1304C418.496 70.7908 417.18 70.2531 415.932 69.5161L415.652 69.9905ZM419.752 71.6656L419.621 72.2009C421.107 72.5647 422.664 72.7457 424.292 72.7457V72.1946V71.6436C422.746 71.6436 421.277 71.4719 419.883 71.1304L419.752 71.6656ZM424.292 72.1946V72.7457C426.65 72.7457 428.484 72.3622 429.684 71.4952L429.362 71.0485L429.039 70.6018C428.124 71.2629 426.578 71.6436 424.292 71.6436V72.1946ZM429.362 71.0485L429.692 71.4893C430.878 70.6004 431.5 69.4285 431.5 68.0068H430.949H430.398C430.398 69.0537 429.962 69.9096 429.031 70.6077L429.362 71.0485ZM430.949 68.0068H431.5C431.5 66.8204 431.048 65.8454 430.139 65.1455L429.803 65.5823L429.467 66.019C430.085 66.4946 430.398 67.136 430.398 68.0068H430.949ZM429.803 65.5823L430.147 65.152C429.306 64.4795 427.92 63.9739 426.081 63.5882L425.967 64.1275L425.854 64.6668C427.659 65.0453 428.83 65.5095 429.458 66.0125L429.803 65.5823ZM425.967 64.1275L426.08 63.5882L421.231 62.5743L421.118 63.1136L421.006 63.653L425.855 64.6669L425.967 64.1275ZM421.118 63.1136L421.232 62.5744C418.499 61.9991 416.527 61.0488 415.248 59.7705L414.859 60.1601L414.469 60.5497C415.953 62.0339 418.154 63.0527 421.005 63.6528L421.118 63.1136ZM414.859 60.1601L415.256 59.7788C414.02 58.4884 413.382 56.7823 413.382 54.6057H412.831H412.28C412.28 57.0137 412.994 59.0106 414.461 60.5414L414.859 60.1601ZM412.831 54.6057H413.382C413.382 53.2429 413.659 52.0207 414.205 50.9288L413.712 50.6824L413.22 50.436C412.59 51.6951 412.28 53.0885 412.28 54.6057H412.831ZM413.712 50.6824L414.205 50.9288C414.757 49.8264 415.528 48.8742 416.527 48.0698L416.181 47.6407L415.835 47.2116C414.718 48.1117 413.844 49.1873 413.22 50.436L413.712 50.6824ZM416.181 47.6407L416.521 48.0744C417.549 47.269 418.764 46.6521 420.175 46.2288L420.016 45.7011L419.858 45.1733C418.33 45.6317 416.988 46.3079 415.841 47.207L416.181 47.6407ZM420.016 45.7011L420.181 46.2268C421.62 45.7755 423.209 45.5468 424.954 45.5468V44.9957V44.4447C423.113 44.4447 421.41 44.6862 419.851 45.1753L420.016 45.7011ZM424.954 44.9957V45.5468C426.67 45.5468 428.296 45.7613 429.831 46.1879L429.979 45.657L430.126 45.126C428.488 44.671 426.763 44.4447 424.954 44.4447V44.9957ZM429.979 45.657L429.831 46.1879C431.366 46.6141 432.736 47.2369 433.947 48.0535L434.255 47.5966L434.563 47.1398C433.246 46.2517 431.766 45.5815 430.126 45.126L429.979 45.657ZM434.255 47.5966L433.943 48.0507C434.328 48.3156 434.55 48.6169 434.655 48.9512L435.181 48.7868L435.707 48.6225C435.517 48.0164 435.122 47.5241 434.567 47.1425L434.255 47.5966ZM435.181 48.7868L434.665 48.9803C434.808 49.3613 434.84 49.7296 434.771 50.0959L435.313 50.1975L435.855 50.299C435.962 49.725 435.906 49.1528 435.697 48.5934L435.181 48.7868ZM435.313 50.1975L434.773 50.0894C434.706 50.4216 434.554 50.7062 434.306 50.954L434.696 51.3436L435.085 51.7333C435.484 51.3344 435.743 50.8549 435.853 50.3055L435.313 50.1975ZM434.696 51.3436L434.306 50.954C434.079 51.1807 433.787 51.3236 433.397 51.3694L433.461 51.9167L433.526 52.4639C434.135 52.3922 434.666 52.153 435.085 51.7333L434.696 51.3436ZM433.461 51.9167L433.393 51.3699C433.087 51.4081 432.667 51.3191 432.104 50.9974L431.83 51.4759L431.557 51.9543C432.228 52.338 432.895 52.5428 433.53 52.4635L433.461 51.9167ZM431.83 51.4759L432.102 50.9966C430.974 50.356 429.823 49.8947 428.651 49.6172L428.524 50.1534L428.397 50.6896C429.459 50.941 430.512 51.3614 431.558 51.9551L431.83 51.4759ZM428.524 50.1534L428.651 49.6172C427.488 49.3417 426.24 49.2056 424.909 49.2056V49.7566V50.3077C426.165 50.3077 427.327 50.4361 428.397 50.6896L428.524 50.1534ZM424.909 49.7566V49.2056C423.508 49.2056 422.275 49.4034 421.225 49.817L421.427 50.3297L421.629 50.8424C422.518 50.492 423.607 50.3077 424.909 50.3077V49.7566ZM421.427 50.3297L421.225 49.817C420.178 50.2296 419.339 50.8294 418.738 51.6302L419.179 51.9608L419.62 52.2914C420.077 51.6815 420.737 51.1939 421.629 50.8424L421.427 50.3297ZM419.179 51.9608L418.736 51.6332C418.158 52.4152 417.878 53.3417 417.878 54.3853H418.429H418.98C418.98 53.5481 419.201 52.8582 419.622 52.2883L419.179 51.9608ZM418.429 54.3853H417.878C417.878 55.5796 418.283 56.5857 419.115 57.3483L419.487 56.9421L419.86 56.5359C419.281 56.0054 418.98 55.307 418.98 54.3853H418.429ZM419.487 56.9421L419.124 57.3568C419.94 58.07 421.26 58.5784 422.99 58.9364L423.102 58.3968L423.214 57.8572C421.535 57.5099 420.446 57.0484 419.85 56.5274L419.487 56.9421ZM423.102 58.3968L422.988 58.936L427.793 59.9499L427.907 59.4107L428.021 58.8716L423.216 57.8577L423.102 58.3968ZM427.907 59.4107L427.793 59.9497C430.653 60.5564 432.702 61.496 434.01 62.7221L434.387 62.3202L434.764 61.9182C433.251 60.4994 430.98 59.4994 428.021 58.8717L427.907 59.4107ZM434.387 62.3202L434.014 62.726C435.326 63.9303 435.996 65.5385 435.996 67.6101H436.547H437.098C437.098 65.2734 436.329 63.355 434.76 61.9143L434.387 62.3202ZM436.547 67.6101H435.996C435.996 68.9417 435.719 70.1327 435.175 71.1938L435.666 71.4452L436.156 71.6967C436.787 70.4655 437.098 69.0997 437.098 67.6101H436.547ZM435.666 71.4452L435.17 71.2039C434.652 72.2668 433.888 73.185 432.864 73.9594L433.197 74.3988L433.529 74.8381C434.681 73.9667 435.562 72.916 436.161 71.6866L435.666 71.4452ZM433.197 74.3988L432.859 73.9638C431.863 74.7379 430.65 75.3411 429.206 75.7657L429.362 76.2943L429.517 76.8229C431.072 76.3658 432.415 75.7054 433.535 74.8337L433.197 74.3988ZM429.362 76.2943L429.206 75.7657C427.767 76.189 426.131 76.4045 424.292 76.4045V76.9555V77.5066C426.215 77.5066 427.959 77.2813 429.517 76.8229L429.362 76.2943Z" fill="#FFFAF9" fill-opacity="0.5" mask="url(#path-18-outside-5_855_28545)"/>
</g>
<defs>
<filter id="filter0_dd_855_28545" x="0.000196934" y="-2.57499" width="499.739" height="152.5" filterUnits="userSpaceOnUse" color-interpolation-filters="sRGB">
<feFlood flood-opacity="0" result="BackgroundImageFix"/>
<feColorMatrix in="SourceAlpha" type="matrix" values="0 0 0 0 0 0 0 0 0 0 0 0 0 0 0 0 0 0 127 0" result="hardAlpha"/>
<feMorphology radius="5.15" operator="erode" in="SourceAlpha" result="effect1_dropShadow_855_28545"/>
<feOffset dy="5.15"/>
<feGaussianBlur stdDeviation="3.8625"/>
<feComposite in2="hardAlpha" operator="out"/>
<feColorMatrix type="matrix" values="0 0 0 0 0 0 0 0 0 0 0 0 0 0 0 0 0 0 0.1 0"/>
<feBlend mode="normal" in2="BackgroundImageFix" result="effect1_dropShadow_855_28545"/>
<feColorMatrix in="SourceAlpha" type="matrix" values="0 0 0 0 0 0 0 0 0 0 0 0 0 0 0 0 0 0 127 0" result="hardAlpha"/>
<feMorphology radius="3.8625" operator="erode" in="SourceAlpha" result="effect2_dropShadow_855_28545"/>
<feOffset dy="12.875"/>
<feGaussianBlur stdDeviation="9.65625"/>
<feComposite in2="hardAlpha" operator="out"/>
<feColorMatrix type="matrix" values="0 0 0 0 0 0 0 0 0 0 0 0 0 0 0 0 0 0 0.1 0"/>
<feBlend mode="normal" in2="effect1_dropShadow_855_28545" result="effect2_dropShadow_855_28545"/>
<feBlend mode="normal" in="SourceGraphic" in2="effect2_dropShadow_855_28545" result="shape"/>
</filter>
<linearGradient id="paint0_linear_855_28545" x1="20.9609" y1="62.0874" x2="128.996" y2="62.0874" gradientUnits="userSpaceOnUse">
<stop stop-color="#C38C5C"/>
<stop offset="1" stop-color="#99522D"/>
</linearGradient>
</defs>
</svg>
