<svg width="41" height="41" viewBox="0 0 41 41" fill="none" xmlns="http://www.w3.org/2000/svg">
<path d="M1.09157 30.3682C3.46111 34.7272 8.91465 36.3405 13.2733 33.9719L16.5445 32.1943L18.3221 35.4654C20.7372 39.7304 26.1241 41.2729 30.4303 38.9337C34.7364 36.5944 36.3732 31.2344 34.1076 26.8874L32.3299 23.6162L35.6011 21.8386C39.8661 19.4235 41.4086 14.0366 39.0693 9.73043C36.7301 5.42424 31.37 3.78751 27.023 6.05315L23.7518 7.83076L21.9742 4.55959C19.5592 0.294598 14.1723 -1.24787 9.86609 1.09138C5.55962 3.4316 3.92316 8.79068 6.18881 13.1377L7.96642 16.4089L4.69524 18.1865C0.336572 20.555 -1.27672 26.0086 1.09157 30.3682Z" fill="url(#paint0_linear_150_35387)"/>
<defs>
<linearGradient id="paint0_linear_150_35387" x1="25.1624" y1="2.87204" x2="14.9996" y2="37.226" gradientUnits="userSpaceOnUse">
<stop stop-color="#FFF8C3"/>
<stop offset="1" stop-color="#FFEE69"/>
</linearGradient>
</defs>
</svg>
