<svg width="372" height="235" viewBox="0 0 372 235" fill="none" xmlns="http://www.w3.org/2000/svg">
<g filter="url(#filter0_dd_154_42632)">
<g clip-path="url(#clip0_154_42632)">
<rect x="20" width="331.82" height="194.65" rx="14" fill="url(#paint0_linear_154_42632)"/>
<g filter="url(#filter1_f_154_42632)">
<rect x="42.1001" y="22.0996" width="55.99" height="55.99" rx="27.995" fill="#2B7FFF" fill-opacity="0.1"/>
</g>
<g filter="url(#filter2_f_154_42632)">
<rect x="259.74" y="102.57" width="69.98" height="69.98" rx="34.99" fill="#AD46FF" fill-opacity="0.05"/>
</g>
<path d="M205.528 125.956C205.353 125.956 205.211 125.917 205.101 125.841C205.003 125.753 204.942 125.644 204.92 125.512C204.91 125.37 204.942 125.211 205.019 125.036L209.534 114.757C209.633 114.538 209.748 114.385 209.879 114.298C210.022 114.199 210.175 114.15 210.339 114.15C210.503 114.15 210.651 114.199 210.782 114.298C210.925 114.385 211.04 114.538 211.127 114.757L215.659 125.036C215.747 125.211 215.779 125.37 215.758 125.512C215.747 125.655 215.692 125.764 215.593 125.841C215.495 125.917 215.358 125.956 215.183 125.956C214.986 125.956 214.827 125.906 214.707 125.808C214.586 125.699 214.488 125.545 214.411 125.348L213.196 122.54L213.853 122.885H206.792L207.466 122.54L206.267 125.348C206.168 125.556 206.064 125.709 205.955 125.808C205.845 125.906 205.703 125.956 205.528 125.956ZM210.323 115.841L207.679 122.064L207.285 121.752H213.36L212.999 122.064L210.355 115.841H210.323ZM222.552 125.989C221.414 125.989 220.439 125.748 219.629 125.266C218.819 124.784 218.195 124.1 217.757 123.214C217.331 122.327 217.117 121.271 217.117 120.045C217.117 119.125 217.237 118.304 217.478 117.582C217.73 116.848 218.086 116.23 218.546 115.726C219.016 115.212 219.591 114.818 220.27 114.544C220.948 114.259 221.709 114.117 222.552 114.117C223.231 114.117 223.877 114.216 224.49 114.413C225.103 114.599 225.633 114.878 226.082 115.25C226.225 115.359 226.318 115.485 226.361 115.628C226.416 115.759 226.422 115.89 226.378 116.022C226.345 116.142 226.279 116.246 226.181 116.334C226.093 116.41 225.984 116.449 225.852 116.449C225.721 116.449 225.573 116.394 225.409 116.284C225.015 115.967 224.583 115.732 224.112 115.578C223.641 115.425 223.132 115.349 222.585 115.349C221.72 115.349 220.987 115.535 220.385 115.907C219.783 116.268 219.328 116.799 219.022 117.5C218.715 118.2 218.562 119.048 218.562 120.045C218.562 121.041 218.715 121.895 219.022 122.606C219.328 123.307 219.783 123.843 220.385 124.215C220.987 124.576 221.72 124.757 222.585 124.757C223.121 124.757 223.63 124.68 224.112 124.527C224.594 124.363 225.037 124.122 225.442 123.805C225.606 123.695 225.754 123.646 225.885 123.657C226.017 123.657 226.126 123.695 226.214 123.772C226.301 123.849 226.361 123.947 226.394 124.067C226.438 124.188 226.438 124.314 226.394 124.445C226.361 124.576 226.279 124.691 226.148 124.79C225.688 125.184 225.146 125.485 224.522 125.693C223.909 125.89 223.253 125.989 222.552 125.989ZM228.057 125.956C227.882 125.956 227.74 125.917 227.63 125.841C227.532 125.753 227.472 125.644 227.45 125.512C227.439 125.37 227.472 125.211 227.548 125.036L232.064 114.757C232.162 114.538 232.277 114.385 232.408 114.298C232.551 114.199 232.704 114.15 232.868 114.15C233.032 114.15 233.18 114.199 233.312 114.298C233.454 114.385 233.569 114.538 233.656 114.757L238.188 125.036C238.276 125.211 238.309 125.37 238.287 125.512C238.276 125.655 238.221 125.764 238.123 125.841C238.024 125.917 237.887 125.956 237.712 125.956C237.515 125.956 237.356 125.906 237.236 125.808C237.115 125.699 237.017 125.545 236.94 125.348L235.725 122.54L236.382 122.885H229.321L229.995 122.54L228.796 125.348C228.698 125.556 228.594 125.709 228.484 125.808C228.375 125.906 228.232 125.956 228.057 125.956ZM232.852 115.841L230.208 122.064L229.814 121.752H235.889L235.528 122.064L232.885 115.841H232.852ZM241.004 125.841C240.764 125.841 240.578 125.781 240.446 125.66C240.326 125.529 240.266 125.343 240.266 125.102V115.004C240.266 114.763 240.326 114.582 240.446 114.462C240.578 114.331 240.764 114.265 241.004 114.265H244.174C246.045 114.265 247.49 114.757 248.508 115.743C249.526 116.728 250.035 118.162 250.035 120.045C250.035 120.986 249.904 121.818 249.641 122.54C249.39 123.252 249.012 123.854 248.508 124.347C248.005 124.839 247.392 125.211 246.669 125.463C245.947 125.715 245.115 125.841 244.174 125.841H241.004ZM241.612 124.691H244.075C244.841 124.691 245.504 124.593 246.062 124.396C246.631 124.199 247.102 123.909 247.474 123.526C247.857 123.142 248.142 122.661 248.328 122.081C248.514 121.49 248.607 120.811 248.607 120.045C248.607 118.501 248.229 117.346 247.474 116.58C246.719 115.803 245.586 115.414 244.075 115.414H241.612V124.691ZM253.191 125.841C252.95 125.841 252.764 125.781 252.633 125.66C252.512 125.529 252.452 125.343 252.452 125.102V115.004C252.452 114.763 252.512 114.582 252.633 114.462C252.764 114.331 252.95 114.265 253.191 114.265H259.299C259.485 114.265 259.628 114.314 259.726 114.413C259.825 114.511 259.874 114.648 259.874 114.823C259.874 115.009 259.825 115.152 259.726 115.25C259.628 115.349 259.485 115.398 259.299 115.398H253.766V119.404H258.954C259.141 119.404 259.283 119.454 259.381 119.552C259.48 119.64 259.529 119.776 259.529 119.963C259.529 120.149 259.48 120.291 259.381 120.389C259.283 120.488 259.141 120.537 258.954 120.537H253.766V124.708H259.299C259.485 124.708 259.628 124.757 259.726 124.856C259.825 124.954 259.874 125.091 259.874 125.266C259.874 125.452 259.825 125.595 259.726 125.693C259.628 125.792 259.485 125.841 259.299 125.841H253.191ZM262.682 125.956C262.485 125.956 262.332 125.901 262.222 125.792C262.113 125.671 262.058 125.507 262.058 125.299V114.807C262.058 114.588 262.113 114.424 262.222 114.314C262.332 114.205 262.485 114.15 262.682 114.15C262.857 114.15 262.994 114.188 263.092 114.265C263.202 114.331 263.3 114.445 263.388 114.61L267.887 123.082H267.394L271.877 114.61C271.965 114.445 272.058 114.331 272.156 114.265C272.255 114.188 272.397 114.15 272.583 114.15C272.769 114.15 272.917 114.205 273.026 114.314C273.136 114.424 273.191 114.588 273.191 114.807V125.299C273.191 125.507 273.136 125.671 273.026 125.792C272.928 125.901 272.775 125.956 272.567 125.956C272.37 125.956 272.216 125.901 272.107 125.792C271.997 125.671 271.943 125.507 271.943 125.299V116.071H272.337L268.232 123.772C268.155 123.914 268.073 124.018 267.985 124.084C267.909 124.139 267.794 124.166 267.641 124.166C267.487 124.166 267.367 124.133 267.279 124.067C267.192 124.002 267.115 123.903 267.05 123.772L262.895 116.055H263.289V125.299C263.289 125.507 263.235 125.671 263.125 125.792C263.027 125.901 262.879 125.956 262.682 125.956ZM279.536 125.956C279.317 125.956 279.148 125.896 279.027 125.775C278.918 125.644 278.863 125.463 278.863 125.233V119.848L279.159 120.784L275.037 115.102C274.939 114.96 274.89 114.818 274.89 114.675C274.9 114.522 274.961 114.396 275.07 114.298C275.18 114.199 275.322 114.15 275.497 114.15C275.65 114.15 275.787 114.188 275.908 114.265C276.028 114.331 276.137 114.44 276.236 114.593L279.733 119.421H279.389L282.886 114.593C283.006 114.429 283.121 114.314 283.231 114.248C283.34 114.183 283.472 114.15 283.625 114.15C283.8 114.15 283.937 114.199 284.035 114.298C284.134 114.385 284.183 114.506 284.183 114.659C284.194 114.801 284.145 114.954 284.035 115.119L279.93 120.784L280.21 119.848V125.233C280.21 125.715 279.985 125.956 279.536 125.956Z" fill="white"/>
<path d="M95.9296 104.736C88.1079 104.736 81.9097 98.1122 81.9097 90.5421C81.9097 82.6234 88.4523 76.2983 95.9296 76.2983C99.8807 75.9034 103.153 77.187 106.793 81.3342C107.583 82.2343 107.484 82.9115 107.484 83.2103C107.385 84.0002 106.99 84.6914 106.402 85.3518L98.8933 93.1832C98.2537 93.6812 97.4667 93.8804 96.7288 93.8804C94.6135 93.8804 92.8917 92.1373 92.8917 90.0456C92.8917 88.8005 93.4329 87.6052 94.5151 86.8582L98.1033 83.704C97.0703 83.0565 96.7662 83.2103 95.6348 83.2103C92.0929 83.2103 89.0191 87.1555 89.0191 90.5421C89.0191 94.0781 91.7974 97.4291 95.2409 97.4291C97.0118 97.4291 99.5638 96.8761 100.794 95.4816C101.531 94.5851 102.565 94.1867 103.647 94.1867C105.713 94.1867 107.484 95.9298 107.484 98.0215C107.484 98.918 107.139 99.8643 106.5 100.611C103.647 103.551 99.7666 104.736 95.9296 104.736Z" fill="white"/>
<path d="M123.497 82.8136C119.449 83.011 116.083 85.8066 116.178 90.0514C116.277 94.4651 119.042 97.3286 123.497 97.6248C128.138 97.3286 130.989 94.1689 130.989 90.0514C130.792 85.6771 127.336 82.8136 123.497 82.8136ZM123.288 104.734C115.191 104.537 108.97 98.2173 109.069 89.6862C109.365 81.4312 115.993 76.0004 123.242 75.7243C126.744 75.7042 127.644 76.3953 131.446 77.5571V67.6334C131.446 65.6602 132.948 64.1514 134.854 64.1514C136.703 64.1514 138.321 65.6602 138.321 67.6334V89.6862C138.321 98.1011 131.681 104.833 123.288 104.734Z" fill="white"/>
<path d="M153.92 104.736C146.099 104.736 139.9 98.1122 139.9 90.5421C139.9 82.6234 146.443 76.2983 153.92 76.2983C157.871 75.9034 161.144 77.187 164.783 81.3342C165.573 82.2343 165.475 82.9115 165.475 83.2103C165.376 84.0002 164.981 84.6914 164.392 85.3518L156.884 93.1832C156.244 93.6812 155.457 93.8804 154.719 93.8804C152.604 93.8804 150.882 92.1373 150.882 90.0456C150.882 88.8005 151.424 87.6052 152.506 86.8582L156.094 83.704C155.061 83.0565 154.757 83.2103 153.625 83.2103C150.084 83.2103 147.01 87.1555 147.01 90.5421C147.01 94.0781 149.788 97.4291 153.232 97.4291C155.003 97.4291 157.554 96.8761 158.784 95.4816C159.522 94.5851 160.555 94.1867 161.637 94.1867C163.704 94.1867 165.475 95.9298 165.475 98.0215C165.475 98.918 165.13 99.8643 164.491 100.611C161.637 103.551 157.757 104.736 153.92 104.736Z" fill="white"/>
<path d="M167.058 89.0578C167.058 81.5549 173.089 75.5078 180.515 75.5078C187.886 75.5078 193.916 81.5549 193.916 89.0578V100.76C193.916 102.944 192.073 104.735 189.896 104.735C187.662 104.735 185.931 102.944 185.931 100.76V89.0578C185.931 85.9222 183.419 83.5146 180.515 83.5146C177.5 83.5146 175.043 85.9222 175.043 89.0578V100.76C175.043 102.944 173.256 104.735 171.023 104.735C168.901 104.735 167.058 102.944 167.058 100.76V89.0578Z" fill="white"/>
<path d="M196.484 80.8734C196.484 79.036 198.642 77.4812 200.433 77.4812C202.366 77.4812 204.679 79.036 204.679 80.8734V101.391C204.679 103.228 202.366 104.736 200.433 104.736C198.642 104.736 196.484 103.228 196.484 101.391V80.8734Z" fill="white"/>
<path d="M205.765 68.1025C205.765 70.9927 203.466 73.3358 200.631 73.3358C197.795 73.3358 195.496 70.9927 195.496 68.1025C195.496 65.2122 197.795 62.8691 200.631 62.8691C203.466 62.8691 205.765 65.2122 205.765 68.1025Z" fill="white"/>
<path d="M220.895 75.7051C213.392 75.7051 207.345 82.7229 207.345 90.1493C207.345 97.5198 213.392 104.735 220.895 104.735H228.253C230.436 104.735 232.228 102.893 232.228 100.715C232.228 98.4814 230.436 96.7504 228.253 96.7504H220.895C217.759 96.7504 215.352 93.0528 215.352 90.1493C215.352 87.1341 217.759 83.6898 220.895 83.6898H228.253C230.436 83.6898 232.228 81.903 232.228 79.6695C232.228 77.5477 230.436 75.7051 228.253 75.7051H220.895Z" fill="white"/>
<path d="M248.323 75.7061C256.339 75.7061 262.838 82.2047 262.838 90.2211C262.838 98.2375 256.339 104.736 248.323 104.736C240.306 104.736 233.808 98.2375 233.808 90.2211C233.808 82.2047 240.306 75.7061 248.323 75.7061ZM248.323 82.8155C244.233 82.8155 240.917 86.1311 240.917 90.2211C240.917 94.3111 244.233 97.6267 248.323 97.6267C252.413 97.6267 255.729 94.3111 255.729 90.2211C255.729 86.1311 252.413 82.8155 248.323 82.8155Z" fill="white"/>
<path d="M272.042 76.4951H279.278C281.306 76.4951 283.562 78.5608 283.562 80.6491C283.562 82.5808 281.898 83.9087 279.87 83.9087H273.141C272.436 83.9087 271.943 84.8882 272.778 85.5272L277.199 87.8992C283.89 92.1951 284.165 95.0767 283.438 98.5225C282.658 101.812 279.486 104.735 274.547 104.735H268.161C266.082 104.735 264.418 103.065 264.418 101.028C264.418 98.9401 266.082 97.2695 268.161 97.2695H274.828C276.287 97.1322 275.892 96.1447 275.088 95.5988L269.869 92.4913C265.766 89.7753 264.095 87.1933 264.771 83.7475C265.551 80.4062 267.796 76.8901 272.042 76.4951Z" fill="white"/>
<path d="M145.654 71.1657L151.888 67.1406C152.605 66.6995 153.212 66.4238 153.819 66.4238C154.425 66.4238 155.032 66.6995 155.749 67.1406L161.983 71.1657C163.749 72.2133 162.866 74.4188 161.101 74.4188C160.88 74.4188 160.549 74.3637 160.273 74.2534L153.819 71.9928L147.419 74.2534C147.143 74.3637 146.868 74.4188 146.592 74.4188C144.826 74.4188 143.889 72.2133 145.654 71.1657Z" fill="white"/>
</g>
<rect x="20.5" y="0.5" width="330.82" height="193.65" rx="13.5" stroke="#1E2939"/>
</g>
<defs>
<filter id="filter0_dd_154_42632" x="0" y="0" width="371.82" height="234.65" filterUnits="userSpaceOnUse" color-interpolation-filters="sRGB">
<feFlood flood-opacity="0" result="BackgroundImageFix"/>
<feColorMatrix in="SourceAlpha" type="matrix" values="0 0 0 0 0 0 0 0 0 0 0 0 0 0 0 0 0 0 127 0" result="hardAlpha"/>
<feMorphology radius="6" operator="erode" in="SourceAlpha" result="effect1_dropShadow_154_42632"/>
<feOffset dy="8"/>
<feGaussianBlur stdDeviation="5"/>
<feComposite in2="hardAlpha" operator="out"/>
<feColorMatrix type="matrix" values="0 0 0 0 0 0 0 0 0 0 0 0 0 0 0 0 0 0 0.1 0"/>
<feBlend mode="normal" in2="BackgroundImageFix" result="effect1_dropShadow_154_42632"/>
<feColorMatrix in="SourceAlpha" type="matrix" values="0 0 0 0 0 0 0 0 0 0 0 0 0 0 0 0 0 0 127 0" result="hardAlpha"/>
<feMorphology radius="5" operator="erode" in="SourceAlpha" result="effect2_dropShadow_154_42632"/>
<feOffset dy="20"/>
<feGaussianBlur stdDeviation="12.5"/>
<feComposite in2="hardAlpha" operator="out"/>
<feColorMatrix type="matrix" values="0 0 0 0 0 0 0 0 0 0 0 0 0 0 0 0 0 0 0.1 0"/>
<feBlend mode="normal" in2="effect1_dropShadow_154_42632" result="effect2_dropShadow_154_42632"/>
<feBlend mode="normal" in="SourceGraphic" in2="effect2_dropShadow_154_42632" result="shape"/>
</filter>
<filter id="filter1_f_154_42632" x="2.1001" y="-17.9004" width="135.99" height="135.99" filterUnits="userSpaceOnUse" color-interpolation-filters="sRGB">
<feFlood flood-opacity="0" result="BackgroundImageFix"/>
<feBlend mode="normal" in="SourceGraphic" in2="BackgroundImageFix" result="shape"/>
<feGaussianBlur stdDeviation="20" result="effect1_foregroundBlur_154_42632"/>
</filter>
<filter id="filter2_f_154_42632" x="195.74" y="38.5703" width="197.98" height="197.98" filterUnits="userSpaceOnUse" color-interpolation-filters="sRGB">
<feFlood flood-opacity="0" result="BackgroundImageFix"/>
<feBlend mode="normal" in="SourceGraphic" in2="BackgroundImageFix" result="shape"/>
<feGaussianBlur stdDeviation="32" result="effect1_foregroundBlur_154_42632"/>
</filter>
<linearGradient id="paint0_linear_154_42632" x1="99.6217" y1="-46.7071" x2="269.524" y2="242.926" gradientUnits="userSpaceOnUse">
<stop stop-color="#101828"/>
<stop offset="1"/>
</linearGradient>
<clipPath id="clip0_154_42632">
<rect x="20" width="331.82" height="194.65" rx="14" fill="white"/>
</clipPath>
</defs>
</svg>
